<svg width="160" height="45" viewBox="0 0 160 45" fill="none" xmlns="http://www.w3.org/2000/svg">
<path d="M138.693 22.6449H147.21C148.853 22.6434 150.428 21.9896 151.589 20.8273C152.751 19.665 153.403 18.0892 153.403 16.4462V13.1987C153.404 12.385 153.244 11.579 152.933 10.827C152.622 10.075 152.166 9.39161 151.591 8.81593C151.016 8.24025 150.333 7.78354 149.581 7.47195C148.83 7.16036 148.024 7 147.21 7H134.598V38.2841" stroke="black" stroke-width="0.5" stroke-miterlimit="10"/>
<path d="M146.664 27.0718L153.403 38.2841" stroke="black" stroke-width="0.5" stroke-miterlimit="10"/>
<path d="M138.693 22.6449H147.21C148.853 22.6434 150.428 21.9896 151.589 20.8273C152.751 19.665 153.403 18.0892 153.403 16.4462V13.1987C153.404 12.385 153.244 11.579 152.933 10.827C152.622 10.075 152.166 9.39161 151.591 8.81593C151.016 8.24025 150.333 7.78354 149.581 7.47195C148.83 7.16036 148.024 7 147.21 7H134.598V38.2841" stroke="#333333" stroke-width="12.1" stroke-linecap="round" stroke-linejoin="round"/>
<path d="M146.664 27.0718L153.403 38.2841" stroke="#333333" stroke-width="12.1" stroke-linecap="round" stroke-linejoin="round"/>
<path d="M10.1585 22.6451H18.6752C20.3182 22.6435 21.8933 21.9898 23.0546 20.8274C24.2158 19.6651 24.8681 18.0894 24.8681 16.4464V13.1988C24.8688 12.3851 24.7093 11.5792 24.3984 10.8271C24.0875 10.0751 23.6314 9.39173 23.0563 8.81605C22.4811 8.24037 21.7982 7.78366 21.0464 7.47207C20.2947 7.16049 19.4889 7.00012 18.6752 7.00012H6.06274V38.2842" stroke="#333333" stroke-width="12.1" stroke-linecap="round" stroke-linejoin="round"/>
<path d="M74.423 22.6449H82.9397C84.5827 22.6434 86.1579 21.9896 87.3191 20.8273C88.4803 19.665 89.1326 18.0892 89.1326 16.4462V13.1987C89.1333 12.385 88.9738 11.579 88.6629 10.827C88.352 10.075 87.8959 9.39161 87.3208 8.81593C86.7457 8.24025 86.0627 7.78354 85.311 7.47195C84.5592 7.16036 83.7535 7 82.9397 7H70.3273V38.2841" stroke="#333333" stroke-width="12.1" stroke-linecap="round" stroke-linejoin="round"/>
<path d="M121.253 7H102.46V38.2841H121.271" stroke="black" stroke-width="0.5" stroke-miterlimit="10"/>
<path d="M106.584 22.645H117.344" stroke="black" stroke-width="0.5" stroke-miterlimit="10"/>
<path d="M121.253 7H102.46V38.2841H121.271" stroke="#333333" stroke-width="12.1" stroke-linecap="round" stroke-linejoin="round"/>
<path d="M106.584 22.645H117.344" stroke="#333333" stroke-width="12.1" stroke-linecap="round" stroke-linejoin="round"/>
<path d="M37.6373 38.2841V13.1987C37.6373 12.3832 37.7982 11.5758 38.1108 10.8226C38.4234 10.0694 38.8816 9.38526 39.459 8.80943C40.0365 8.23359 40.7219 7.77736 41.476 7.46687C42.2301 7.15638 43.038 6.99773 43.8535 7.00002H50.2439C51.8879 7.00002 53.4645 7.65311 54.627 8.8156C55.7895 9.97808 56.4426 11.5547 56.4426 13.1987V38.2841" stroke="black" stroke-width="0.5" stroke-miterlimit="10"/>
<path d="M41.733 22.645H52.4225" stroke="black" stroke-width="0.5" stroke-miterlimit="10"/>
<path d="M37.6373 38.2841V13.1987C37.6373 12.3832 37.7982 11.5758 38.1108 10.8226C38.4234 10.0694 38.8816 9.38526 39.459 8.80943C40.0365 8.23359 40.7219 7.77736 41.476 7.46687C42.2301 7.15638 43.038 6.99773 43.8535 7.00002H50.2439C51.8879 7.00002 53.4645 7.65311 54.627 8.8156C55.7895 9.97808 56.4426 11.5547 56.4426 13.1987V38.2841" stroke="#333333" stroke-width="12.1" stroke-linecap="round" stroke-linejoin="round"/>
<path d="M41.733 22.645H52.4225" stroke="#333333" stroke-width="12.1" stroke-linecap="round" stroke-linejoin="round"/>
<path d="M138.693 22.6449H147.21C148.853 22.6434 150.428 21.9896 151.589 20.8273C152.751 19.665 153.403 18.0892 153.403 16.4462V13.1987C153.404 12.385 153.244 11.579 152.933 10.827C152.622 10.075 152.166 9.39161 151.591 8.81593C151.016 8.24025 150.333 7.78354 149.581 7.47195C148.83 7.16036 148.024 7 147.21 7H134.598V38.2841" stroke="#00003D" stroke-width="0.5" stroke-miterlimit="10"/>
<path d="M146.664 27.0718L153.403 38.2841" stroke="#00003D" stroke-width="0.5" stroke-miterlimit="10"/>
<path opacity="0.2" d="M138.693 22.6449H147.21C148.853 22.6434 150.428 21.9896 151.589 20.8273C152.751 19.665 153.403 18.0892 153.403 16.4462V13.1987C153.404 12.385 153.244 11.579 152.933 10.827C152.622 10.075 152.166 9.39161 151.591 8.81593C151.016 8.24025 150.333 7.78354 149.581 7.47195C148.83 7.16036 148.024 7 147.21 7H134.598V38.2841" stroke="#4590FF" stroke-width="11.96" stroke-linecap="round" stroke-linejoin="round"/>
<path opacity="0.2" d="M146.664 27.0719L153.403 38.2842" stroke="#4590FF" stroke-width="11.96" stroke-linecap="round" stroke-linejoin="round"/>
<path opacity="0.25" d="M138.693 22.6449H147.21C148.853 22.6434 150.428 21.9896 151.589 20.8273C152.751 19.665 153.403 18.0892 153.403 16.4462V13.1987C153.404 12.385 153.244 11.579 152.933 10.827C152.622 10.075 152.166 9.39161 151.591 8.81593C151.016 8.24025 150.333 7.78354 149.581 7.47195C148.83 7.16036 148.024 7 147.21 7H134.598V38.2841" stroke="#4595FF" stroke-width="10.16" stroke-linecap="round" stroke-linejoin="round"/>
<path opacity="0.25" d="M146.664 27.0719L153.403 38.2842" stroke="#4595FF" stroke-width="10.16" stroke-linecap="round" stroke-linejoin="round"/>
<path opacity="0.3" d="M138.693 22.6449H147.21C148.853 22.6434 150.428 21.9896 151.589 20.8273C152.751 19.665 153.403 18.0892 153.403 16.4462V13.1987C153.404 12.385 153.244 11.579 152.933 10.827C152.622 10.075 152.166 9.39161 151.591 8.81593C151.016 8.24025 150.333 7.78354 149.581 7.47195C148.83 7.16036 148.024 7 147.21 7H134.598V38.2841" stroke="#4596FF" stroke-width="5.98" stroke-linecap="round" stroke-linejoin="round"/>
<path opacity="0.3" d="M146.664 27.0719L153.403 38.2842" stroke="#4596FF" stroke-width="5.98" stroke-linecap="round" stroke-linejoin="round"/>
<path d="M138.693 22.6449H147.21C148.853 22.6434 150.428 21.9896 151.589 20.8273C152.751 19.665 153.403 18.0892 153.403 16.4462V13.1987C153.404 12.385 153.244 11.579 152.933 10.827C152.622 10.075 152.166 9.39161 151.591 8.81593C151.016 8.24025 150.333 7.78354 149.581 7.47195C148.83 7.16036 148.024 7 147.21 7H134.598V38.2841" stroke="#459BFF" stroke-width="8.37" stroke-linecap="round" stroke-linejoin="round"/>
<path d="M146.664 27.0718L153.403 38.2841" stroke="#459BFF" stroke-width="8.37" stroke-linecap="round" stroke-linejoin="round"/>
<path d="M138.693 22.6449H147.21C148.853 22.6434 150.428 21.9896 151.589 20.8273C152.751 19.665 153.403 18.0892 153.403 16.4462V13.1987C153.404 12.385 153.244 11.579 152.933 10.827C152.622 10.075 152.166 9.39161 151.591 8.81593C151.016 8.24025 150.333 7.78354 149.581 7.47195C148.83 7.16036 148.024 7 147.21 7H134.598V38.2841" stroke="#459EFF" stroke-width="6.58" stroke-linecap="round" stroke-linejoin="round"/>
<path d="M146.664 27.0718L153.403 38.2841" stroke="#459EFF" stroke-width="6.58" stroke-linecap="round" stroke-linejoin="round"/>
<path d="M138.693 22.6449H147.21C148.853 22.6434 150.428 21.9896 151.589 20.8273C152.751 19.665 153.403 18.0892 153.403 16.4462V13.1987C153.404 12.385 153.244 11.579 152.933 10.827C152.622 10.075 152.166 9.39161 151.591 8.81593C151.016 8.24025 150.333 7.78354 149.581 7.47195C148.83 7.16036 148.024 7 147.21 7H134.598V38.2841" stroke="#45A2FF" stroke-width="4.78" stroke-linecap="round" stroke-linejoin="round"/>
<path d="M146.664 27.0718L153.403 38.2841" stroke="#45A2FF" stroke-width="4.78" stroke-linecap="round" stroke-linejoin="round"/>
<path d="M138.693 22.6449H147.21C148.853 22.6434 150.428 21.9896 151.589 20.8273C152.751 19.665 153.403 18.0892 153.403 16.4462V13.1987C153.404 12.385 153.244 11.579 152.933 10.827C152.622 10.075 152.166 9.39161 151.591 8.81593C151.016 8.24025 150.333 7.78354 149.581 7.47195C148.83 7.16036 148.024 7 147.21 7H134.598V38.2841" stroke="#45C4FF" stroke-width="2.99" stroke-linecap="round" stroke-linejoin="round"/>
<path d="M146.664 27.0718L153.403 38.2841" stroke="#45C4FF" stroke-width="2.99" stroke-linecap="round" stroke-linejoin="round"/>
<path d="M138.693 22.6449H147.21C148.853 22.6434 150.428 21.9896 151.589 20.8273C152.751 19.665 153.403 18.0892 153.403 16.4462V13.1987C153.404 12.385 153.244 11.579 152.933 10.827C152.622 10.075 152.166 9.39161 151.591 8.81593C151.016 8.24025 150.333 7.78354 149.581 7.47195C148.83 7.16036 148.024 7 147.21 7H134.598V38.2841" stroke="#6CFEFF" stroke-width="1.2" stroke-linecap="round" stroke-linejoin="round"/>
<path d="M146.664 27.0718L153.403 38.2841" stroke="#6CFEFF" stroke-width="1.2" stroke-linecap="round" stroke-linejoin="round"/>
<path opacity="0.2" d="M10.1585 22.6451H18.6752C20.3182 22.6435 21.8933 21.9898 23.0546 20.8274C24.2158 19.6651 24.8681 18.0894 24.8681 16.4464V13.1988C24.8688 12.3851 24.7093 11.5792 24.3984 10.8271C24.0875 10.0751 23.6314 9.39173 23.0563 8.81605C22.4811 8.24037 21.7982 7.78366 21.0464 7.47207C20.2947 7.16049 19.4889 7.00012 18.6752 7.00012H6.06274V38.2842" stroke="#4590FF" stroke-width="11.96" stroke-linecap="round" stroke-linejoin="round"/>
<path opacity="0.25" d="M10.1585 22.6451H18.6752C20.3182 22.6435 21.8933 21.9898 23.0546 20.8274C24.2158 19.6651 24.8681 18.0894 24.8681 16.4464V13.1988C24.8688 12.3851 24.7093 11.5792 24.3984 10.8271C24.0875 10.0751 23.6314 9.39173 23.0563 8.81605C22.4811 8.24037 21.7982 7.78366 21.0464 7.47207C20.2947 7.16049 19.4889 7.00012 18.6752 7.00012H6.06274V38.2842" stroke="#4595FF" stroke-width="10.16" stroke-linecap="round" stroke-linejoin="round"/>
<path opacity="0.3" d="M10.1585 22.6451H18.6752C20.3182 22.6435 21.8933 21.9898 23.0546 20.8274C24.2158 19.6651 24.8681 18.0894 24.8681 16.4464V13.1988C24.8688 12.3851 24.7093 11.5792 24.3984 10.8271C24.0875 10.0751 23.6314 9.39173 23.0563 8.81605C22.4811 8.24037 21.7982 7.78366 21.0464 7.47207C20.2947 7.16049 19.4889 7.00012 18.6752 7.00012H6.06274V38.2842" stroke="#4596FF" stroke-width="5.98" stroke-linecap="round" stroke-linejoin="round"/>
<path d="M10.1585 22.6451H18.6752C20.3182 22.6435 21.8933 21.9898 23.0546 20.8274C24.2158 19.6651 24.8681 18.0894 24.8681 16.4464V13.1988C24.8688 12.3851 24.7093 11.5792 24.3984 10.8271C24.0875 10.0751 23.6314 9.39173 23.0563 8.81605C22.4811 8.24037 21.7982 7.78366 21.0464 7.47207C20.2947 7.16049 19.4889 7.00012 18.6752 7.00012H6.06274V38.2842" stroke="#459BFF" stroke-width="8.37" stroke-linecap="round" stroke-linejoin="round"/>
<path d="M10.1585 22.6451H18.6752C20.3182 22.6435 21.8933 21.9898 23.0546 20.8274C24.2158 19.6651 24.8681 18.0894 24.8681 16.4464V13.1988C24.8688 12.3851 24.7093 11.5792 24.3984 10.8271C24.0875 10.0751 23.6314 9.39173 23.0563 8.81605C22.4811 8.24037 21.7982 7.78366 21.0464 7.47207C20.2947 7.16049 19.4889 7.00012 18.6752 7.00012H6.06274V38.2842" stroke="#459EFF" stroke-width="6.58" stroke-linecap="round" stroke-linejoin="round"/>
<path d="M10.1585 22.6451H18.6752C20.3182 22.6435 21.8933 21.9898 23.0546 20.8274C24.2158 19.6651 24.8681 18.0894 24.8681 16.4464V13.1988C24.8688 12.3851 24.7093 11.5792 24.3984 10.8271C24.0875 10.0751 23.6314 9.39173 23.0563 8.81605C22.4811 8.24037 21.7982 7.78366 21.0464 7.47207C20.2947 7.16049 19.4889 7.00012 18.6752 7.00012H6.06274V38.2842" stroke="#45A2FF" stroke-width="4.78" stroke-linecap="round" stroke-linejoin="round"/>
<path d="M10.1585 22.6451H18.6752C20.3182 22.6435 21.8933 21.9898 23.0546 20.8274C24.2158 19.6651 24.8681 18.0894 24.8681 16.4464V13.1988C24.8688 12.3851 24.7093 11.5792 24.3984 10.8271C24.0875 10.0751 23.6314 9.39173 23.0563 8.81605C22.4811 8.24037 21.7982 7.78366 21.0464 7.47207C20.2947 7.16049 19.4889 7.00012 18.6752 7.00012H6.06274V38.2842" stroke="#45C4FF" stroke-width="2.99" stroke-linecap="round" stroke-linejoin="round"/>
<path d="M10.1585 22.6451H18.6752C20.3182 22.6435 21.8933 21.9898 23.0546 20.8274C24.2158 19.6651 24.8681 18.0894 24.8681 16.4464V13.1988C24.8688 12.3851 24.7093 11.5792 24.3984 10.8271C24.0875 10.0751 23.6314 9.39173 23.0563 8.81605C22.4811 8.24037 21.7982 7.78366 21.0464 7.47207C20.2947 7.16049 19.4889 7.00012 18.6752 7.00012H6.06274V38.2842" stroke="#6CFEFF" stroke-width="1.2" stroke-linecap="round" stroke-linejoin="round"/>
<path opacity="0.2" d="M74.423 22.6449H82.9397C84.5827 22.6434 86.1579 21.9896 87.3191 20.8273C88.4803 19.665 89.1326 18.0892 89.1326 16.4462V13.1987C89.1333 12.385 88.9738 11.579 88.6629 10.827C88.352 10.075 87.8959 9.39161 87.3208 8.81593C86.7457 8.24025 86.0627 7.78354 85.311 7.47195C84.5592 7.16036 83.7535 7 82.9397 7H70.3273V38.2841" stroke="#4590FF" stroke-width="11.96" stroke-linecap="round" stroke-linejoin="round"/>
<path opacity="0.25" d="M74.423 22.6449H82.9397C84.5827 22.6434 86.1579 21.9896 87.3191 20.8273C88.4803 19.665 89.1326 18.0892 89.1326 16.4462V13.1987C89.1333 12.385 88.9738 11.579 88.6629 10.827C88.352 10.075 87.8959 9.39161 87.3208 8.81593C86.7457 8.24025 86.0627 7.78354 85.311 7.47195C84.5592 7.16036 83.7535 7 82.9397 7H70.3273V38.2841" stroke="#4595FF" stroke-width="10.16" stroke-linecap="round" stroke-linejoin="round"/>
<path opacity="0.3" d="M74.423 22.6449H82.9397C84.5827 22.6434 86.1579 21.9896 87.3191 20.8273C88.4803 19.665 89.1326 18.0892 89.1326 16.4462V13.1987C89.1333 12.385 88.9738 11.579 88.6629 10.827C88.352 10.075 87.8959 9.39161 87.3208 8.81593C86.7457 8.24025 86.0627 7.78354 85.311 7.47195C84.5592 7.16036 83.7535 7 82.9397 7H70.3273V38.2841" stroke="#4596FF" stroke-width="5.98" stroke-linecap="round" stroke-linejoin="round"/>
<path d="M74.423 22.6449H82.9397C84.5827 22.6434 86.1579 21.9896 87.3191 20.8273C88.4803 19.665 89.1326 18.0892 89.1326 16.4462V13.1987C89.1333 12.385 88.9738 11.579 88.6629 10.827C88.352 10.075 87.8959 9.39161 87.3208 8.81593C86.7457 8.24025 86.0627 7.78354 85.311 7.47195C84.5592 7.16036 83.7535 7 82.9397 7H70.3273V38.2841" stroke="#459BFF" stroke-width="8.37" stroke-linecap="round" stroke-linejoin="round"/>
<path d="M74.423 22.6449H82.9397C84.5827 22.6434 86.1579 21.9896 87.3191 20.8273C88.4803 19.665 89.1326 18.0892 89.1326 16.4462V13.1987C89.1333 12.385 88.9738 11.579 88.6629 10.827C88.352 10.075 87.8959 9.39161 87.3208 8.81593C86.7457 8.24025 86.0627 7.78354 85.311 7.47195C84.5592 7.16036 83.7535 7 82.9397 7H70.3273V38.2841" stroke="#459EFF" stroke-width="6.58" stroke-linecap="round" stroke-linejoin="round"/>
<path d="M74.423 22.6449H82.9397C84.5827 22.6434 86.1579 21.9896 87.3191 20.8273C88.4803 19.665 89.1326 18.0892 89.1326 16.4462V13.1987C89.1333 12.385 88.9738 11.579 88.6629 10.827C88.352 10.075 87.8959 9.39161 87.3208 8.81593C86.7457 8.24025 86.0627 7.78354 85.311 7.47195C84.5592 7.16036 83.7535 7 82.9397 7H70.3273V38.2841" stroke="#45A2FF" stroke-width="4.78" stroke-linecap="round" stroke-linejoin="round"/>
<path d="M74.423 22.6449H82.9397C84.5827 22.6434 86.1579 21.9896 87.3191 20.8273C88.4803 19.665 89.1326 18.0892 89.1326 16.4462V13.1987C89.1333 12.385 88.9738 11.579 88.6629 10.827C88.352 10.075 87.8959 9.39161 87.3208 8.81593C86.7457 8.24025 86.0627 7.78354 85.311 7.47195C84.5592 7.16036 83.7535 7 82.9397 7H70.3273V38.2841" stroke="#45C4FF" stroke-width="2.99" stroke-linecap="round" stroke-linejoin="round"/>
<path d="M74.423 22.6449H82.9397C84.5827 22.6434 86.1579 21.9896 87.3191 20.8273C88.4803 19.665 89.1326 18.0892 89.1326 16.4462V13.1987C89.1333 12.385 88.9738 11.579 88.6629 10.827C88.352 10.075 87.8959 9.39161 87.3208 8.81593C86.7457 8.24025 86.0627 7.78354 85.311 7.47195C84.5592 7.16036 83.7535 7 82.9397 7H70.3273V38.2841" stroke="#6CFEFF" stroke-width="1.2" stroke-linecap="round" stroke-linejoin="round"/>
<path d="M121.253 7H102.46V38.2841H121.271" stroke="#00003D" stroke-width="0.5" stroke-miterlimit="10"/>
<path d="M106.584 22.645H117.344" stroke="#00003D" stroke-width="0.5" stroke-miterlimit="10"/>
<path opacity="0.2" d="M121.253 7H102.46V38.2841H121.271" stroke="#4590FF" stroke-width="11.96" stroke-linecap="round" stroke-linejoin="round"/>
<path opacity="0.2" d="M106.584 22.645H117.344" stroke="#4590FF" stroke-width="11.96" stroke-linecap="round" stroke-linejoin="round"/>
<path opacity="0.25" d="M121.253 7H102.46V38.2841H121.271" stroke="#4595FF" stroke-width="10.16" stroke-linecap="round" stroke-linejoin="round"/>
<path opacity="0.25" d="M106.584 22.645H117.344" stroke="#4595FF" stroke-width="10.16" stroke-linecap="round" stroke-linejoin="round"/>
<path opacity="0.3" d="M121.253 7H102.46V38.2841H121.271" stroke="#4596FF" stroke-width="5.98" stroke-linecap="round" stroke-linejoin="round"/>
<path opacity="0.3" d="M106.584 22.645H117.344" stroke="#4596FF" stroke-width="5.98" stroke-linecap="round" stroke-linejoin="round"/>
<path d="M121.253 7H102.46V38.2841H121.271" stroke="#459BFF" stroke-width="8.37" stroke-linecap="round" stroke-linejoin="round"/>
<path d="M106.584 22.645H117.344" stroke="#459BFF" stroke-width="8.37" stroke-linecap="round" stroke-linejoin="round"/>
<path d="M121.253 7H102.46V38.2841H121.271" stroke="#459EFF" stroke-width="6.58" stroke-linecap="round" stroke-linejoin="round"/>
<path d="M106.584 22.645H117.344" stroke="#459EFF" stroke-width="6.58" stroke-linecap="round" stroke-linejoin="round"/>
<path d="M121.253 7H102.46V38.2841H121.271" stroke="#45A2FF" stroke-width="4.78" stroke-linecap="round" stroke-linejoin="round"/>
<path d="M106.584 22.645H117.344" stroke="#45A2FF" stroke-width="4.78" stroke-linecap="round" stroke-linejoin="round"/>
<path d="M121.253 7H102.46V38.2841H121.271" stroke="#45C4FF" stroke-width="2.99" stroke-linecap="round" stroke-linejoin="round"/>
<path d="M106.584 22.645H117.344" stroke="#45C4FF" stroke-width="2.99" stroke-linecap="round" stroke-linejoin="round"/>
<path d="M121.253 7H102.46V38.2841H121.271" stroke="#6CFEFF" stroke-width="1.2" stroke-linecap="round" stroke-linejoin="round"/>
<path d="M106.584 22.645H117.344" stroke="#6CFEFF" stroke-width="1.2" stroke-linecap="round" stroke-linejoin="round"/>
<path d="M37.6373 38.2841V13.1987C37.6373 12.3832 37.7982 11.5758 38.1108 10.8226C38.4234 10.0694 38.8816 9.38526 39.459 8.80943C40.0365 8.23359 40.7219 7.77736 41.476 7.46687C42.2301 7.15638 43.038 6.99773 43.8535 7.00002H50.2439C51.8879 7.00002 53.4645 7.65311 54.627 8.8156C55.7895 9.97808 56.4426 11.5547 56.4426 13.1987V38.2841" stroke="#00003D" stroke-width="0.5" stroke-miterlimit="10"/>
<path d="M41.733 22.645H52.4225" stroke="#00003D" stroke-width="0.5" stroke-miterlimit="10"/>
<path opacity="0.2" d="M37.6373 38.2841V13.1987C37.6373 12.3832 37.7982 11.5758 38.1108 10.8226C38.4234 10.0694 38.8816 9.38526 39.459 8.80943C40.0365 8.23359 40.7219 7.77736 41.476 7.46687C42.2301 7.15638 43.038 6.99773 43.8535 7.00002H50.2439C51.8879 7.00002 53.4645 7.65311 54.627 8.8156C55.7895 9.97808 56.4426 11.5547 56.4426 13.1987V38.2841" stroke="#4590FF" stroke-width="11.96" stroke-linecap="round" stroke-linejoin="round"/>
<path opacity="0.2" d="M41.733 22.645H52.4225" stroke="#4590FF" stroke-width="11.96" stroke-linecap="round" stroke-linejoin="round"/>
<path opacity="0.25" d="M37.6373 38.2841V13.1987C37.6373 12.3832 37.7982 11.5758 38.1108 10.8226C38.4234 10.0694 38.8816 9.38526 39.459 8.80943C40.0365 8.23359 40.7219 7.77736 41.476 7.46687C42.2301 7.15638 43.038 6.99773 43.8535 7.00002H50.2439C51.8879 7.00002 53.4645 7.65311 54.627 8.8156C55.7895 9.97808 56.4426 11.5547 56.4426 13.1987V38.2841" stroke="#4595FF" stroke-width="10.16" stroke-linecap="round" stroke-linejoin="round"/>
<path opacity="0.25" d="M41.733 22.645H52.4225" stroke="#4595FF" stroke-width="10.16" stroke-linecap="round" stroke-linejoin="round"/>
<path opacity="0.3" d="M37.6373 38.2841V13.1987C37.6373 12.3832 37.7982 11.5758 38.1108 10.8226C38.4234 10.0694 38.8816 9.38526 39.459 8.80943C40.0365 8.23359 40.7219 7.77736 41.476 7.46687C42.2301 7.15638 43.038 6.99773 43.8535 7.00002H50.2439C51.8879 7.00002 53.4645 7.65311 54.627 8.8156C55.7895 9.97808 56.4426 11.5547 56.4426 13.1987V38.2841" stroke="#4596FF" stroke-width="5.98" stroke-linecap="round" stroke-linejoin="round"/>
<path opacity="0.3" d="M41.733 22.645H52.4225" stroke="#4596FF" stroke-width="5.98" stroke-linecap="round" stroke-linejoin="round"/>
<path d="M37.6373 38.2841V13.1987C37.6373 12.3832 37.7982 11.5758 38.1108 10.8226C38.4234 10.0694 38.8816 9.38526 39.459 8.80943C40.0365 8.23359 40.7219 7.77736 41.476 7.46687C42.2301 7.15638 43.038 6.99773 43.8535 7.00002H50.2439C51.8879 7.00002 53.4645 7.65311 54.627 8.8156C55.7895 9.97808 56.4426 11.5547 56.4426 13.1987V38.2841" stroke="#459BFF" stroke-width="8.37" stroke-linecap="round" stroke-linejoin="round"/>
<path d="M41.733 22.645H52.4225" stroke="#459BFF" stroke-width="8.37" stroke-linecap="round" stroke-linejoin="round"/>
<path d="M37.6373 38.2841V13.1987C37.6373 12.3832 37.7982 11.5758 38.1108 10.8226C38.4234 10.0694 38.8816 9.38526 39.459 8.80943C40.0365 8.23359 40.7219 7.77736 41.476 7.46687C42.2301 7.15638 43.038 6.99773 43.8535 7.00002H50.2439C51.8879 7.00002 53.4645 7.65311 54.627 8.8156C55.7895 9.97808 56.4426 11.5547 56.4426 13.1987V38.2841" stroke="#459EFF" stroke-width="6.58" stroke-linecap="round" stroke-linejoin="round"/>
<path d="M41.733 22.645H52.4225" stroke="#459EFF" stroke-width="6.58" stroke-linecap="round" stroke-linejoin="round"/>
<path d="M37.6373 38.2841V13.1987C37.6373 12.3832 37.7982 11.5758 38.1108 10.8226C38.4234 10.0694 38.8816 9.38526 39.459 8.80943C40.0365 8.23359 40.7219 7.77736 41.476 7.46687C42.2301 7.15638 43.038 6.99773 43.8535 7.00002H50.2439C51.8879 7.00002 53.4645 7.65311 54.627 8.8156C55.7895 9.97808 56.4426 11.5547 56.4426 13.1987V38.2841" stroke="#45A2FF" stroke-width="4.78" stroke-linecap="round" stroke-linejoin="round"/>
<path d="M41.733 22.645H52.4225" stroke="#45A2FF" stroke-width="4.78" stroke-linecap="round" stroke-linejoin="round"/>
<path d="M37.6373 38.2841V13.1987C37.6373 12.3832 37.7982 11.5758 38.1108 10.8226C38.4234 10.0694 38.8816 9.38526 39.459 8.80943C40.0365 8.23359 40.7219 7.77736 41.476 7.46687C42.2301 7.15638 43.038 6.99773 43.8535 7.00002H50.2439C51.8879 7.00002 53.4645 7.65311 54.627 8.8156C55.7895 9.97808 56.4426 11.5547 56.4426 13.1987V38.2841" stroke="#45C4FF" stroke-width="2.99" stroke-linecap="round" stroke-linejoin="round"/>
<path d="M41.733 22.645H52.4225" stroke="#45C4FF" stroke-width="2.99" stroke-linecap="round" stroke-linejoin="round"/>
<path d="M37.6373 38.2841V13.1987C37.6373 12.3832 37.7982 11.5758 38.1108 10.8226C38.4234 10.0694 38.8816 9.38526 39.459 8.80943C40.0365 8.23359 40.7219 7.77736 41.476 7.46687C42.2301 7.15638 43.038 6.99773 43.8535 7.00002H50.2439C51.8879 7.00002 53.4645 7.65311 54.627 8.8156C55.7895 9.97808 56.4426 11.5547 56.4426 13.1987V38.2841" stroke="#6CFEFF" stroke-width="1.2" stroke-linecap="round" stroke-linejoin="round"/>
<path d="M41.733 22.645H52.4225" stroke="#6CFEFF" stroke-width="1.2" stroke-linecap="round" stroke-linejoin="round"/>
</svg>
