<svg width="170" height="204" viewBox="0 0 170 204" fill="none" xmlns="http://www.w3.org/2000/svg">
<path d="M33.3638 46.27V92.56V46.27ZM60.3488 24.4147V92.56V24.4147ZM89.1349 37.3699V92.56V37.3699ZM116.126 124.007H88.7747C84.1128 124.002 79.5049 125.004 75.2665 126.945C71.028 128.886 67.2592 131.721 64.218 135.254L116.126 124.007ZM126.751 114.02L116.126 124.007V38.1367C116.126 30.7529 110.63 23.9209 102.63 23.9209C99.0521 23.9209 95.6204 25.342 93.0897 27.8716C90.5589 30.4012 89.1364 33.8323 89.1349 37.4105V25.2106C89.1349 17.455 83.3776 10.0479 74.7448 10.0479C70.9277 10.0479 67.267 11.5638 64.5674 14.2623C61.8678 16.9608 60.3504 20.6209 60.3488 24.438V23.613C60.3488 16.2989 54.824 10.0769 46.8592 10.0769C43.28 10.0769 39.8474 11.4987 37.3165 14.0296C34.7856 16.5605 33.3638 19.9931 33.3638 23.5723V46.27C33.3638 43.133 32.1176 40.1245 29.8994 37.9063C27.6812 35.6881 24.6727 34.4419 21.5357 34.4419C14.4423 34.4419 9.71338 40.2514 9.71338 46.7464V143.869C9.71338 171.517 31.9928 194.319 59.675 194.319C86.7065 194.319 103.02 184.913 117.88 168.438L158.123 124.733C159.422 123.323 160.125 121.463 160.083 119.546C160.04 117.628 159.257 115.802 157.896 114.45V114.45C153.773 110.355 148.221 108.021 142.411 107.941C136.6 107.861 130.986 110.041 126.751 114.02V114.02Z" stroke="#333333" stroke-width="18.8" stroke-linecap="round" stroke-linejoin="round"/>
<path opacity="0.2" d="M33.3638 46.27V92.56V46.27ZM60.3488 24.4147V92.56V24.4147ZM89.1349 37.3699V92.56V37.3699ZM116.126 124.007H88.7747C84.1128 124.002 79.5049 125.004 75.2665 126.945C71.028 128.886 67.2592 131.721 64.218 135.254L116.126 124.007ZM126.751 114.02L116.126 124.007V38.1367C116.126 30.7529 110.63 23.9209 102.63 23.9209C99.0521 23.9209 95.6204 25.342 93.0897 27.8716C90.5589 30.4012 89.1364 33.8323 89.1349 37.4105V25.2106C89.1349 17.455 83.3776 10.0479 74.7448 10.0479C70.9277 10.0479 67.267 11.5638 64.5674 14.2623C61.8678 16.9608 60.3504 20.6209 60.3488 24.438V23.613C60.3488 16.2989 54.824 10.0769 46.8592 10.0769C43.28 10.0769 39.8474 11.4987 37.3165 14.0296C34.7856 16.5605 33.3638 19.9931 33.3638 23.5723V46.27C33.3638 43.133 32.1176 40.1245 29.8994 37.9063C27.6812 35.6881 24.6727 34.4419 21.5357 34.4419C14.4423 34.4419 9.71338 40.2514 9.71338 46.7464V143.869C9.71338 171.517 31.9928 194.319 59.675 194.319C86.7065 194.319 103.02 184.913 117.88 168.438L158.123 124.733C159.422 123.323 160.125 121.463 160.083 119.546C160.04 117.628 159.257 115.802 157.896 114.45V114.45C153.773 110.355 148.221 108.021 142.411 107.941C136.6 107.861 130.986 110.041 126.751 114.02V114.02Z" stroke="white" stroke-width="19.17" stroke-linecap="round" stroke-linejoin="round"/>
<path opacity="0.25" d="M33.3638 46.27V92.56V46.27ZM60.3488 24.4147V92.56V24.4147ZM89.1349 37.3699V92.56V37.3699ZM116.126 124.007H88.7747C84.1128 124.002 79.5049 125.004 75.2665 126.945C71.028 128.886 67.2592 131.721 64.218 135.254L116.126 124.007ZM126.751 114.02L116.126 124.007V38.1367C116.126 30.7529 110.63 23.9209 102.63 23.9209C99.0521 23.9209 95.6204 25.342 93.0897 27.8716C90.5589 30.4012 89.1364 33.8323 89.1349 37.4105V25.2106C89.1349 17.455 83.3776 10.0479 74.7448 10.0479C70.9277 10.0479 67.267 11.5638 64.5674 14.2623C61.8678 16.9608 60.3504 20.6209 60.3488 24.438V23.613C60.3488 16.2989 54.824 10.0769 46.8592 10.0769C43.28 10.0769 39.8474 11.4987 37.3165 14.0296C34.7856 16.5605 33.3638 19.9931 33.3638 23.5723V46.27C33.3638 43.133 32.1176 40.1245 29.8994 37.9063C27.6812 35.6881 24.6727 34.4419 21.5357 34.4419C14.4423 34.4419 9.71338 40.2514 9.71338 46.7464V143.869C9.71338 171.517 31.9928 194.319 59.675 194.319C86.7065 194.319 103.02 184.913 117.88 168.438L158.123 124.733C159.422 123.323 160.125 121.463 160.083 119.546C160.04 117.628 159.257 115.802 157.896 114.45V114.45C153.773 110.355 148.221 108.021 142.411 107.941C136.6 107.861 130.986 110.041 126.751 114.02V114.02Z" stroke="white" stroke-width="16.29" stroke-linecap="round" stroke-linejoin="round"/>
<path opacity="0.3" d="M33.3638 46.27V92.56V46.27ZM60.3488 24.4147V92.56V24.4147ZM89.1349 37.3699V92.56V37.3699ZM116.126 124.007H88.7747C84.1128 124.002 79.5049 125.004 75.2665 126.945C71.028 128.886 67.2592 131.721 64.218 135.254L116.126 124.007ZM126.751 114.02L116.126 124.007V38.1367C116.126 30.7529 110.63 23.9209 102.63 23.9209C99.0521 23.9209 95.6204 25.342 93.0897 27.8716C90.5589 30.4012 89.1364 33.8323 89.1349 37.4105V25.2106C89.1349 17.455 83.3776 10.0479 74.7448 10.0479C70.9277 10.0479 67.267 11.5638 64.5674 14.2623C61.8678 16.9608 60.3504 20.6209 60.3488 24.438V23.613C60.3488 16.2989 54.824 10.0769 46.8592 10.0769C43.28 10.0769 39.8474 11.4987 37.3165 14.0296C34.7856 16.5605 33.3638 19.9931 33.3638 23.5723V46.27C33.3638 43.133 32.1176 40.1245 29.8994 37.9063C27.6812 35.6881 24.6727 34.4419 21.5357 34.4419C14.4423 34.4419 9.71338 40.2514 9.71338 46.7464V143.869C9.71338 171.517 31.9928 194.319 59.675 194.319C86.7065 194.319 103.02 184.913 117.88 168.438L158.123 124.733C159.422 123.323 160.125 121.463 160.083 119.546C160.04 117.628 159.257 115.802 157.896 114.45V114.45C153.773 110.355 148.221 108.021 142.411 107.941C136.6 107.861 130.986 110.041 126.751 114.02V114.02Z" stroke="white" stroke-width="9.58" stroke-linecap="round" stroke-linejoin="round"/>
<path d="M33.3638 46.27V92.56V46.27ZM60.3488 24.4147V92.56V24.4147ZM89.1349 37.3699V92.56V37.3699ZM116.126 124.007H88.7747C84.1128 124.002 79.5049 125.004 75.2665 126.945C71.028 128.886 67.2592 131.721 64.218 135.254L116.126 124.007ZM126.751 114.02L116.126 124.007V38.1367C116.126 30.7529 110.63 23.9209 102.63 23.9209C99.0521 23.9209 95.6204 25.342 93.0897 27.8716C90.5589 30.4012 89.1364 33.8323 89.1349 37.4105V25.2106C89.1349 17.455 83.3776 10.0479 74.7448 10.0479C70.9277 10.0479 67.267 11.5638 64.5674 14.2623C61.8678 16.9608 60.3504 20.6209 60.3488 24.438V23.613C60.3488 16.2989 54.824 10.0769 46.8592 10.0769C43.28 10.0769 39.8474 11.4987 37.3165 14.0296C34.7856 16.5605 33.3638 19.9931 33.3638 23.5723V46.27C33.3638 43.133 32.1176 40.1245 29.8994 37.9063C27.6812 35.6881 24.6727 34.4419 21.5357 34.4419C14.4423 34.4419 9.71338 40.2514 9.71338 46.7464V143.869C9.71338 171.517 31.9928 194.319 59.675 194.319C86.7065 194.319 103.02 184.913 117.88 168.438L158.123 124.733C159.422 123.323 160.125 121.463 160.083 119.546C160.04 117.628 159.257 115.802 157.896 114.45V114.45C153.773 110.355 148.221 108.021 142.411 107.941C136.6 107.861 130.986 110.041 126.751 114.02V114.02Z" stroke="white" stroke-width="13.42" stroke-linecap="round" stroke-linejoin="round"/>
<path d="M33.3638 46.27V92.56V46.27ZM60.3488 24.4147V92.56V24.4147ZM89.1349 37.3699V92.56V37.3699ZM116.126 124.007H88.7747C84.1128 124.002 79.5049 125.004 75.2665 126.945C71.028 128.886 67.2592 131.721 64.218 135.254L116.126 124.007ZM126.751 114.02L116.126 124.007V38.1367C116.126 30.7529 110.63 23.9209 102.63 23.9209C99.0521 23.9209 95.6204 25.342 93.0897 27.8716C90.5589 30.4012 89.1364 33.8323 89.1349 37.4105V25.2106C89.1349 17.455 83.3776 10.0479 74.7448 10.0479C70.9277 10.0479 67.267 11.5638 64.5674 14.2623C61.8678 16.9608 60.3504 20.6209 60.3488 24.438V23.613C60.3488 16.2989 54.824 10.0769 46.8592 10.0769C43.28 10.0769 39.8474 11.4987 37.3165 14.0296C34.7856 16.5605 33.3638 19.9931 33.3638 23.5723V46.27C33.3638 43.133 32.1176 40.1245 29.8994 37.9063C27.6812 35.6881 24.6727 34.4419 21.5357 34.4419C14.4423 34.4419 9.71338 40.2514 9.71338 46.7464V143.869C9.71338 171.517 31.9928 194.319 59.675 194.319C86.7065 194.319 103.02 184.913 117.88 168.438L158.123 124.733C159.422 123.323 160.125 121.463 160.083 119.546C160.04 117.628 159.257 115.802 157.896 114.45V114.45C153.773 110.355 148.221 108.021 142.411 107.941C136.6 107.861 130.986 110.041 126.751 114.02V114.02Z" stroke="white" stroke-width="10.54" stroke-linecap="round" stroke-linejoin="round"/>
<path d="M33.3638 46.27V92.56V46.27ZM60.3488 24.4147V92.56V24.4147ZM89.1349 37.3699V92.56V37.3699ZM116.126 124.007H88.7747C84.1128 124.002 79.5049 125.004 75.2665 126.945C71.028 128.886 67.2592 131.721 64.218 135.254L116.126 124.007ZM126.751 114.02L116.126 124.007V38.1367C116.126 30.7529 110.63 23.9209 102.63 23.9209C99.0521 23.9209 95.6204 25.342 93.0897 27.8716C90.5589 30.4012 89.1364 33.8323 89.1349 37.4105V25.2106C89.1349 17.455 83.3776 10.0479 74.7448 10.0479C70.9277 10.0479 67.267 11.5638 64.5674 14.2623C61.8678 16.9608 60.3504 20.6209 60.3488 24.438V23.613C60.3488 16.2989 54.824 10.0769 46.8592 10.0769C43.28 10.0769 39.8474 11.4987 37.3165 14.0296C34.7856 16.5605 33.3638 19.9931 33.3638 23.5723V46.27C33.3638 43.133 32.1176 40.1245 29.8994 37.9063C27.6812 35.6881 24.6727 34.4419 21.5357 34.4419C14.4423 34.4419 9.71338 40.2514 9.71338 46.7464V143.869C9.71338 171.517 31.9928 194.319 59.675 194.319C86.7065 194.319 103.02 184.913 117.88 168.438L158.123 124.733C159.422 123.323 160.125 121.463 160.083 119.546C160.04 117.628 159.257 115.802 157.896 114.45V114.45C153.773 110.355 148.221 108.021 142.411 107.941C136.6 107.861 130.986 110.041 126.751 114.02V114.02Z" stroke="white" stroke-width="7.67" stroke-linecap="round" stroke-linejoin="round"/>
<path d="M33.3638 46.27V92.56V46.27ZM60.3488 24.4147V92.56V24.4147ZM89.1349 37.3699V92.56V37.3699ZM116.126 124.007H88.7747C84.1128 124.002 79.5049 125.004 75.2665 126.945C71.028 128.886 67.2592 131.721 64.218 135.254L116.126 124.007ZM126.751 114.02L116.126 124.007V38.1367C116.126 30.7529 110.63 23.9209 102.63 23.9209C99.0521 23.9209 95.6204 25.342 93.0897 27.8716C90.5589 30.4012 89.1364 33.8323 89.1349 37.4105V25.2106C89.1349 17.455 83.3776 10.0479 74.7448 10.0479C70.9277 10.0479 67.267 11.5638 64.5674 14.2623C61.8678 16.9608 60.3504 20.6209 60.3488 24.438V23.613C60.3488 16.2989 54.824 10.0769 46.8592 10.0769C43.28 10.0769 39.8474 11.4987 37.3165 14.0296C34.7856 16.5605 33.3638 19.9931 33.3638 23.5723V46.27C33.3638 43.133 32.1176 40.1245 29.8994 37.9063C27.6812 35.6881 24.6727 34.4419 21.5357 34.4419C14.4423 34.4419 9.71338 40.2514 9.71338 46.7464V143.869C9.71338 171.517 31.9928 194.319 59.675 194.319C86.7065 194.319 103.02 184.913 117.88 168.438L158.123 124.733C159.422 123.323 160.125 121.463 160.083 119.546C160.04 117.628 159.257 115.802 157.896 114.45V114.45C153.773 110.355 148.221 108.021 142.411 107.941C136.6 107.861 130.986 110.041 126.751 114.02V114.02Z" stroke="white" stroke-width="4.79" stroke-linecap="round" stroke-linejoin="round"/>
<path d="M33.3638 46.27V92.56V46.27ZM60.3488 24.4147V92.56V24.4147ZM89.1349 37.3699V92.56V37.3699ZM116.126 124.007H88.7747C84.1128 124.002 79.5049 125.004 75.2665 126.945C71.028 128.886 67.2592 131.721 64.218 135.254L116.126 124.007ZM126.751 114.02L116.126 124.007V38.1367C116.126 30.7529 110.63 23.9209 102.63 23.9209C99.0521 23.9209 95.6204 25.342 93.0897 27.8716C90.5589 30.4012 89.1364 33.8323 89.1349 37.4105V25.2106C89.1349 17.455 83.3776 10.0479 74.7448 10.0479C70.9277 10.0479 67.267 11.5638 64.5674 14.2623C61.8678 16.9608 60.3504 20.6209 60.3488 24.438V23.613C60.3488 16.2989 54.824 10.0769 46.8592 10.0769C43.28 10.0769 39.8474 11.4987 37.3165 14.0296C34.7856 16.5605 33.3638 19.9931 33.3638 23.5723V46.27C33.3638 43.133 32.1176 40.1245 29.8994 37.9063C27.6812 35.6881 24.6727 34.4419 21.5357 34.4419C14.4423 34.4419 9.71338 40.2514 9.71338 46.7464V143.869C9.71338 171.517 31.9928 194.319 59.675 194.319C86.7065 194.319 103.02 184.913 117.88 168.438L158.123 124.733C159.422 123.323 160.125 121.463 160.083 119.546C160.04 117.628 159.257 115.802 157.896 114.45V114.45C153.773 110.355 148.221 108.021 142.411 107.941C136.6 107.861 130.986 110.041 126.751 114.02V114.02Z" stroke="white" stroke-width="1.92" stroke-linecap="round" stroke-linejoin="round"/>
</svg>
