<svg width="165" height="177" viewBox="0 0 165 177" fill="none" xmlns="http://www.w3.org/2000/svg">
<path d="M107.321 98.4765C99.3871 98.4765 91.7786 101.628 86.1688 107.238C80.559 112.848 77.4075 120.456 77.4075 128.39V137.232M26.9811 89.7681C22.4775 89.7681 18.1582 87.979 14.9737 84.7944C11.7891 81.6098 10 77.2906 10 72.7869V50.5715C10.0015 46.0688 11.7913 41.7511 14.9757 38.5677C18.1601 35.3844 22.4785 33.5961 26.9811 33.5961C31.4833 33.5961 35.801 35.3846 38.9845 38.5681C42.168 41.7516 43.9565 46.0693 43.9565 50.5715V72.7869C43.9572 75.0167 43.5187 77.2247 42.6659 79.2849C41.8132 81.3451 40.5629 83.2171 38.9865 84.7941C37.4102 86.371 35.5386 87.6219 33.4786 88.4753C31.4187 89.3288 29.2108 89.7681 26.9811 89.7681V89.7681ZM155.371 92.6728C155.363 84.4471 152.089 76.5612 146.268 70.7491C140.447 64.937 132.556 61.6746 124.331 61.6792H50.0332C48.4215 61.6792 46.8759 62.3194 45.7363 63.459C44.5967 64.5986 43.9565 66.1443 43.9565 67.7559V71.5553C43.9565 78.6953 46.7928 85.5428 51.8415 90.5915C56.8902 95.6402 63.7377 98.4765 70.8776 98.4765H107.745L155.371 92.6728ZM80.1031 28.8323V61.6792V28.8323ZM147.627 72.2176V27.4439C147.667 25.3843 147.295 23.3375 146.535 21.4231C145.774 19.5087 144.64 17.7653 143.197 16.2946C141.755 14.824 140.034 13.6558 138.134 12.8582C136.235 12.0607 134.196 11.65 132.136 11.65C130.076 11.65 128.037 12.0607 126.137 12.8582C124.238 13.6558 122.517 14.824 121.074 16.2946C119.632 17.7653 118.497 19.5087 117.737 21.4231C116.976 23.3375 116.605 25.3843 116.645 27.4439V28.8323C116.645 23.9866 114.72 19.3394 111.293 15.9129C107.867 12.4865 103.22 10.5615 98.3739 10.5615C93.5282 10.5615 88.8809 12.4865 85.4545 15.9129C82.028 19.3394 80.1031 23.9866 80.1031 28.8323V28.6348C80.1031 23.8415 78.1989 19.2445 74.8095 15.8551C71.4201 12.4657 66.8231 10.5615 62.0298 10.5615C57.2364 10.5615 52.6394 12.4657 49.25 15.8551C45.8606 19.2445 43.9565 23.8415 43.9565 28.6348V50.5715C43.8742 46.1229 42.0492 41.8844 38.8741 38.7675C35.6991 35.6506 31.4275 33.9044 26.9782 33.9044C22.5289 33.9044 18.2574 35.6506 15.0823 38.7675C11.9072 41.8844 10.0823 46.1229 10 50.5715V105.117C10 121.603 16.5491 137.414 28.2067 149.072C39.8642 160.729 55.6753 167.278 72.1615 167.278H80.7537C100.534 167.277 119.504 159.419 133.492 145.432C147.479 131.446 155.339 112.477 155.342 92.6961C155.355 85.1572 152.611 77.8736 147.627 72.2176ZM116.645 28.8323V61.6792V28.8323Z" stroke="#333333" stroke-width="18.8" stroke-linecap="round" stroke-linejoin="round"/>
<path opacity="0.2" d="M107.321 98.4765C99.3871 98.4765 91.7786 101.628 86.1688 107.238C80.559 112.848 77.4075 120.456 77.4075 128.39V137.232M26.9811 89.7681C22.4775 89.7681 18.1582 87.979 14.9737 84.7944C11.7891 81.6098 10 77.2906 10 72.7869V50.5715C10.0015 46.0688 11.7913 41.7511 14.9757 38.5677C18.1601 35.3844 22.4785 33.5961 26.9811 33.5961C31.4833 33.5961 35.801 35.3846 38.9845 38.5681C42.168 41.7516 43.9565 46.0693 43.9565 50.5715V72.7869C43.9572 75.0167 43.5187 77.2247 42.6659 79.2849C41.8132 81.3451 40.5629 83.2171 38.9865 84.7941C37.4102 86.371 35.5386 87.6219 33.4786 88.4753C31.4187 89.3288 29.2108 89.7681 26.9811 89.7681V89.7681ZM155.371 92.6728C155.363 84.4471 152.089 76.5612 146.268 70.7491C140.447 64.937 132.556 61.6746 124.331 61.6792H50.0332C48.4215 61.6792 46.8759 62.3194 45.7363 63.459C44.5967 64.5986 43.9565 66.1443 43.9565 67.7559V71.5553C43.9565 78.6953 46.7928 85.5428 51.8415 90.5915C56.8902 95.6402 63.7377 98.4765 70.8776 98.4765H107.745L155.371 92.6728ZM80.1031 28.8323V61.6792V28.8323ZM147.627 72.2176V27.4439C147.667 25.3843 147.295 23.3375 146.535 21.4231C145.774 19.5087 144.64 17.7653 143.197 16.2946C141.755 14.824 140.034 13.6558 138.134 12.8582C136.235 12.0607 134.196 11.65 132.136 11.65C130.076 11.65 128.037 12.0607 126.137 12.8582C124.238 13.6558 122.517 14.824 121.074 16.2946C119.632 17.7653 118.497 19.5087 117.737 21.4231C116.976 23.3375 116.605 25.3843 116.645 27.4439V28.8323C116.645 23.9866 114.72 19.3394 111.293 15.9129C107.867 12.4865 103.22 10.5615 98.3739 10.5615C93.5282 10.5615 88.8809 12.4865 85.4545 15.9129C82.028 19.3394 80.1031 23.9866 80.1031 28.8323V28.6348C80.1031 23.8415 78.1989 19.2445 74.8095 15.8551C71.4201 12.4657 66.8231 10.5615 62.0298 10.5615C57.2364 10.5615 52.6394 12.4657 49.25 15.8551C45.8606 19.2445 43.9565 23.8415 43.9565 28.6348V50.5715C43.8742 46.1229 42.0492 41.8844 38.8741 38.7675C35.6991 35.6506 31.4275 33.9044 26.9782 33.9044C22.5289 33.9044 18.2574 35.6506 15.0823 38.7675C11.9072 41.8844 10.0823 46.1229 10 50.5715V105.117C10 121.603 16.5491 137.414 28.2067 149.072C39.8642 160.729 55.6753 167.278 72.1615 167.278H80.7537C100.534 167.277 119.504 159.419 133.492 145.432C147.479 131.446 155.339 112.477 155.342 92.6961C155.355 85.1572 152.611 77.8736 147.627 72.2176ZM116.645 28.8323V61.6792V28.8323Z" stroke="white" stroke-width="19.17" stroke-linecap="round" stroke-linejoin="round"/>
<path opacity="0.25" d="M107.321 98.4765C99.3871 98.4765 91.7786 101.628 86.1688 107.238C80.559 112.848 77.4075 120.456 77.4075 128.39V137.232M26.9811 89.7681C22.4775 89.7681 18.1582 87.979 14.9737 84.7944C11.7891 81.6098 10 77.2906 10 72.7869V50.5715C10.0015 46.0688 11.7913 41.7511 14.9757 38.5677C18.1601 35.3844 22.4785 33.5961 26.9811 33.5961C31.4833 33.5961 35.801 35.3846 38.9845 38.5681C42.168 41.7516 43.9565 46.0693 43.9565 50.5715V72.7869C43.9572 75.0167 43.5187 77.2247 42.6659 79.2849C41.8132 81.3451 40.5629 83.2171 38.9865 84.7941C37.4102 86.371 35.5386 87.6219 33.4786 88.4753C31.4187 89.3288 29.2108 89.7681 26.9811 89.7681V89.7681ZM155.371 92.6728C155.363 84.4471 152.089 76.5612 146.268 70.7491C140.447 64.937 132.556 61.6746 124.331 61.6792H50.0332C48.4215 61.6792 46.8759 62.3194 45.7363 63.459C44.5967 64.5986 43.9565 66.1443 43.9565 67.7559V71.5553C43.9565 78.6953 46.7928 85.5428 51.8415 90.5915C56.8902 95.6402 63.7377 98.4765 70.8776 98.4765H107.745L155.371 92.6728ZM80.1031 28.8323V61.6792V28.8323ZM147.627 72.2176V27.4439C147.667 25.3843 147.295 23.3375 146.535 21.4231C145.774 19.5087 144.64 17.7653 143.197 16.2946C141.755 14.824 140.034 13.6558 138.134 12.8582C136.235 12.0607 134.196 11.65 132.136 11.65C130.076 11.65 128.037 12.0607 126.137 12.8582C124.238 13.6558 122.517 14.824 121.074 16.2946C119.632 17.7653 118.497 19.5087 117.737 21.4231C116.976 23.3375 116.605 25.3843 116.645 27.4439V28.8323C116.645 23.9866 114.72 19.3394 111.293 15.9129C107.867 12.4865 103.22 10.5615 98.3739 10.5615C93.5282 10.5615 88.8809 12.4865 85.4545 15.9129C82.028 19.3394 80.1031 23.9866 80.1031 28.8323V28.6348C80.1031 23.8415 78.1989 19.2445 74.8095 15.8551C71.4201 12.4657 66.8231 10.5615 62.0298 10.5615C57.2364 10.5615 52.6394 12.4657 49.25 15.8551C45.8606 19.2445 43.9565 23.8415 43.9565 28.6348V50.5715C43.8742 46.1229 42.0492 41.8844 38.8741 38.7675C35.6991 35.6506 31.4275 33.9044 26.9782 33.9044C22.5289 33.9044 18.2574 35.6506 15.0823 38.7675C11.9072 41.8844 10.0823 46.1229 10 50.5715V105.117C10 121.603 16.5491 137.414 28.2067 149.072C39.8642 160.729 55.6753 167.278 72.1615 167.278H80.7537C100.534 167.277 119.504 159.419 133.492 145.432C147.479 131.446 155.339 112.477 155.342 92.6961C155.355 85.1572 152.611 77.8736 147.627 72.2176ZM116.645 28.8323V61.6792V28.8323Z" stroke="white" stroke-width="16.29" stroke-linecap="round" stroke-linejoin="round"/>
<path opacity="0.3" d="M107.321 98.4765C99.3871 98.4765 91.7786 101.628 86.1688 107.238C80.559 112.848 77.4075 120.456 77.4075 128.39V137.232M26.9811 89.7681C22.4775 89.7681 18.1582 87.979 14.9737 84.7944C11.7891 81.6098 10 77.2906 10 72.7869V50.5715C10.0015 46.0688 11.7913 41.7511 14.9757 38.5677C18.1601 35.3844 22.4785 33.5961 26.9811 33.5961C31.4833 33.5961 35.801 35.3846 38.9845 38.5681C42.168 41.7516 43.9565 46.0693 43.9565 50.5715V72.7869C43.9572 75.0167 43.5187 77.2247 42.6659 79.2849C41.8132 81.3451 40.5629 83.2171 38.9865 84.7941C37.4102 86.371 35.5386 87.6219 33.4786 88.4753C31.4187 89.3288 29.2108 89.7681 26.9811 89.7681V89.7681ZM155.371 92.6728C155.363 84.4471 152.089 76.5612 146.268 70.7491C140.447 64.937 132.556 61.6746 124.331 61.6792H50.0332C48.4215 61.6792 46.8759 62.3194 45.7363 63.459C44.5967 64.5986 43.9565 66.1443 43.9565 67.7559V71.5553C43.9565 78.6953 46.7928 85.5428 51.8415 90.5915C56.8902 95.6402 63.7377 98.4765 70.8776 98.4765H107.745L155.371 92.6728ZM80.1031 28.8323V61.6792V28.8323ZM147.627 72.2176V27.4439C147.667 25.3843 147.295 23.3375 146.535 21.4231C145.774 19.5087 144.64 17.7653 143.197 16.2946C141.755 14.824 140.034 13.6558 138.134 12.8582C136.235 12.0607 134.196 11.65 132.136 11.65C130.076 11.65 128.037 12.0607 126.137 12.8582C124.238 13.6558 122.517 14.824 121.074 16.2946C119.632 17.7653 118.497 19.5087 117.737 21.4231C116.976 23.3375 116.605 25.3843 116.645 27.4439V28.8323C116.645 23.9866 114.72 19.3394 111.293 15.9129C107.867 12.4865 103.22 10.5615 98.3739 10.5615C93.5282 10.5615 88.8809 12.4865 85.4545 15.9129C82.028 19.3394 80.1031 23.9866 80.1031 28.8323V28.6348C80.1031 23.8415 78.1989 19.2445 74.8095 15.8551C71.4201 12.4657 66.8231 10.5615 62.0298 10.5615C57.2364 10.5615 52.6394 12.4657 49.25 15.8551C45.8606 19.2445 43.9565 23.8415 43.9565 28.6348V50.5715C43.8742 46.1229 42.0492 41.8844 38.8741 38.7675C35.6991 35.6506 31.4275 33.9044 26.9782 33.9044C22.5289 33.9044 18.2574 35.6506 15.0823 38.7675C11.9072 41.8844 10.0823 46.1229 10 50.5715V105.117C10 121.603 16.5491 137.414 28.2067 149.072C39.8642 160.729 55.6753 167.278 72.1615 167.278H80.7537C100.534 167.277 119.504 159.419 133.492 145.432C147.479 131.446 155.339 112.477 155.342 92.6961C155.355 85.1572 152.611 77.8736 147.627 72.2176ZM116.645 28.8323V61.6792V28.8323Z" stroke="white" stroke-width="9.58" stroke-linecap="round" stroke-linejoin="round"/>
<path d="M107.321 98.4765C99.3871 98.4765 91.7786 101.628 86.1688 107.238C80.559 112.848 77.4075 120.456 77.4075 128.39V137.232M26.9811 89.7681C22.4775 89.7681 18.1582 87.979 14.9737 84.7944C11.7891 81.6098 10 77.2906 10 72.7869V50.5715C10.0015 46.0688 11.7913 41.7511 14.9757 38.5677C18.1601 35.3844 22.4785 33.5961 26.9811 33.5961C31.4833 33.5961 35.801 35.3846 38.9845 38.5681C42.168 41.7516 43.9565 46.0693 43.9565 50.5715V72.7869C43.9572 75.0167 43.5187 77.2247 42.6659 79.2849C41.8132 81.3451 40.5629 83.2171 38.9865 84.7941C37.4102 86.371 35.5386 87.6219 33.4786 88.4753C31.4187 89.3288 29.2108 89.7681 26.9811 89.7681V89.7681ZM155.371 92.6728C155.363 84.4471 152.089 76.5612 146.268 70.7491C140.447 64.937 132.556 61.6746 124.331 61.6792H50.0332C48.4215 61.6792 46.8759 62.3194 45.7363 63.459C44.5967 64.5986 43.9565 66.1443 43.9565 67.7559V71.5553C43.9565 78.6953 46.7928 85.5428 51.8415 90.5915C56.8902 95.6402 63.7377 98.4765 70.8776 98.4765H107.745L155.371 92.6728ZM80.1031 28.8323V61.6792V28.8323ZM147.627 72.2176V27.4439C147.667 25.3843 147.295 23.3375 146.535 21.4231C145.774 19.5087 144.64 17.7653 143.197 16.2946C141.755 14.824 140.034 13.6558 138.134 12.8582C136.235 12.0607 134.196 11.65 132.136 11.65C130.076 11.65 128.037 12.0607 126.137 12.8582C124.238 13.6558 122.517 14.824 121.074 16.2946C119.632 17.7653 118.497 19.5087 117.737 21.4231C116.976 23.3375 116.605 25.3843 116.645 27.4439V28.8323C116.645 23.9866 114.72 19.3394 111.293 15.9129C107.867 12.4865 103.22 10.5615 98.3739 10.5615C93.5282 10.5615 88.8809 12.4865 85.4545 15.9129C82.028 19.3394 80.1031 23.9866 80.1031 28.8323V28.6348C80.1031 23.8415 78.1989 19.2445 74.8095 15.8551C71.4201 12.4657 66.8231 10.5615 62.0298 10.5615C57.2364 10.5615 52.6394 12.4657 49.25 15.8551C45.8606 19.2445 43.9565 23.8415 43.9565 28.6348V50.5715C43.8742 46.1229 42.0492 41.8844 38.8741 38.7675C35.6991 35.6506 31.4275 33.9044 26.9782 33.9044C22.5289 33.9044 18.2574 35.6506 15.0823 38.7675C11.9072 41.8844 10.0823 46.1229 10 50.5715V105.117C10 121.603 16.5491 137.414 28.2067 149.072C39.8642 160.729 55.6753 167.278 72.1615 167.278H80.7537C100.534 167.277 119.504 159.419 133.492 145.432C147.479 131.446 155.339 112.477 155.342 92.6961C155.355 85.1572 152.611 77.8736 147.627 72.2176ZM116.645 28.8323V61.6792V28.8323Z" stroke="white" stroke-width="13.42" stroke-linecap="round" stroke-linejoin="round"/>
<path d="M107.321 98.4765C99.3871 98.4765 91.7786 101.628 86.1688 107.238C80.559 112.848 77.4075 120.456 77.4075 128.39V137.232M26.9811 89.7681C22.4775 89.7681 18.1582 87.979 14.9737 84.7944C11.7891 81.6098 10 77.2906 10 72.7869V50.5715C10.0015 46.0688 11.7913 41.7511 14.9757 38.5677C18.1601 35.3844 22.4785 33.5961 26.9811 33.5961C31.4833 33.5961 35.801 35.3846 38.9845 38.5681C42.168 41.7516 43.9565 46.0693 43.9565 50.5715V72.7869C43.9572 75.0167 43.5187 77.2247 42.6659 79.2849C41.8132 81.3451 40.5629 83.2171 38.9865 84.7941C37.4102 86.371 35.5386 87.6219 33.4786 88.4753C31.4187 89.3288 29.2108 89.7681 26.9811 89.7681V89.7681ZM155.371 92.6728C155.363 84.4471 152.089 76.5612 146.268 70.7491C140.447 64.937 132.556 61.6746 124.331 61.6792H50.0332C48.4215 61.6792 46.8759 62.3194 45.7363 63.459C44.5967 64.5986 43.9565 66.1443 43.9565 67.7559V71.5553C43.9565 78.6953 46.7928 85.5428 51.8415 90.5915C56.8902 95.6402 63.7377 98.4765 70.8776 98.4765H107.745L155.371 92.6728ZM80.1031 28.8323V61.6792V28.8323ZM147.627 72.2176V27.4439C147.667 25.3843 147.295 23.3375 146.535 21.4231C145.774 19.5087 144.64 17.7653 143.197 16.2946C141.755 14.824 140.034 13.6558 138.134 12.8582C136.235 12.0607 134.196 11.65 132.136 11.65C130.076 11.65 128.037 12.0607 126.137 12.8582C124.238 13.6558 122.517 14.824 121.074 16.2946C119.632 17.7653 118.497 19.5087 117.737 21.4231C116.976 23.3375 116.605 25.3843 116.645 27.4439V28.8323C116.645 23.9866 114.72 19.3394 111.293 15.9129C107.867 12.4865 103.22 10.5615 98.3739 10.5615C93.5282 10.5615 88.8809 12.4865 85.4545 15.9129C82.028 19.3394 80.1031 23.9866 80.1031 28.8323V28.6348C80.1031 23.8415 78.1989 19.2445 74.8095 15.8551C71.4201 12.4657 66.8231 10.5615 62.0298 10.5615C57.2364 10.5615 52.6394 12.4657 49.25 15.8551C45.8606 19.2445 43.9565 23.8415 43.9565 28.6348V50.5715C43.8742 46.1229 42.0492 41.8844 38.8741 38.7675C35.6991 35.6506 31.4275 33.9044 26.9782 33.9044C22.5289 33.9044 18.2574 35.6506 15.0823 38.7675C11.9072 41.8844 10.0823 46.1229 10 50.5715V105.117C10 121.603 16.5491 137.414 28.2067 149.072C39.8642 160.729 55.6753 167.278 72.1615 167.278H80.7537C100.534 167.277 119.504 159.419 133.492 145.432C147.479 131.446 155.339 112.477 155.342 92.6961C155.355 85.1572 152.611 77.8736 147.627 72.2176ZM116.645 28.8323V61.6792V28.8323Z" stroke="white" stroke-width="10.54" stroke-linecap="round" stroke-linejoin="round"/>
<path d="M107.321 98.4765C99.3871 98.4765 91.7786 101.628 86.1688 107.238C80.559 112.848 77.4075 120.456 77.4075 128.39V137.232M26.9811 89.7681C22.4775 89.7681 18.1582 87.979 14.9737 84.7944C11.7891 81.6098 10 77.2906 10 72.7869V50.5715C10.0015 46.0688 11.7913 41.7511 14.9757 38.5677C18.1601 35.3844 22.4785 33.5961 26.9811 33.5961C31.4833 33.5961 35.801 35.3846 38.9845 38.5681C42.168 41.7516 43.9565 46.0693 43.9565 50.5715V72.7869C43.9572 75.0167 43.5187 77.2247 42.6659 79.2849C41.8132 81.3451 40.5629 83.2171 38.9865 84.7941C37.4102 86.371 35.5386 87.6219 33.4786 88.4753C31.4187 89.3288 29.2108 89.7681 26.9811 89.7681V89.7681ZM155.371 92.6728C155.363 84.4471 152.089 76.5612 146.268 70.7491C140.447 64.937 132.556 61.6746 124.331 61.6792H50.0332C48.4215 61.6792 46.8759 62.3194 45.7363 63.459C44.5967 64.5986 43.9565 66.1443 43.9565 67.7559V71.5553C43.9565 78.6953 46.7928 85.5428 51.8415 90.5915C56.8902 95.6402 63.7377 98.4765 70.8776 98.4765H107.745L155.371 92.6728ZM80.1031 28.8323V61.6792V28.8323ZM147.627 72.2176V27.4439C147.667 25.3843 147.295 23.3375 146.535 21.4231C145.774 19.5087 144.64 17.7653 143.197 16.2946C141.755 14.824 140.034 13.6558 138.134 12.8582C136.235 12.0607 134.196 11.65 132.136 11.65C130.076 11.65 128.037 12.0607 126.137 12.8582C124.238 13.6558 122.517 14.824 121.074 16.2946C119.632 17.7653 118.497 19.5087 117.737 21.4231C116.976 23.3375 116.605 25.3843 116.645 27.4439V28.8323C116.645 23.9866 114.72 19.3394 111.293 15.9129C107.867 12.4865 103.22 10.5615 98.3739 10.5615C93.5282 10.5615 88.8809 12.4865 85.4545 15.9129C82.028 19.3394 80.1031 23.9866 80.1031 28.8323V28.6348C80.1031 23.8415 78.1989 19.2445 74.8095 15.8551C71.4201 12.4657 66.8231 10.5615 62.0298 10.5615C57.2364 10.5615 52.6394 12.4657 49.25 15.8551C45.8606 19.2445 43.9565 23.8415 43.9565 28.6348V50.5715C43.8742 46.1229 42.0492 41.8844 38.8741 38.7675C35.6991 35.6506 31.4275 33.9044 26.9782 33.9044C22.5289 33.9044 18.2574 35.6506 15.0823 38.7675C11.9072 41.8844 10.0823 46.1229 10 50.5715V105.117C10 121.603 16.5491 137.414 28.2067 149.072C39.8642 160.729 55.6753 167.278 72.1615 167.278H80.7537C100.534 167.277 119.504 159.419 133.492 145.432C147.479 131.446 155.339 112.477 155.342 92.6961C155.355 85.1572 152.611 77.8736 147.627 72.2176ZM116.645 28.8323V61.6792V28.8323Z" stroke="white" stroke-width="7.67" stroke-linecap="round" stroke-linejoin="round"/>
<path d="M107.321 98.4765C99.3871 98.4765 91.7786 101.628 86.1688 107.238C80.559 112.848 77.4075 120.456 77.4075 128.39V137.232M26.9811 89.7681C22.4775 89.7681 18.1582 87.979 14.9737 84.7944C11.7891 81.6098 10 77.2906 10 72.7869V50.5715C10.0015 46.0688 11.7913 41.7511 14.9757 38.5677C18.1601 35.3844 22.4785 33.5961 26.9811 33.5961C31.4833 33.5961 35.801 35.3846 38.9845 38.5681C42.168 41.7516 43.9565 46.0693 43.9565 50.5715V72.7869C43.9572 75.0167 43.5187 77.2247 42.6659 79.2849C41.8132 81.3451 40.5629 83.2171 38.9865 84.7941C37.4102 86.371 35.5386 87.6219 33.4786 88.4753C31.4187 89.3288 29.2108 89.7681 26.9811 89.7681V89.7681ZM155.371 92.6728C155.363 84.4471 152.089 76.5612 146.268 70.7491C140.447 64.937 132.556 61.6746 124.331 61.6792H50.0332C48.4215 61.6792 46.8759 62.3194 45.7363 63.459C44.5967 64.5986 43.9565 66.1443 43.9565 67.7559V71.5553C43.9565 78.6953 46.7928 85.5428 51.8415 90.5915C56.8902 95.6402 63.7377 98.4765 70.8776 98.4765H107.745L155.371 92.6728ZM80.1031 28.8323V61.6792V28.8323ZM147.627 72.2176V27.4439C147.667 25.3843 147.295 23.3375 146.535 21.4231C145.774 19.5087 144.64 17.7653 143.197 16.2946C141.755 14.824 140.034 13.6558 138.134 12.8582C136.235 12.0607 134.196 11.65 132.136 11.65C130.076 11.65 128.037 12.0607 126.137 12.8582C124.238 13.6558 122.517 14.824 121.074 16.2946C119.632 17.7653 118.497 19.5087 117.737 21.4231C116.976 23.3375 116.605 25.3843 116.645 27.4439V28.8323C116.645 23.9866 114.72 19.3394 111.293 15.9129C107.867 12.4865 103.22 10.5615 98.3739 10.5615C93.5282 10.5615 88.8809 12.4865 85.4545 15.9129C82.028 19.3394 80.1031 23.9866 80.1031 28.8323V28.6348C80.1031 23.8415 78.1989 19.2445 74.8095 15.8551C71.4201 12.4657 66.8231 10.5615 62.0298 10.5615C57.2364 10.5615 52.6394 12.4657 49.25 15.8551C45.8606 19.2445 43.9565 23.8415 43.9565 28.6348V50.5715C43.8742 46.1229 42.0492 41.8844 38.8741 38.7675C35.6991 35.6506 31.4275 33.9044 26.9782 33.9044C22.5289 33.9044 18.2574 35.6506 15.0823 38.7675C11.9072 41.8844 10.0823 46.1229 10 50.5715V105.117C10 121.603 16.5491 137.414 28.2067 149.072C39.8642 160.729 55.6753 167.278 72.1615 167.278H80.7537C100.534 167.277 119.504 159.419 133.492 145.432C147.479 131.446 155.339 112.477 155.342 92.6961C155.355 85.1572 152.611 77.8736 147.627 72.2176ZM116.645 28.8323V61.6792V28.8323Z" stroke="white" stroke-width="4.79" stroke-linecap="round" stroke-linejoin="round"/>
<path d="M107.321 98.4765C99.3871 98.4765 91.7786 101.628 86.1688 107.238C80.559 112.848 77.4075 120.456 77.4075 128.39V137.232M26.9811 89.7681C22.4775 89.7681 18.1582 87.979 14.9737 84.7944C11.7891 81.6098 10 77.2906 10 72.7869V50.5715C10.0015 46.0688 11.7913 41.7511 14.9757 38.5677C18.1601 35.3844 22.4785 33.5961 26.9811 33.5961C31.4833 33.5961 35.801 35.3846 38.9845 38.5681C42.168 41.7516 43.9565 46.0693 43.9565 50.5715V72.7869C43.9572 75.0167 43.5187 77.2247 42.6659 79.2849C41.8132 81.3451 40.5629 83.2171 38.9865 84.7941C37.4102 86.371 35.5386 87.6219 33.4786 88.4753C31.4187 89.3288 29.2108 89.7681 26.9811 89.7681V89.7681ZM155.371 92.6728C155.363 84.4471 152.089 76.5612 146.268 70.7491C140.447 64.937 132.556 61.6746 124.331 61.6792H50.0332C48.4215 61.6792 46.8759 62.3194 45.7363 63.459C44.5967 64.5986 43.9565 66.1443 43.9565 67.7559V71.5553C43.9565 78.6953 46.7928 85.5428 51.8415 90.5915C56.8902 95.6402 63.7377 98.4765 70.8776 98.4765H107.745L155.371 92.6728ZM80.1031 28.8323V61.6792V28.8323ZM147.627 72.2176V27.4439C147.667 25.3843 147.295 23.3375 146.535 21.4231C145.774 19.5087 144.64 17.7653 143.197 16.2946C141.755 14.824 140.034 13.6558 138.134 12.8582C136.235 12.0607 134.196 11.65 132.136 11.65C130.076 11.65 128.037 12.0607 126.137 12.8582C124.238 13.6558 122.517 14.824 121.074 16.2946C119.632 17.7653 118.497 19.5087 117.737 21.4231C116.976 23.3375 116.605 25.3843 116.645 27.4439V28.8323C116.645 23.9866 114.72 19.3394 111.293 15.9129C107.867 12.4865 103.22 10.5615 98.3739 10.5615C93.5282 10.5615 88.8809 12.4865 85.4545 15.9129C82.028 19.3394 80.1031 23.9866 80.1031 28.8323V28.6348C80.1031 23.8415 78.1989 19.2445 74.8095 15.8551C71.4201 12.4657 66.8231 10.5615 62.0298 10.5615C57.2364 10.5615 52.6394 12.4657 49.25 15.8551C45.8606 19.2445 43.9565 23.8415 43.9565 28.6348V50.5715C43.8742 46.1229 42.0492 41.8844 38.8741 38.7675C35.6991 35.6506 31.4275 33.9044 26.9782 33.9044C22.5289 33.9044 18.2574 35.6506 15.0823 38.7675C11.9072 41.8844 10.0823 46.1229 10 50.5715V105.117C10 121.603 16.5491 137.414 28.2067 149.072C39.8642 160.729 55.6753 167.278 72.1615 167.278H80.7537C100.534 167.277 119.504 159.419 133.492 145.432C147.479 131.446 155.339 112.477 155.342 92.6961C155.355 85.1572 152.611 77.8736 147.627 72.2176ZM116.645 28.8323V61.6792V28.8323Z" stroke="white" stroke-width="1.92" stroke-linecap="round" stroke-linejoin="round"/>
</svg>
