<svg width="165" height="250" viewBox="0 0 165 250" fill="none" xmlns="http://www.w3.org/2000/svg">
<path d="M140.549 173.144C140.549 164.131 136.969 155.488 130.597 149.115C124.224 142.741 115.582 139.16 106.569 139.158H53.668C52.485 139.158 51.3135 139.391 50.2207 139.844C49.1278 140.297 48.1349 140.961 47.2986 141.798C46.4624 142.635 45.7992 143.628 45.347 144.721C44.8948 145.814 44.6625 146.986 44.6633 148.169V148.169C44.6633 154.794 47.2952 161.148 51.98 165.833C56.6648 170.518 63.0187 173.15 69.644 173.15H96.3677M67.2796 210.813V202.215C67.2796 194.511 70.3399 187.122 75.7874 181.675C81.2348 176.227 88.6232 173.167 96.327 173.167V173.167L67.2796 210.813ZM140.979 10.1587C136.677 9.55569 132.312 10.6857 128.843 13.3003C125.375 15.9149 123.086 19.8 122.481 24.1015L109.451 113.631L96.4723 24.3397C96.1833 22.201 95.4746 20.1405 94.3867 18.2766C93.2988 16.4128 91.8532 14.7824 90.1331 13.479C88.413 12.1757 86.4523 11.2252 84.3636 10.6821C82.275 10.1391 80.0996 10.0142 77.9625 10.3147C75.8254 10.6152 73.7688 11.3351 71.9109 12.4331C70.0529 13.531 68.4303 14.9854 67.1363 16.7125C65.8423 18.4396 64.9024 20.4055 64.3707 22.497C63.839 24.5886 63.7258 26.7647 64.0379 28.9001L73.5538 96.5923C71.0249 94.4195 67.9258 93.0178 64.6242 92.5533C61.3226 92.0889 57.957 92.5811 54.9268 93.9718C51.8966 95.3625 49.3288 97.5931 47.5282 100.399C45.7275 103.205 44.7695 106.469 44.7678 109.803V125.529C44.8637 123.183 44.4843 120.841 43.6523 118.644C42.8204 116.448 41.5531 114.443 39.9267 112.748C38.3002 111.054 36.348 109.706 34.1875 108.785C32.0269 107.864 29.7025 107.389 27.3539 107.389C25.0053 107.389 22.6809 107.864 20.5203 108.785C18.3597 109.706 16.4076 111.054 14.7811 112.748C13.1546 114.443 11.8873 116.448 11.0554 118.644C10.2235 120.841 9.84408 123.183 9.93994 125.529V172.749C9.93994 207.53 36.1872 237.902 70.8989 240.139C106.656 242.463 140.549 215.46 140.549 173.132C140.549 117.239 140.549 135.917 154.922 28.6212C155.523 24.3247 154.395 19.9649 151.786 16.4991C149.176 13.0332 145.298 10.7445 141.002 10.1355L140.979 10.1587ZM27.3684 108.112C22.7461 108.112 18.3131 109.949 15.0446 113.217C11.7762 116.486 9.93994 120.919 9.93994 125.541V146.804C9.93994 151.426 11.7762 155.859 15.0446 159.127C18.3131 162.396 22.7461 164.232 27.3684 164.232C31.9907 164.232 36.4237 162.396 39.6922 159.127C42.9607 155.859 44.7969 151.426 44.7969 146.804V125.541C44.7969 120.919 42.9607 116.486 39.6922 113.217C36.4237 109.949 31.9907 108.112 27.3684 108.112V108.112ZM79.6247 139.158V109.803C79.6247 105.181 77.7885 100.748 74.5201 97.4792C71.2516 94.2108 66.8186 92.3746 62.1963 92.3746V92.3746C57.574 92.3746 53.141 94.2108 49.8725 97.4792C46.604 100.748 44.7678 105.181 44.7678 109.803V139.158H79.6247Z" stroke="#333333" stroke-width="18.8" stroke-linecap="round" stroke-linejoin="round"/>
<path opacity="0.2" d="M140.549 173.144C140.549 164.131 136.969 155.488 130.597 149.115C124.224 142.741 115.582 139.16 106.569 139.158H53.668C52.485 139.158 51.3135 139.391 50.2207 139.844C49.1278 140.297 48.1349 140.961 47.2986 141.798C46.4624 142.635 45.7992 143.628 45.347 144.721C44.8948 145.814 44.6625 146.986 44.6633 148.169V148.169C44.6633 154.794 47.2952 161.148 51.98 165.833C56.6648 170.518 63.0187 173.15 69.644 173.15H96.3677M67.2796 210.813V202.215C67.2796 194.511 70.3399 187.122 75.7874 181.675C81.2348 176.227 88.6232 173.167 96.327 173.167V173.167L67.2796 210.813ZM140.979 10.1587C136.677 9.55569 132.312 10.6857 128.843 13.3003C125.375 15.9149 123.086 19.8 122.481 24.1015L109.451 113.631L96.4723 24.3397C96.1833 22.201 95.4746 20.1405 94.3867 18.2766C93.2988 16.4128 91.8532 14.7824 90.1331 13.479C88.413 12.1757 86.4523 11.2252 84.3636 10.6821C82.275 10.1391 80.0996 10.0142 77.9625 10.3147C75.8254 10.6152 73.7688 11.3351 71.9109 12.4331C70.0529 13.531 68.4303 14.9854 67.1363 16.7125C65.8423 18.4396 64.9024 20.4055 64.3707 22.497C63.839 24.5886 63.7258 26.7647 64.0379 28.9001L73.5538 96.5923C71.0249 94.4195 67.9258 93.0178 64.6242 92.5533C61.3226 92.0889 57.957 92.5811 54.9268 93.9718C51.8966 95.3625 49.3288 97.5931 47.5282 100.399C45.7275 103.205 44.7695 106.469 44.7678 109.803V125.529C44.8637 123.183 44.4843 120.841 43.6523 118.644C42.8204 116.448 41.5531 114.443 39.9267 112.748C38.3002 111.054 36.348 109.706 34.1875 108.785C32.0269 107.864 29.7025 107.389 27.3539 107.389C25.0053 107.389 22.6809 107.864 20.5203 108.785C18.3597 109.706 16.4076 111.054 14.7811 112.748C13.1546 114.443 11.8873 116.448 11.0554 118.644C10.2235 120.841 9.84408 123.183 9.93994 125.529V172.749C9.93994 207.53 36.1872 237.902 70.8989 240.139C106.656 242.463 140.549 215.46 140.549 173.132C140.549 117.239 140.549 135.917 154.922 28.6212C155.523 24.3247 154.395 19.9649 151.786 16.4991C149.176 13.0332 145.298 10.7445 141.002 10.1355L140.979 10.1587ZM27.3684 108.112C22.7461 108.112 18.3131 109.949 15.0446 113.217C11.7762 116.486 9.93994 120.919 9.93994 125.541V146.804C9.93994 151.426 11.7762 155.859 15.0446 159.127C18.3131 162.396 22.7461 164.232 27.3684 164.232C31.9907 164.232 36.4237 162.396 39.6922 159.127C42.9607 155.859 44.7969 151.426 44.7969 146.804V125.541C44.7969 120.919 42.9607 116.486 39.6922 113.217C36.4237 109.949 31.9907 108.112 27.3684 108.112V108.112ZM79.6247 139.158V109.803C79.6247 105.181 77.7885 100.748 74.5201 97.4792C71.2516 94.2108 66.8186 92.3746 62.1963 92.3746V92.3746C57.574 92.3746 53.141 94.2108 49.8725 97.4792C46.604 100.748 44.7678 105.181 44.7678 109.803V139.158H79.6247Z" stroke="#FF7909" stroke-width="19.04" stroke-linecap="round" stroke-linejoin="round"/>
<path opacity="0.25" d="M140.549 173.144C140.549 164.131 136.969 155.488 130.597 149.115C124.224 142.741 115.582 139.16 106.569 139.158H53.668C52.485 139.158 51.3135 139.391 50.2207 139.844C49.1278 140.297 48.1349 140.961 47.2986 141.798C46.4624 142.635 45.7992 143.628 45.347 144.721C44.8948 145.814 44.6625 146.986 44.6633 148.169V148.169C44.6633 154.794 47.2952 161.148 51.98 165.833C56.6648 170.518 63.0187 173.15 69.644 173.15H96.3677M67.2796 210.813V202.215C67.2796 194.511 70.3399 187.122 75.7874 181.675C81.2348 176.227 88.6232 173.167 96.327 173.167V173.167L67.2796 210.813ZM140.979 10.1587C136.677 9.55569 132.312 10.6857 128.843 13.3003C125.375 15.9149 123.086 19.8 122.481 24.1015L109.451 113.631L96.4723 24.3397C96.1833 22.201 95.4746 20.1405 94.3867 18.2766C93.2988 16.4128 91.8532 14.7824 90.1331 13.479C88.413 12.1757 86.4523 11.2252 84.3636 10.6821C82.275 10.1391 80.0996 10.0142 77.9625 10.3147C75.8254 10.6152 73.7688 11.3351 71.9109 12.4331C70.0529 13.531 68.4303 14.9854 67.1363 16.7125C65.8423 18.4396 64.9024 20.4055 64.3707 22.497C63.839 24.5886 63.7258 26.7647 64.0379 28.9001L73.5538 96.5923C71.0249 94.4195 67.9258 93.0178 64.6242 92.5533C61.3226 92.0889 57.957 92.5811 54.9268 93.9718C51.8966 95.3625 49.3288 97.5931 47.5282 100.399C45.7275 103.205 44.7695 106.469 44.7678 109.803V125.529C44.8637 123.183 44.4843 120.841 43.6523 118.644C42.8204 116.448 41.5531 114.443 39.9267 112.748C38.3002 111.054 36.348 109.706 34.1875 108.785C32.0269 107.864 29.7025 107.389 27.3539 107.389C25.0053 107.389 22.6809 107.864 20.5203 108.785C18.3597 109.706 16.4076 111.054 14.7811 112.748C13.1546 114.443 11.8873 116.448 11.0554 118.644C10.2235 120.841 9.84408 123.183 9.93994 125.529V172.749C9.93994 207.53 36.1872 237.902 70.8989 240.139C106.656 242.463 140.549 215.46 140.549 173.132C140.549 117.239 140.549 135.917 154.922 28.6212C155.523 24.3247 154.395 19.9649 151.786 16.4991C149.176 13.0332 145.298 10.7445 141.002 10.1355L140.979 10.1587ZM27.3684 108.112C22.7461 108.112 18.3131 109.949 15.0446 113.217C11.7762 116.486 9.93994 120.919 9.93994 125.541V146.804C9.93994 151.426 11.7762 155.859 15.0446 159.127C18.3131 162.396 22.7461 164.232 27.3684 164.232C31.9907 164.232 36.4237 162.396 39.6922 159.127C42.9607 155.859 44.7969 151.426 44.7969 146.804V125.541C44.7969 120.919 42.9607 116.486 39.6922 113.217C36.4237 109.949 31.9907 108.112 27.3684 108.112V108.112ZM79.6247 139.158V109.803C79.6247 105.181 77.7885 100.748 74.5201 97.4792C71.2516 94.2108 66.8186 92.3746 62.1963 92.3746V92.3746C57.574 92.3746 53.141 94.2108 49.8725 97.4792C46.604 100.748 44.7678 105.181 44.7678 109.803V139.158H79.6247Z" stroke="#FF7909" stroke-width="16.18" stroke-linecap="round" stroke-linejoin="round"/>
<path opacity="0.3" d="M140.549 173.144C140.549 164.131 136.969 155.488 130.597 149.115C124.224 142.741 115.582 139.16 106.569 139.158H53.668C52.485 139.158 51.3135 139.391 50.2207 139.844C49.1278 140.297 48.1349 140.961 47.2986 141.798C46.4624 142.635 45.7992 143.628 45.347 144.721C44.8948 145.814 44.6625 146.986 44.6633 148.169V148.169C44.6633 154.794 47.2952 161.148 51.98 165.833C56.6648 170.518 63.0187 173.15 69.644 173.15H96.3677M67.2796 210.813V202.215C67.2796 194.511 70.3399 187.122 75.7874 181.675C81.2348 176.227 88.6232 173.167 96.327 173.167V173.167L67.2796 210.813ZM140.979 10.1587C136.677 9.55569 132.312 10.6857 128.843 13.3003C125.375 15.9149 123.086 19.8 122.481 24.1015L109.451 113.631L96.4723 24.3397C96.1833 22.201 95.4746 20.1405 94.3867 18.2766C93.2988 16.4128 91.8532 14.7824 90.1331 13.479C88.413 12.1757 86.4523 11.2252 84.3636 10.6821C82.275 10.1391 80.0996 10.0142 77.9625 10.3147C75.8254 10.6152 73.7688 11.3351 71.9109 12.4331C70.0529 13.531 68.4303 14.9854 67.1363 16.7125C65.8423 18.4396 64.9024 20.4055 64.3707 22.497C63.839 24.5886 63.7258 26.7647 64.0379 28.9001L73.5538 96.5923C71.0249 94.4195 67.9258 93.0178 64.6242 92.5533C61.3226 92.0889 57.957 92.5811 54.9268 93.9718C51.8966 95.3625 49.3288 97.5931 47.5282 100.399C45.7275 103.205 44.7695 106.469 44.7678 109.803V125.529C44.8637 123.183 44.4843 120.841 43.6523 118.644C42.8204 116.448 41.5531 114.443 39.9267 112.748C38.3002 111.054 36.348 109.706 34.1875 108.785C32.0269 107.864 29.7025 107.389 27.3539 107.389C25.0053 107.389 22.6809 107.864 20.5203 108.785C18.3597 109.706 16.4076 111.054 14.7811 112.748C13.1546 114.443 11.8873 116.448 11.0554 118.644C10.2235 120.841 9.84408 123.183 9.93994 125.529V172.749C9.93994 207.53 36.1872 237.902 70.8989 240.139C106.656 242.463 140.549 215.46 140.549 173.132C140.549 117.239 140.549 135.917 154.922 28.6212C155.523 24.3247 154.395 19.9649 151.786 16.4991C149.176 13.0332 145.298 10.7445 141.002 10.1355L140.979 10.1587ZM27.3684 108.112C22.7461 108.112 18.3131 109.949 15.0446 113.217C11.7762 116.486 9.93994 120.919 9.93994 125.541V146.804C9.93994 151.426 11.7762 155.859 15.0446 159.127C18.3131 162.396 22.7461 164.232 27.3684 164.232C31.9907 164.232 36.4237 162.396 39.6922 159.127C42.9607 155.859 44.7969 151.426 44.7969 146.804V125.541C44.7969 120.919 42.9607 116.486 39.6922 113.217C36.4237 109.949 31.9907 108.112 27.3684 108.112V108.112ZM79.6247 139.158V109.803C79.6247 105.181 77.7885 100.748 74.5201 97.4792C71.2516 94.2108 66.8186 92.3746 62.1963 92.3746V92.3746C57.574 92.3746 53.141 94.2108 49.8725 97.4792C46.604 100.748 44.7678 105.181 44.7678 109.803V139.158H79.6247Z" stroke="#FF7909" stroke-width="9.52" stroke-linecap="round" stroke-linejoin="round"/>
<path d="M140.549 173.144C140.549 164.131 136.969 155.488 130.597 149.115C124.224 142.741 115.582 139.16 106.569 139.158H53.668C52.485 139.158 51.3135 139.391 50.2207 139.844C49.1278 140.297 48.1349 140.961 47.2986 141.798C46.4624 142.635 45.7992 143.628 45.347 144.721C44.8948 145.814 44.6625 146.986 44.6633 148.169V148.169C44.6633 154.794 47.2952 161.148 51.98 165.833C56.6648 170.518 63.0187 173.15 69.644 173.15H96.3677M67.2796 210.813V202.215C67.2796 194.511 70.3399 187.122 75.7874 181.675C81.2348 176.227 88.6232 173.167 96.327 173.167V173.167L67.2796 210.813ZM140.979 10.1587C136.677 9.55569 132.312 10.6857 128.843 13.3003C125.375 15.9149 123.086 19.8 122.481 24.1015L109.451 113.631L96.4723 24.3397C96.1833 22.201 95.4746 20.1405 94.3867 18.2766C93.2988 16.4128 91.8532 14.7824 90.1331 13.479C88.413 12.1757 86.4523 11.2252 84.3636 10.6821C82.275 10.1391 80.0996 10.0142 77.9625 10.3147C75.8254 10.6152 73.7688 11.3351 71.9109 12.4331C70.0529 13.531 68.4303 14.9854 67.1363 16.7125C65.8423 18.4396 64.9024 20.4055 64.3707 22.497C63.839 24.5886 63.7258 26.7647 64.0379 28.9001L73.5538 96.5923C71.0249 94.4195 67.9258 93.0178 64.6242 92.5533C61.3226 92.0889 57.957 92.5811 54.9268 93.9718C51.8966 95.3625 49.3288 97.5931 47.5282 100.399C45.7275 103.205 44.7695 106.469 44.7678 109.803V125.529C44.8637 123.183 44.4843 120.841 43.6523 118.644C42.8204 116.448 41.5531 114.443 39.9267 112.748C38.3002 111.054 36.348 109.706 34.1875 108.785C32.0269 107.864 29.7025 107.389 27.3539 107.389C25.0053 107.389 22.6809 107.864 20.5203 108.785C18.3597 109.706 16.4076 111.054 14.7811 112.748C13.1546 114.443 11.8873 116.448 11.0554 118.644C10.2235 120.841 9.84408 123.183 9.93994 125.529V172.749C9.93994 207.53 36.1872 237.902 70.8989 240.139C106.656 242.463 140.549 215.46 140.549 173.132C140.549 117.239 140.549 135.917 154.922 28.6212C155.523 24.3247 154.395 19.9649 151.786 16.4991C149.176 13.0332 145.298 10.7445 141.002 10.1355L140.979 10.1587ZM27.3684 108.112C22.7461 108.112 18.3131 109.949 15.0446 113.217C11.7762 116.486 9.93994 120.919 9.93994 125.541V146.804C9.93994 151.426 11.7762 155.859 15.0446 159.127C18.3131 162.396 22.7461 164.232 27.3684 164.232C31.9907 164.232 36.4237 162.396 39.6922 159.127C42.9607 155.859 44.7969 151.426 44.7969 146.804V125.541C44.7969 120.919 42.9607 116.486 39.6922 113.217C36.4237 109.949 31.9907 108.112 27.3684 108.112V108.112ZM79.6247 139.158V109.803C79.6247 105.181 77.7885 100.748 74.5201 97.4792C71.2516 94.2108 66.8186 92.3746 62.1963 92.3746V92.3746C57.574 92.3746 53.141 94.2108 49.8725 97.4792C46.604 100.748 44.7678 105.181 44.7678 109.803V139.158H79.6247Z" stroke="#FFA41A" stroke-width="13.33" stroke-linecap="round" stroke-linejoin="round"/>
<path d="M140.549 173.144C140.549 164.131 136.969 155.488 130.597 149.115C124.224 142.741 115.582 139.16 106.569 139.158H53.668C52.485 139.158 51.3135 139.391 50.2207 139.844C49.1278 140.297 48.1349 140.961 47.2986 141.798C46.4624 142.635 45.7992 143.628 45.347 144.721C44.8948 145.814 44.6625 146.986 44.6633 148.169V148.169C44.6633 154.794 47.2952 161.148 51.98 165.833C56.6648 170.518 63.0187 173.15 69.644 173.15H96.3677M67.2796 210.813V202.215C67.2796 194.511 70.3399 187.122 75.7874 181.675C81.2348 176.227 88.6232 173.167 96.327 173.167V173.167L67.2796 210.813ZM140.979 10.1587C136.677 9.55569 132.312 10.6857 128.843 13.3003C125.375 15.9149 123.086 19.8 122.481 24.1015L109.451 113.631L96.4723 24.3397C96.1833 22.201 95.4746 20.1405 94.3867 18.2766C93.2988 16.4128 91.8532 14.7824 90.1331 13.479C88.413 12.1757 86.4523 11.2252 84.3636 10.6821C82.275 10.1391 80.0996 10.0142 77.9625 10.3147C75.8254 10.6152 73.7688 11.3351 71.9109 12.4331C70.0529 13.531 68.4303 14.9854 67.1363 16.7125C65.8423 18.4396 64.9024 20.4055 64.3707 22.497C63.839 24.5886 63.7258 26.7647 64.0379 28.9001L73.5538 96.5923C71.0249 94.4195 67.9258 93.0178 64.6242 92.5533C61.3226 92.0889 57.957 92.5811 54.9268 93.9718C51.8966 95.3625 49.3288 97.5931 47.5282 100.399C45.7275 103.205 44.7695 106.469 44.7678 109.803V125.529C44.8637 123.183 44.4843 120.841 43.6523 118.644C42.8204 116.448 41.5531 114.443 39.9267 112.748C38.3002 111.054 36.348 109.706 34.1875 108.785C32.0269 107.864 29.7025 107.389 27.3539 107.389C25.0053 107.389 22.6809 107.864 20.5203 108.785C18.3597 109.706 16.4076 111.054 14.7811 112.748C13.1546 114.443 11.8873 116.448 11.0554 118.644C10.2235 120.841 9.84408 123.183 9.93994 125.529V172.749C9.93994 207.53 36.1872 237.902 70.8989 240.139C106.656 242.463 140.549 215.46 140.549 173.132C140.549 117.239 140.549 135.917 154.922 28.6212C155.523 24.3247 154.395 19.9649 151.786 16.4991C149.176 13.0332 145.298 10.7445 141.002 10.1355L140.979 10.1587ZM27.3684 108.112C22.7461 108.112 18.3131 109.949 15.0446 113.217C11.7762 116.486 9.93994 120.919 9.93994 125.541V146.804C9.93994 151.426 11.7762 155.859 15.0446 159.127C18.3131 162.396 22.7461 164.232 27.3684 164.232C31.9907 164.232 36.4237 162.396 39.6922 159.127C42.9607 155.859 44.7969 151.426 44.7969 146.804V125.541C44.7969 120.919 42.9607 116.486 39.6922 113.217C36.4237 109.949 31.9907 108.112 27.3684 108.112V108.112ZM79.6247 139.158V109.803C79.6247 105.181 77.7885 100.748 74.5201 97.4792C71.2516 94.2108 66.8186 92.3746 62.1963 92.3746V92.3746C57.574 92.3746 53.141 94.2108 49.8725 97.4792C46.604 100.748 44.7678 105.181 44.7678 109.803V139.158H79.6247Z" stroke="#FFC329" stroke-width="10.47" stroke-linecap="round" stroke-linejoin="round"/>
<path d="M140.549 173.144C140.549 164.131 136.969 155.488 130.597 149.115C124.224 142.741 115.582 139.16 106.569 139.158H53.668C52.485 139.158 51.3135 139.391 50.2207 139.844C49.1278 140.297 48.1349 140.961 47.2986 141.798C46.4624 142.635 45.7992 143.628 45.347 144.721C44.8948 145.814 44.6625 146.986 44.6633 148.169V148.169C44.6633 154.794 47.2952 161.148 51.98 165.833C56.6648 170.518 63.0187 173.15 69.644 173.15H96.3677M67.2796 210.813V202.215C67.2796 194.511 70.3399 187.122 75.7874 181.675C81.2348 176.227 88.6232 173.167 96.327 173.167V173.167L67.2796 210.813ZM140.979 10.1587C136.677 9.55569 132.312 10.6857 128.843 13.3003C125.375 15.9149 123.086 19.8 122.481 24.1015L109.451 113.631L96.4723 24.3397C96.1833 22.201 95.4746 20.1405 94.3867 18.2766C93.2988 16.4128 91.8532 14.7824 90.1331 13.479C88.413 12.1757 86.4523 11.2252 84.3636 10.6821C82.275 10.1391 80.0996 10.0142 77.9625 10.3147C75.8254 10.6152 73.7688 11.3351 71.9109 12.4331C70.0529 13.531 68.4303 14.9854 67.1363 16.7125C65.8423 18.4396 64.9024 20.4055 64.3707 22.497C63.839 24.5886 63.7258 26.7647 64.0379 28.9001L73.5538 96.5923C71.0249 94.4195 67.9258 93.0178 64.6242 92.5533C61.3226 92.0889 57.957 92.5811 54.9268 93.9718C51.8966 95.3625 49.3288 97.5931 47.5282 100.399C45.7275 103.205 44.7695 106.469 44.7678 109.803V125.529C44.8637 123.183 44.4843 120.841 43.6523 118.644C42.8204 116.448 41.5531 114.443 39.9267 112.748C38.3002 111.054 36.348 109.706 34.1875 108.785C32.0269 107.864 29.7025 107.389 27.3539 107.389C25.0053 107.389 22.6809 107.864 20.5203 108.785C18.3597 109.706 16.4076 111.054 14.7811 112.748C13.1546 114.443 11.8873 116.448 11.0554 118.644C10.2235 120.841 9.84408 123.183 9.93994 125.529V172.749C9.93994 207.53 36.1872 237.902 70.8989 240.139C106.656 242.463 140.549 215.46 140.549 173.132C140.549 117.239 140.549 135.917 154.922 28.6212C155.523 24.3247 154.395 19.9649 151.786 16.4991C149.176 13.0332 145.298 10.7445 141.002 10.1355L140.979 10.1587ZM27.3684 108.112C22.7461 108.112 18.3131 109.949 15.0446 113.217C11.7762 116.486 9.93994 120.919 9.93994 125.541V146.804C9.93994 151.426 11.7762 155.859 15.0446 159.127C18.3131 162.396 22.7461 164.232 27.3684 164.232C31.9907 164.232 36.4237 162.396 39.6922 159.127C42.9607 155.859 44.7969 151.426 44.7969 146.804V125.541C44.7969 120.919 42.9607 116.486 39.6922 113.217C36.4237 109.949 31.9907 108.112 27.3684 108.112V108.112ZM79.6247 139.158V109.803C79.6247 105.181 77.7885 100.748 74.5201 97.4792C71.2516 94.2108 66.8186 92.3746 62.1963 92.3746V92.3746C57.574 92.3746 53.141 94.2108 49.8725 97.4792C46.604 100.748 44.7678 105.181 44.7678 109.803V139.158H79.6247Z" stroke="#FFDD39" stroke-width="7.61" stroke-linecap="round" stroke-linejoin="round"/>
<path d="M140.549 173.144C140.549 164.131 136.969 155.488 130.597 149.115C124.224 142.741 115.582 139.16 106.569 139.158H53.668C52.485 139.158 51.3135 139.391 50.2207 139.844C49.1278 140.297 48.1349 140.961 47.2986 141.798C46.4624 142.635 45.7992 143.628 45.347 144.721C44.8948 145.814 44.6625 146.986 44.6633 148.169V148.169C44.6633 154.794 47.2952 161.148 51.98 165.833C56.6648 170.518 63.0187 173.15 69.644 173.15H96.3677M67.2796 210.813V202.215C67.2796 194.511 70.3399 187.122 75.7874 181.675C81.2348 176.227 88.6232 173.167 96.327 173.167V173.167L67.2796 210.813ZM140.979 10.1587C136.677 9.55569 132.312 10.6857 128.843 13.3003C125.375 15.9149 123.086 19.8 122.481 24.1015L109.451 113.631L96.4723 24.3397C96.1833 22.201 95.4746 20.1405 94.3867 18.2766C93.2988 16.4128 91.8532 14.7824 90.1331 13.479C88.413 12.1757 86.4523 11.2252 84.3636 10.6821C82.275 10.1391 80.0996 10.0142 77.9625 10.3147C75.8254 10.6152 73.7688 11.3351 71.9109 12.4331C70.0529 13.531 68.4303 14.9854 67.1363 16.7125C65.8423 18.4396 64.9024 20.4055 64.3707 22.497C63.839 24.5886 63.7258 26.7647 64.0379 28.9001L73.5538 96.5923C71.0249 94.4195 67.9258 93.0178 64.6242 92.5533C61.3226 92.0889 57.957 92.5811 54.9268 93.9718C51.8966 95.3625 49.3288 97.5931 47.5282 100.399C45.7275 103.205 44.7695 106.469 44.7678 109.803V125.529C44.8637 123.183 44.4843 120.841 43.6523 118.644C42.8204 116.448 41.5531 114.443 39.9267 112.748C38.3002 111.054 36.348 109.706 34.1875 108.785C32.0269 107.864 29.7025 107.389 27.3539 107.389C25.0053 107.389 22.6809 107.864 20.5203 108.785C18.3597 109.706 16.4076 111.054 14.7811 112.748C13.1546 114.443 11.8873 116.448 11.0554 118.644C10.2235 120.841 9.84408 123.183 9.93994 125.529V172.749C9.93994 207.53 36.1872 237.902 70.8989 240.139C106.656 242.463 140.549 215.46 140.549 173.132C140.549 117.239 140.549 135.917 154.922 28.6212C155.523 24.3247 154.395 19.9649 151.786 16.4991C149.176 13.0332 145.298 10.7445 141.002 10.1355L140.979 10.1587ZM27.3684 108.112C22.7461 108.112 18.3131 109.949 15.0446 113.217C11.7762 116.486 9.93994 120.919 9.93994 125.541V146.804C9.93994 151.426 11.7762 155.859 15.0446 159.127C18.3131 162.396 22.7461 164.232 27.3684 164.232C31.9907 164.232 36.4237 162.396 39.6922 159.127C42.9607 155.859 44.7969 151.426 44.7969 146.804V125.541C44.7969 120.919 42.9607 116.486 39.6922 113.217C36.4237 109.949 31.9907 108.112 27.3684 108.112V108.112ZM79.6247 139.158V109.803C79.6247 105.181 77.7885 100.748 74.5201 97.4792C71.2516 94.2108 66.8186 92.3746 62.1963 92.3746V92.3746C57.574 92.3746 53.141 94.2108 49.8725 97.4792C46.604 100.748 44.7678 105.181 44.7678 109.803V139.158H79.6247Z" stroke="#FFF648" stroke-width="4.76" stroke-linecap="round" stroke-linejoin="round"/>
<path d="M140.549 173.144C140.549 164.131 136.969 155.488 130.597 149.115C124.224 142.741 115.582 139.16 106.569 139.158H53.668C52.485 139.158 51.3135 139.391 50.2207 139.844C49.1278 140.297 48.1349 140.961 47.2986 141.798C46.4624 142.635 45.7992 143.628 45.347 144.721C44.8948 145.814 44.6625 146.986 44.6633 148.169V148.169C44.6633 154.794 47.2952 161.148 51.98 165.833C56.6648 170.518 63.0187 173.15 69.644 173.15H96.3677M67.2796 210.813V202.215C67.2796 194.511 70.3399 187.122 75.7874 181.675C81.2348 176.227 88.6232 173.167 96.327 173.167V173.167L67.2796 210.813ZM140.979 10.1587C136.677 9.55569 132.312 10.6857 128.843 13.3003C125.375 15.9149 123.086 19.8 122.481 24.1015L109.451 113.631L96.4723 24.3397C96.1833 22.201 95.4746 20.1405 94.3867 18.2766C93.2988 16.4128 91.8532 14.7824 90.1331 13.479C88.413 12.1757 86.4523 11.2252 84.3636 10.6821C82.275 10.1391 80.0996 10.0142 77.9625 10.3147C75.8254 10.6152 73.7688 11.3351 71.9109 12.4331C70.0529 13.531 68.4303 14.9854 67.1363 16.7125C65.8423 18.4396 64.9024 20.4055 64.3707 22.497C63.839 24.5886 63.7258 26.7647 64.0379 28.9001L73.5538 96.5923C71.0249 94.4195 67.9258 93.0178 64.6242 92.5533C61.3226 92.0889 57.957 92.5811 54.9268 93.9718C51.8966 95.3625 49.3288 97.5931 47.5282 100.399C45.7275 103.205 44.7695 106.469 44.7678 109.803V125.529C44.8637 123.183 44.4843 120.841 43.6523 118.644C42.8204 116.448 41.5531 114.443 39.9267 112.748C38.3002 111.054 36.348 109.706 34.1875 108.785C32.0269 107.864 29.7025 107.389 27.3539 107.389C25.0053 107.389 22.6809 107.864 20.5203 108.785C18.3597 109.706 16.4076 111.054 14.7811 112.748C13.1546 114.443 11.8873 116.448 11.0554 118.644C10.2235 120.841 9.84408 123.183 9.93994 125.529V172.749C9.93994 207.53 36.1872 237.902 70.8989 240.139C106.656 242.463 140.549 215.46 140.549 173.132C140.549 117.239 140.549 135.917 154.922 28.6212C155.523 24.3247 154.395 19.9649 151.786 16.4991C149.176 13.0332 145.298 10.7445 141.002 10.1355L140.979 10.1587ZM27.3684 108.112C22.7461 108.112 18.3131 109.949 15.0446 113.217C11.7762 116.486 9.93994 120.919 9.93994 125.541V146.804C9.93994 151.426 11.7762 155.859 15.0446 159.127C18.3131 162.396 22.7461 164.232 27.3684 164.232C31.9907 164.232 36.4237 162.396 39.6922 159.127C42.9607 155.859 44.7969 151.426 44.7969 146.804V125.541C44.7969 120.919 42.9607 116.486 39.6922 113.217C36.4237 109.949 31.9907 108.112 27.3684 108.112V108.112ZM79.6247 139.158V109.803C79.6247 105.181 77.7885 100.748 74.5201 97.4792C71.2516 94.2108 66.8186 92.3746 62.1963 92.3746V92.3746C57.574 92.3746 53.141 94.2108 49.8725 97.4792C46.604 100.748 44.7678 105.181 44.7678 109.803V139.158H79.6247Z" stroke="#FFFF8F" stroke-width="1.9" stroke-linecap="round" stroke-linejoin="round"/>
</svg>
