<svg width="165" height="250" viewBox="0 0 165 250" fill="none" xmlns="http://www.w3.org/2000/svg">
<path d="M140.549 173.144C140.549 164.131 136.969 155.488 130.597 149.115C124.224 142.741 115.582 139.16 106.569 139.158H53.6678C52.4848 139.158 51.3134 139.391 50.2205 139.844C49.1277 140.297 48.1347 140.961 47.2985 141.798C46.4623 142.635 45.7991 143.628 45.3469 144.721C44.8947 145.814 44.6624 146.986 44.6631 148.169V148.169C44.6631 154.794 47.295 161.148 51.9798 165.833C56.6647 170.518 63.0186 173.15 69.6439 173.15H96.3676M67.2795 210.813V202.215C67.2795 194.511 70.3398 187.122 75.7873 181.675C81.2347 176.227 88.623 173.167 96.3269 173.167V173.167L67.2795 210.813ZM140.979 10.1587C136.677 9.55569 132.312 10.6857 128.843 13.3003C125.374 15.9149 123.086 19.8 122.481 24.1015L109.451 113.631L96.4721 24.3397C96.1832 22.201 95.4744 20.1405 94.3866 18.2766C93.2987 16.4128 91.8531 14.7824 90.133 13.479C88.4129 12.1757 86.4522 11.2252 84.3635 10.6821C82.2749 10.1391 80.0995 10.0142 77.9624 10.3147C75.8253 10.6152 73.7687 11.3351 71.9107 12.4331C70.0528 13.531 68.4302 14.9854 67.1362 16.7125C65.8422 18.4396 64.9023 20.4055 64.3706 22.497C63.8388 24.5886 63.7257 26.7647 64.0378 28.9001L73.5537 96.5923C71.0248 94.4195 67.9257 93.0178 64.6241 92.5533C61.3225 92.0889 57.9569 92.5811 54.9267 93.9718C51.8964 95.3625 49.3287 97.5931 47.5281 100.399C45.7274 103.205 44.7694 106.469 44.7677 109.803V125.529C44.8636 123.183 44.4841 120.841 43.6522 118.644C42.8203 116.448 41.553 114.443 39.9265 112.748C38.3001 111.054 36.3479 109.706 34.1873 108.785C32.0268 107.864 29.7024 107.389 27.3538 107.389C25.0052 107.389 22.6807 107.864 20.5202 108.785C18.3596 109.706 16.4075 111.054 14.781 112.748C13.1545 114.443 11.8872 116.448 11.0553 118.644C10.2234 120.841 9.84396 123.183 9.93982 125.529V172.749C9.93982 207.53 36.1871 237.902 70.8988 240.139C106.656 242.463 140.549 215.46 140.549 173.132C140.549 117.239 140.549 135.917 154.921 28.6212C155.523 24.3247 154.395 19.9649 151.785 16.4991C149.176 13.0332 145.297 10.7445 141.002 10.1355L140.979 10.1587ZM27.3683 108.112C22.746 108.112 18.313 109.949 15.0445 113.217C11.776 116.486 9.93982 120.919 9.93982 125.541V146.804C9.93982 151.426 11.776 155.859 15.0445 159.127C18.313 162.396 22.746 164.232 27.3683 164.232C31.9906 164.232 36.4236 162.396 39.6921 159.127C42.9605 155.859 44.7967 151.426 44.7967 146.804V125.541C44.7967 120.919 42.9605 116.486 39.6921 113.217C36.4236 109.949 31.9906 108.112 27.3683 108.112V108.112ZM79.6246 139.158V109.803C79.6246 105.181 77.7884 100.748 74.5199 97.4792C71.2515 94.2108 66.8185 92.3746 62.1962 92.3746V92.3746C57.5738 92.3746 53.1409 94.2108 49.8724 97.4792C46.6039 100.748 44.7677 105.181 44.7677 109.803V139.158H79.6246Z" stroke="#333333" stroke-width="18.8" stroke-linecap="round" stroke-linejoin="round"/>
<path opacity="0.2" d="M140.549 173.144C140.549 164.131 136.969 155.488 130.597 149.115C124.224 142.741 115.582 139.16 106.569 139.158H53.6678C52.4848 139.158 51.3134 139.391 50.2205 139.844C49.1277 140.297 48.1347 140.961 47.2985 141.798C46.4623 142.635 45.7991 143.628 45.3469 144.721C44.8947 145.814 44.6624 146.986 44.6631 148.169V148.169C44.6631 154.794 47.295 161.148 51.9798 165.833C56.6647 170.518 63.0186 173.15 69.6439 173.15H96.3676M67.2795 210.813V202.215C67.2795 194.511 70.3398 187.122 75.7873 181.675C81.2347 176.227 88.623 173.167 96.3269 173.167V173.167L67.2795 210.813ZM140.979 10.1587C136.677 9.55569 132.312 10.6857 128.843 13.3003C125.374 15.9149 123.086 19.8 122.481 24.1015L109.451 113.631L96.4721 24.3397C96.1832 22.201 95.4744 20.1405 94.3866 18.2766C93.2987 16.4128 91.8531 14.7824 90.133 13.479C88.4129 12.1757 86.4522 11.2252 84.3635 10.6821C82.2749 10.1391 80.0995 10.0142 77.9624 10.3147C75.8253 10.6152 73.7687 11.3351 71.9107 12.4331C70.0528 13.531 68.4302 14.9854 67.1362 16.7125C65.8422 18.4396 64.9023 20.4055 64.3706 22.497C63.8388 24.5886 63.7257 26.7647 64.0378 28.9001L73.5537 96.5923C71.0248 94.4195 67.9257 93.0178 64.6241 92.5533C61.3225 92.0889 57.9569 92.5811 54.9267 93.9718C51.8964 95.3625 49.3287 97.5931 47.5281 100.399C45.7274 103.205 44.7694 106.469 44.7677 109.803V125.529C44.8636 123.183 44.4841 120.841 43.6522 118.644C42.8203 116.448 41.553 114.443 39.9265 112.748C38.3001 111.054 36.3479 109.706 34.1873 108.785C32.0268 107.864 29.7024 107.389 27.3538 107.389C25.0052 107.389 22.6807 107.864 20.5202 108.785C18.3596 109.706 16.4075 111.054 14.781 112.748C13.1545 114.443 11.8872 116.448 11.0553 118.644C10.2234 120.841 9.84396 123.183 9.93982 125.529V172.749C9.93982 207.53 36.1871 237.902 70.8988 240.139C106.656 242.463 140.549 215.46 140.549 173.132C140.549 117.239 140.549 135.917 154.921 28.6212C155.523 24.3247 154.395 19.9649 151.785 16.4991C149.176 13.0332 145.297 10.7445 141.002 10.1355L140.979 10.1587ZM27.3683 108.112C22.746 108.112 18.313 109.949 15.0445 113.217C11.776 116.486 9.93982 120.919 9.93982 125.541V146.804C9.93982 151.426 11.776 155.859 15.0445 159.127C18.313 162.396 22.746 164.232 27.3683 164.232C31.9906 164.232 36.4236 162.396 39.6921 159.127C42.9605 155.859 44.7967 151.426 44.7967 146.804V125.541C44.7967 120.919 42.9605 116.486 39.6921 113.217C36.4236 109.949 31.9906 108.112 27.3683 108.112V108.112ZM79.6246 139.158V109.803C79.6246 105.181 77.7884 100.748 74.5199 97.4792C71.2515 94.2108 66.8185 92.3746 62.1962 92.3746V92.3746C57.5738 92.3746 53.1409 94.2108 49.8724 97.4792C46.6039 100.748 44.7677 105.181 44.7677 109.803V139.158H79.6246Z" stroke="white" stroke-width="19.04" stroke-linecap="round" stroke-linejoin="round"/>
<path opacity="0.25" d="M140.549 173.144C140.549 164.131 136.969 155.488 130.597 149.115C124.224 142.741 115.582 139.16 106.569 139.158H53.6678C52.4848 139.158 51.3134 139.391 50.2205 139.844C49.1277 140.297 48.1347 140.961 47.2985 141.798C46.4623 142.635 45.7991 143.628 45.3469 144.721C44.8947 145.814 44.6624 146.986 44.6631 148.169V148.169C44.6631 154.794 47.295 161.148 51.9798 165.833C56.6647 170.518 63.0186 173.15 69.6439 173.15H96.3676M67.2795 210.813V202.215C67.2795 194.511 70.3398 187.122 75.7873 181.675C81.2347 176.227 88.623 173.167 96.3269 173.167V173.167L67.2795 210.813ZM140.979 10.1587C136.677 9.55569 132.312 10.6857 128.843 13.3003C125.374 15.9149 123.086 19.8 122.481 24.1015L109.451 113.631L96.4721 24.3397C96.1832 22.201 95.4744 20.1405 94.3866 18.2766C93.2987 16.4128 91.8531 14.7824 90.133 13.479C88.4129 12.1757 86.4522 11.2252 84.3635 10.6821C82.2749 10.1391 80.0995 10.0142 77.9624 10.3147C75.8253 10.6152 73.7687 11.3351 71.9107 12.4331C70.0528 13.531 68.4302 14.9854 67.1362 16.7125C65.8422 18.4396 64.9023 20.4055 64.3706 22.497C63.8388 24.5886 63.7257 26.7647 64.0378 28.9001L73.5537 96.5923C71.0248 94.4195 67.9257 93.0178 64.6241 92.5533C61.3225 92.0889 57.9569 92.5811 54.9267 93.9718C51.8964 95.3625 49.3287 97.5931 47.5281 100.399C45.7274 103.205 44.7694 106.469 44.7677 109.803V125.529C44.8636 123.183 44.4841 120.841 43.6522 118.644C42.8203 116.448 41.553 114.443 39.9265 112.748C38.3001 111.054 36.3479 109.706 34.1873 108.785C32.0268 107.864 29.7024 107.389 27.3538 107.389C25.0052 107.389 22.6807 107.864 20.5202 108.785C18.3596 109.706 16.4075 111.054 14.781 112.748C13.1545 114.443 11.8872 116.448 11.0553 118.644C10.2234 120.841 9.84396 123.183 9.93982 125.529V172.749C9.93982 207.53 36.1871 237.902 70.8988 240.139C106.656 242.463 140.549 215.46 140.549 173.132C140.549 117.239 140.549 135.917 154.921 28.6212C155.523 24.3247 154.395 19.9649 151.785 16.4991C149.176 13.0332 145.297 10.7445 141.002 10.1355L140.979 10.1587ZM27.3683 108.112C22.746 108.112 18.313 109.949 15.0445 113.217C11.776 116.486 9.93982 120.919 9.93982 125.541V146.804C9.93982 151.426 11.776 155.859 15.0445 159.127C18.313 162.396 22.746 164.232 27.3683 164.232C31.9906 164.232 36.4236 162.396 39.6921 159.127C42.9605 155.859 44.7967 151.426 44.7967 146.804V125.541C44.7967 120.919 42.9605 116.486 39.6921 113.217C36.4236 109.949 31.9906 108.112 27.3683 108.112V108.112ZM79.6246 139.158V109.803C79.6246 105.181 77.7884 100.748 74.5199 97.4792C71.2515 94.2108 66.8185 92.3746 62.1962 92.3746V92.3746C57.5738 92.3746 53.1409 94.2108 49.8724 97.4792C46.6039 100.748 44.7677 105.181 44.7677 109.803V139.158H79.6246Z" stroke="white" stroke-width="16.18" stroke-linecap="round" stroke-linejoin="round"/>
<path opacity="0.3" d="M140.549 173.144C140.549 164.131 136.969 155.488 130.597 149.115C124.224 142.741 115.582 139.16 106.569 139.158H53.6678C52.4848 139.158 51.3134 139.391 50.2205 139.844C49.1277 140.297 48.1347 140.961 47.2985 141.798C46.4623 142.635 45.7991 143.628 45.3469 144.721C44.8947 145.814 44.6624 146.986 44.6631 148.169V148.169C44.6631 154.794 47.295 161.148 51.9798 165.833C56.6647 170.518 63.0186 173.15 69.6439 173.15H96.3676M67.2795 210.813V202.215C67.2795 194.511 70.3398 187.122 75.7873 181.675C81.2347 176.227 88.623 173.167 96.3269 173.167V173.167L67.2795 210.813ZM140.979 10.1587C136.677 9.55569 132.312 10.6857 128.843 13.3003C125.374 15.9149 123.086 19.8 122.481 24.1015L109.451 113.631L96.4721 24.3397C96.1832 22.201 95.4744 20.1405 94.3866 18.2766C93.2987 16.4128 91.8531 14.7824 90.133 13.479C88.4129 12.1757 86.4522 11.2252 84.3635 10.6821C82.2749 10.1391 80.0995 10.0142 77.9624 10.3147C75.8253 10.6152 73.7687 11.3351 71.9107 12.4331C70.0528 13.531 68.4302 14.9854 67.1362 16.7125C65.8422 18.4396 64.9023 20.4055 64.3706 22.497C63.8388 24.5886 63.7257 26.7647 64.0378 28.9001L73.5537 96.5923C71.0248 94.4195 67.9257 93.0178 64.6241 92.5533C61.3225 92.0889 57.9569 92.5811 54.9267 93.9718C51.8964 95.3625 49.3287 97.5931 47.5281 100.399C45.7274 103.205 44.7694 106.469 44.7677 109.803V125.529C44.8636 123.183 44.4841 120.841 43.6522 118.644C42.8203 116.448 41.553 114.443 39.9265 112.748C38.3001 111.054 36.3479 109.706 34.1873 108.785C32.0268 107.864 29.7024 107.389 27.3538 107.389C25.0052 107.389 22.6807 107.864 20.5202 108.785C18.3596 109.706 16.4075 111.054 14.781 112.748C13.1545 114.443 11.8872 116.448 11.0553 118.644C10.2234 120.841 9.84396 123.183 9.93982 125.529V172.749C9.93982 207.53 36.1871 237.902 70.8988 240.139C106.656 242.463 140.549 215.46 140.549 173.132C140.549 117.239 140.549 135.917 154.921 28.6212C155.523 24.3247 154.395 19.9649 151.785 16.4991C149.176 13.0332 145.297 10.7445 141.002 10.1355L140.979 10.1587ZM27.3683 108.112C22.746 108.112 18.313 109.949 15.0445 113.217C11.776 116.486 9.93982 120.919 9.93982 125.541V146.804C9.93982 151.426 11.776 155.859 15.0445 159.127C18.313 162.396 22.746 164.232 27.3683 164.232C31.9906 164.232 36.4236 162.396 39.6921 159.127C42.9605 155.859 44.7967 151.426 44.7967 146.804V125.541C44.7967 120.919 42.9605 116.486 39.6921 113.217C36.4236 109.949 31.9906 108.112 27.3683 108.112V108.112ZM79.6246 139.158V109.803C79.6246 105.181 77.7884 100.748 74.5199 97.4792C71.2515 94.2108 66.8185 92.3746 62.1962 92.3746V92.3746C57.5738 92.3746 53.1409 94.2108 49.8724 97.4792C46.6039 100.748 44.7677 105.181 44.7677 109.803V139.158H79.6246Z" stroke="white" stroke-width="9.52" stroke-linecap="round" stroke-linejoin="round"/>
<path d="M140.549 173.144C140.549 164.131 136.969 155.488 130.597 149.115C124.224 142.741 115.582 139.16 106.569 139.158H53.6678C52.4848 139.158 51.3134 139.391 50.2205 139.844C49.1277 140.297 48.1347 140.961 47.2985 141.798C46.4623 142.635 45.7991 143.628 45.3469 144.721C44.8947 145.814 44.6624 146.986 44.6631 148.169V148.169C44.6631 154.794 47.295 161.148 51.9798 165.833C56.6647 170.518 63.0186 173.15 69.6439 173.15H96.3676M67.2795 210.813V202.215C67.2795 194.511 70.3398 187.122 75.7873 181.675C81.2347 176.227 88.623 173.167 96.3269 173.167V173.167L67.2795 210.813ZM140.979 10.1587C136.677 9.55569 132.312 10.6857 128.843 13.3003C125.374 15.9149 123.086 19.8 122.481 24.1015L109.451 113.631L96.4721 24.3397C96.1832 22.201 95.4744 20.1405 94.3866 18.2766C93.2987 16.4128 91.8531 14.7824 90.133 13.479C88.4129 12.1757 86.4522 11.2252 84.3635 10.6821C82.2749 10.1391 80.0995 10.0142 77.9624 10.3147C75.8253 10.6152 73.7687 11.3351 71.9107 12.4331C70.0528 13.531 68.4302 14.9854 67.1362 16.7125C65.8422 18.4396 64.9023 20.4055 64.3706 22.497C63.8388 24.5886 63.7257 26.7647 64.0378 28.9001L73.5537 96.5923C71.0248 94.4195 67.9257 93.0178 64.6241 92.5533C61.3225 92.0889 57.9569 92.5811 54.9267 93.9718C51.8964 95.3625 49.3287 97.5931 47.5281 100.399C45.7274 103.205 44.7694 106.469 44.7677 109.803V125.529C44.8636 123.183 44.4841 120.841 43.6522 118.644C42.8203 116.448 41.553 114.443 39.9265 112.748C38.3001 111.054 36.3479 109.706 34.1873 108.785C32.0268 107.864 29.7024 107.389 27.3538 107.389C25.0052 107.389 22.6807 107.864 20.5202 108.785C18.3596 109.706 16.4075 111.054 14.781 112.748C13.1545 114.443 11.8872 116.448 11.0553 118.644C10.2234 120.841 9.84396 123.183 9.93982 125.529V172.749C9.93982 207.53 36.1871 237.902 70.8988 240.139C106.656 242.463 140.549 215.46 140.549 173.132C140.549 117.239 140.549 135.917 154.921 28.6212C155.523 24.3247 154.395 19.9649 151.785 16.4991C149.176 13.0332 145.297 10.7445 141.002 10.1355L140.979 10.1587ZM27.3683 108.112C22.746 108.112 18.313 109.949 15.0445 113.217C11.776 116.486 9.93982 120.919 9.93982 125.541V146.804C9.93982 151.426 11.776 155.859 15.0445 159.127C18.313 162.396 22.746 164.232 27.3683 164.232C31.9906 164.232 36.4236 162.396 39.6921 159.127C42.9605 155.859 44.7967 151.426 44.7967 146.804V125.541C44.7967 120.919 42.9605 116.486 39.6921 113.217C36.4236 109.949 31.9906 108.112 27.3683 108.112V108.112ZM79.6246 139.158V109.803C79.6246 105.181 77.7884 100.748 74.5199 97.4792C71.2515 94.2108 66.8185 92.3746 62.1962 92.3746V92.3746C57.5738 92.3746 53.1409 94.2108 49.8724 97.4792C46.6039 100.748 44.7677 105.181 44.7677 109.803V139.158H79.6246Z" stroke="white" stroke-width="13.33" stroke-linecap="round" stroke-linejoin="round"/>
<path d="M140.549 173.144C140.549 164.131 136.969 155.488 130.597 149.115C124.224 142.741 115.582 139.16 106.569 139.158H53.6678C52.4848 139.158 51.3134 139.391 50.2205 139.844C49.1277 140.297 48.1347 140.961 47.2985 141.798C46.4623 142.635 45.7991 143.628 45.3469 144.721C44.8947 145.814 44.6624 146.986 44.6631 148.169V148.169C44.6631 154.794 47.295 161.148 51.9798 165.833C56.6647 170.518 63.0186 173.15 69.6439 173.15H96.3676M67.2795 210.813V202.215C67.2795 194.511 70.3398 187.122 75.7873 181.675C81.2347 176.227 88.623 173.167 96.3269 173.167V173.167L67.2795 210.813ZM140.979 10.1587C136.677 9.55569 132.312 10.6857 128.843 13.3003C125.374 15.9149 123.086 19.8 122.481 24.1015L109.451 113.631L96.4721 24.3397C96.1832 22.201 95.4744 20.1405 94.3866 18.2766C93.2987 16.4128 91.8531 14.7824 90.133 13.479C88.4129 12.1757 86.4522 11.2252 84.3635 10.6821C82.2749 10.1391 80.0995 10.0142 77.9624 10.3147C75.8253 10.6152 73.7687 11.3351 71.9107 12.4331C70.0528 13.531 68.4302 14.9854 67.1362 16.7125C65.8422 18.4396 64.9023 20.4055 64.3706 22.497C63.8388 24.5886 63.7257 26.7647 64.0378 28.9001L73.5537 96.5923C71.0248 94.4195 67.9257 93.0178 64.6241 92.5533C61.3225 92.0889 57.9569 92.5811 54.9267 93.9718C51.8964 95.3625 49.3287 97.5931 47.5281 100.399C45.7274 103.205 44.7694 106.469 44.7677 109.803V125.529C44.8636 123.183 44.4841 120.841 43.6522 118.644C42.8203 116.448 41.553 114.443 39.9265 112.748C38.3001 111.054 36.3479 109.706 34.1873 108.785C32.0268 107.864 29.7024 107.389 27.3538 107.389C25.0052 107.389 22.6807 107.864 20.5202 108.785C18.3596 109.706 16.4075 111.054 14.781 112.748C13.1545 114.443 11.8872 116.448 11.0553 118.644C10.2234 120.841 9.84396 123.183 9.93982 125.529V172.749C9.93982 207.53 36.1871 237.902 70.8988 240.139C106.656 242.463 140.549 215.46 140.549 173.132C140.549 117.239 140.549 135.917 154.921 28.6212C155.523 24.3247 154.395 19.9649 151.785 16.4991C149.176 13.0332 145.297 10.7445 141.002 10.1355L140.979 10.1587ZM27.3683 108.112C22.746 108.112 18.313 109.949 15.0445 113.217C11.776 116.486 9.93982 120.919 9.93982 125.541V146.804C9.93982 151.426 11.776 155.859 15.0445 159.127C18.313 162.396 22.746 164.232 27.3683 164.232C31.9906 164.232 36.4236 162.396 39.6921 159.127C42.9605 155.859 44.7967 151.426 44.7967 146.804V125.541C44.7967 120.919 42.9605 116.486 39.6921 113.217C36.4236 109.949 31.9906 108.112 27.3683 108.112V108.112ZM79.6246 139.158V109.803C79.6246 105.181 77.7884 100.748 74.5199 97.4792C71.2515 94.2108 66.8185 92.3746 62.1962 92.3746V92.3746C57.5738 92.3746 53.1409 94.2108 49.8724 97.4792C46.6039 100.748 44.7677 105.181 44.7677 109.803V139.158H79.6246Z" stroke="white" stroke-width="10.47" stroke-linecap="round" stroke-linejoin="round"/>
<path d="M140.549 173.144C140.549 164.131 136.969 155.488 130.597 149.115C124.224 142.741 115.582 139.16 106.569 139.158H53.6678C52.4848 139.158 51.3134 139.391 50.2205 139.844C49.1277 140.297 48.1347 140.961 47.2985 141.798C46.4623 142.635 45.7991 143.628 45.3469 144.721C44.8947 145.814 44.6624 146.986 44.6631 148.169V148.169C44.6631 154.794 47.295 161.148 51.9798 165.833C56.6647 170.518 63.0186 173.15 69.6439 173.15H96.3676M67.2795 210.813V202.215C67.2795 194.511 70.3398 187.122 75.7873 181.675C81.2347 176.227 88.623 173.167 96.3269 173.167V173.167L67.2795 210.813ZM140.979 10.1587C136.677 9.55569 132.312 10.6857 128.843 13.3003C125.374 15.9149 123.086 19.8 122.481 24.1015L109.451 113.631L96.4721 24.3397C96.1832 22.201 95.4744 20.1405 94.3866 18.2766C93.2987 16.4128 91.8531 14.7824 90.133 13.479C88.4129 12.1757 86.4522 11.2252 84.3635 10.6821C82.2749 10.1391 80.0995 10.0142 77.9624 10.3147C75.8253 10.6152 73.7687 11.3351 71.9107 12.4331C70.0528 13.531 68.4302 14.9854 67.1362 16.7125C65.8422 18.4396 64.9023 20.4055 64.3706 22.497C63.8388 24.5886 63.7257 26.7647 64.0378 28.9001L73.5537 96.5923C71.0248 94.4195 67.9257 93.0178 64.6241 92.5533C61.3225 92.0889 57.9569 92.5811 54.9267 93.9718C51.8964 95.3625 49.3287 97.5931 47.5281 100.399C45.7274 103.205 44.7694 106.469 44.7677 109.803V125.529C44.8636 123.183 44.4841 120.841 43.6522 118.644C42.8203 116.448 41.553 114.443 39.9265 112.748C38.3001 111.054 36.3479 109.706 34.1873 108.785C32.0268 107.864 29.7024 107.389 27.3538 107.389C25.0052 107.389 22.6807 107.864 20.5202 108.785C18.3596 109.706 16.4075 111.054 14.781 112.748C13.1545 114.443 11.8872 116.448 11.0553 118.644C10.2234 120.841 9.84396 123.183 9.93982 125.529V172.749C9.93982 207.53 36.1871 237.902 70.8988 240.139C106.656 242.463 140.549 215.46 140.549 173.132C140.549 117.239 140.549 135.917 154.921 28.6212C155.523 24.3247 154.395 19.9649 151.785 16.4991C149.176 13.0332 145.297 10.7445 141.002 10.1355L140.979 10.1587ZM27.3683 108.112C22.746 108.112 18.313 109.949 15.0445 113.217C11.776 116.486 9.93982 120.919 9.93982 125.541V146.804C9.93982 151.426 11.776 155.859 15.0445 159.127C18.313 162.396 22.746 164.232 27.3683 164.232C31.9906 164.232 36.4236 162.396 39.6921 159.127C42.9605 155.859 44.7967 151.426 44.7967 146.804V125.541C44.7967 120.919 42.9605 116.486 39.6921 113.217C36.4236 109.949 31.9906 108.112 27.3683 108.112V108.112ZM79.6246 139.158V109.803C79.6246 105.181 77.7884 100.748 74.5199 97.4792C71.2515 94.2108 66.8185 92.3746 62.1962 92.3746V92.3746C57.5738 92.3746 53.1409 94.2108 49.8724 97.4792C46.6039 100.748 44.7677 105.181 44.7677 109.803V139.158H79.6246Z" stroke="white" stroke-width="7.61" stroke-linecap="round" stroke-linejoin="round"/>
<path d="M140.549 173.144C140.549 164.131 136.969 155.488 130.597 149.115C124.224 142.741 115.582 139.16 106.569 139.158H53.6678C52.4848 139.158 51.3134 139.391 50.2205 139.844C49.1277 140.297 48.1347 140.961 47.2985 141.798C46.4623 142.635 45.7991 143.628 45.3469 144.721C44.8947 145.814 44.6624 146.986 44.6631 148.169V148.169C44.6631 154.794 47.295 161.148 51.9798 165.833C56.6647 170.518 63.0186 173.15 69.6439 173.15H96.3676M67.2795 210.813V202.215C67.2795 194.511 70.3398 187.122 75.7873 181.675C81.2347 176.227 88.623 173.167 96.3269 173.167V173.167L67.2795 210.813ZM140.979 10.1587C136.677 9.55569 132.312 10.6857 128.843 13.3003C125.374 15.9149 123.086 19.8 122.481 24.1015L109.451 113.631L96.4721 24.3397C96.1832 22.201 95.4744 20.1405 94.3866 18.2766C93.2987 16.4128 91.8531 14.7824 90.133 13.479C88.4129 12.1757 86.4522 11.2252 84.3635 10.6821C82.2749 10.1391 80.0995 10.0142 77.9624 10.3147C75.8253 10.6152 73.7687 11.3351 71.9107 12.4331C70.0528 13.531 68.4302 14.9854 67.1362 16.7125C65.8422 18.4396 64.9023 20.4055 64.3706 22.497C63.8388 24.5886 63.7257 26.7647 64.0378 28.9001L73.5537 96.5923C71.0248 94.4195 67.9257 93.0178 64.6241 92.5533C61.3225 92.0889 57.9569 92.5811 54.9267 93.9718C51.8964 95.3625 49.3287 97.5931 47.5281 100.399C45.7274 103.205 44.7694 106.469 44.7677 109.803V125.529C44.8636 123.183 44.4841 120.841 43.6522 118.644C42.8203 116.448 41.553 114.443 39.9265 112.748C38.3001 111.054 36.3479 109.706 34.1873 108.785C32.0268 107.864 29.7024 107.389 27.3538 107.389C25.0052 107.389 22.6807 107.864 20.5202 108.785C18.3596 109.706 16.4075 111.054 14.781 112.748C13.1545 114.443 11.8872 116.448 11.0553 118.644C10.2234 120.841 9.84396 123.183 9.93982 125.529V172.749C9.93982 207.53 36.1871 237.902 70.8988 240.139C106.656 242.463 140.549 215.46 140.549 173.132C140.549 117.239 140.549 135.917 154.921 28.6212C155.523 24.3247 154.395 19.9649 151.785 16.4991C149.176 13.0332 145.297 10.7445 141.002 10.1355L140.979 10.1587ZM27.3683 108.112C22.746 108.112 18.313 109.949 15.0445 113.217C11.776 116.486 9.93982 120.919 9.93982 125.541V146.804C9.93982 151.426 11.776 155.859 15.0445 159.127C18.313 162.396 22.746 164.232 27.3683 164.232C31.9906 164.232 36.4236 162.396 39.6921 159.127C42.9605 155.859 44.7967 151.426 44.7967 146.804V125.541C44.7967 120.919 42.9605 116.486 39.6921 113.217C36.4236 109.949 31.9906 108.112 27.3683 108.112V108.112ZM79.6246 139.158V109.803C79.6246 105.181 77.7884 100.748 74.5199 97.4792C71.2515 94.2108 66.8185 92.3746 62.1962 92.3746V92.3746C57.5738 92.3746 53.1409 94.2108 49.8724 97.4792C46.6039 100.748 44.7677 105.181 44.7677 109.803V139.158H79.6246Z" stroke="white" stroke-width="4.76" stroke-linecap="round" stroke-linejoin="round"/>
<path d="M140.549 173.144C140.549 164.131 136.969 155.488 130.597 149.115C124.224 142.741 115.582 139.16 106.569 139.158H53.6678C52.4848 139.158 51.3134 139.391 50.2205 139.844C49.1277 140.297 48.1347 140.961 47.2985 141.798C46.4623 142.635 45.7991 143.628 45.3469 144.721C44.8947 145.814 44.6624 146.986 44.6631 148.169V148.169C44.6631 154.794 47.295 161.148 51.9798 165.833C56.6647 170.518 63.0186 173.15 69.6439 173.15H96.3676M67.2795 210.813V202.215C67.2795 194.511 70.3398 187.122 75.7873 181.675C81.2347 176.227 88.623 173.167 96.3269 173.167V173.167L67.2795 210.813ZM140.979 10.1587C136.677 9.55569 132.312 10.6857 128.843 13.3003C125.374 15.9149 123.086 19.8 122.481 24.1015L109.451 113.631L96.4721 24.3397C96.1832 22.201 95.4744 20.1405 94.3866 18.2766C93.2987 16.4128 91.8531 14.7824 90.133 13.479C88.4129 12.1757 86.4522 11.2252 84.3635 10.6821C82.2749 10.1391 80.0995 10.0142 77.9624 10.3147C75.8253 10.6152 73.7687 11.3351 71.9107 12.4331C70.0528 13.531 68.4302 14.9854 67.1362 16.7125C65.8422 18.4396 64.9023 20.4055 64.3706 22.497C63.8388 24.5886 63.7257 26.7647 64.0378 28.9001L73.5537 96.5923C71.0248 94.4195 67.9257 93.0178 64.6241 92.5533C61.3225 92.0889 57.9569 92.5811 54.9267 93.9718C51.8964 95.3625 49.3287 97.5931 47.5281 100.399C45.7274 103.205 44.7694 106.469 44.7677 109.803V125.529C44.8636 123.183 44.4841 120.841 43.6522 118.644C42.8203 116.448 41.553 114.443 39.9265 112.748C38.3001 111.054 36.3479 109.706 34.1873 108.785C32.0268 107.864 29.7024 107.389 27.3538 107.389C25.0052 107.389 22.6807 107.864 20.5202 108.785C18.3596 109.706 16.4075 111.054 14.781 112.748C13.1545 114.443 11.8872 116.448 11.0553 118.644C10.2234 120.841 9.84396 123.183 9.93982 125.529V172.749C9.93982 207.53 36.1871 237.902 70.8988 240.139C106.656 242.463 140.549 215.46 140.549 173.132C140.549 117.239 140.549 135.917 154.921 28.6212C155.523 24.3247 154.395 19.9649 151.785 16.4991C149.176 13.0332 145.297 10.7445 141.002 10.1355L140.979 10.1587ZM27.3683 108.112C22.746 108.112 18.313 109.949 15.0445 113.217C11.776 116.486 9.93982 120.919 9.93982 125.541V146.804C9.93982 151.426 11.776 155.859 15.0445 159.127C18.313 162.396 22.746 164.232 27.3683 164.232C31.9906 164.232 36.4236 162.396 39.6921 159.127C42.9605 155.859 44.7967 151.426 44.7967 146.804V125.541C44.7967 120.919 42.9605 116.486 39.6921 113.217C36.4236 109.949 31.9906 108.112 27.3683 108.112V108.112ZM79.6246 139.158V109.803C79.6246 105.181 77.7884 100.748 74.5199 97.4792C71.2515 94.2108 66.8185 92.3746 62.1962 92.3746V92.3746C57.5738 92.3746 53.1409 94.2108 49.8724 97.4792C46.6039 100.748 44.7677 105.181 44.7677 109.803V139.158H79.6246Z" stroke="white" stroke-width="1.9" stroke-linecap="round" stroke-linejoin="round"/>
</svg>
