<svg width="32" height="32" viewBox="0 0 32 32" fill="none" xmlns="http://www.w3.org/2000/svg">
<path d="M25.2989 11.279C25.3148 11.4854 25.3148 11.6906 25.3148 11.8958C25.3148 18.1754 20.3651 25.4114 11.3193 25.4114C8.53241 25.4114 5.94336 24.6319 3.76465 23.2781C4.16033 23.3218 4.54136 23.3371 4.95292 23.3371C7.16704 23.3422 9.31846 22.6273 11.0604 21.3076C10.0338 21.2896 9.03871 20.9626 8.21395 20.3721C7.3892 19.7816 6.77599 18.9571 6.45995 18.0138C6.76404 18.0575 7.06935 18.087 7.38932 18.087C7.83019 18.087 8.2735 18.028 8.68506 17.9254C7.57099 17.7082 6.56922 17.1251 5.85008 16.2752C5.13094 15.4254 4.73883 14.3612 4.74043 13.2637V13.2048C5.39624 13.5574 6.15708 13.7779 6.9631 13.8074C6.28786 13.3741 5.73418 12.7862 5.35147 12.096C4.96875 11.4059 4.7689 10.635 4.76974 9.85211C4.76974 8.97002 5.01277 8.16104 5.43898 7.45583C6.67506 8.92405 8.21672 10.1252 9.96412 10.9815C11.7115 11.8377 13.6257 12.33 15.5827 12.4265C15.507 12.0727 15.4606 11.7059 15.4606 11.338C15.4602 10.7141 15.5873 10.0963 15.8344 9.51984C16.0815 8.94339 16.4438 8.41962 16.9006 7.97847C17.3575 7.53732 17.8999 7.18745 18.4969 6.94884C19.0938 6.71023 19.7337 6.58758 20.3798 6.58789C21.7964 6.58789 23.075 7.16102 23.9739 8.08792C25.0752 7.88228 26.1313 7.49407 27.0954 6.94049C26.7283 8.03818 25.9593 8.96896 24.9326 9.55848C25.9093 9.4509 26.8639 9.20287 27.7646 8.82261C27.0919 9.76968 26.2583 10.6002 25.2989 11.279Z" fill="white"/>
</svg>
