<svg width="32" height="32" viewBox="0 0 32 32" fill="none" xmlns="http://www.w3.org/2000/svg">
<path fill-rule="evenodd" clip-rule="evenodd" d="M20.5576 28.2362V18.76H23.7388L24.2147 15.0674H20.5564V12.7096C20.5564 11.6403 20.8537 10.911 22.388 10.911H24.3432V7.60751C23.3963 7.50674 22.4446 7.45773 21.4924 7.46068C18.6734 7.46068 16.7438 9.18219 16.7438 12.3426V15.0674H13.5529V18.76H16.7426V28.2362H5.11543C4.36907 28.2362 3.76465 27.6318 3.76465 26.8854V5.1164C3.76465 4.37005 4.36907 3.76562 5.11543 3.76562H26.8845C27.6308 3.76562 28.2352 4.37005 28.2352 5.1164V26.8854C28.2352 27.6318 27.6308 28.2362 26.8845 28.2362H20.5576V28.2362Z" fill="white"/>
</svg>
