<svg width="32" height="32" viewBox="0 0 32 32" fill="none" xmlns="http://www.w3.org/2000/svg">
<path d="M25.7882 6.11719H6.21171C4.86582 6.11719 3.76465 7.22895 3.76465 8.58778V23.4113C3.76465 24.7701 4.86582 25.8819 6.21171 25.8819H25.7882C27.1341 25.8819 28.2352 24.7701 28.2352 23.4113V8.58778C28.2352 7.22895 27.1341 6.11719 25.7882 6.11719ZM25.2988 11.3672L17.2969 16.4195C16.5016 16.926 15.4983 16.926 14.703 16.4195L6.70112 11.3672C6.57843 11.2977 6.471 11.2037 6.38531 11.091C6.29963 10.9784 6.23748 10.8493 6.20262 10.7117C6.16777 10.5741 6.16093 10.4308 6.18253 10.2904C6.20413 10.15 6.25372 10.0155 6.32829 9.89509C6.40286 9.77463 6.50086 9.6707 6.61636 9.58959C6.73186 9.50848 6.86247 9.45188 7.00027 9.4232C7.13807 9.39453 7.28019 9.39438 7.41805 9.42277C7.55591 9.45116 7.68663 9.50749 7.8023 9.58836L15.9999 14.7642L24.1976 9.58836C24.3133 9.50749 24.444 9.45116 24.5818 9.42277C24.7197 9.39438 24.8618 9.39453 24.9996 9.4232C25.1374 9.45188 25.268 9.50848 25.3835 9.58959C25.499 9.6707 25.597 9.77463 25.6716 9.89509C25.7462 10.0155 25.7958 10.15 25.8174 10.2904C25.839 10.4308 25.8321 10.5741 25.7973 10.7117C25.7624 10.8493 25.7003 10.9784 25.6146 11.091C25.5289 11.2037 25.4215 11.2977 25.2988 11.3672V11.3672Z" fill="white"/>
</svg>
