<svg width="32" height="32" viewBox="0 0 32 32" fill="none" xmlns="http://www.w3.org/2000/svg">
<path d="M15.9995 9.88281C14.377 9.88281 12.8209 10.5273 11.6737 11.6746C10.5264 12.8219 9.88184 14.378 9.88184 16.0005C9.88184 17.623 10.5264 19.179 11.6737 20.3263C12.8209 21.4736 14.377 22.1181 15.9995 22.1181C17.622 22.1181 19.178 21.4736 20.3253 20.3263C21.4726 19.179 22.1171 17.623 22.1171 16.0005C22.1171 14.378 21.4726 12.8219 20.3253 11.6746C19.178 10.5273 17.622 9.88281 15.9995 9.88281V9.88281ZM15.9995 19.9735C14.9454 19.9735 13.9345 19.5548 13.1892 18.8094C12.4439 18.0641 12.0251 17.0532 12.0251 15.9991C12.0251 14.9451 12.4439 13.9342 13.1892 13.1888C13.9345 12.4435 14.9454 12.0248 15.9995 12.0248C17.0535 12.0248 18.0644 12.4435 18.8098 13.1888C19.5551 13.9342 19.9738 14.9451 19.9738 15.9991C19.9738 17.0532 19.5551 18.0641 18.8098 18.8094C18.0644 19.5548 17.0535 19.9735 15.9995 19.9735V19.9735Z" fill="white"/>
<path d="M22.5551 10.7566C23.2791 10.7566 23.866 10.1697 23.866 9.44569C23.866 8.72169 23.2791 8.13477 22.5551 8.13477C21.8311 8.13477 21.2441 8.72169 21.2441 9.44569C21.2441 10.1697 21.8311 10.7566 22.5551 10.7566Z" fill="white"/>
<path d="M27.5871 7.97973C27.2725 7.16863 26.7917 6.43205 26.1756 5.81713C25.5595 5.20221 24.8216 4.72251 24.0091 4.40873C23.0584 4.05239 22.054 3.8597 21.0386 3.83889C19.7301 3.78191 19.3156 3.76562 15.9972 3.76562C12.6789 3.76562 12.2535 3.76562 10.9558 3.83889C9.94126 3.85864 8.93755 4.05136 7.98803 4.40873C7.17533 4.72215 6.43723 5.20172 5.82108 5.81668C5.20492 6.43165 4.72432 7.16842 4.41011 7.97973C4.05314 8.92894 3.8606 9.93189 3.84075 10.9456C3.78231 12.2508 3.76465 12.6646 3.76465 15.9792C3.76465 19.2924 3.76465 19.7144 3.84075 21.0128C3.86113 22.0277 4.05273 23.029 4.41011 23.98C4.72521 24.7911 5.20627 25.5275 5.82258 26.1424C6.43888 26.7573 7.17687 27.2371 7.98939 27.551C8.93711 27.9217 9.94123 28.1282 10.9585 28.1616C12.2671 28.2186 12.6816 28.2362 15.9999 28.2362C19.3183 28.2362 19.7436 28.2362 21.0414 28.1616C22.0566 28.141 23.061 27.9488 24.0119 27.5931C24.8241 27.2786 25.5618 26.7985 26.1779 26.1834C26.7939 25.5683 27.2748 24.8318 27.5898 24.0208C27.9472 23.071 28.1388 22.0697 28.1591 21.0549C28.2176 19.7497 28.2352 19.3358 28.2352 16.0213C28.2352 12.7067 28.2352 12.2861 28.1591 10.9877C28.1433 9.95962 27.9498 8.94202 27.5871 7.97973V7.97973ZM25.9319 20.9124C25.9232 21.6943 25.7802 22.4689 25.5093 23.2026C25.3053 23.7302 24.9929 24.2093 24.5922 24.6091C24.1915 25.009 23.7115 25.3206 23.1829 25.524C22.4563 25.7933 21.6887 25.936 20.9136 25.946C19.6227 26.0057 19.2585 26.0206 15.9483 26.0206C12.6354 26.0206 12.297 26.0206 10.9816 25.946C10.207 25.9365 9.43975 25.7938 8.71366 25.524C8.18328 25.3219 7.70131 25.0108 7.29893 24.6109C6.89655 24.211 6.58273 23.7312 6.37776 23.2026C6.11067 22.4768 5.96781 21.7113 5.95515 20.9382C5.89672 19.6493 5.88313 19.2856 5.88313 15.9806C5.88313 12.6741 5.88313 12.3363 5.95515 11.0216C5.96394 10.2401 6.10688 9.46596 6.37776 8.73274C6.79222 7.66225 7.64151 6.8197 8.71366 6.40996C9.4401 6.14151 10.2071 5.99881 10.9816 5.988C12.2739 5.92966 12.6367 5.91338 15.9483 5.91338C19.2599 5.91338 19.5996 5.91338 20.9136 5.988C21.6887 5.99731 22.4564 6.14006 23.1829 6.40996C23.7115 6.61384 24.1914 6.9258 24.5921 7.32581C24.9927 7.72583 25.3051 8.20505 25.5093 8.73274C25.7764 9.45854 25.9193 10.224 25.9319 10.9972C25.9904 12.2875 26.0053 12.6497 26.0053 15.9561C26.0053 19.2612 26.0053 19.6167 25.9469 20.9138H25.9319V20.9124Z" fill="white"/>
</svg>
