<svg width="32" height="25" viewBox="0 0 32 25" fill="none" xmlns="http://www.w3.org/2000/svg">
<path d="M27.471 21.9406C23.3902 22.5288 19.5666 22.823 16.0005 22.823C14.4196 22.823 12.6733 22.7494 10.7615 22.6024C8.84972 22.4553 7.33318 22.3083 6.21186 22.1612L4.52987 21.9406C4.03355 21.8487 3.59697 21.504 3.22013 20.9066C2.84329 20.3092 2.56756 19.5877 2.39292 18.7421C2.21829 17.8965 2.08961 17.106 2.00689 16.3708C1.92417 15.6355 1.88281 14.9645 1.88281 14.3579V10.1116C1.88281 5.42406 2.76517 2.89648 4.52987 2.52884C8.61075 1.9406 12.4343 1.64648 16.0005 1.64648C17.5813 1.64648 19.3277 1.72001 21.2394 1.86707C23.1512 2.01413 24.6677 2.16119 25.7891 2.30825L27.471 2.52884C28.0041 2.60237 28.4591 2.93784 28.8359 3.53527C29.2128 4.1327 29.4839 4.8634 29.6494 5.72737C29.8148 6.59134 29.9343 7.38178 30.0078 8.09869C30.0813 8.8156 30.1181 9.48656 30.1181 10.1116V14.3579C30.1181 15.0196 30.0905 15.6906 30.0354 16.3708C29.9802 17.0509 29.8699 17.8321 29.7045 18.7145C29.5391 19.5969 29.2633 20.3321 28.8773 20.9204C28.4913 21.5086 28.0225 21.8487 27.471 21.9406ZM20.9913 11.5454L13.767 7.13362C13.5648 6.94979 13.2983 6.89924 12.9674 6.98196C12.6365 7.06468 12.471 7.19796 12.471 7.38178V17.0877C12.471 17.2899 12.6365 17.4277 12.9674 17.5013C13.2983 17.5748 13.5648 17.5196 13.767 17.3358L20.9913 12.9241C21.1935 12.7402 21.2946 12.5105 21.2946 12.2347C21.2946 11.959 21.1935 11.7292 20.9913 11.5454Z" fill="white"/>
</svg>
