<svg width="47" height="32" viewBox="0 0 47 32" fill="none" xmlns="http://www.w3.org/2000/svg">
<path d="M29.3742 2.90909H44.0614V5.81818H29.3742V2.90909ZM36.7407 8.72727C39.9383 8.72727 42.4473 9.83333 44.2679 12.0455C46.0885 14.2576 46.9988 17.0303 46.9988 20.3636H29.3742C29.3742 22.9394 29.9938 25.0379 31.2331 26.6591C32.4723 28.2803 34.3005 29.0909 36.7178 29.0909C38.6455 29.0909 40.1907 28.5606 41.3534 27.5C42.5161 26.4394 43.3117 25.0303 43.7401 23.2727H46.7234C46.2338 25.8788 45.1246 27.9848 43.3958 29.5909C41.667 31.197 39.441 32 36.7178 32C33.5356 32 31.0265 30.8939 29.1906 28.6818C27.3548 26.4697 26.4368 23.697 26.4368 20.3636C26.4368 17.0303 27.3548 14.2576 29.1906 12.0455C31.0265 9.83333 33.5432 8.72727 36.7407 8.72727ZM43.7401 17.4545C43.3423 15.6667 42.5544 14.25 41.3764 13.2045C40.1983 12.1591 38.6531 11.6364 36.7407 11.6364C34.8284 11.6364 33.2832 12.1591 32.1051 13.2045C30.9271 14.25 30.1239 15.6667 29.6955 17.4545H43.7401ZM23.4994 23.2727C23.4994 25.6667 22.5432 27.7197 20.6308 29.4318C18.7184 31.1439 16.4006 32 13.6774 32H0V0H11.9792C14.3352 0 16.3547 0.848485 18.0376 2.54545C19.7205 4.24242 20.562 6.30303 20.562 8.72727C20.562 11.1818 19.7817 13.303 18.2212 15.0909C19.7205 15.7273 20.975 16.7955 21.9848 18.2955C22.9945 19.7955 23.4994 21.4545 23.4994 23.2727ZM12.1169 2.90909H2.93742V14.5455H12.1169C13.6468 14.5455 14.9472 13.9773 16.0181 12.8409C17.0891 11.7045 17.6245 10.3333 17.6245 8.72727C17.6245 7.12121 17.0891 5.75 16.0181 4.61364C14.9472 3.47727 13.6468 2.90909 12.1169 2.90909ZM13.9528 17.4545H2.93742V29.0909H13.9528C15.7581 29.0909 17.3109 28.5227 18.6113 27.3864C19.9118 26.25 20.562 24.8788 20.562 23.2727C20.562 21.6667 19.9118 20.2955 18.6113 19.1591C17.3109 18.0227 15.7581 17.4545 13.9528 17.4545Z" fill="white"/>
</svg>
