<svg width="24" height="24" viewBox="0 0 24 24" fill="none" xmlns="http://www.w3.org/2000/svg">
<path d="M12.0001 0.571289C5.6881 0.571289 0.571533 5.68786 0.571533 11.9999C0.571533 18.3119 5.6881 23.4284 12.0001 23.4284C18.3121 23.4284 23.4287 18.3119 23.4287 11.9999C23.4287 5.68786 18.3121 0.571289 12.0001 0.571289ZM12.0001 2.22729C14.4898 2.22729 16.7624 3.15872 18.4881 4.69129C17.2201 6.36386 15.2938 7.47757 13.3635 8.23129C12.2708 6.2412 11.0462 4.32645 9.69782 2.49986C10.4519 2.31809 11.225 2.22659 12.0007 2.22729H12.0001ZM7.84239 3.153C9.11668 5.05929 10.351 6.82672 11.4784 8.82729C8.62696 9.56615 5.40468 10.0096 2.4281 10.017C3.05553 6.97243 5.10068 4.44443 7.84239 3.15357V3.153ZM19.5721 5.82157C20.9842 7.54726 21.7611 9.70548 21.7727 11.9353C19.5121 11.4896 17.2641 11.373 14.975 11.6039C14.7178 10.9621 14.4058 10.3524 14.107 9.69529C16.0801 8.89929 18.1898 7.537 19.5721 5.821V5.82157ZM12.2721 10.3393C12.5167 10.8593 12.8001 11.4113 13.0664 11.9753C9.88353 13.3787 6.49782 15.2541 4.74068 18.5421C3.05382 16.6754 2.15485 14.2283 2.2321 11.7136C5.64068 11.6976 8.98639 11.2713 12.2721 10.3393V10.3393ZM17.4367 13.0039C18.8589 13.0042 20.2751 13.1866 21.651 13.5467C21.4388 14.8703 20.9566 16.136 20.2344 17.2653C19.5121 18.3945 18.5653 19.3631 17.4527 20.1107C16.9281 17.725 16.4281 15.4421 15.5441 13.1404C16.1706 13.0491 16.803 13.0033 17.4361 13.0033L17.4367 13.0039ZM21.7018 13.181C21.695 13.237 21.6887 13.2919 21.6807 13.3467C21.6887 13.2913 21.6955 13.2364 21.7018 13.181ZM13.7361 13.5867C14.6367 15.9141 15.3435 18.4913 15.8178 20.9993C14.6105 21.5116 13.3122 21.7747 12.0007 21.773C9.82802 21.7761 7.71683 21.0519 6.00353 19.7159C7.77325 16.845 10.5144 14.6724 13.7355 13.5873L13.7361 13.5867Z" fill="white"/>
</svg>
