<svg width="30" height="24" viewBox="0 0 30 24" fill="none" xmlns="http://www.w3.org/2000/svg">
<path d="M26.6747 0H3.04393C1.41932 0 0.0900879 1.35 0.0900879 3V21C0.0900879 22.65 1.41932 24 3.04393 24H26.6747C28.2993 24 29.6286 22.65 29.6286 21V3C29.6286 1.35 28.2993 0 26.6747 0ZM26.0839 6.375L16.4249 12.51C15.4649 13.125 14.2538 13.125 13.2938 12.51L3.6347 6.375C3.48661 6.29057 3.35692 6.17649 3.25349 6.03968C3.15006 5.90287 3.07504 5.74617 3.03297 5.57906C2.9909 5.41195 2.98265 5.2379 3.00872 5.06746C3.03479 4.89702 3.09465 4.73372 3.18466 4.58745C3.27467 4.44118 3.39297 4.31498 3.53239 4.21649C3.67182 4.118 3.82947 4.04927 3.9958 4.01445C4.16214 3.97963 4.33371 3.97945 4.50011 4.01392C4.66652 4.04839 4.82431 4.1168 4.96393 4.215L14.8593 10.5L24.7547 4.215C24.8943 4.1168 25.0521 4.04839 25.2185 4.01392C25.3849 3.97945 25.5565 3.97963 25.7228 4.01445C25.8892 4.04927 26.0468 4.118 26.1862 4.21649C26.3257 4.31498 26.444 4.44118 26.534 4.58745C26.624 4.73372 26.6838 4.89702 26.7099 5.06746C26.736 5.2379 26.7277 5.41195 26.6857 5.57906C26.6436 5.74617 26.5686 5.90287 26.4651 6.03968C26.3617 6.17649 26.232 6.29057 26.0839 6.375V6.375Z" fill="white"/>
</svg>
