<svg width="43" height="40" viewBox="0 0 43 40" fill="none" xmlns="http://www.w3.org/2000/svg">
<path fill-rule="evenodd" clip-rule="evenodd" d="M19.7582 0H41.9786H42.8516L42.8927 0.844477C43.3856 10.9538 42.2452 18.4187 38.1049 24.7735C34.549 30.2313 30.2976 32.3182 26.3661 32.4952C22.4959 32.6694 19.0896 30.9838 17.1725 29.171L16.4234 28.4625L17.721 27.2123L18.4513 27.9028C20.0561 29.4204 22.9846 30.873 26.2811 30.7246C29.5164 30.5789 33.2636 28.8824 36.557 23.8277C40.2953 18.0898 41.4826 11.2881 41.102 1.77255H19.7582V0ZM13.2356 28.4662L11.9379 27.2159L0 38.4789L0.638592 40H32.1527V38.2274H2.88944L13.2356 28.4662ZM11.9336 24.2168L13.2313 22.9665L13.1685 22.9071L7.88572 17.9114L6.60702 19.1797L11.8898 24.1753L11.9336 24.2168ZM16.4328 22.9751L17.7305 24.2254L32.7913 10.0161L32.1527 8.49498H0.638592V10.2675H29.9019L16.4328 22.9751ZM14.8276 24.2857C15.6465 24.2857 16.3103 24.9253 16.3103 25.7143C16.3103 26.5033 15.6465 27.1429 14.8276 27.1429C14.0087 27.1429 13.3448 26.5033 13.3448 25.7143C13.3448 24.9253 14.0087 24.2857 14.8276 24.2857Z" fill="#222222"/>
</svg>
