<svg width="24" height="24" viewBox="0 0 24 24" fill="none" xmlns="http://www.w3.org/2000/svg">
<g clip-path="url(#clip0)">
<path d="M12 6C10.4087 6 8.88259 6.63214 7.75737 7.75737C6.63214 8.88259 6 10.4087 6 12C6 13.5913 6.63214 15.1175 7.75737 16.2427C8.88259 17.3679 10.4087 18 12 18C13.5913 18 15.1175 17.3679 16.2427 16.2427C17.3679 15.1175 18 13.5913 18 12C18 10.4087 17.3679 8.88259 16.2427 7.75737C15.1175 6.63214 13.5913 6 12 6V6ZM12 15.8967C10.9662 15.8967 9.97477 15.486 9.24376 14.755C8.51276 14.024 8.10208 13.0325 8.10208 11.9987C8.10208 10.9649 8.51276 9.97347 9.24376 9.24247C9.97477 8.51146 10.9662 8.10079 12 8.10079C13.0338 8.10079 14.0253 8.51146 14.7563 9.24247C15.4873 9.97347 15.898 10.9649 15.898 11.9987C15.898 13.0325 15.4873 14.024 14.7563 14.755C14.0253 15.486 13.0338 15.8967 12 15.8967V15.8967Z" fill="white"/>
<path d="M18.4288 6.85757C19.1389 6.85757 19.7145 6.28193 19.7145 5.57185C19.7145 4.86177 19.1389 4.28613 18.4288 4.28613C17.7187 4.28613 17.1431 4.86177 17.1431 5.57185C17.1431 6.28193 17.7187 6.85757 18.4288 6.85757Z" fill="white"/>
<path d="M23.3644 4.13308C23.0558 3.33758 22.5844 2.61516 21.9801 2.01206C21.3758 1.40897 20.6521 0.938488 19.8552 0.630741C18.9228 0.281248 17.9377 0.0922706 16.9419 0.0718564C15.6584 0.015968 15.2519 0 11.9974 0C8.74281 0 8.32566 -1.33843e-07 7.05289 0.0718564C6.05785 0.0912269 5.07344 0.280243 4.14217 0.630741C3.34511 0.938129 2.6212 1.40848 2.01689 2.01162C1.41258 2.61476 0.941223 3.33737 0.633054 4.13308C0.282948 5.06404 0.0941112 6.04771 0.0746338 7.04194C0.0173257 8.32205 0 8.72791 0 11.9788C0 15.2283 -9.92973e-09 15.6421 0.0746338 16.9156C0.0946249 17.9109 0.282542 18.8929 0.633054 19.8258C0.942088 20.6212 1.4139 21.3435 2.01836 21.9466C2.62281 22.5496 3.34661 23.0201 4.14351 23.3281C5.07301 23.6916 6.05782 23.8941 7.05556 23.9269C8.33899 23.9828 8.74548 24.0001 12 24.0001C15.2546 24.0001 15.6718 24.0001 16.9445 23.9269C17.9402 23.9067 18.9253 23.7182 19.8579 23.3693C20.6546 23.0609 21.3781 22.59 21.9823 21.9867C22.5865 21.3835 23.0581 20.6611 23.367 19.8657C23.7175 18.9342 23.9055 17.9522 23.9255 16.9568C23.9828 15.6767 24.0001 15.2708 24.0001 12.02C24.0001 8.76916 24.0001 8.35665 23.9255 7.08319C23.9099 6.0749 23.7201 5.07686 23.3644 4.13308V4.13308ZM21.7411 16.8171C21.7325 17.584 21.5923 18.3437 21.3266 19.0633C21.1265 19.5807 20.82 20.0506 20.4271 20.4428C20.0341 20.8349 19.5633 21.1405 19.0449 21.3401C18.3322 21.6041 17.5794 21.7441 16.8193 21.7539C15.5531 21.8125 15.196 21.8271 11.9494 21.8271C8.70017 21.8271 8.36831 21.8271 7.07821 21.7539C6.31845 21.7446 5.56598 21.6046 4.85386 21.3401C4.33367 21.1418 3.86097 20.8367 3.46633 20.4445C3.07168 20.0523 2.7639 19.5817 2.56287 19.0633C2.30091 18.3514 2.1608 17.6006 2.14839 16.8424C2.09108 15.5782 2.07775 15.2216 2.07775 11.9801C2.07775 8.73722 2.07775 8.40588 2.14839 7.11646C2.157 6.35002 2.29719 5.59073 2.56287 4.87161C2.96936 3.8217 3.80232 2.99535 4.85386 2.59349C5.56633 2.3302 6.31858 2.19025 7.07821 2.17965C8.34565 2.12243 8.7015 2.10646 11.9494 2.10646C15.1973 2.10646 15.5305 2.10646 16.8193 2.17965C17.5795 2.18878 18.3324 2.32878 19.0449 2.59349C19.5633 2.79345 20.034 3.09942 20.427 3.49174C20.8199 3.88406 21.1263 4.35407 21.3266 4.87161C21.5886 5.58345 21.7287 6.33423 21.7411 7.09251C21.7984 8.35798 21.813 8.71327 21.813 11.9561C21.813 15.1977 21.813 15.5463 21.7557 16.8184H21.7411V16.8171Z" fill="white"/>
</g>
<defs>
<clipPath id="clip0">
<rect width="24" height="24" fill="white"/>
</clipPath>
</defs>
</svg>
