<svg width="86" height="80" viewBox="0 0 86 80" fill="none" xmlns="http://www.w3.org/2000/svg">
<path fill-rule="evenodd" clip-rule="evenodd" d="M39.5164 0H83.9573H85.7032L85.7855 1.68895C86.7712 21.9077 84.4905 36.8375 76.2098 49.5471C69.0979 60.4626 60.5952 64.6364 52.7323 64.9904C44.9919 65.3388 38.1791 61.9677 34.3451 58.342L32.8467 56.9251L35.4421 54.4245L36.9025 55.8056C40.1122 58.8408 45.9692 61.7459 52.5623 61.4491C59.0329 61.1578 66.5273 57.7648 73.114 47.6553C80.5907 36.1796 82.9653 22.5762 82.204 3.5451H39.5164V0ZM26.4712 56.9324L23.8758 54.4318L0 76.9578L1.27718 80H64.3055V76.4549H5.77888L26.4712 56.9324ZM23.8672 48.4336L26.4626 45.933L26.337 45.8142L15.7714 35.8229L13.214 38.3593L23.7796 48.3507L23.8672 48.4336ZM32.8656 45.9502L35.4611 48.4508L65.5826 20.0322L64.3055 16.99H1.27718V20.5351H59.8038L32.8656 45.9502ZM29.6552 48.5714C31.293 48.5714 32.6207 49.8506 32.6207 51.4286C32.6207 53.0065 31.293 54.2857 29.6552 54.2857C28.0174 54.2857 26.6897 53.0065 26.6897 51.4286C26.6897 49.8506 28.0174 48.5714 29.6552 48.5714Z" fill="#333333"/>
</svg>
