<svg width="44" height="40" viewBox="0 0 44 40" fill="none" xmlns="http://www.w3.org/2000/svg">
<path fill-rule="evenodd" clip-rule="evenodd" d="M19.7897 0H42.0456H42.92L42.9612 0.844477C43.4549 10.9538 42.3127 18.4187 38.1657 24.7735C34.6041 30.2313 30.3459 32.3182 26.4082 32.4952C22.5318 32.6694 19.12 30.9838 17.2 29.171L16.4496 28.4625L17.7493 27.2123L18.4807 27.9028C20.0881 29.4204 23.0213 30.873 26.3231 30.7246C29.5635 30.5789 33.3167 28.8824 36.6153 23.8277C40.3597 18.0898 41.5488 11.2881 41.1676 1.77255H19.7897V0ZM13.2567 28.4662L11.957 27.2159L0 38.4789L0.639611 40H32.204V38.2275H2.89405L13.2567 28.4662ZM11.9526 24.2168L13.2524 22.9665L13.1895 22.9071L7.89831 17.9114L6.61756 19.1797L11.9088 24.1753L11.9526 24.2168ZM16.459 22.9751L17.7588 24.2254L32.8437 10.0161L32.204 8.49498H0.639611V10.2675H29.9496L16.459 22.9751ZM14.8513 24.2857C15.6715 24.2857 16.3364 24.9253 16.3364 25.7143C16.3364 26.5033 15.6715 27.1429 14.8513 27.1429C14.031 27.1429 13.3661 26.5033 13.3661 25.7143C13.3661 24.9253 14.031 24.2857 14.8513 24.2857Z" fill="white"/>
</svg>
