<svg id="search" width="24" height="24" viewBox="0 0 24 24" fill="none" xmlns="http://www.w3.org/2000/svg">
<path d="M9.85441 19.7088C4.39658 19.7088 0 15.3122 0 9.85441C0 4.39658 4.39658 0 9.85441 0C15.3122 0 19.7088 4.39658 19.7088 9.85441C19.7088 15.3122 15.3122 19.7088 9.85441 19.7088ZM9.85441 1.51606C5.23042 1.51606 1.51606 5.23042 1.51606 9.85441C1.51606 14.4784 5.23042 18.1927 9.85441 18.1927C14.4784 18.1927 18.1927 14.4784 18.1927 9.85441C18.1927 5.23042 14.4784 1.51606 9.85441 1.51606Z" fill="#222222"/>
<path d="M17.1934 16.1211L24.0006 22.9282L22.9287 24.0001L16.1216 17.1929L17.1934 16.1211Z" fill="#222222"/>
</svg>
