<svg width="22" height="24" viewBox="0 0 22 24" fill="none" xmlns="http://www.w3.org/2000/svg">
<path d="M18.2685 16.4005C17.6969 16.4006 17.133 16.5346 16.6204 16.7921C16.1078 17.0496 15.6602 17.4238 15.3123 17.8856L7.26388 13.2336C7.53432 12.4345 7.53432 11.5662 7.26388 10.767L15.3123 6.11502C15.8741 6.85732 16.6856 7.3618 17.5907 7.53139C18.4958 7.70098 19.4305 7.5237 20.2149 7.03365C20.9993 6.54361 21.5781 5.77543 21.8398 4.87693C22.1016 3.97844 22.0278 3.01311 21.6326 2.1667C21.2375 1.32028 20.5489 0.652598 19.6995 0.292115C18.85 -0.068367 17.8996 -0.0961747 17.0313 0.214043C16.1629 0.524261 15.4378 1.15059 14.9956 1.9725C14.5534 2.79441 14.4253 3.75383 14.6359 4.66615L6.45036 9.39748C5.93815 8.84256 5.27402 8.45718 4.54412 8.29132C3.81422 8.12547 3.05222 8.18679 2.35696 8.46734C1.6617 8.74789 1.06526 9.23472 0.644983 9.86469C0.224709 10.4947 0 11.2387 0 12.0003C0 12.7619 0.224709 13.506 0.644983 14.1359C1.06526 14.7659 1.6617 15.2527 2.35696 15.5333C3.05222 15.8138 3.81422 15.8751 4.54412 15.7093C5.27402 15.5434 5.93815 15.1581 6.45036 14.6031L14.636 19.3345C14.4595 20.1025 14.5221 20.9075 14.8151 21.6376C15.1081 22.3678 15.6169 22.987 16.271 23.4093C16.9252 23.8317 17.6921 24.0363 18.4656 23.9947C19.239 23.9531 19.9806 23.6675 20.5874 23.1773C21.1942 22.6872 21.6363 22.0169 21.8521 21.2594C22.068 20.5019 22.0471 19.6947 21.7922 18.9499C21.5373 18.205 21.0612 17.5594 20.4297 17.1026C19.7983 16.6458 19.043 16.4004 18.2685 16.4005V16.4005ZM18.2685 1.5998C18.6957 1.5998 19.1134 1.72883 19.4687 1.97058C19.824 2.21233 20.1009 2.55594 20.2644 2.95796C20.4279 3.35998 20.4707 3.80235 20.3873 4.22913C20.304 4.6559 20.0982 5.04793 19.7961 5.35562C19.4939 5.66331 19.109 5.87285 18.6899 5.95774C18.2709 6.04263 17.8365 5.99906 17.4417 5.83254C17.047 5.66602 16.7096 5.38403 16.4722 5.02222C16.2348 4.66041 16.1081 4.23505 16.1081 3.79991C16.1088 3.2166 16.3366 2.65737 16.7416 2.24491C17.1466 1.83245 17.6957 1.60045 18.2685 1.5998V1.5998ZM3.73519 14.2004C3.30792 14.2004 2.89024 14.0714 2.53497 13.8296C2.1797 13.5879 1.9028 13.2443 1.73929 12.8423C1.57578 12.4402 1.533 11.9979 1.61635 11.5711C1.69971 11.1443 1.90546 10.7523 2.2076 10.4446C2.50973 10.1369 2.89466 9.92737 3.31373 9.84247C3.7328 9.75758 4.16717 9.80115 4.56193 9.96767C4.95668 10.1342 5.29408 10.4162 5.53146 10.778C5.76884 11.1398 5.89555 11.5652 5.89555 12.0003C5.89491 12.5836 5.6671 13.1428 5.26209 13.5553C4.85708 13.9678 4.30796 14.1998 3.73519 14.2004V14.2004ZM18.2685 22.4008C17.8412 22.4008 17.4235 22.2718 17.0682 22.03C16.713 21.7883 16.4361 21.4447 16.2726 21.0427C16.1091 20.6406 16.0663 20.1983 16.1496 19.7715C16.233 19.3447 16.4387 18.9527 16.7409 18.645C17.043 18.3373 17.4279 18.1278 17.847 18.0429C18.2661 17.958 18.7004 18.0016 19.0952 18.1681C19.49 18.3346 19.8274 18.6166 20.0647 18.9784C20.3021 19.3402 20.4288 19.7656 20.4288 20.2007C20.4282 20.784 20.2004 21.3432 19.7954 21.7557C19.3904 22.1682 18.8412 22.4002 18.2685 22.4008V22.4008Z" fill="#222222"/>
</svg>
