<svg id="tweeter" width="24" height="19" viewBox="0 0 24 19" fill="none" xmlns="http://www.w3.org/2000/svg">
<path d="M21.5343 4.67282C21.5502 4.87838 21.5502 5.08278 21.5502 5.28717C21.5502 11.5423 16.6004 18.75 7.55465 18.75C4.76776 18.75 2.17871 17.9735 0 16.625C0.395685 16.6685 0.776715 16.6838 1.18828 16.6838C3.40239 16.6889 5.55381 15.9768 7.29575 14.6622C6.26919 14.6443 5.27406 14.3185 4.4493 13.7303C3.62455 13.1422 3.01134 12.3209 2.6953 11.3813C2.99939 11.4248 3.3047 11.4542 3.62467 11.4542C4.06554 11.4542 4.50885 11.3954 4.92041 11.2932C3.80634 11.0769 2.80457 10.496 2.08543 9.6495C1.36629 8.80296 0.974182 7.74298 0.975779 6.64978V6.59104C1.63159 6.94227 2.39243 7.16193 3.19845 7.1913C2.52321 6.75971 1.96953 6.17407 1.58682 5.48661C1.2041 4.79916 1.00425 4.03128 1.00509 3.25147C1.00509 2.37282 1.24812 1.567 1.67433 0.864554C2.91041 2.32703 4.45207 3.52348 6.19947 4.3764C7.94688 5.22932 9.86106 5.7197 11.818 5.81577C11.7423 5.46337 11.6959 5.09805 11.6959 4.73155C11.6956 4.11011 11.8226 3.4947 12.0697 2.9205C12.3168 2.3463 12.6791 1.82458 13.136 1.38515C13.5928 0.945724 14.1353 0.597213 14.7322 0.35954C15.3292 0.121866 15.969 -0.000308208 16.6151 5.83882e-07C18.0318 5.83882e-07 19.3104 0.570887 20.2092 1.49417C21.3105 1.28933 22.3666 0.902639 23.3308 0.351225C22.9637 1.44462 22.1947 2.37177 21.1679 2.95898C22.1447 2.85183 23.0992 2.60476 24 2.22599C23.3273 3.16936 22.4936 3.99661 21.5343 4.67282Z" fill="#333333"/>
</svg>
