<svg width="24" height="24" viewBox="0 0 24 24" fill="none" xmlns="http://www.w3.org/2000/svg">
<path d="M11.9728 20.3176L11.9728 20.3176L11.9683 20.3139C8.16697 17.126 5.79427 15.0051 4.36683 13.2388C2.96499 11.5041 2.5 10.1427 2.5 8.45455C2.5 5.68621 4.64305 3.5 7.29412 3.5C9.47384 3.5 10.6982 4.74133 11.6214 5.81147L12 6.25027L12.3786 5.81147C13.3018 4.74133 14.5262 3.5 16.7059 3.5C19.357 3.5 21.5 5.68621 21.5 8.45455C21.5 10.1427 21.035 11.5041 19.6332 13.2388C18.2057 15.0051 15.833 17.126 12.0317 20.3139L12.0316 20.3138L12.0272 20.3176L12 20.341L11.9728 20.3176ZM11.6788 19.8074L12 20.0767L12.3212 19.8074C15.7854 16.9037 18.0283 14.9049 19.401 13.2341C20.797 11.535 21.3235 10.1384 21.3235 8.45455C21.3235 5.82894 19.2901 3.71212 16.7059 3.71212C14.3984 3.71212 13.1468 5.16288 12.2673 6.18992L12.2672 6.18985L12.2607 6.19782L12 6.51521L11.7393 6.19782L11.7394 6.19775L11.7327 6.18992C10.8532 5.16288 9.60159 3.71212 7.29412 3.71212C4.70989 3.71212 2.67647 5.82894 2.67647 8.45455C2.67647 10.1384 3.20301 11.535 4.59897 13.2341C5.97173 14.9049 8.21464 16.9037 11.6788 19.8074Z" stroke="white"/>
</svg>
