<svg width="48" height="48" viewBox="0 0 48 48" fill="none" xmlns="http://www.w3.org/2000/svg">
<path d="M35.64 25.046C35.7804 24.8256 35.8751 24.5793 35.9185 24.3216C35.9619 24.0639 35.9531 23.8001 35.8927 23.5459C35.8322 23.2917 35.7214 23.0522 35.5667 22.8416C35.412 22.631 35.2165 22.4537 34.992 22.32L15.148 10.256C14.8253 10.0607 14.4552 9.95759 14.078 9.958C12.958 9.958 12.052 10.844 12.052 11.938V36.06C12.052 36.43 12.158 36.792 12.358 37.106C12.95 38.034 14.198 38.318 15.148 37.74L34.992 25.678C35.254 25.518 35.478 25.3 35.642 25.044L35.64 25.046ZM37.132 29.04L17.29 41.102C14.44 42.836 10.69 41.982 8.918 39.2C8.3189 38.2623 8.00038 37.1728 8 36.06V11.94C8 8.658 10.72 6 14.08 6C15.214 6 16.326 6.31 17.29 6.896L37.132 18.96C39.982 20.692 40.856 24.352 39.082 27.136C38.59 27.908 37.922 28.56 37.132 29.04V29.04Z" fill="white"/>
</svg>
