<svg width="24" height="24" viewBox="0 0 24 24" fill="none" xmlns="http://www.w3.org/2000/svg">
<path d="M5.33333 14.8337C3.74281 14.8337 2.5 13.5908 2.5 12.0003C2.5 10.4098 3.74281 9.16699 5.33333 9.16699C6.92386 9.16699 8.16667 10.4098 8.16667 12.0003C8.16667 13.5908 6.92386 14.8337 5.33333 14.8337ZM5.33333 9.50033C3.92386 9.50033 2.83333 10.5908 2.83333 12.0003C2.83333 13.4098 3.92386 14.5003 5.33333 14.5003C6.74281 14.5003 7.83333 13.4098 7.83333 12.0003C7.83333 10.5908 6.74281 9.50033 5.33333 9.50033Z" stroke="white"/>
<path d="M18.6663 8.16667C17.0758 8.16667 15.833 6.92386 15.833 5.33333C15.833 3.74281 17.0758 2.5 18.6663 2.5C20.2569 2.5 21.4997 3.74281 21.4997 5.33333C21.4997 6.92386 20.2569 8.16667 18.6663 8.16667ZM18.6663 2.83333C17.2569 2.83333 16.1663 3.92386 16.1663 5.33333C16.1663 6.74281 17.2569 7.83333 18.6663 7.83333C20.0758 7.83333 21.1663 6.74281 21.1663 5.33333C21.1663 3.92386 20.0758 2.83333 18.6663 2.83333Z" stroke="white"/>
<path d="M18.6663 21.4997C17.0758 21.4997 15.833 20.2569 15.833 18.6663C15.833 17.0758 17.0758 15.833 18.6663 15.833C20.2569 15.833 21.4997 17.0758 21.4997 18.6663C21.4997 20.2569 20.2569 21.4997 18.6663 21.4997ZM18.6663 16.1663C17.2569 16.1663 16.1663 17.2569 16.1663 18.6663C16.1663 20.0758 17.2569 21.1663 18.6663 21.1663C20.0758 21.1663 21.1663 20.0758 21.1663 18.6663C21.1663 17.2569 20.0758 16.1663 18.6663 16.1663Z" stroke="white"/>
<path d="M8.07922 13.5583L8.22828 13.2606L15.9205 17.1067L15.7715 17.4045L8.07922 13.5583Z" stroke="white"/>
<path d="M8.07983 10.4396L15.772 6.59469L15.9212 6.8934L8.22901 10.7383L8.07983 10.4396Z" stroke="white"/>
</svg>
