<svg width="170" height="204" viewBox="0 0 170 204" fill="none" xmlns="http://www.w3.org/2000/svg">
<path d="M33.3639 46.27V92.56V46.27ZM60.3489 24.4147V92.56V24.4147ZM89.135 37.3699V92.56V37.3699ZM116.126 124.007H88.7748C84.113 124.002 79.505 125.004 75.2666 126.945C71.0282 128.886 67.2593 131.721 64.2181 135.254L116.126 124.007ZM126.751 114.02L116.126 124.007V38.1367C116.126 30.7529 110.63 23.9209 102.63 23.9209C99.0522 23.9209 95.6205 25.342 93.0898 27.8716C90.5591 30.4012 89.1365 33.8323 89.135 37.4105V25.2106C89.135 17.455 83.3778 10.0479 74.7449 10.0479C70.9278 10.0479 67.2671 11.5638 64.5675 14.2623C61.8679 16.9608 60.3505 20.6209 60.3489 24.438V23.613C60.3489 16.2989 54.8241 10.0769 46.8593 10.0769C43.2801 10.0769 39.8475 11.4987 37.3167 14.0296C34.7858 16.5605 33.3639 19.9931 33.3639 23.5723V46.27C33.3639 43.133 32.1178 40.1245 29.8996 37.9063C27.6814 35.6881 24.6728 34.4419 21.5358 34.4419C14.4424 34.4419 9.7135 40.2514 9.7135 46.7464V143.869C9.7135 171.517 31.9929 194.319 59.6751 194.319C86.7066 194.319 103.02 184.913 117.88 168.438L158.123 124.733C159.422 123.323 160.125 121.463 160.083 119.546C160.041 117.628 159.257 115.802 157.896 114.45V114.45C153.773 110.355 148.221 108.021 142.411 107.941C136.6 107.861 130.986 110.041 126.751 114.02V114.02Z" stroke="#333333" stroke-width="18.8" stroke-linecap="round" stroke-linejoin="round"/>
<path opacity="0.2" d="M33.3639 46.27V92.56V46.27ZM60.3489 24.4147V92.56V24.4147ZM89.135 37.3699V92.56V37.3699ZM116.126 124.007H88.7748C84.113 124.002 79.505 125.004 75.2666 126.945C71.0282 128.886 67.2593 131.721 64.2181 135.254L116.126 124.007ZM126.751 114.02L116.126 124.007V38.1367C116.126 30.7529 110.63 23.9209 102.63 23.9209C99.0522 23.9209 95.6205 25.342 93.0898 27.8716C90.5591 30.4012 89.1365 33.8323 89.135 37.4105V25.2106C89.135 17.455 83.3778 10.0479 74.7449 10.0479C70.9278 10.0479 67.2671 11.5638 64.5675 14.2623C61.8679 16.9608 60.3505 20.6209 60.3489 24.438V23.613C60.3489 16.2989 54.8241 10.0769 46.8593 10.0769C43.2801 10.0769 39.8475 11.4987 37.3167 14.0296C34.7858 16.5605 33.3639 19.9931 33.3639 23.5723V46.27C33.3639 43.133 32.1178 40.1245 29.8996 37.9063C27.6814 35.6881 24.6728 34.4419 21.5358 34.4419C14.4424 34.4419 9.7135 40.2514 9.7135 46.7464V143.869C9.7135 171.517 31.9929 194.319 59.6751 194.319C86.7066 194.319 103.02 184.913 117.88 168.438L158.123 124.733C159.422 123.323 160.125 121.463 160.083 119.546C160.041 117.628 159.257 115.802 157.896 114.45V114.45C153.773 110.355 148.221 108.021 142.411 107.941C136.6 107.861 130.986 110.041 126.751 114.02V114.02Z" stroke="#4590FF" stroke-width="19.17" stroke-linecap="round" stroke-linejoin="round"/>
<path opacity="0.25" d="M33.3639 46.27V92.56V46.27ZM60.3489 24.4147V92.56V24.4147ZM89.135 37.3699V92.56V37.3699ZM116.126 124.007H88.7748C84.113 124.002 79.505 125.004 75.2666 126.945C71.0282 128.886 67.2593 131.721 64.2181 135.254L116.126 124.007ZM126.751 114.02L116.126 124.007V38.1367C116.126 30.7529 110.63 23.9209 102.63 23.9209C99.0522 23.9209 95.6205 25.342 93.0898 27.8716C90.5591 30.4012 89.1365 33.8323 89.135 37.4105V25.2106C89.135 17.455 83.3778 10.0479 74.7449 10.0479C70.9278 10.0479 67.2671 11.5638 64.5675 14.2623C61.8679 16.9608 60.3505 20.6209 60.3489 24.438V23.613C60.3489 16.2989 54.8241 10.0769 46.8593 10.0769C43.2801 10.0769 39.8475 11.4987 37.3167 14.0296C34.7858 16.5605 33.3639 19.9931 33.3639 23.5723V46.27C33.3639 43.133 32.1178 40.1245 29.8996 37.9063C27.6814 35.6881 24.6728 34.4419 21.5358 34.4419C14.4424 34.4419 9.7135 40.2514 9.7135 46.7464V143.869C9.7135 171.517 31.9929 194.319 59.6751 194.319C86.7066 194.319 103.02 184.913 117.88 168.438L158.123 124.733C159.422 123.323 160.125 121.463 160.083 119.546C160.041 117.628 159.257 115.802 157.896 114.45V114.45C153.773 110.355 148.221 108.021 142.411 107.941C136.6 107.861 130.986 110.041 126.751 114.02V114.02Z" stroke="#4595FF" stroke-width="16.29" stroke-linecap="round" stroke-linejoin="round"/>
<path opacity="0.3" d="M33.3639 46.27V92.56V46.27ZM60.3489 24.4147V92.56V24.4147ZM89.135 37.3699V92.56V37.3699ZM116.126 124.007H88.7748C84.113 124.002 79.505 125.004 75.2666 126.945C71.0282 128.886 67.2593 131.721 64.2181 135.254L116.126 124.007ZM126.751 114.02L116.126 124.007V38.1367C116.126 30.7529 110.63 23.9209 102.63 23.9209C99.0522 23.9209 95.6205 25.342 93.0898 27.8716C90.5591 30.4012 89.1365 33.8323 89.135 37.4105V25.2106C89.135 17.455 83.3778 10.0479 74.7449 10.0479C70.9278 10.0479 67.2671 11.5638 64.5675 14.2623C61.8679 16.9608 60.3505 20.6209 60.3489 24.438V23.613C60.3489 16.2989 54.8241 10.0769 46.8593 10.0769C43.2801 10.0769 39.8475 11.4987 37.3167 14.0296C34.7858 16.5605 33.3639 19.9931 33.3639 23.5723V46.27C33.3639 43.133 32.1178 40.1245 29.8996 37.9063C27.6814 35.6881 24.6728 34.4419 21.5358 34.4419C14.4424 34.4419 9.7135 40.2514 9.7135 46.7464V143.869C9.7135 171.517 31.9929 194.319 59.6751 194.319C86.7066 194.319 103.02 184.913 117.88 168.438L158.123 124.733C159.422 123.323 160.125 121.463 160.083 119.546C160.041 117.628 159.257 115.802 157.896 114.45V114.45C153.773 110.355 148.221 108.021 142.411 107.941C136.6 107.861 130.986 110.041 126.751 114.02V114.02Z" stroke="#4596FF" stroke-width="9.58" stroke-linecap="round" stroke-linejoin="round"/>
<path d="M33.3639 46.27V92.56V46.27ZM60.3489 24.4147V92.56V24.4147ZM89.135 37.3699V92.56V37.3699ZM116.126 124.007H88.7748C84.113 124.002 79.505 125.004 75.2666 126.945C71.0282 128.886 67.2593 131.721 64.2181 135.254L116.126 124.007ZM126.751 114.02L116.126 124.007V38.1367C116.126 30.7529 110.63 23.9209 102.63 23.9209C99.0522 23.9209 95.6205 25.342 93.0898 27.8716C90.5591 30.4012 89.1365 33.8323 89.135 37.4105V25.2106C89.135 17.455 83.3778 10.0479 74.7449 10.0479C70.9278 10.0479 67.2671 11.5638 64.5675 14.2623C61.8679 16.9608 60.3505 20.6209 60.3489 24.438V23.613C60.3489 16.2989 54.8241 10.0769 46.8593 10.0769C43.2801 10.0769 39.8475 11.4987 37.3167 14.0296C34.7858 16.5605 33.3639 19.9931 33.3639 23.5723V46.27C33.3639 43.133 32.1178 40.1245 29.8996 37.9063C27.6814 35.6881 24.6728 34.4419 21.5358 34.4419C14.4424 34.4419 9.7135 40.2514 9.7135 46.7464V143.869C9.7135 171.517 31.9929 194.319 59.6751 194.319C86.7066 194.319 103.02 184.913 117.88 168.438L158.123 124.733C159.422 123.323 160.125 121.463 160.083 119.546C160.041 117.628 159.257 115.802 157.896 114.45V114.45C153.773 110.355 148.221 108.021 142.411 107.941C136.6 107.861 130.986 110.041 126.751 114.02V114.02Z" stroke="#459BFF" stroke-width="13.42" stroke-linecap="round" stroke-linejoin="round"/>
<path d="M33.3639 46.27V92.56V46.27ZM60.3489 24.4147V92.56V24.4147ZM89.135 37.3699V92.56V37.3699ZM116.126 124.007H88.7748C84.113 124.002 79.505 125.004 75.2666 126.945C71.0282 128.886 67.2593 131.721 64.2181 135.254L116.126 124.007ZM126.751 114.02L116.126 124.007V38.1367C116.126 30.7529 110.63 23.9209 102.63 23.9209C99.0522 23.9209 95.6205 25.342 93.0898 27.8716C90.5591 30.4012 89.1365 33.8323 89.135 37.4105V25.2106C89.135 17.455 83.3778 10.0479 74.7449 10.0479C70.9278 10.0479 67.2671 11.5638 64.5675 14.2623C61.8679 16.9608 60.3505 20.6209 60.3489 24.438V23.613C60.3489 16.2989 54.8241 10.0769 46.8593 10.0769C43.2801 10.0769 39.8475 11.4987 37.3167 14.0296C34.7858 16.5605 33.3639 19.9931 33.3639 23.5723V46.27C33.3639 43.133 32.1178 40.1245 29.8996 37.9063C27.6814 35.6881 24.6728 34.4419 21.5358 34.4419C14.4424 34.4419 9.7135 40.2514 9.7135 46.7464V143.869C9.7135 171.517 31.9929 194.319 59.6751 194.319C86.7066 194.319 103.02 184.913 117.88 168.438L158.123 124.733C159.422 123.323 160.125 121.463 160.083 119.546C160.041 117.628 159.257 115.802 157.896 114.45V114.45C153.773 110.355 148.221 108.021 142.411 107.941C136.6 107.861 130.986 110.041 126.751 114.02V114.02Z" stroke="#459EFF" stroke-width="10.54" stroke-linecap="round" stroke-linejoin="round"/>
<path d="M33.3639 46.27V92.56V46.27ZM60.3489 24.4147V92.56V24.4147ZM89.135 37.3699V92.56V37.3699ZM116.126 124.007H88.7748C84.113 124.002 79.505 125.004 75.2666 126.945C71.0282 128.886 67.2593 131.721 64.2181 135.254L116.126 124.007ZM126.751 114.02L116.126 124.007V38.1367C116.126 30.7529 110.63 23.9209 102.63 23.9209C99.0522 23.9209 95.6205 25.342 93.0898 27.8716C90.5591 30.4012 89.1365 33.8323 89.135 37.4105V25.2106C89.135 17.455 83.3778 10.0479 74.7449 10.0479C70.9278 10.0479 67.2671 11.5638 64.5675 14.2623C61.8679 16.9608 60.3505 20.6209 60.3489 24.438V23.613C60.3489 16.2989 54.8241 10.0769 46.8593 10.0769C43.2801 10.0769 39.8475 11.4987 37.3167 14.0296C34.7858 16.5605 33.3639 19.9931 33.3639 23.5723V46.27C33.3639 43.133 32.1178 40.1245 29.8996 37.9063C27.6814 35.6881 24.6728 34.4419 21.5358 34.4419C14.4424 34.4419 9.7135 40.2514 9.7135 46.7464V143.869C9.7135 171.517 31.9929 194.319 59.6751 194.319C86.7066 194.319 103.02 184.913 117.88 168.438L158.123 124.733C159.422 123.323 160.125 121.463 160.083 119.546C160.041 117.628 159.257 115.802 157.896 114.45V114.45C153.773 110.355 148.221 108.021 142.411 107.941C136.6 107.861 130.986 110.041 126.751 114.02V114.02Z" stroke="#45A2FF" stroke-width="7.67" stroke-linecap="round" stroke-linejoin="round"/>
<path d="M33.3639 46.27V92.56V46.27ZM60.3489 24.4147V92.56V24.4147ZM89.135 37.3699V92.56V37.3699ZM116.126 124.007H88.7748C84.113 124.002 79.505 125.004 75.2666 126.945C71.0282 128.886 67.2593 131.721 64.2181 135.254L116.126 124.007ZM126.751 114.02L116.126 124.007V38.1367C116.126 30.7529 110.63 23.9209 102.63 23.9209C99.0522 23.9209 95.6205 25.342 93.0898 27.8716C90.5591 30.4012 89.1365 33.8323 89.135 37.4105V25.2106C89.135 17.455 83.3778 10.0479 74.7449 10.0479C70.9278 10.0479 67.2671 11.5638 64.5675 14.2623C61.8679 16.9608 60.3505 20.6209 60.3489 24.438V23.613C60.3489 16.2989 54.8241 10.0769 46.8593 10.0769C43.2801 10.0769 39.8475 11.4987 37.3167 14.0296C34.7858 16.5605 33.3639 19.9931 33.3639 23.5723V46.27C33.3639 43.133 32.1178 40.1245 29.8996 37.9063C27.6814 35.6881 24.6728 34.4419 21.5358 34.4419C14.4424 34.4419 9.7135 40.2514 9.7135 46.7464V143.869C9.7135 171.517 31.9929 194.319 59.6751 194.319C86.7066 194.319 103.02 184.913 117.88 168.438L158.123 124.733C159.422 123.323 160.125 121.463 160.083 119.546C160.041 117.628 159.257 115.802 157.896 114.45V114.45C153.773 110.355 148.221 108.021 142.411 107.941C136.6 107.861 130.986 110.041 126.751 114.02V114.02Z" stroke="#45C4FF" stroke-width="4.79" stroke-linecap="round" stroke-linejoin="round"/>
<path d="M33.3639 46.27V92.56V46.27ZM60.3489 24.4147V92.56V24.4147ZM89.135 37.3699V92.56V37.3699ZM116.126 124.007H88.7748C84.113 124.002 79.505 125.004 75.2666 126.945C71.0282 128.886 67.2593 131.721 64.2181 135.254L116.126 124.007ZM126.751 114.02L116.126 124.007V38.1367C116.126 30.7529 110.63 23.9209 102.63 23.9209C99.0522 23.9209 95.6205 25.342 93.0898 27.8716C90.5591 30.4012 89.1365 33.8323 89.135 37.4105V25.2106C89.135 17.455 83.3778 10.0479 74.7449 10.0479C70.9278 10.0479 67.2671 11.5638 64.5675 14.2623C61.8679 16.9608 60.3505 20.6209 60.3489 24.438V23.613C60.3489 16.2989 54.8241 10.0769 46.8593 10.0769C43.2801 10.0769 39.8475 11.4987 37.3167 14.0296C34.7858 16.5605 33.3639 19.9931 33.3639 23.5723V46.27C33.3639 43.133 32.1178 40.1245 29.8996 37.9063C27.6814 35.6881 24.6728 34.4419 21.5358 34.4419C14.4424 34.4419 9.7135 40.2514 9.7135 46.7464V143.869C9.7135 171.517 31.9929 194.319 59.6751 194.319C86.7066 194.319 103.02 184.913 117.88 168.438L158.123 124.733C159.422 123.323 160.125 121.463 160.083 119.546C160.041 117.628 159.257 115.802 157.896 114.45V114.45C153.773 110.355 148.221 108.021 142.411 107.941C136.6 107.861 130.986 110.041 126.751 114.02V114.02Z" stroke="#6CFEFF" stroke-width="1.92" stroke-linecap="round" stroke-linejoin="round"/>
</svg>
