<svg width="29" height="24" viewBox="0 0 29 24" fill="none" xmlns="http://www.w3.org/2000/svg">
<path d="M17 24C19.3734 24 21.6935 23.2962 23.6668 21.9776C25.6402 20.6591 27.1783 18.7849 28.0866 16.5922C28.9948 14.3995 29.2324 11.9867 28.7694 9.65892C28.3064 7.33115 27.1635 5.19295 25.4853 3.51472C23.807 1.83649 21.6689 0.693605 19.3411 0.230582C17.0133 -0.232441 14.6005 0.00519943 12.4078 0.913451C10.2151 1.8217 8.34094 3.35977 7.02236 5.33316C5.70379 7.30655 5 9.62663 5 12V18.2L1.4 14.6L0 16L6 22L12 16L10.6 14.6L7 18.2V12C7 10.0222 7.58649 8.08879 8.6853 6.4443C9.78412 4.79981 11.3459 3.51809 13.1732 2.76121C15.0004 2.00433 17.0111 1.8063 18.9509 2.19215C20.8907 2.578 22.6725 3.53041 24.0711 4.92894C25.4696 6.32746 26.422 8.10929 26.8079 10.0491C27.1937 11.9889 26.9957 13.9996 26.2388 15.8268C25.4819 17.6541 24.2002 19.2159 22.5557 20.3147C20.9112 21.4135 18.9778 22 17 22V24Z" fill="white"/>
</svg>
