<svg width="138" height="46" viewBox="0 0 138 46" fill="none" xmlns="http://www.w3.org/2000/svg">
<path d="M11.0957 23.0219H19.6124C21.2564 23.0219 22.8331 22.3688 23.9956 21.2063C25.158 20.0438 25.8111 18.4672 25.8111 16.8232V13.5699C25.8096 11.9269 25.1558 10.3517 23.9935 9.19047C22.8312 8.02924 21.2554 7.37695 19.6124 7.37695H7V38.661" stroke="#231F20" stroke-width="0.29" stroke-miterlimit="10"/>
<path d="M19.0663 27.443L25.8112 38.6611" stroke="#231F20" stroke-width="0.29" stroke-miterlimit="10"/>
<path d="M63.7122 33.9554C66.1348 31.2963 67.4755 27.8275 67.471 24.2303V21.8658C67.471 18.0308 65.9475 14.3529 63.2358 11.6412C60.524 8.92944 56.8461 7.40601 53.0111 7.40601V7.40601C49.1762 7.40601 45.4982 8.92944 42.7865 11.6412C40.0748 14.3529 38.5513 18.0308 38.5513 21.8658V24.2303C38.5513 28.0653 40.0748 31.7432 42.7865 34.4549C45.4982 37.1666 49.1762 38.6901 53.0111 38.6901C55.5372 38.6942 58.0197 38.0329 60.2091 36.773" stroke="#231F20" stroke-width="0.29" stroke-miterlimit="10"/>
<path d="M112.163 7.37695V38.661" stroke="#231F20" stroke-width="0.29" stroke-miterlimit="10"/>
<path d="M131.033 7.37695L116.497 23.0219" stroke="#231F20" stroke-width="0.29" stroke-miterlimit="10"/>
<path d="M116.497 23.022L131.033 38.6611" stroke="#231F20" stroke-width="0.29" stroke-miterlimit="10"/>
<path d="M99.3012 32.4623C99.3012 34.1053 98.6489 35.6811 97.4877 36.8434C96.3264 38.0058 94.7513 38.6595 93.1083 38.661H86.7178C85.0738 38.661 83.4972 38.008 82.3347 36.8455C81.1722 35.683 80.5191 34.1063 80.5191 32.4623V13.5699C80.5191 12.7561 80.6795 11.9504 80.9911 11.1986C81.3027 10.4469 81.7593 9.76391 82.335 9.18877C82.9107 8.61363 83.5941 8.15759 84.3461 7.84671C85.0981 7.53583 85.9041 7.37619 86.7178 7.37696H93.1083C94.7507 7.37696 96.3259 8.02943 97.4873 9.19083C98.6487 10.3522 99.3012 11.9274 99.3012 13.5699" stroke="#231F20" stroke-width="0.29" stroke-miterlimit="10"/>
<path d="M11.0957 23.0219H19.6124C21.2564 23.0219 22.8331 22.3688 23.9956 21.2063C25.158 20.0438 25.8111 18.4672 25.8111 16.8232V13.5699C25.8096 11.9269 25.1558 10.3517 23.9935 9.19047C22.8312 8.02924 21.2554 7.37695 19.6124 7.37695H7V38.661" stroke="#333333" stroke-width="12.1" stroke-linecap="round" stroke-linejoin="round"/>
<path d="M19.0663 27.443L25.8112 38.6611" stroke="#333333" stroke-width="12.1" stroke-linecap="round" stroke-linejoin="round"/>
<path d="M11.0957 23.0219H19.6124C21.2564 23.0219 22.8331 22.3688 23.9956 21.2063C25.158 20.0438 25.8111 18.4672 25.8111 16.8232V13.5699C25.8096 11.9269 25.1558 10.3517 23.9935 9.19047C22.8312 8.02924 21.2554 7.37695 19.6124 7.37695H7V38.661" stroke="#333333" stroke-width="12.1" stroke-linecap="round" stroke-linejoin="round"/>
<path d="M19.0663 27.443L25.8112 38.6611" stroke="#333333" stroke-width="12.1" stroke-linecap="round" stroke-linejoin="round"/>
<path d="M11.0957 23.0219H19.6124C21.2564 23.0219 22.8331 22.3688 23.9956 21.2063C25.158 20.0438 25.8111 18.4672 25.8111 16.8232V13.5699C25.8096 11.9269 25.1558 10.3517 23.9935 9.19047C22.8312 8.02924 21.2554 7.37695 19.6124 7.37695H7V38.661" stroke="#333333" stroke-width="12.1" stroke-linecap="round" stroke-linejoin="round"/>
<path d="M19.0663 27.443L25.8112 38.6611" stroke="#333333" stroke-width="12.1" stroke-linecap="round" stroke-linejoin="round"/>
<path d="M63.7122 33.9554C66.1348 31.2963 67.4755 27.8275 67.471 24.2303V21.8658C67.471 18.0308 65.9475 14.3529 63.2358 11.6412C60.524 8.92944 56.8461 7.40601 53.0111 7.40601V7.40601C49.1762 7.40601 45.4982 8.92944 42.7865 11.6412C40.0748 14.3529 38.5513 18.0308 38.5513 21.8658V24.2303C38.5513 28.0653 40.0748 31.7432 42.7865 34.4549C45.4982 37.1666 49.1762 38.6901 53.0111 38.6901C55.5372 38.6942 58.0197 38.0329 60.2091 36.773" stroke="#333333" stroke-width="12.1" stroke-linecap="round" stroke-linejoin="round"/>
<path d="M112.163 7.37695V38.661" stroke="#333333" stroke-width="12.1" stroke-linecap="round" stroke-linejoin="round"/>
<path d="M131.033 7.37695L116.497 23.0219" stroke="#333333" stroke-width="12.1" stroke-linecap="round" stroke-linejoin="round"/>
<path d="M116.497 23.022L131.033 38.6611" stroke="#333333" stroke-width="12.1" stroke-linecap="round" stroke-linejoin="round"/>
<path d="M112.163 7.37695V38.661" stroke="#333333" stroke-width="12.1" stroke-linecap="round" stroke-linejoin="round"/>
<path d="M131.033 7.37695L116.497 23.0219" stroke="#333333" stroke-width="12.1" stroke-linecap="round" stroke-linejoin="round"/>
<path d="M116.497 23.022L131.033 38.6611" stroke="#333333" stroke-width="12.1" stroke-linecap="round" stroke-linejoin="round"/>
<path d="M112.163 7.37695V38.661" stroke="#333333" stroke-width="12.1" stroke-linecap="round" stroke-linejoin="round"/>
<path d="M131.033 7.37695L116.497 23.0219" stroke="#333333" stroke-width="12.1" stroke-linecap="round" stroke-linejoin="round"/>
<path d="M116.497 23.022L131.033 38.6611" stroke="#333333" stroke-width="12.1" stroke-linecap="round" stroke-linejoin="round"/>
<path d="M99.3012 32.4623C99.3012 34.1053 98.6489 35.6811 97.4877 36.8434C96.3264 38.0058 94.7513 38.6595 93.1083 38.661H86.7178C85.0738 38.661 83.4972 38.008 82.3347 36.8455C81.1722 35.683 80.5191 34.1063 80.5191 32.4623V13.5699C80.5191 12.7561 80.6795 11.9504 80.9911 11.1986C81.3027 10.4469 81.7593 9.76391 82.335 9.18877C82.9107 8.61363 83.5941 8.15759 84.3461 7.84671C85.0981 7.53583 85.9041 7.37619 86.7178 7.37696H93.1083C94.7507 7.37696 96.3259 8.02943 97.4873 9.19083C98.6487 10.3522 99.3012 11.9274 99.3012 13.5699" stroke="#333333" stroke-width="12.1" stroke-linecap="round" stroke-linejoin="round"/>
<path d="M11.0957 23.0219H19.6124C21.2564 23.0219 22.8331 22.3688 23.9956 21.2063C25.158 20.0438 25.8111 18.4672 25.8111 16.8232V13.5699C25.8096 11.9269 25.1558 10.3517 23.9935 9.19047C22.8312 8.02924 21.2554 7.37695 19.6124 7.37695H7V38.661" stroke="#333333" stroke-width="12.1" stroke-linecap="round" stroke-linejoin="round"/>
<path d="M19.0663 27.443L25.8112 38.6611" stroke="#333333" stroke-width="12.1" stroke-linecap="round" stroke-linejoin="round"/>
<path d="M63.7122 33.9554C66.1348 31.2963 67.4755 27.8275 67.471 24.2303V21.8658C67.471 18.0308 65.9475 14.3529 63.2358 11.6412C60.524 8.92944 56.8461 7.40601 53.0111 7.40601V7.40601C49.1762 7.40601 45.4982 8.92944 42.7865 11.6412C40.0748 14.3529 38.5513 18.0308 38.5513 21.8658V24.2303C38.5513 28.0653 40.0748 31.7432 42.7865 34.4549C45.4982 37.1666 49.1762 38.6901 53.0111 38.6901C55.5372 38.6942 58.0197 38.0329 60.2091 36.773" stroke="#333333" stroke-width="12.1" stroke-linecap="round" stroke-linejoin="round"/>
<path d="M112.163 7.37695V38.661" stroke="#333333" stroke-width="12.1" stroke-linecap="round" stroke-linejoin="round"/>
<path d="M131.033 7.37695L116.497 23.0219" stroke="#333333" stroke-width="12.1" stroke-linecap="round" stroke-linejoin="round"/>
<path d="M116.497 23.022L131.033 38.6611" stroke="#333333" stroke-width="12.1" stroke-linecap="round" stroke-linejoin="round"/>
<path d="M99.3012 32.4623C99.3012 34.1053 98.6489 35.6811 97.4877 36.8434C96.3264 38.0058 94.7513 38.6595 93.1083 38.661H86.7178C85.0738 38.661 83.4972 38.008 82.3347 36.8455C81.1722 35.683 80.5191 34.1063 80.5191 32.4623V13.5699C80.5191 12.7561 80.6795 11.9504 80.9911 11.1986C81.3027 10.4469 81.7593 9.76391 82.335 9.18877C82.9107 8.61363 83.5941 8.15759 84.3461 7.84671C85.0981 7.53583 85.9041 7.37619 86.7178 7.37696H93.1083C94.7507 7.37696 96.3259 8.02943 97.4873 9.19083C98.6487 10.3522 99.3012 11.9274 99.3012 13.5699" stroke="#333333" stroke-width="12.1" stroke-linecap="round" stroke-linejoin="round"/>
<path opacity="0.2" d="M11.0957 23.0219H19.6124C21.2564 23.0219 22.8331 22.3688 23.9956 21.2063C25.158 20.0438 25.8111 18.4672 25.8111 16.8232V13.5699C25.8096 11.9269 25.1558 10.3517 23.9935 9.19047C22.8312 8.02924 21.2554 7.37695 19.6124 7.37695H7V38.661" stroke="#FF0BA4" stroke-width="13" stroke-linecap="round" stroke-linejoin="round"/>
<path opacity="0.2" d="M19.0663 27.443L25.8112 38.6611" stroke="#FF0BA4" stroke-width="13" stroke-linecap="round" stroke-linejoin="round"/>
<path opacity="0.25" d="M11.0957 23.0219H19.6124C21.2564 23.0219 22.8331 22.3688 23.9956 21.2063C25.158 20.0438 25.8111 18.4672 25.8111 16.8232V13.5699C25.8096 11.9269 25.1558 10.3517 23.9935 9.19047C22.8312 8.02924 21.2554 7.37695 19.6124 7.37695H7V38.661" stroke="#FF0BA4" stroke-width="10.43" stroke-linecap="round" stroke-linejoin="round"/>
<path opacity="0.25" d="M19.0663 27.443L25.8112 38.6611" stroke="#FF0BA4" stroke-width="10.43" stroke-linecap="round" stroke-linejoin="round"/>
<path opacity="0.3" d="M11.0957 23.0219H19.6124C21.2564 23.0219 22.8331 22.3688 23.9956 21.2063C25.158 20.0438 25.8111 18.4672 25.8111 16.8232V13.5699C25.8096 11.9269 25.1558 10.3517 23.9935 9.19047C22.8312 8.02924 21.2554 7.37695 19.6124 7.37695H7V38.661" stroke="#FF0BA4" stroke-width="6.13" stroke-linecap="round" stroke-linejoin="round"/>
<path opacity="0.3" d="M19.0663 27.443L25.8112 38.6611" stroke="#FF0BA4" stroke-width="6.13" stroke-linecap="round" stroke-linejoin="round"/>
<path d="M11.0957 23.0219H19.6124C21.2564 23.0219 22.8331 22.3688 23.9956 21.2063C25.158 20.0438 25.8111 18.4672 25.8111 16.8232V13.5699C25.8096 11.9269 25.1558 10.3517 23.9935 9.19047C22.8312 8.02924 21.2554 7.37695 19.6124 7.37695H7V38.661" stroke="#FF36B5" stroke-width="8.59" stroke-linecap="round" stroke-linejoin="round"/>
<path d="M19.0663 27.443L25.8112 38.6611" stroke="#FF36B5" stroke-width="8.59" stroke-linecap="round" stroke-linejoin="round"/>
<path d="M11.0957 23.0219H19.6124C21.2564 23.0219 22.8331 22.3688 23.9956 21.2063C25.158 20.0438 25.8111 18.4672 25.8111 16.8232V13.5699C25.8096 11.9269 25.1558 10.3517 23.9935 9.19047C22.8312 8.02924 21.2554 7.37695 19.6124 7.37695H7V38.661" stroke="#FF55C4" stroke-width="6.75" stroke-linecap="round" stroke-linejoin="round"/>
<path d="M19.0663 27.443L25.8112 38.6611" stroke="#FF55C4" stroke-width="6.75" stroke-linecap="round" stroke-linejoin="round"/>
<path d="M11.0957 23.0219H19.6124C21.2564 23.0219 22.8331 22.3688 23.9956 21.2063C25.158 20.0438 25.8111 18.4672 25.8111 16.8232V13.5699C25.8096 11.9269 25.1558 10.3517 23.9935 9.19047C22.8312 8.02924 21.2554 7.37695 19.6124 7.37695H7V38.661" stroke="#FF6FD4" stroke-width="4.91" stroke-linecap="round" stroke-linejoin="round"/>
<path d="M19.0663 27.443L25.8112 38.6611" stroke="#FF6FD4" stroke-width="4.91" stroke-linecap="round" stroke-linejoin="round"/>
<path d="M11.0957 23.0219H19.6124C21.2564 23.0219 22.8331 22.3688 23.9956 21.2063C25.158 20.0438 25.8111 18.4672 25.8111 16.8232V13.5699C25.8096 11.9269 25.1558 10.3517 23.9935 9.19047C22.8312 8.02924 21.2554 7.37695 19.6124 7.37695H7V38.661" stroke="#FF88E3" stroke-width="3.07" stroke-linecap="round" stroke-linejoin="round"/>
<path d="M19.0663 27.443L25.8112 38.6611" stroke="#FF88E3" stroke-width="3.07" stroke-linecap="round" stroke-linejoin="round"/>
<path d="M11.0957 23.0219H19.6124C21.2564 23.0219 22.8331 22.3688 23.9956 21.2063C25.158 20.0438 25.8111 18.4672 25.8111 16.8232V13.5699C25.8096 11.9269 25.1558 10.3517 23.9935 9.19047C22.8312 8.02924 21.2554 7.37695 19.6124 7.37695H7V38.661" stroke="#FFBFF7" stroke-width="1.23" stroke-linecap="round" stroke-linejoin="round"/>
<path d="M19.0663 27.443L25.8112 38.6611" stroke="#FFBFF7" stroke-width="1.23" stroke-linecap="round" stroke-linejoin="round"/>
<path opacity="0.2" d="M63.7122 33.9554C66.1348 31.2963 67.4755 27.8275 67.471 24.2303V21.8658C67.471 18.0308 65.9475 14.3529 63.2358 11.6412C60.524 8.92944 56.8461 7.40601 53.0111 7.40601V7.40601C49.1762 7.40601 45.4982 8.92944 42.7865 11.6412C40.0748 14.3529 38.5513 18.0308 38.5513 21.8658V24.2303C38.5513 28.0653 40.0748 31.7432 42.7865 34.4549C45.4982 37.1666 49.1762 38.6901 53.0111 38.6901C55.5372 38.6942 58.0197 38.0329 60.2091 36.773" stroke="#FF0BA4" stroke-width="13" stroke-linecap="round" stroke-linejoin="round"/>
<path opacity="0.25" d="M63.7122 33.9554C66.1348 31.2963 67.4755 27.8275 67.471 24.2303V21.8658C67.471 18.0308 65.9475 14.3529 63.2358 11.6412C60.524 8.92944 56.8461 7.40601 53.0111 7.40601V7.40601C49.1762 7.40601 45.4982 8.92944 42.7865 11.6412C40.0748 14.3529 38.5513 18.0308 38.5513 21.8658V24.2303C38.5513 28.0653 40.0748 31.7432 42.7865 34.4549C45.4982 37.1666 49.1762 38.6901 53.0111 38.6901C55.5372 38.6942 58.0197 38.0329 60.2091 36.773" stroke="#FF0BA4" stroke-width="10.43" stroke-linecap="round" stroke-linejoin="round"/>
<path opacity="0.3" d="M63.7122 33.9554C66.1348 31.2963 67.4755 27.8275 67.471 24.2303V21.8658C67.471 18.0308 65.9475 14.3529 63.2358 11.6412C60.524 8.92944 56.8461 7.40601 53.0111 7.40601V7.40601C49.1762 7.40601 45.4982 8.92944 42.7865 11.6412C40.0748 14.3529 38.5513 18.0308 38.5513 21.8658V24.2303C38.5513 28.0653 40.0748 31.7432 42.7865 34.4549C45.4982 37.1666 49.1762 38.6901 53.0111 38.6901C55.5372 38.6942 58.0197 38.0329 60.2091 36.773" stroke="#FF0BA4" stroke-width="6.13" stroke-linecap="round" stroke-linejoin="round"/>
<path d="M63.7122 33.9554C66.1348 31.2963 67.4755 27.8275 67.471 24.2303V21.8658C67.471 18.0308 65.9475 14.3529 63.2358 11.6412C60.524 8.92944 56.8461 7.40601 53.0111 7.40601V7.40601C49.1762 7.40601 45.4982 8.92944 42.7865 11.6412C40.0748 14.3529 38.5513 18.0308 38.5513 21.8658V24.2303C38.5513 28.0653 40.0748 31.7432 42.7865 34.4549C45.4982 37.1666 49.1762 38.6901 53.0111 38.6901C55.5372 38.6942 58.0197 38.0329 60.2091 36.773" stroke="#FF36B5" stroke-width="8.59" stroke-linecap="round" stroke-linejoin="round"/>
<path d="M63.7122 33.9554C66.1348 31.2963 67.4755 27.8275 67.471 24.2303V21.8658C67.471 18.0308 65.9475 14.3529 63.2358 11.6412C60.524 8.92944 56.8461 7.40601 53.0111 7.40601V7.40601C49.1762 7.40601 45.4982 8.92944 42.7865 11.6412C40.0748 14.3529 38.5513 18.0308 38.5513 21.8658V24.2303C38.5513 28.0653 40.0748 31.7432 42.7865 34.4549C45.4982 37.1666 49.1762 38.6901 53.0111 38.6901C55.5372 38.6942 58.0197 38.0329 60.2091 36.773" stroke="#FF55C4" stroke-width="6.75" stroke-linecap="round" stroke-linejoin="round"/>
<path d="M63.7122 33.9554C66.1348 31.2963 67.4755 27.8275 67.471 24.2303V21.8658C67.471 18.0308 65.9475 14.3529 63.2358 11.6412C60.524 8.92944 56.8461 7.40601 53.0111 7.40601V7.40601C49.1762 7.40601 45.4982 8.92944 42.7865 11.6412C40.0748 14.3529 38.5513 18.0308 38.5513 21.8658V24.2303C38.5513 28.0653 40.0748 31.7432 42.7865 34.4549C45.4982 37.1666 49.1762 38.6901 53.0111 38.6901C55.5372 38.6942 58.0197 38.0329 60.2091 36.773" stroke="#FF6FD4" stroke-width="4.91" stroke-linecap="round" stroke-linejoin="round"/>
<path d="M63.7122 33.9554C66.1348 31.2963 67.4755 27.8275 67.471 24.2303V21.8658C67.471 18.0308 65.9475 14.3529 63.2358 11.6412C60.524 8.92944 56.8461 7.40601 53.0111 7.40601V7.40601C49.1762 7.40601 45.4982 8.92944 42.7865 11.6412C40.0748 14.3529 38.5513 18.0308 38.5513 21.8658V24.2303C38.5513 28.0653 40.0748 31.7432 42.7865 34.4549C45.4982 37.1666 49.1762 38.6901 53.0111 38.6901C55.5372 38.6942 58.0197 38.0329 60.2091 36.773" stroke="#FF88E3" stroke-width="3.07" stroke-linecap="round" stroke-linejoin="round"/>
<path d="M63.7122 33.9554C66.1348 31.2963 67.4755 27.8275 67.471 24.2303V21.8658C67.471 18.0308 65.9475 14.3529 63.2358 11.6412C60.524 8.92944 56.8461 7.40601 53.0111 7.40601V7.40601C49.1762 7.40601 45.4982 8.92944 42.7865 11.6412C40.0748 14.3529 38.5513 18.0308 38.5513 21.8658V24.2303C38.5513 28.0653 40.0748 31.7432 42.7865 34.4549C45.4982 37.1666 49.1762 38.6901 53.0111 38.6901C55.5372 38.6942 58.0197 38.0329 60.2091 36.773" stroke="#FFBFF7" stroke-width="1.23" stroke-linecap="round" stroke-linejoin="round"/>
<path opacity="0.2" d="M112.163 7.37695V38.661" stroke="#FF0BA4" stroke-width="13" stroke-linecap="round" stroke-linejoin="round"/>
<path opacity="0.2" d="M131.033 7.37695L116.497 23.0219" stroke="#FF0BA4" stroke-width="13" stroke-linecap="round" stroke-linejoin="round"/>
<path opacity="0.2" d="M116.497 23.0219L131.033 38.661" stroke="#FF0BA4" stroke-width="13" stroke-linecap="round" stroke-linejoin="round"/>
<path opacity="0.25" d="M112.163 7.37695V38.661" stroke="#FF0BA4" stroke-width="10.43" stroke-linecap="round" stroke-linejoin="round"/>
<path opacity="0.25" d="M131.033 7.37695L116.497 23.0219" stroke="#FF0BA4" stroke-width="10.43" stroke-linecap="round" stroke-linejoin="round"/>
<path opacity="0.25" d="M116.497 23.0219L131.033 38.661" stroke="#FF0BA4" stroke-width="10.43" stroke-linecap="round" stroke-linejoin="round"/>
<path opacity="0.3" d="M112.163 7.37695V38.661" stroke="#FF0BA4" stroke-width="6.13" stroke-linecap="round" stroke-linejoin="round"/>
<path opacity="0.3" d="M131.033 7.37695L116.497 23.0219" stroke="#FF0BA4" stroke-width="6.13" stroke-linecap="round" stroke-linejoin="round"/>
<path opacity="0.3" d="M116.497 23.0219L131.033 38.661" stroke="#FF0BA4" stroke-width="6.13" stroke-linecap="round" stroke-linejoin="round"/>
<path d="M112.163 7.37695V38.661" stroke="#FF36B5" stroke-width="8.59" stroke-linecap="round" stroke-linejoin="round"/>
<path d="M131.033 7.37695L116.497 23.0219" stroke="#FF36B5" stroke-width="8.59" stroke-linecap="round" stroke-linejoin="round"/>
<path d="M116.497 23.022L131.033 38.6611" stroke="#FF36B5" stroke-width="8.59" stroke-linecap="round" stroke-linejoin="round"/>
<path d="M112.163 7.37695V38.661" stroke="#FF55C4" stroke-width="6.75" stroke-linecap="round" stroke-linejoin="round"/>
<path d="M131.033 7.37695L116.497 23.0219" stroke="#FF55C4" stroke-width="6.75" stroke-linecap="round" stroke-linejoin="round"/>
<path d="M116.497 23.022L131.033 38.6611" stroke="#FF55C4" stroke-width="6.75" stroke-linecap="round" stroke-linejoin="round"/>
<path d="M112.163 7.37695V38.661" stroke="#FF6FD4" stroke-width="4.91" stroke-linecap="round" stroke-linejoin="round"/>
<path d="M131.033 7.37695L116.497 23.0219" stroke="#FF6FD4" stroke-width="4.91" stroke-linecap="round" stroke-linejoin="round"/>
<path d="M116.497 23.022L131.033 38.6611" stroke="#FF6FD4" stroke-width="4.91" stroke-linecap="round" stroke-linejoin="round"/>
<path d="M112.163 7.37695V38.661" stroke="#FF88E3" stroke-width="3.07" stroke-linecap="round" stroke-linejoin="round"/>
<path d="M131.033 7.37695L116.497 23.0219" stroke="#FF88E3" stroke-width="3.07" stroke-linecap="round" stroke-linejoin="round"/>
<path d="M116.497 23.022L131.033 38.6611" stroke="#FF88E3" stroke-width="3.07" stroke-linecap="round" stroke-linejoin="round"/>
<path d="M112.163 7.37695V38.661" stroke="#FFBFF7" stroke-width="1.23" stroke-linecap="round" stroke-linejoin="round"/>
<path d="M131.033 7.37695L116.497 23.0219" stroke="#FFBFF7" stroke-width="1.23" stroke-linecap="round" stroke-linejoin="round"/>
<path d="M116.497 23.022L131.033 38.6611" stroke="#FFBFF7" stroke-width="1.23" stroke-linecap="round" stroke-linejoin="round"/>
<path opacity="0.2" d="M99.3012 32.4623C99.3012 34.1053 98.6489 35.6811 97.4877 36.8434C96.3264 38.0058 94.7513 38.6595 93.1083 38.661H86.7178C85.0738 38.661 83.4972 38.008 82.3347 36.8455C81.1722 35.683 80.5191 34.1063 80.5191 32.4623V13.5699C80.5191 12.7561 80.6795 11.9504 80.9911 11.1986C81.3027 10.4469 81.7593 9.76391 82.335 9.18877C82.9107 8.61363 83.5941 8.15759 84.3461 7.84671C85.0981 7.53583 85.9041 7.37619 86.7178 7.37696H93.1083C94.7507 7.37696 96.3259 8.02943 97.4873 9.19083C98.6487 10.3522 99.3012 11.9274 99.3012 13.5699" stroke="#FF0BA4" stroke-width="13" stroke-linecap="round" stroke-linejoin="round"/>
<path opacity="0.25" d="M99.3012 32.4623C99.3012 34.1053 98.6489 35.6811 97.4877 36.8434C96.3264 38.0058 94.7513 38.6595 93.1083 38.661H86.7178C85.0738 38.661 83.4972 38.008 82.3347 36.8455C81.1722 35.683 80.5191 34.1063 80.5191 32.4623V13.5699C80.5191 12.7561 80.6795 11.9504 80.9911 11.1986C81.3027 10.4469 81.7593 9.76391 82.335 9.18877C82.9107 8.61363 83.5941 8.15759 84.3461 7.84671C85.0981 7.53583 85.9041 7.37619 86.7178 7.37696H93.1083C94.7507 7.37696 96.3259 8.02943 97.4873 9.19083C98.6487 10.3522 99.3012 11.9274 99.3012 13.5699" stroke="#FF0BA4" stroke-width="10.43" stroke-linecap="round" stroke-linejoin="round"/>
<path opacity="0.3" d="M99.3012 32.4623C99.3012 34.1053 98.6489 35.6811 97.4877 36.8434C96.3264 38.0058 94.7513 38.6595 93.1083 38.661H86.7178C85.0738 38.661 83.4972 38.008 82.3347 36.8455C81.1722 35.683 80.5191 34.1063 80.5191 32.4623V13.5699C80.5191 12.7561 80.6795 11.9504 80.9911 11.1986C81.3027 10.4469 81.7593 9.76391 82.335 9.18877C82.9107 8.61363 83.5941 8.15759 84.3461 7.84671C85.0981 7.53583 85.9041 7.37619 86.7178 7.37696H93.1083C94.7507 7.37696 96.3259 8.02943 97.4873 9.19083C98.6487 10.3522 99.3012 11.9274 99.3012 13.5699" stroke="#FF0BA4" stroke-width="6.13" stroke-linecap="round" stroke-linejoin="round"/>
<path d="M99.3012 32.4623C99.3012 34.1053 98.6489 35.6811 97.4877 36.8434C96.3264 38.0058 94.7513 38.6595 93.1083 38.661H86.7178C85.0738 38.661 83.4972 38.008 82.3347 36.8455C81.1722 35.683 80.5191 34.1063 80.5191 32.4623V13.5699C80.5191 12.7561 80.6795 11.9504 80.9911 11.1986C81.3027 10.4469 81.7593 9.76391 82.335 9.18877C82.9107 8.61363 83.5941 8.15759 84.3461 7.84671C85.0981 7.53583 85.9041 7.37619 86.7178 7.37696H93.1083C94.7507 7.37696 96.3259 8.02943 97.4873 9.19083C98.6487 10.3522 99.3012 11.9274 99.3012 13.5699" stroke="#FF36B5" stroke-width="8.59" stroke-linecap="round" stroke-linejoin="round"/>
<path d="M99.3012 32.4623C99.3012 34.1053 98.6489 35.6811 97.4877 36.8434C96.3264 38.0058 94.7513 38.6595 93.1083 38.661H86.7178C85.0738 38.661 83.4972 38.008 82.3347 36.8455C81.1722 35.683 80.5191 34.1063 80.5191 32.4623V13.5699C80.5191 12.7561 80.6795 11.9504 80.9911 11.1986C81.3027 10.4469 81.7593 9.76391 82.335 9.18877C82.9107 8.61363 83.5941 8.15759 84.3461 7.84671C85.0981 7.53583 85.9041 7.37619 86.7178 7.37696H93.1083C94.7507 7.37696 96.3259 8.02943 97.4873 9.19083C98.6487 10.3522 99.3012 11.9274 99.3012 13.5699" stroke="#FF55C4" stroke-width="6.75" stroke-linecap="round" stroke-linejoin="round"/>
<path d="M99.3012 32.4623C99.3012 34.1053 98.6489 35.6811 97.4877 36.8434C96.3264 38.0058 94.7513 38.6595 93.1083 38.661H86.7178C85.0738 38.661 83.4972 38.008 82.3347 36.8455C81.1722 35.683 80.5191 34.1063 80.5191 32.4623V13.5699C80.5191 12.7561 80.6795 11.9504 80.9911 11.1986C81.3027 10.4469 81.7593 9.76391 82.335 9.18877C82.9107 8.61363 83.5941 8.15759 84.3461 7.84671C85.0981 7.53583 85.9041 7.37619 86.7178 7.37696H93.1083C94.7507 7.37696 96.3259 8.02943 97.4873 9.19083C98.6487 10.3522 99.3012 11.9274 99.3012 13.5699" stroke="#FF6FD4" stroke-width="4.91" stroke-linecap="round" stroke-linejoin="round"/>
<path d="M99.3012 32.4623C99.3012 34.1053 98.6489 35.6811 97.4877 36.8434C96.3264 38.0058 94.7513 38.6595 93.1083 38.661H86.7178C85.0738 38.661 83.4972 38.008 82.3347 36.8455C81.1722 35.683 80.5191 34.1063 80.5191 32.4623V13.5699C80.5191 12.7561 80.6795 11.9504 80.9911 11.1986C81.3027 10.4469 81.7593 9.76391 82.335 9.18877C82.9107 8.61363 83.5941 8.15759 84.3461 7.84671C85.0981 7.53583 85.9041 7.37619 86.7178 7.37696H93.1083C94.7507 7.37696 96.3259 8.02943 97.4873 9.19083C98.6487 10.3522 99.3012 11.9274 99.3012 13.5699" stroke="#FF88E3" stroke-width="3.07" stroke-linecap="round" stroke-linejoin="round"/>
<path d="M99.3012 32.4623C99.3012 34.1053 98.6489 35.6811 97.4877 36.8434C96.3264 38.0058 94.7513 38.6595 93.1083 38.661H86.7178C85.0738 38.661 83.4972 38.008 82.3347 36.8455C81.1722 35.683 80.5191 34.1063 80.5191 32.4623V13.5699C80.5191 12.7561 80.6795 11.9504 80.9911 11.1986C81.3027 10.4469 81.7593 9.76391 82.335 9.18877C82.9107 8.61363 83.5941 8.15759 84.3461 7.84671C85.0981 7.53583 85.9041 7.37619 86.7178 7.37696H93.1083C94.7507 7.37696 96.3259 8.02943 97.4873 9.19083C98.6487 10.3522 99.3012 11.9274 99.3012 13.5699" stroke="#FFBFF7" stroke-width="1.23" stroke-linecap="round" stroke-linejoin="round"/>
</svg>
