<svg width="237" height="46" viewBox="0 0 237 46" fill="none" xmlns="http://www.w3.org/2000/svg">
<path d="M26.4983 13.199C26.4991 12.3847 26.3393 11.5783 26.0281 10.8259C25.7168 10.0735 25.2602 9.38987 24.6845 8.81412C24.1087 8.23836 23.4251 7.78177 22.6727 7.47053C21.9203 7.15929 21.1139 6.99948 20.2996 7.00025H13.9092C12.2652 7.00025 10.6885 7.65333 9.52602 8.81582C8.36353 9.9783 7.71045 11.555 7.71045 13.199V16.4465C7.71045 18.0905 8.36353 19.6671 9.52602 20.8296C10.6885 21.9921 12.2652 22.6452 13.9092 22.6452H20.2996C21.1139 22.6444 21.9203 22.8042 22.6727 23.1155C23.4251 23.4267 24.1087 23.8833 24.6845 24.4591C25.2602 25.0348 25.7168 25.7185 26.0281 26.4709C26.3393 27.2233 26.4991 28.0297 26.4983 28.8439V32.0914C26.4983 32.9052 26.338 33.711 26.0264 34.4627C25.7148 35.2144 25.2581 35.8974 24.6824 36.4725C24.1067 37.0477 23.4234 37.5037 22.6713 37.8146C21.9193 38.1255 21.1134 38.2851 20.2996 38.2843H13.9092C12.2662 38.2843 10.6904 37.632 9.52808 36.4708C8.36576 35.3096 7.71199 33.7344 7.71045 32.0914" stroke="#333333" stroke-width="12.1" stroke-linecap="round" stroke-linejoin="round"/>
<path d="M230.063 13.1988C230.063 11.5548 229.41 9.97819 228.247 8.8157C227.085 7.65322 225.508 7.00013 223.864 7.00013H217.474C216.657 6.99477 215.846 7.15116 215.09 7.46035C214.333 7.76953 213.646 8.22538 213.066 8.80159C212.487 9.37781 212.027 10.063 211.714 10.8177C211.4 11.5724 211.239 12.3817 211.24 13.1988V16.4464C211.24 18.0904 211.893 19.667 213.056 20.8295C214.218 21.992 215.795 22.6451 217.439 22.6451H223.829C225.473 22.6451 227.05 23.2982 228.212 24.4607C229.375 25.6231 230.028 27.1998 230.028 28.8438V32.0913C230.026 33.7343 229.373 35.3095 228.21 36.4707C227.048 37.6319 225.472 38.2842 223.829 38.2842H217.439C216.625 38.285 215.819 38.1254 215.067 37.8145C214.315 37.5036 213.632 37.0475 213.056 36.4724C212.48 35.8973 212.024 35.2143 211.712 34.4626C211.4 33.7108 211.24 32.9051 211.24 32.0913" stroke="#333333" stroke-width="12.1" stroke-linecap="round" stroke-linejoin="round"/>
<path d="M98.6522 13.1988C98.6522 11.5548 97.9991 9.97818 96.8366 8.81569C95.6741 7.65321 94.0974 7.00012 92.4534 7.00012H86.063C84.419 7.00012 82.8423 7.65321 81.6798 8.81569C80.5173 9.97818 79.8643 11.5548 79.8643 13.1988V16.4464C79.8643 18.0904 80.5173 19.667 81.6798 20.8295C82.8423 21.992 84.419 22.6451 86.063 22.6451H92.4534C94.0974 22.6451 95.6741 23.2982 96.8366 24.4606C97.9991 25.6231 98.6522 27.1998 98.6522 28.8438V32.0913C98.6506 33.7343 97.9968 35.3095 96.8345 36.4707C95.6722 37.6319 94.0964 38.2842 92.4534 38.2842H86.063C84.42 38.2842 82.8442 37.6319 81.6819 36.4707C80.5196 35.3095 79.8658 33.7343 79.8643 32.0913" stroke="#333333" stroke-width="12.1" stroke-linecap="round" stroke-linejoin="round"/>
<path d="M128.978 13.1988C128.978 11.5548 128.325 9.97816 127.162 8.81567C126 7.65318 124.423 7.0001 122.779 7.0001H116.389C115.572 6.9955 114.762 7.15245 114.006 7.46191C113.25 7.77136 112.562 8.22723 111.983 8.80329C111.404 9.37936 110.944 10.0643 110.63 10.8186C110.317 11.5729 110.155 12.3818 110.155 13.1988V16.4463C110.155 18.0903 110.808 19.667 111.971 20.8295C113.133 21.992 114.71 22.645 116.354 22.645H122.744C124.388 22.645 125.965 23.2981 127.127 24.4606C128.29 25.6231 128.943 27.1998 128.943 28.8438V32.0913C128.941 33.7343 128.288 35.3094 127.125 36.4707C125.963 37.6319 124.387 38.2842 122.744 38.2842H116.354C114.711 38.2842 113.135 37.6319 111.973 36.4707C110.81 35.3094 110.157 33.7343 110.155 32.0913" stroke="#333333" stroke-width="12.1" stroke-linecap="round" stroke-linejoin="round"/>
<path d="M185.022 22.6451H193.539C195.183 22.6451 196.759 21.992 197.922 20.8295C199.084 19.667 199.737 18.0904 199.737 16.4464V13.1988C199.737 11.5548 199.084 9.97818 197.922 8.81569C196.759 7.65321 195.183 7.00012 193.539 7.00012H180.926V38.2842" stroke="#333333" stroke-width="12.1" stroke-linecap="round" stroke-linejoin="round"/>
<path d="M192.993 27.0719L199.737 38.2842" stroke="#333333" stroke-width="12.1" stroke-linecap="round" stroke-linejoin="round"/>
<path d="M165.659 33.5495C168.078 30.8889 169.417 27.4206 169.412 23.8244V21.4599C169.412 17.625 167.888 13.947 165.177 11.2353C162.465 8.52356 158.787 7.00012 154.952 7.00012V7.00012C151.117 7.00012 147.439 8.52356 144.727 11.2353C142.016 13.947 140.492 17.625 140.492 21.4599V23.8244C140.492 27.6594 142.016 31.3373 144.727 34.049C147.439 36.7608 151.117 38.2842 154.952 38.2842V38.2842C157.477 38.2873 159.959 37.6283 162.15 36.3729" stroke="#333333" stroke-width="12.1" stroke-linecap="round" stroke-linejoin="round"/>
<path d="M68.3267 7.00012V38.2842" stroke="#333333" stroke-width="12.1" stroke-linecap="round" stroke-linejoin="round"/>
<path d="M56.8123 32.0913C56.8107 33.7343 56.157 35.3095 54.9946 36.4707C53.8323 37.6319 52.2566 38.2842 50.6136 38.2842H44.2231C42.5801 38.2842 41.0043 37.6319 39.842 36.4707C38.6797 35.3095 38.026 33.7343 38.0244 32.0913V13.1988C38.0244 11.5548 38.6775 9.97818 39.8399 8.81569C41.0024 7.65321 42.5791 7.00012 44.2231 7.00012H50.6136C52.2576 7.00012 53.8342 7.65321 54.9967 8.81569C56.1592 9.97818 56.8123 11.5548 56.8123 13.1988" stroke="#333333" stroke-width="12.1" stroke-linecap="round" stroke-linejoin="round"/>
<path opacity="0.2" d="M26.4983 13.199C26.4991 12.3847 26.3393 11.5783 26.0281 10.8259C25.7168 10.0735 25.2602 9.38987 24.6845 8.81412C24.1087 8.23836 23.4251 7.78177 22.6727 7.47053C21.9203 7.15929 21.1139 6.99948 20.2996 7.00025H13.9092C12.2652 7.00025 10.6885 7.65333 9.52602 8.81582C8.36353 9.9783 7.71045 11.555 7.71045 13.199V16.4465C7.71045 18.0905 8.36353 19.6671 9.52602 20.8296C10.6885 21.9921 12.2652 22.6452 13.9092 22.6452H20.2996C21.1139 22.6444 21.9203 22.8042 22.6727 23.1155C23.4251 23.4267 24.1087 23.8833 24.6845 24.4591C25.2602 25.0348 25.7168 25.7185 26.0281 26.4709C26.3393 27.2233 26.4991 28.0297 26.4983 28.8439V32.0914C26.4983 32.9052 26.338 33.711 26.0264 34.4627C25.7148 35.2144 25.2581 35.8974 24.6824 36.4725C24.1067 37.0477 23.4234 37.5037 22.6713 37.8146C21.9193 38.1255 21.1134 38.2851 20.2996 38.2843H13.9092C12.2662 38.2843 10.6904 37.632 9.52808 36.4708C8.36576 35.3096 7.71199 33.7344 7.71045 32.0914" stroke="#FF7909" stroke-width="13.63" stroke-linecap="round" stroke-linejoin="round"/>
<path opacity="0.25" d="M26.4983 13.199C26.4991 12.3847 26.3393 11.5783 26.0281 10.8259C25.7168 10.0735 25.2602 9.38987 24.6845 8.81412C24.1087 8.23836 23.4251 7.78177 22.6727 7.47053C21.9203 7.15929 21.1139 6.99948 20.2996 7.00025H13.9092C12.2652 7.00025 10.6885 7.65333 9.52602 8.81582C8.36353 9.9783 7.71045 11.555 7.71045 13.199V16.4465C7.71045 18.0905 8.36353 19.6671 9.52602 20.8296C10.6885 21.9921 12.2652 22.6452 13.9092 22.6452H20.2996C21.1139 22.6444 21.9203 22.8042 22.6727 23.1155C23.4251 23.4267 24.1087 23.8833 24.6845 24.4591C25.2602 25.0348 25.7168 25.7185 26.0281 26.4709C26.3393 27.2233 26.4991 28.0297 26.4983 28.8439V32.0914C26.4983 32.9052 26.338 33.711 26.0264 34.4627C25.7148 35.2144 25.2581 35.8974 24.6824 36.4725C24.1067 37.0477 23.4234 37.5037 22.6713 37.8146C21.9193 38.1255 21.1134 38.2851 20.2996 38.2843H13.9092C12.2662 38.2843 10.6904 37.632 9.52808 36.4708C8.36576 35.3096 7.71199 33.7344 7.71045 32.0914" stroke="#FF7909" stroke-width="11.59" stroke-linecap="round" stroke-linejoin="round"/>
<path opacity="0.3" d="M26.4983 13.199C26.4991 12.3847 26.3393 11.5783 26.0281 10.8259C25.7168 10.0735 25.2602 9.38987 24.6845 8.81412C24.1087 8.23836 23.4251 7.78177 22.6727 7.47053C21.9203 7.15929 21.1139 6.99948 20.2996 7.00025H13.9092C12.2652 7.00025 10.6885 7.65333 9.52602 8.81582C8.36353 9.9783 7.71045 11.555 7.71045 13.199V16.4465C7.71045 18.0905 8.36353 19.6671 9.52602 20.8296C10.6885 21.9921 12.2652 22.6452 13.9092 22.6452H20.2996C21.1139 22.6444 21.9203 22.8042 22.6727 23.1155C23.4251 23.4267 24.1087 23.8833 24.6845 24.4591C25.2602 25.0348 25.7168 25.7185 26.0281 26.4709C26.3393 27.2233 26.4991 28.0297 26.4983 28.8439V32.0914C26.4983 32.9052 26.338 33.711 26.0264 34.4627C25.7148 35.2144 25.2581 35.8974 24.6824 36.4725C24.1067 37.0477 23.4234 37.5037 22.6713 37.8146C21.9193 38.1255 21.1134 38.2851 20.2996 38.2843H13.9092C12.2662 38.2843 10.6904 37.632 9.52808 36.4708C8.36576 35.3096 7.71199 33.7344 7.71045 32.0914" stroke="#FF7909" stroke-width="6.82" stroke-linecap="round" stroke-linejoin="round"/>
<path d="M26.4983 13.199C26.4991 12.3847 26.3393 11.5783 26.0281 10.8259C25.7168 10.0735 25.2602 9.38987 24.6845 8.81412C24.1087 8.23836 23.4251 7.78177 22.6727 7.47053C21.9203 7.15929 21.1139 6.99948 20.2996 7.00025H13.9092C12.2652 7.00025 10.6885 7.65333 9.52602 8.81582C8.36353 9.9783 7.71045 11.555 7.71045 13.199V16.4465C7.71045 18.0905 8.36353 19.6671 9.52602 20.8296C10.6885 21.9921 12.2652 22.6452 13.9092 22.6452H20.2996C21.1139 22.6444 21.9203 22.8042 22.6727 23.1155C23.4251 23.4267 24.1087 23.8833 24.6845 24.4591C25.2602 25.0348 25.7168 25.7185 26.0281 26.4709C26.3393 27.2233 26.4991 28.0297 26.4983 28.8439V32.0914C26.4983 32.9052 26.338 33.711 26.0264 34.4627C25.7148 35.2144 25.2581 35.8974 24.6824 36.4725C24.1067 37.0477 23.4234 37.5037 22.6713 37.8146C21.9193 38.1255 21.1134 38.2851 20.2996 38.2843H13.9092C12.2662 38.2843 10.6904 37.632 9.52808 36.4708C8.36576 35.3096 7.71199 33.7344 7.71045 32.0914" stroke="#FFA41A" stroke-width="9.54" stroke-linecap="round" stroke-linejoin="round"/>
<path d="M26.4983 13.199C26.4991 12.3847 26.3393 11.5783 26.0281 10.8259C25.7168 10.0735 25.2602 9.38987 24.6845 8.81412C24.1087 8.23836 23.4251 7.78177 22.6727 7.47053C21.9203 7.15929 21.1139 6.99948 20.2996 7.00025H13.9092C12.2652 7.00025 10.6885 7.65333 9.52602 8.81582C8.36353 9.9783 7.71045 11.555 7.71045 13.199V16.4465C7.71045 18.0905 8.36353 19.6671 9.52602 20.8296C10.6885 21.9921 12.2652 22.6452 13.9092 22.6452H20.2996C21.1139 22.6444 21.9203 22.8042 22.6727 23.1155C23.4251 23.4267 24.1087 23.8833 24.6845 24.4591C25.2602 25.0348 25.7168 25.7185 26.0281 26.4709C26.3393 27.2233 26.4991 28.0297 26.4983 28.8439V32.0914C26.4983 32.9052 26.338 33.711 26.0264 34.4627C25.7148 35.2144 25.2581 35.8974 24.6824 36.4725C24.1067 37.0477 23.4234 37.5037 22.6713 37.8146C21.9193 38.1255 21.1134 38.2851 20.2996 38.2843H13.9092C12.2662 38.2843 10.6904 37.632 9.52808 36.4708C8.36576 35.3096 7.71199 33.7344 7.71045 32.0914" stroke="#FFC329" stroke-width="7.5" stroke-linecap="round" stroke-linejoin="round"/>
<path d="M26.4983 13.199C26.4991 12.3847 26.3393 11.5783 26.0281 10.8259C25.7168 10.0735 25.2602 9.38987 24.6845 8.81412C24.1087 8.23836 23.4251 7.78177 22.6727 7.47053C21.9203 7.15929 21.1139 6.99948 20.2996 7.00025H13.9092C12.2652 7.00025 10.6885 7.65333 9.52602 8.81582C8.36353 9.9783 7.71045 11.555 7.71045 13.199V16.4465C7.71045 18.0905 8.36353 19.6671 9.52602 20.8296C10.6885 21.9921 12.2652 22.6452 13.9092 22.6452H20.2996C21.1139 22.6444 21.9203 22.8042 22.6727 23.1155C23.4251 23.4267 24.1087 23.8833 24.6845 24.4591C25.2602 25.0348 25.7168 25.7185 26.0281 26.4709C26.3393 27.2233 26.4991 28.0297 26.4983 28.8439V32.0914C26.4983 32.9052 26.338 33.711 26.0264 34.4627C25.7148 35.2144 25.2581 35.8974 24.6824 36.4725C24.1067 37.0477 23.4234 37.5037 22.6713 37.8146C21.9193 38.1255 21.1134 38.2851 20.2996 38.2843H13.9092C12.2662 38.2843 10.6904 37.632 9.52808 36.4708C8.36576 35.3096 7.71199 33.7344 7.71045 32.0914" stroke="#FFDD39" stroke-width="5.45" stroke-linecap="round" stroke-linejoin="round"/>
<path d="M26.4983 13.199C26.4991 12.3847 26.3393 11.5783 26.0281 10.8259C25.7168 10.0735 25.2602 9.38987 24.6845 8.81412C24.1087 8.23836 23.4251 7.78177 22.6727 7.47053C21.9203 7.15929 21.1139 6.99948 20.2996 7.00025H13.9092C12.2652 7.00025 10.6885 7.65333 9.52602 8.81582C8.36353 9.9783 7.71045 11.555 7.71045 13.199V16.4465C7.71045 18.0905 8.36353 19.6671 9.52602 20.8296C10.6885 21.9921 12.2652 22.6452 13.9092 22.6452H20.2996C21.1139 22.6444 21.9203 22.8042 22.6727 23.1155C23.4251 23.4267 24.1087 23.8833 24.6845 24.4591C25.2602 25.0348 25.7168 25.7185 26.0281 26.4709C26.3393 27.2233 26.4991 28.0297 26.4983 28.8439V32.0914C26.4983 32.9052 26.338 33.711 26.0264 34.4627C25.7148 35.2144 25.2581 35.8974 24.6824 36.4725C24.1067 37.0477 23.4234 37.5037 22.6713 37.8146C21.9193 38.1255 21.1134 38.2851 20.2996 38.2843H13.9092C12.2662 38.2843 10.6904 37.632 9.52808 36.4708C8.36576 35.3096 7.71199 33.7344 7.71045 32.0914" stroke="#FFF648" stroke-width="3.41" stroke-linecap="round" stroke-linejoin="round"/>
<path d="M26.4983 13.199C26.4991 12.3847 26.3393 11.5783 26.0281 10.8259C25.7168 10.0735 25.2602 9.38987 24.6845 8.81412C24.1087 8.23836 23.4251 7.78177 22.6727 7.47053C21.9203 7.15929 21.1139 6.99948 20.2996 7.00025H13.9092C12.2652 7.00025 10.6885 7.65333 9.52602 8.81582C8.36353 9.9783 7.71045 11.555 7.71045 13.199V16.4465C7.71045 18.0905 8.36353 19.6671 9.52602 20.8296C10.6885 21.9921 12.2652 22.6452 13.9092 22.6452H20.2996C21.1139 22.6444 21.9203 22.8042 22.6727 23.1155C23.4251 23.4267 24.1087 23.8833 24.6845 24.4591C25.2602 25.0348 25.7168 25.7185 26.0281 26.4709C26.3393 27.2233 26.4991 28.0297 26.4983 28.8439V32.0914C26.4983 32.9052 26.338 33.711 26.0264 34.4627C25.7148 35.2144 25.2581 35.8974 24.6824 36.4725C24.1067 37.0477 23.4234 37.5037 22.6713 37.8146C21.9193 38.1255 21.1134 38.2851 20.2996 38.2843H13.9092C12.2662 38.2843 10.6904 37.632 9.52808 36.4708C8.36576 35.3096 7.71199 33.7344 7.71045 32.0914" stroke="#FFFF8F" stroke-width="1.36" stroke-linecap="round" stroke-linejoin="round"/>
<path opacity="0.2" d="M230.063 13.1988C230.063 11.5548 229.41 9.97819 228.247 8.8157C227.085 7.65322 225.508 7.00013 223.864 7.00013H217.474C216.657 6.99477 215.846 7.15116 215.09 7.46035C214.333 7.76953 213.646 8.22538 213.066 8.80159C212.487 9.37781 212.027 10.063 211.714 10.8177C211.4 11.5724 211.239 12.3817 211.24 13.1988V16.4464C211.24 18.0904 211.893 19.667 213.056 20.8295C214.218 21.992 215.795 22.6451 217.439 22.6451H223.829C225.473 22.6451 227.05 23.2982 228.212 24.4607C229.375 25.6231 230.028 27.1998 230.028 28.8438V32.0913C230.026 33.7343 229.373 35.3095 228.21 36.4707C227.048 37.6319 225.472 38.2842 223.829 38.2842H217.439C216.625 38.285 215.819 38.1254 215.067 37.8145C214.315 37.5036 213.632 37.0475 213.056 36.4724C212.48 35.8973 212.024 35.2143 211.712 34.4626C211.4 33.7108 211.24 32.9051 211.24 32.0913" stroke="#FF7909" stroke-width="13.63" stroke-linecap="round" stroke-linejoin="round"/>
<path opacity="0.25" d="M230.063 13.1988C230.063 11.5548 229.41 9.97819 228.247 8.8157C227.085 7.65322 225.508 7.00013 223.864 7.00013H217.474C216.657 6.99477 215.846 7.15116 215.09 7.46035C214.333 7.76953 213.646 8.22538 213.066 8.80159C212.487 9.37781 212.027 10.063 211.714 10.8177C211.4 11.5724 211.239 12.3817 211.24 13.1988V16.4464C211.24 18.0904 211.893 19.667 213.056 20.8295C214.218 21.992 215.795 22.6451 217.439 22.6451H223.829C225.473 22.6451 227.05 23.2982 228.212 24.4607C229.375 25.6231 230.028 27.1998 230.028 28.8438V32.0913C230.026 33.7343 229.373 35.3095 228.21 36.4707C227.048 37.6319 225.472 38.2842 223.829 38.2842H217.439C216.625 38.285 215.819 38.1254 215.067 37.8145C214.315 37.5036 213.632 37.0475 213.056 36.4724C212.48 35.8973 212.024 35.2143 211.712 34.4626C211.4 33.7108 211.24 32.9051 211.24 32.0913" stroke="#FF7909" stroke-width="11.59" stroke-linecap="round" stroke-linejoin="round"/>
<path opacity="0.3" d="M230.063 13.1988C230.063 11.5548 229.41 9.97819 228.247 8.8157C227.085 7.65322 225.508 7.00013 223.864 7.00013H217.474C216.657 6.99477 215.846 7.15116 215.09 7.46035C214.333 7.76953 213.646 8.22538 213.066 8.80159C212.487 9.37781 212.027 10.063 211.714 10.8177C211.4 11.5724 211.239 12.3817 211.24 13.1988V16.4464C211.24 18.0904 211.893 19.667 213.056 20.8295C214.218 21.992 215.795 22.6451 217.439 22.6451H223.829C225.473 22.6451 227.05 23.2982 228.212 24.4607C229.375 25.6231 230.028 27.1998 230.028 28.8438V32.0913C230.026 33.7343 229.373 35.3095 228.21 36.4707C227.048 37.6319 225.472 38.2842 223.829 38.2842H217.439C216.625 38.285 215.819 38.1254 215.067 37.8145C214.315 37.5036 213.632 37.0475 213.056 36.4724C212.48 35.8973 212.024 35.2143 211.712 34.4626C211.4 33.7108 211.24 32.9051 211.24 32.0913" stroke="#FF7909" stroke-width="6.82" stroke-linecap="round" stroke-linejoin="round"/>
<path d="M230.063 13.1988C230.063 11.5548 229.41 9.97819 228.247 8.8157C227.085 7.65322 225.508 7.00013 223.864 7.00013H217.474C216.657 6.99477 215.846 7.15116 215.09 7.46035C214.333 7.76953 213.646 8.22538 213.066 8.80159C212.487 9.37781 212.027 10.063 211.714 10.8177C211.4 11.5724 211.239 12.3817 211.24 13.1988V16.4464C211.24 18.0904 211.893 19.667 213.056 20.8295C214.218 21.992 215.795 22.6451 217.439 22.6451H223.829C225.473 22.6451 227.05 23.2982 228.212 24.4607C229.375 25.6231 230.028 27.1998 230.028 28.8438V32.0913C230.026 33.7343 229.373 35.3095 228.21 36.4707C227.048 37.6319 225.472 38.2842 223.829 38.2842H217.439C216.625 38.285 215.819 38.1254 215.067 37.8145C214.315 37.5036 213.632 37.0475 213.056 36.4724C212.48 35.8973 212.024 35.2143 211.712 34.4626C211.4 33.7108 211.24 32.9051 211.24 32.0913" stroke="#FFA41A" stroke-width="9.54" stroke-linecap="round" stroke-linejoin="round"/>
<path d="M230.063 13.1988C230.063 11.5548 229.41 9.97819 228.247 8.8157C227.085 7.65322 225.508 7.00013 223.864 7.00013H217.474C216.657 6.99477 215.846 7.15116 215.09 7.46035C214.333 7.76953 213.646 8.22538 213.066 8.80159C212.487 9.37781 212.027 10.063 211.714 10.8177C211.4 11.5724 211.239 12.3817 211.24 13.1988V16.4464C211.24 18.0904 211.893 19.667 213.056 20.8295C214.218 21.992 215.795 22.6451 217.439 22.6451H223.829C225.473 22.6451 227.05 23.2982 228.212 24.4607C229.375 25.6231 230.028 27.1998 230.028 28.8438V32.0913C230.026 33.7343 229.373 35.3095 228.21 36.4707C227.048 37.6319 225.472 38.2842 223.829 38.2842H217.439C216.625 38.285 215.819 38.1254 215.067 37.8145C214.315 37.5036 213.632 37.0475 213.056 36.4724C212.48 35.8973 212.024 35.2143 211.712 34.4626C211.4 33.7108 211.24 32.9051 211.24 32.0913" stroke="#FFC329" stroke-width="7.5" stroke-linecap="round" stroke-linejoin="round"/>
<path d="M230.063 13.1988C230.063 11.5548 229.41 9.97819 228.247 8.8157C227.085 7.65322 225.508 7.00013 223.864 7.00013H217.474C216.657 6.99477 215.846 7.15116 215.09 7.46035C214.333 7.76953 213.646 8.22538 213.066 8.80159C212.487 9.37781 212.027 10.063 211.714 10.8177C211.4 11.5724 211.239 12.3817 211.24 13.1988V16.4464C211.24 18.0904 211.893 19.667 213.056 20.8295C214.218 21.992 215.795 22.6451 217.439 22.6451H223.829C225.473 22.6451 227.05 23.2982 228.212 24.4607C229.375 25.6231 230.028 27.1998 230.028 28.8438V32.0913C230.026 33.7343 229.373 35.3095 228.21 36.4707C227.048 37.6319 225.472 38.2842 223.829 38.2842H217.439C216.625 38.285 215.819 38.1254 215.067 37.8145C214.315 37.5036 213.632 37.0475 213.056 36.4724C212.48 35.8973 212.024 35.2143 211.712 34.4626C211.4 33.7108 211.24 32.9051 211.24 32.0913" stroke="#FFDD39" stroke-width="5.45" stroke-linecap="round" stroke-linejoin="round"/>
<path d="M230.063 13.1988C230.063 11.5548 229.41 9.97819 228.247 8.8157C227.085 7.65322 225.508 7.00013 223.864 7.00013H217.474C216.657 6.99477 215.846 7.15116 215.09 7.46035C214.333 7.76953 213.646 8.22538 213.066 8.80159C212.487 9.37781 212.027 10.063 211.714 10.8177C211.4 11.5724 211.239 12.3817 211.24 13.1988V16.4464C211.24 18.0904 211.893 19.667 213.056 20.8295C214.218 21.992 215.795 22.6451 217.439 22.6451H223.829C225.473 22.6451 227.05 23.2982 228.212 24.4607C229.375 25.6231 230.028 27.1998 230.028 28.8438V32.0913C230.026 33.7343 229.373 35.3095 228.21 36.4707C227.048 37.6319 225.472 38.2842 223.829 38.2842H217.439C216.625 38.285 215.819 38.1254 215.067 37.8145C214.315 37.5036 213.632 37.0475 213.056 36.4724C212.48 35.8973 212.024 35.2143 211.712 34.4626C211.4 33.7108 211.24 32.9051 211.24 32.0913" stroke="#FFF648" stroke-width="3.41" stroke-linecap="round" stroke-linejoin="round"/>
<path d="M230.063 13.1988C230.063 11.5548 229.41 9.97819 228.247 8.8157C227.085 7.65322 225.508 7.00013 223.864 7.00013H217.474C216.657 6.99477 215.846 7.15116 215.09 7.46035C214.333 7.76953 213.646 8.22538 213.066 8.80159C212.487 9.37781 212.027 10.063 211.714 10.8177C211.4 11.5724 211.239 12.3817 211.24 13.1988V16.4464C211.24 18.0904 211.893 19.667 213.056 20.8295C214.218 21.992 215.795 22.6451 217.439 22.6451H223.829C225.473 22.6451 227.05 23.2982 228.212 24.4607C229.375 25.6231 230.028 27.1998 230.028 28.8438V32.0913C230.026 33.7343 229.373 35.3095 228.21 36.4707C227.048 37.6319 225.472 38.2842 223.829 38.2842H217.439C216.625 38.285 215.819 38.1254 215.067 37.8145C214.315 37.5036 213.632 37.0475 213.056 36.4724C212.48 35.8973 212.024 35.2143 211.712 34.4626C211.4 33.7108 211.24 32.9051 211.24 32.0913" stroke="#FFFF8F" stroke-width="1.36" stroke-linecap="round" stroke-linejoin="round"/>
<path opacity="0.2" d="M98.6522 13.1988C98.6522 11.5548 97.9991 9.97818 96.8366 8.81569C95.6741 7.65321 94.0974 7.00012 92.4534 7.00012H86.063C84.419 7.00012 82.8423 7.65321 81.6798 8.81569C80.5173 9.97818 79.8643 11.5548 79.8643 13.1988V16.4464C79.8643 18.0904 80.5173 19.667 81.6798 20.8295C82.8423 21.992 84.419 22.6451 86.063 22.6451H92.4534C94.0974 22.6451 95.6741 23.2982 96.8366 24.4606C97.9991 25.6231 98.6522 27.1998 98.6522 28.8438V32.0913C98.6506 33.7343 97.9968 35.3095 96.8345 36.4707C95.6722 37.6319 94.0964 38.2842 92.4534 38.2842H86.063C84.42 38.2842 82.8442 37.6319 81.6819 36.4707C80.5196 35.3095 79.8658 33.7343 79.8643 32.0913" stroke="#FF7909" stroke-width="13.63" stroke-linecap="round" stroke-linejoin="round"/>
<path opacity="0.25" d="M98.6522 13.1988C98.6522 11.5548 97.9991 9.97818 96.8366 8.81569C95.6741 7.65321 94.0974 7.00012 92.4534 7.00012H86.063C84.419 7.00012 82.8423 7.65321 81.6798 8.81569C80.5173 9.97818 79.8643 11.5548 79.8643 13.1988V16.4464C79.8643 18.0904 80.5173 19.667 81.6798 20.8295C82.8423 21.992 84.419 22.6451 86.063 22.6451H92.4534C94.0974 22.6451 95.6741 23.2982 96.8366 24.4606C97.9991 25.6231 98.6522 27.1998 98.6522 28.8438V32.0913C98.6506 33.7343 97.9968 35.3095 96.8345 36.4707C95.6722 37.6319 94.0964 38.2842 92.4534 38.2842H86.063C84.42 38.2842 82.8442 37.6319 81.6819 36.4707C80.5196 35.3095 79.8658 33.7343 79.8643 32.0913" stroke="#FF7909" stroke-width="11.59" stroke-linecap="round" stroke-linejoin="round"/>
<path opacity="0.3" d="M98.6522 13.1988C98.6522 11.5548 97.9991 9.97818 96.8366 8.81569C95.6741 7.65321 94.0974 7.00012 92.4534 7.00012H86.063C84.419 7.00012 82.8423 7.65321 81.6798 8.81569C80.5173 9.97818 79.8643 11.5548 79.8643 13.1988V16.4464C79.8643 18.0904 80.5173 19.667 81.6798 20.8295C82.8423 21.992 84.419 22.6451 86.063 22.6451H92.4534C94.0974 22.6451 95.6741 23.2982 96.8366 24.4606C97.9991 25.6231 98.6522 27.1998 98.6522 28.8438V32.0913C98.6506 33.7343 97.9968 35.3095 96.8345 36.4707C95.6722 37.6319 94.0964 38.2842 92.4534 38.2842H86.063C84.42 38.2842 82.8442 37.6319 81.6819 36.4707C80.5196 35.3095 79.8658 33.7343 79.8643 32.0913" stroke="#FF7909" stroke-width="6.82" stroke-linecap="round" stroke-linejoin="round"/>
<path d="M98.6522 13.1988C98.6522 11.5548 97.9991 9.97818 96.8366 8.81569C95.6741 7.65321 94.0974 7.00012 92.4534 7.00012H86.063C84.419 7.00012 82.8423 7.65321 81.6798 8.81569C80.5173 9.97818 79.8643 11.5548 79.8643 13.1988V16.4464C79.8643 18.0904 80.5173 19.667 81.6798 20.8295C82.8423 21.992 84.419 22.6451 86.063 22.6451H92.4534C94.0974 22.6451 95.6741 23.2982 96.8366 24.4606C97.9991 25.6231 98.6522 27.1998 98.6522 28.8438V32.0913C98.6506 33.7343 97.9968 35.3095 96.8345 36.4707C95.6722 37.6319 94.0964 38.2842 92.4534 38.2842H86.063C84.42 38.2842 82.8442 37.6319 81.6819 36.4707C80.5196 35.3095 79.8658 33.7343 79.8643 32.0913" stroke="#FFA41A" stroke-width="9.54" stroke-linecap="round" stroke-linejoin="round"/>
<path d="M98.6522 13.1988C98.6522 11.5548 97.9991 9.97818 96.8366 8.81569C95.6741 7.65321 94.0974 7.00012 92.4534 7.00012H86.063C84.419 7.00012 82.8423 7.65321 81.6798 8.81569C80.5173 9.97818 79.8643 11.5548 79.8643 13.1988V16.4464C79.8643 18.0904 80.5173 19.667 81.6798 20.8295C82.8423 21.992 84.419 22.6451 86.063 22.6451H92.4534C94.0974 22.6451 95.6741 23.2982 96.8366 24.4606C97.9991 25.6231 98.6522 27.1998 98.6522 28.8438V32.0913C98.6506 33.7343 97.9968 35.3095 96.8345 36.4707C95.6722 37.6319 94.0964 38.2842 92.4534 38.2842H86.063C84.42 38.2842 82.8442 37.6319 81.6819 36.4707C80.5196 35.3095 79.8658 33.7343 79.8643 32.0913" stroke="#FFC329" stroke-width="7.5" stroke-linecap="round" stroke-linejoin="round"/>
<path d="M98.6522 13.1988C98.6522 11.5548 97.9991 9.97818 96.8366 8.81569C95.6741 7.65321 94.0974 7.00012 92.4534 7.00012H86.063C84.419 7.00012 82.8423 7.65321 81.6798 8.81569C80.5173 9.97818 79.8643 11.5548 79.8643 13.1988V16.4464C79.8643 18.0904 80.5173 19.667 81.6798 20.8295C82.8423 21.992 84.419 22.6451 86.063 22.6451H92.4534C94.0974 22.6451 95.6741 23.2982 96.8366 24.4606C97.9991 25.6231 98.6522 27.1998 98.6522 28.8438V32.0913C98.6506 33.7343 97.9968 35.3095 96.8345 36.4707C95.6722 37.6319 94.0964 38.2842 92.4534 38.2842H86.063C84.42 38.2842 82.8442 37.6319 81.6819 36.4707C80.5196 35.3095 79.8658 33.7343 79.8643 32.0913" stroke="#FFDD39" stroke-width="5.45" stroke-linecap="round" stroke-linejoin="round"/>
<path d="M98.6522 13.1988C98.6522 11.5548 97.9991 9.97818 96.8366 8.81569C95.6741 7.65321 94.0974 7.00012 92.4534 7.00012H86.063C84.419 7.00012 82.8423 7.65321 81.6798 8.81569C80.5173 9.97818 79.8643 11.5548 79.8643 13.1988V16.4464C79.8643 18.0904 80.5173 19.667 81.6798 20.8295C82.8423 21.992 84.419 22.6451 86.063 22.6451H92.4534C94.0974 22.6451 95.6741 23.2982 96.8366 24.4606C97.9991 25.6231 98.6522 27.1998 98.6522 28.8438V32.0913C98.6506 33.7343 97.9968 35.3095 96.8345 36.4707C95.6722 37.6319 94.0964 38.2842 92.4534 38.2842H86.063C84.42 38.2842 82.8442 37.6319 81.6819 36.4707C80.5196 35.3095 79.8658 33.7343 79.8643 32.0913" stroke="#FFF648" stroke-width="3.41" stroke-linecap="round" stroke-linejoin="round"/>
<path d="M98.6522 13.1988C98.6522 11.5548 97.9991 9.97818 96.8366 8.81569C95.6741 7.65321 94.0974 7.00012 92.4534 7.00012H86.063C84.419 7.00012 82.8423 7.65321 81.6798 8.81569C80.5173 9.97818 79.8643 11.5548 79.8643 13.1988V16.4464C79.8643 18.0904 80.5173 19.667 81.6798 20.8295C82.8423 21.992 84.419 22.6451 86.063 22.6451H92.4534C94.0974 22.6451 95.6741 23.2982 96.8366 24.4606C97.9991 25.6231 98.6522 27.1998 98.6522 28.8438V32.0913C98.6506 33.7343 97.9968 35.3095 96.8345 36.4707C95.6722 37.6319 94.0964 38.2842 92.4534 38.2842H86.063C84.42 38.2842 82.8442 37.6319 81.6819 36.4707C80.5196 35.3095 79.8658 33.7343 79.8643 32.0913" stroke="#FFFF8F" stroke-width="1.36" stroke-linecap="round" stroke-linejoin="round"/>
<path opacity="0.2" d="M128.978 13.1988C128.978 11.5548 128.325 9.97816 127.162 8.81567C126 7.65318 124.423 7.0001 122.779 7.0001H116.389C115.572 6.9955 114.762 7.15245 114.006 7.46191C113.25 7.77136 112.562 8.22723 111.983 8.80329C111.404 9.37936 110.944 10.0643 110.63 10.8186C110.317 11.5729 110.155 12.3818 110.155 13.1988V16.4463C110.155 18.0903 110.808 19.667 111.971 20.8295C113.133 21.992 114.71 22.645 116.354 22.645H122.744C124.388 22.645 125.965 23.2981 127.127 24.4606C128.29 25.6231 128.943 27.1998 128.943 28.8438V32.0913C128.941 33.7343 128.288 35.3094 127.125 36.4707C125.963 37.6319 124.387 38.2842 122.744 38.2842H116.354C114.711 38.2842 113.135 37.6319 111.973 36.4707C110.81 35.3094 110.157 33.7343 110.155 32.0913" stroke="#FF7909" stroke-width="13.63" stroke-linecap="round" stroke-linejoin="round"/>
<path opacity="0.25" d="M128.978 13.1988C128.978 11.5548 128.325 9.97816 127.162 8.81567C126 7.65318 124.423 7.0001 122.779 7.0001H116.389C115.572 6.9955 114.762 7.15245 114.006 7.46191C113.25 7.77136 112.562 8.22723 111.983 8.80329C111.404 9.37936 110.944 10.0643 110.63 10.8186C110.317 11.5729 110.155 12.3818 110.155 13.1988V16.4463C110.155 18.0903 110.808 19.667 111.971 20.8295C113.133 21.992 114.71 22.645 116.354 22.645H122.744C124.388 22.645 125.965 23.2981 127.127 24.4606C128.29 25.6231 128.943 27.1998 128.943 28.8438V32.0913C128.941 33.7343 128.288 35.3094 127.125 36.4707C125.963 37.6319 124.387 38.2842 122.744 38.2842H116.354C114.711 38.2842 113.135 37.6319 111.973 36.4707C110.81 35.3094 110.157 33.7343 110.155 32.0913" stroke="#FF7909" stroke-width="11.59" stroke-linecap="round" stroke-linejoin="round"/>
<path opacity="0.3" d="M128.978 13.1988C128.978 11.5548 128.325 9.97816 127.162 8.81567C126 7.65318 124.423 7.0001 122.779 7.0001H116.389C115.572 6.9955 114.762 7.15245 114.006 7.46191C113.25 7.77136 112.562 8.22723 111.983 8.80329C111.404 9.37936 110.944 10.0643 110.63 10.8186C110.317 11.5729 110.155 12.3818 110.155 13.1988V16.4463C110.155 18.0903 110.808 19.667 111.971 20.8295C113.133 21.992 114.71 22.645 116.354 22.645H122.744C124.388 22.645 125.965 23.2981 127.127 24.4606C128.29 25.6231 128.943 27.1998 128.943 28.8438V32.0913C128.941 33.7343 128.288 35.3094 127.125 36.4707C125.963 37.6319 124.387 38.2842 122.744 38.2842H116.354C114.711 38.2842 113.135 37.6319 111.973 36.4707C110.81 35.3094 110.157 33.7343 110.155 32.0913" stroke="#FF7909" stroke-width="6.82" stroke-linecap="round" stroke-linejoin="round"/>
<path d="M128.978 13.1988C128.978 11.5548 128.325 9.97816 127.162 8.81567C126 7.65318 124.423 7.0001 122.779 7.0001H116.389C115.572 6.9955 114.762 7.15245 114.006 7.46191C113.25 7.77136 112.562 8.22723 111.983 8.80329C111.404 9.37936 110.944 10.0643 110.63 10.8186C110.317 11.5729 110.155 12.3818 110.155 13.1988V16.4463C110.155 18.0903 110.808 19.667 111.971 20.8295C113.133 21.992 114.71 22.645 116.354 22.645H122.744C124.388 22.645 125.965 23.2981 127.127 24.4606C128.29 25.6231 128.943 27.1998 128.943 28.8438V32.0913C128.941 33.7343 128.288 35.3094 127.125 36.4707C125.963 37.6319 124.387 38.2842 122.744 38.2842H116.354C114.711 38.2842 113.135 37.6319 111.973 36.4707C110.81 35.3094 110.157 33.7343 110.155 32.0913" stroke="#FFA41A" stroke-width="9.54" stroke-linecap="round" stroke-linejoin="round"/>
<path d="M128.978 13.1988C128.978 11.5548 128.325 9.97816 127.162 8.81567C126 7.65318 124.423 7.0001 122.779 7.0001H116.389C115.572 6.9955 114.762 7.15245 114.006 7.46191C113.25 7.77136 112.562 8.22723 111.983 8.80329C111.404 9.37936 110.944 10.0643 110.63 10.8186C110.317 11.5729 110.155 12.3818 110.155 13.1988V16.4463C110.155 18.0903 110.808 19.667 111.971 20.8295C113.133 21.992 114.71 22.645 116.354 22.645H122.744C124.388 22.645 125.965 23.2981 127.127 24.4606C128.29 25.6231 128.943 27.1998 128.943 28.8438V32.0913C128.941 33.7343 128.288 35.3094 127.125 36.4707C125.963 37.6319 124.387 38.2842 122.744 38.2842H116.354C114.711 38.2842 113.135 37.6319 111.973 36.4707C110.81 35.3094 110.157 33.7343 110.155 32.0913" stroke="#FFC329" stroke-width="7.5" stroke-linecap="round" stroke-linejoin="round"/>
<path d="M128.978 13.1988C128.978 11.5548 128.325 9.97816 127.162 8.81567C126 7.65318 124.423 7.0001 122.779 7.0001H116.389C115.572 6.9955 114.762 7.15245 114.006 7.46191C113.25 7.77136 112.562 8.22723 111.983 8.80329C111.404 9.37936 110.944 10.0643 110.63 10.8186C110.317 11.5729 110.155 12.3818 110.155 13.1988V16.4463C110.155 18.0903 110.808 19.667 111.971 20.8295C113.133 21.992 114.71 22.645 116.354 22.645H122.744C124.388 22.645 125.965 23.2981 127.127 24.4606C128.29 25.6231 128.943 27.1998 128.943 28.8438V32.0913C128.941 33.7343 128.288 35.3094 127.125 36.4707C125.963 37.6319 124.387 38.2842 122.744 38.2842H116.354C114.711 38.2842 113.135 37.6319 111.973 36.4707C110.81 35.3094 110.157 33.7343 110.155 32.0913" stroke="#FFDD39" stroke-width="5.45" stroke-linecap="round" stroke-linejoin="round"/>
<path d="M128.978 13.1988C128.978 11.5548 128.325 9.97816 127.162 8.81567C126 7.65318 124.423 7.0001 122.779 7.0001H116.389C115.572 6.9955 114.762 7.15245 114.006 7.46191C113.25 7.77136 112.562 8.22723 111.983 8.80329C111.404 9.37936 110.944 10.0643 110.63 10.8186C110.317 11.5729 110.155 12.3818 110.155 13.1988V16.4463C110.155 18.0903 110.808 19.667 111.971 20.8295C113.133 21.992 114.71 22.645 116.354 22.645H122.744C124.388 22.645 125.965 23.2981 127.127 24.4606C128.29 25.6231 128.943 27.1998 128.943 28.8438V32.0913C128.941 33.7343 128.288 35.3094 127.125 36.4707C125.963 37.6319 124.387 38.2842 122.744 38.2842H116.354C114.711 38.2842 113.135 37.6319 111.973 36.4707C110.81 35.3094 110.157 33.7343 110.155 32.0913" stroke="#FFF648" stroke-width="3.41" stroke-linecap="round" stroke-linejoin="round"/>
<path d="M128.978 13.1988C128.978 11.5548 128.325 9.97816 127.162 8.81567C126 7.65318 124.423 7.0001 122.779 7.0001H116.389C115.572 6.9955 114.762 7.15245 114.006 7.46191C113.25 7.77136 112.562 8.22723 111.983 8.80329C111.404 9.37936 110.944 10.0643 110.63 10.8186C110.317 11.5729 110.155 12.3818 110.155 13.1988V16.4463C110.155 18.0903 110.808 19.667 111.971 20.8295C113.133 21.992 114.71 22.645 116.354 22.645H122.744C124.388 22.645 125.965 23.2981 127.127 24.4606C128.29 25.6231 128.943 27.1998 128.943 28.8438V32.0913C128.941 33.7343 128.288 35.3094 127.125 36.4707C125.963 37.6319 124.387 38.2842 122.744 38.2842H116.354C114.711 38.2842 113.135 37.6319 111.973 36.4707C110.81 35.3094 110.157 33.7343 110.155 32.0913" stroke="#FFFF8F" stroke-width="1.36" stroke-linecap="round" stroke-linejoin="round"/>
<path opacity="0.2" d="M185.022 22.6451H193.539C195.183 22.6451 196.759 21.992 197.922 20.8295C199.084 19.667 199.737 18.0904 199.737 16.4464V13.1988C199.737 11.5548 199.084 9.97818 197.922 8.81569C196.759 7.65321 195.183 7.00012 193.539 7.00012H180.926V38.2842" stroke="#FF7909" stroke-width="13.63" stroke-linecap="round" stroke-linejoin="round"/>
<path opacity="0.2" d="M192.993 27.0719L199.737 38.2842" stroke="#FF7909" stroke-width="13.63" stroke-linecap="round" stroke-linejoin="round"/>
<path opacity="0.25" d="M185.022 22.6451H193.539C195.183 22.6451 196.759 21.992 197.922 20.8295C199.084 19.667 199.737 18.0904 199.737 16.4464V13.1988C199.737 11.5548 199.084 9.97818 197.922 8.81569C196.759 7.65321 195.183 7.00012 193.539 7.00012H180.926V38.2842" stroke="#FF7909" stroke-width="11.59" stroke-linecap="round" stroke-linejoin="round"/>
<path opacity="0.25" d="M192.993 27.0719L199.737 38.2842" stroke="#FF7909" stroke-width="11.59" stroke-linecap="round" stroke-linejoin="round"/>
<path opacity="0.3" d="M185.022 22.6451H193.539C195.183 22.6451 196.759 21.992 197.922 20.8295C199.084 19.667 199.737 18.0904 199.737 16.4464V13.1988C199.737 11.5548 199.084 9.97818 197.922 8.81569C196.759 7.65321 195.183 7.00012 193.539 7.00012H180.926V38.2842" stroke="#FF7909" stroke-width="6.82" stroke-linecap="round" stroke-linejoin="round"/>
<path opacity="0.3" d="M192.993 27.0719L199.737 38.2842" stroke="#FF7909" stroke-width="6.82" stroke-linecap="round" stroke-linejoin="round"/>
<path d="M185.022 22.6451H193.539C195.183 22.6451 196.759 21.992 197.922 20.8295C199.084 19.667 199.737 18.0904 199.737 16.4464V13.1988C199.737 11.5548 199.084 9.97818 197.922 8.81569C196.759 7.65321 195.183 7.00012 193.539 7.00012H180.926V38.2842" stroke="#FFA41A" stroke-width="9.54" stroke-linecap="round" stroke-linejoin="round"/>
<path d="M192.993 27.0719L199.737 38.2842" stroke="#FFA41A" stroke-width="9.54" stroke-linecap="round" stroke-linejoin="round"/>
<path d="M185.022 22.6451H193.539C195.183 22.6451 196.759 21.992 197.922 20.8295C199.084 19.667 199.737 18.0904 199.737 16.4464V13.1988C199.737 11.5548 199.084 9.97818 197.922 8.81569C196.759 7.65321 195.183 7.00012 193.539 7.00012H180.926V38.2842" stroke="#FFC329" stroke-width="7.5" stroke-linecap="round" stroke-linejoin="round"/>
<path d="M192.993 27.0719L199.737 38.2842" stroke="#FFC329" stroke-width="7.5" stroke-linecap="round" stroke-linejoin="round"/>
<path d="M185.022 22.6451H193.539C195.183 22.6451 196.759 21.992 197.922 20.8295C199.084 19.667 199.737 18.0904 199.737 16.4464V13.1988C199.737 11.5548 199.084 9.97818 197.922 8.81569C196.759 7.65321 195.183 7.00012 193.539 7.00012H180.926V38.2842" stroke="#FFDD39" stroke-width="5.45" stroke-linecap="round" stroke-linejoin="round"/>
<path d="M192.993 27.0719L199.737 38.2842" stroke="#FFDD39" stroke-width="5.45" stroke-linecap="round" stroke-linejoin="round"/>
<path d="M185.022 22.6451H193.539C195.183 22.6451 196.759 21.992 197.922 20.8295C199.084 19.667 199.737 18.0904 199.737 16.4464V13.1988C199.737 11.5548 199.084 9.97818 197.922 8.81569C196.759 7.65321 195.183 7.00012 193.539 7.00012H180.926V38.2842" stroke="#FFF648" stroke-width="3.41" stroke-linecap="round" stroke-linejoin="round"/>
<path d="M192.993 27.0719L199.737 38.2842" stroke="#FFF648" stroke-width="3.41" stroke-linecap="round" stroke-linejoin="round"/>
<path d="M185.022 22.6451H193.539C195.183 22.6451 196.759 21.992 197.922 20.8295C199.084 19.667 199.737 18.0904 199.737 16.4464V13.1988C199.737 11.5548 199.084 9.97818 197.922 8.81569C196.759 7.65321 195.183 7.00012 193.539 7.00012H180.926V38.2842" stroke="#FFFF8F" stroke-width="1.36" stroke-linecap="round" stroke-linejoin="round"/>
<path d="M192.993 27.0719L199.737 38.2842" stroke="#FFFF8F" stroke-width="1.36" stroke-linecap="round" stroke-linejoin="round"/>
<path opacity="0.2" d="M165.659 33.5495C168.078 30.8889 169.417 27.4206 169.412 23.8244V21.4599C169.412 17.625 167.888 13.947 165.177 11.2353C162.465 8.52356 158.787 7.00012 154.952 7.00012V7.00012C151.117 7.00012 147.439 8.52356 144.727 11.2353C142.016 13.947 140.492 17.625 140.492 21.4599V23.8244C140.492 27.6594 142.016 31.3373 144.727 34.049C147.439 36.7608 151.117 38.2842 154.952 38.2842V38.2842C157.477 38.2873 159.959 37.6283 162.15 36.3729" stroke="#FF7909" stroke-width="13.63" stroke-linecap="round" stroke-linejoin="round"/>
<path opacity="0.25" d="M165.659 33.5495C168.078 30.8889 169.417 27.4206 169.412 23.8244V21.4599C169.412 17.625 167.888 13.947 165.177 11.2353C162.465 8.52356 158.787 7.00012 154.952 7.00012V7.00012C151.117 7.00012 147.439 8.52356 144.727 11.2353C142.016 13.947 140.492 17.625 140.492 21.4599V23.8244C140.492 27.6594 142.016 31.3373 144.727 34.049C147.439 36.7608 151.117 38.2842 154.952 38.2842V38.2842C157.477 38.2873 159.959 37.6283 162.15 36.3729" stroke="#FF7909" stroke-width="11.59" stroke-linecap="round" stroke-linejoin="round"/>
<path opacity="0.3" d="M165.659 33.5495C168.078 30.8889 169.417 27.4206 169.412 23.8244V21.4599C169.412 17.625 167.888 13.947 165.177 11.2353C162.465 8.52356 158.787 7.00012 154.952 7.00012V7.00012C151.117 7.00012 147.439 8.52356 144.727 11.2353C142.016 13.947 140.492 17.625 140.492 21.4599V23.8244C140.492 27.6594 142.016 31.3373 144.727 34.049C147.439 36.7608 151.117 38.2842 154.952 38.2842V38.2842C157.477 38.2873 159.959 37.6283 162.15 36.3729" stroke="#FF7909" stroke-width="6.82" stroke-linecap="round" stroke-linejoin="round"/>
<path d="M165.659 33.5495C168.078 30.8889 169.417 27.4206 169.412 23.8244V21.4599C169.412 17.625 167.888 13.947 165.177 11.2353C162.465 8.52356 158.787 7.00012 154.952 7.00012V7.00012C151.117 7.00012 147.439 8.52356 144.727 11.2353C142.016 13.947 140.492 17.625 140.492 21.4599V23.8244C140.492 27.6594 142.016 31.3373 144.727 34.049C147.439 36.7608 151.117 38.2842 154.952 38.2842V38.2842C157.477 38.2873 159.959 37.6283 162.15 36.3729" stroke="#FFA41A" stroke-width="9.54" stroke-linecap="round" stroke-linejoin="round"/>
<path d="M165.659 33.5495C168.078 30.8889 169.417 27.4206 169.412 23.8244V21.4599C169.412 17.625 167.888 13.947 165.177 11.2353C162.465 8.52356 158.787 7.00012 154.952 7.00012V7.00012C151.117 7.00012 147.439 8.52356 144.727 11.2353C142.016 13.947 140.492 17.625 140.492 21.4599V23.8244C140.492 27.6594 142.016 31.3373 144.727 34.049C147.439 36.7608 151.117 38.2842 154.952 38.2842V38.2842C157.477 38.2873 159.959 37.6283 162.15 36.3729" stroke="#FFC329" stroke-width="7.5" stroke-linecap="round" stroke-linejoin="round"/>
<path d="M165.659 33.5495C168.078 30.8889 169.417 27.4206 169.412 23.8244V21.4599C169.412 17.625 167.888 13.947 165.177 11.2353C162.465 8.52356 158.787 7.00012 154.952 7.00012V7.00012C151.117 7.00012 147.439 8.52356 144.727 11.2353C142.016 13.947 140.492 17.625 140.492 21.4599V23.8244C140.492 27.6594 142.016 31.3373 144.727 34.049C147.439 36.7608 151.117 38.2842 154.952 38.2842V38.2842C157.477 38.2873 159.959 37.6283 162.15 36.3729" stroke="#FFDD39" stroke-width="5.45" stroke-linecap="round" stroke-linejoin="round"/>
<path d="M165.659 33.5495C168.078 30.8889 169.417 27.4206 169.412 23.8244V21.4599C169.412 17.625 167.888 13.947 165.177 11.2353C162.465 8.52356 158.787 7.00012 154.952 7.00012V7.00012C151.117 7.00012 147.439 8.52356 144.727 11.2353C142.016 13.947 140.492 17.625 140.492 21.4599V23.8244C140.492 27.6594 142.016 31.3373 144.727 34.049C147.439 36.7608 151.117 38.2842 154.952 38.2842V38.2842C157.477 38.2873 159.959 37.6283 162.15 36.3729" stroke="#FFF648" stroke-width="3.41" stroke-linecap="round" stroke-linejoin="round"/>
<path d="M165.659 33.5495C168.078 30.8889 169.417 27.4206 169.412 23.8244V21.4599C169.412 17.625 167.888 13.947 165.177 11.2353C162.465 8.52356 158.787 7.00012 154.952 7.00012V7.00012C151.117 7.00012 147.439 8.52356 144.727 11.2353C142.016 13.947 140.492 17.625 140.492 21.4599V23.8244C140.492 27.6594 142.016 31.3373 144.727 34.049C147.439 36.7608 151.117 38.2842 154.952 38.2842V38.2842C157.477 38.2873 159.959 37.6283 162.15 36.3729" stroke="#FFFF8F" stroke-width="1.36" stroke-linecap="round" stroke-linejoin="round"/>
<path opacity="0.2" d="M68.3267 7.00012V38.2842" stroke="#FF7909" stroke-width="13.63" stroke-linecap="round" stroke-linejoin="round"/>
<path opacity="0.25" d="M68.3267 7.00012V38.2842" stroke="#FF7909" stroke-width="11.59" stroke-linecap="round" stroke-linejoin="round"/>
<path opacity="0.3" d="M68.3267 7.00012V38.2842" stroke="#FF7909" stroke-width="6.82" stroke-linecap="round" stroke-linejoin="round"/>
<path d="M68.3267 7.00012V38.2842" stroke="#FFA41A" stroke-width="9.54" stroke-linecap="round" stroke-linejoin="round"/>
<path d="M68.3267 7.00012V38.2842" stroke="#FFC329" stroke-width="7.5" stroke-linecap="round" stroke-linejoin="round"/>
<path d="M68.3267 7.00012V38.2842" stroke="#FFDD39" stroke-width="5.45" stroke-linecap="round" stroke-linejoin="round"/>
<path d="M68.3267 7.00012V38.2842" stroke="#FFF648" stroke-width="3.41" stroke-linecap="round" stroke-linejoin="round"/>
<path d="M68.3267 7.00012V38.2842" stroke="#FFFF8F" stroke-width="1.36" stroke-linecap="round" stroke-linejoin="round"/>
<path opacity="0.2" d="M56.8123 32.0913C56.8107 33.7343 56.157 35.3095 54.9946 36.4707C53.8323 37.6319 52.2566 38.2842 50.6136 38.2842H44.2231C42.5801 38.2842 41.0043 37.6319 39.842 36.4707C38.6797 35.3095 38.026 33.7343 38.0244 32.0913V13.1988C38.0244 11.5548 38.6775 9.97818 39.8399 8.81569C41.0024 7.65321 42.5791 7.00012 44.2231 7.00012H50.6136C52.2576 7.00012 53.8342 7.65321 54.9967 8.81569C56.1592 9.97818 56.8123 11.5548 56.8123 13.1988" stroke="#FF7909" stroke-width="13.63" stroke-linecap="round" stroke-linejoin="round"/>
<path opacity="0.25" d="M56.8123 32.0913C56.8107 33.7343 56.157 35.3095 54.9946 36.4707C53.8323 37.6319 52.2566 38.2842 50.6136 38.2842H44.2231C42.5801 38.2842 41.0043 37.6319 39.842 36.4707C38.6797 35.3095 38.026 33.7343 38.0244 32.0913V13.1988C38.0244 11.5548 38.6775 9.97818 39.8399 8.81569C41.0024 7.65321 42.5791 7.00012 44.2231 7.00012H50.6136C52.2576 7.00012 53.8342 7.65321 54.9967 8.81569C56.1592 9.97818 56.8123 11.5548 56.8123 13.1988" stroke="#FF7909" stroke-width="11.59" stroke-linecap="round" stroke-linejoin="round"/>
<path opacity="0.3" d="M56.8123 32.0913C56.8107 33.7343 56.157 35.3095 54.9946 36.4707C53.8323 37.6319 52.2566 38.2842 50.6136 38.2842H44.2231C42.5801 38.2842 41.0043 37.6319 39.842 36.4707C38.6797 35.3095 38.026 33.7343 38.0244 32.0913V13.1988C38.0244 11.5548 38.6775 9.97818 39.8399 8.81569C41.0024 7.65321 42.5791 7.00012 44.2231 7.00012H50.6136C52.2576 7.00012 53.8342 7.65321 54.9967 8.81569C56.1592 9.97818 56.8123 11.5548 56.8123 13.1988" stroke="#FF7909" stroke-width="6.82" stroke-linecap="round" stroke-linejoin="round"/>
<path d="M56.8123 32.0913C56.8107 33.7343 56.157 35.3095 54.9946 36.4707C53.8323 37.6319 52.2566 38.2842 50.6136 38.2842H44.2231C42.5801 38.2842 41.0043 37.6319 39.842 36.4707C38.6797 35.3095 38.026 33.7343 38.0244 32.0913V13.1988C38.0244 11.5548 38.6775 9.97818 39.8399 8.81569C41.0024 7.65321 42.5791 7.00012 44.2231 7.00012H50.6136C52.2576 7.00012 53.8342 7.65321 54.9967 8.81569C56.1592 9.97818 56.8123 11.5548 56.8123 13.1988" stroke="#FFA41A" stroke-width="9.54" stroke-linecap="round" stroke-linejoin="round"/>
<path d="M56.8123 32.0913C56.8107 33.7343 56.157 35.3095 54.9946 36.4707C53.8323 37.6319 52.2566 38.2842 50.6136 38.2842H44.2231C42.5801 38.2842 41.0043 37.6319 39.842 36.4707C38.6797 35.3095 38.026 33.7343 38.0244 32.0913V13.1988C38.0244 11.5548 38.6775 9.97818 39.8399 8.81569C41.0024 7.65321 42.5791 7.00012 44.2231 7.00012H50.6136C52.2576 7.00012 53.8342 7.65321 54.9967 8.81569C56.1592 9.97818 56.8123 11.5548 56.8123 13.1988" stroke="#FFC329" stroke-width="7.5" stroke-linecap="round" stroke-linejoin="round"/>
<path d="M56.8123 32.0913C56.8107 33.7343 56.157 35.3095 54.9946 36.4707C53.8323 37.6319 52.2566 38.2842 50.6136 38.2842H44.2231C42.5801 38.2842 41.0043 37.6319 39.842 36.4707C38.6797 35.3095 38.026 33.7343 38.0244 32.0913V13.1988C38.0244 11.5548 38.6775 9.97818 39.8399 8.81569C41.0024 7.65321 42.5791 7.00012 44.2231 7.00012H50.6136C52.2576 7.00012 53.8342 7.65321 54.9967 8.81569C56.1592 9.97818 56.8123 11.5548 56.8123 13.1988" stroke="#FFDD39" stroke-width="5.45" stroke-linecap="round" stroke-linejoin="round"/>
<path d="M56.8123 32.0913C56.8107 33.7343 56.157 35.3095 54.9946 36.4707C53.8323 37.6319 52.2566 38.2842 50.6136 38.2842H44.2231C42.5801 38.2842 41.0043 37.6319 39.842 36.4707C38.6797 35.3095 38.026 33.7343 38.0244 32.0913V13.1988C38.0244 11.5548 38.6775 9.97818 39.8399 8.81569C41.0024 7.65321 42.5791 7.00012 44.2231 7.00012H50.6136C52.2576 7.00012 53.8342 7.65321 54.9967 8.81569C56.1592 9.97818 56.8123 11.5548 56.8123 13.1988" stroke="#FFF648" stroke-width="3.41" stroke-linecap="round" stroke-linejoin="round"/>
<path d="M56.8123 32.0913C56.8107 33.7343 56.157 35.3095 54.9946 36.4707C53.8323 37.6319 52.2566 38.2842 50.6136 38.2842H44.2231C42.5801 38.2842 41.0043 37.6319 39.842 36.4707C38.6797 35.3095 38.026 33.7343 38.0244 32.0913V13.1988C38.0244 11.5548 38.6775 9.97818 39.8399 8.81569C41.0024 7.65321 42.5791 7.00012 44.2231 7.00012H50.6136C52.2576 7.00012 53.8342 7.65321 54.9967 8.81569C56.1592 9.97818 56.8123 11.5548 56.8123 13.1988" stroke="#FFFF8F" stroke-width="1.36" stroke-linecap="round" stroke-linejoin="round"/>
</svg>
