<svg width="56" height="56" viewBox="0 0 56 56" fill="none" xmlns="http://www.w3.org/2000/svg">
<path d="M56 28C56 43.464 43.464 56 28 56C22.0377 56 16.5107 54.1364 11.9696 50.96C4.7328 45.8979 0 37.5017 0 28C0 12.536 12.536 0 28 0C35.0816 0 41.5492 2.62893 46.48 6.96409C52.3166 12.0955 56 19.6176 56 28Z" fill="#FDF3EF"/>
<ellipse cx="40.5014" cy="40.4768" rx="3.5219" ry="3.51974" fill="#FFC5B5"/>
<ellipse cx="12.3266" cy="32.5588" rx="3.5219" ry="3.51974" fill="#FFC5B5"/>
<ellipse cx="24.6537" cy="47.5158" rx="3.5219" ry="3.51974" fill="#FFC5B5"/>
<ellipse cx="47.5453" cy="28.1584" rx="3.5219" ry="3.51974" fill="#FFC5B5"/>
<ellipse cx="35.2194" cy="14.0804" rx="5.28285" ry="5.27962" fill="#FFC5B5"/>
<ellipse cx="29.9362" cy="35.1976" rx="5.28285" ry="5.27962" fill="#FFC5B5"/>
</svg>
