<svg width="56" height="56" viewBox="0 0 56 56" fill="none" xmlns="http://www.w3.org/2000/svg">
<path d="M55.652 27.8429C55.652 43.2201 43.1939 55.6859 27.826 55.6859C21.9007 55.6859 16.4081 53.8327 11.8952 50.6741C4.70339 45.6405 0 37.2913 0 27.8429C0 12.4657 12.4581 0 27.826 0C34.8636 0 41.291 2.61418 46.1912 6.92502C51.9914 12.0277 55.652 19.5076 55.652 27.8429Z" fill="#FDF3EF"/>
<path d="M28.174 55.9991C43.5418 55.9991 56 43.5334 56 28.1562C56 19.8208 52.3394 12.341 46.5391 7.23828L12.2432 50.9874C16.756 54.146 22.2487 55.9991 28.174 55.9991Z" fill="#FFC5B5"/>
</svg>
