<svg width="57" height="56" viewBox="0 0 57 56" fill="none" xmlns="http://www.w3.org/2000/svg">
<path d="M56.0068 28C56.0068 43.464 43.4708 56 28.0068 56C22.0445 56 16.5175 54.1364 11.9764 50.96C4.73964 45.8979 0.00683594 37.5017 0.00683594 28C0.00683594 12.536 12.5429 0 28.0068 0C35.0884 0 41.556 2.62893 46.4868 6.96409C52.3234 12.0955 56.0068 19.6176 56.0068 28Z" fill="#FDF3EF"/>
<path fill-rule="evenodd" clip-rule="evenodd" d="M54.5427 19.3889C54.6465 19.6998 54.745 20.0131 54.8381 20.3288C43.9718 24.2258 30.3477 25.2051 19.1526 24.9067C13.5 24.756 8.4497 24.2792 4.66412 23.6813C3.02837 23.423 1.62168 23.1409 0.501131 22.8507C0.564916 22.5251 0.634346 22.2015 0.709315 21.88C1.79608 22.1648 3.19127 22.447 4.84177 22.7077C8.57693 23.2976 13.5819 23.7711 19.1963 23.9208C30.3522 24.2181 43.8475 23.2347 54.5427 19.3889ZM1.20696 20.035C1.30531 19.7147 1.40925 19.3968 1.51867 19.0814C2.94236 19.2883 4.71877 19.365 6.74257 19.3315C11.0834 19.2595 16.4922 18.682 21.8446 17.8468C27.1954 17.012 32.4722 15.9225 36.5459 14.8323C38.5842 14.2868 40.3101 13.744 41.5898 13.2366C42.2303 12.9826 42.7473 12.742 43.1317 12.52C43.5315 12.289 43.7305 12.11 43.8036 12L44.6522 12.5263C44.4431 12.8409 44.0686 13.1178 43.6389 13.366C43.1937 13.6232 42.6252 13.8852 41.9595 14.1491C40.6267 14.6776 38.8574 15.2324 36.8004 15.783C32.6835 16.8848 27.3692 17.9813 21.9897 18.8206C16.6117 19.6597 11.1509 20.2446 6.7439 20.3176C4.62586 20.3527 2.73498 20.27 1.20696 20.035ZM0.150656 25.1397C0.187523 24.8076 0.230198 24.4772 0.278577 24.1487C5.8669 25.5944 12.9145 26.7539 20.0155 27.9222L20.0155 27.9222C22.2402 28.2883 24.4702 28.6552 26.6621 29.032C31.8972 29.9319 36.9092 30.8883 41.0764 32.0248C45.2216 33.1554 48.6156 34.4851 50.5438 36.1735L49.8593 36.9113C48.118 35.3866 44.9273 34.1036 40.7888 32.9748C36.6722 31.8521 31.7015 30.9026 26.4706 30.0033C24.3043 29.6309 22.0922 29.267 19.8789 28.903H19.8789H19.8788L19.8788 28.903C12.8362 27.7446 5.78164 26.5842 0.150656 25.1397ZM0 27.152C0.0133184 26.8109 0.0327394 26.4713 0.058157 26.1335C1.80382 26.6513 3.66854 27.1854 5.60597 27.7404L5.606 27.7404L5.60609 27.7404C11.6645 29.4757 18.434 31.4146 24.4975 33.6981C29.0399 35.4088 33.2267 37.3264 36.4633 39.521C39.6911 41.7097 42.041 44.2192 42.7896 47.1367L41.8061 47.3898C41.1434 44.8073 39.0256 42.4694 35.8751 40.3331C32.7333 38.2028 28.631 36.3179 24.1188 34.6186C18.091 32.3486 11.4042 30.4337 5.36923 28.7056C3.50434 28.1716 1.7017 27.6554 0 27.152ZM0.0122233 29.6534C1.32412 29.922 2.86326 30.3272 4.53895 30.8575C7.69213 31.8554 11.3701 33.3093 15.001 35.1749C22.231 38.8898 29.4015 44.3026 31.7239 51.1006L30.7616 51.425C28.5676 45.0026 21.7027 39.7409 14.5168 36.0486C10.9396 34.2106 7.31456 32.7778 4.21188 31.7959C2.67503 31.3096 1.2763 30.9371 0.0811535 30.6801C0.0520455 30.3396 0.0290322 29.9973 0.0122233 29.6534Z" fill="#C9A69B"/>
</svg>
