<svg width="24" height="24" viewBox="0 0 24 24" fill="none" xmlns="http://www.w3.org/2000/svg">
<path d="M22.5469 4.70276V4.72615L22.5234 4.74954C21.1797 5.68514 19.625 6.7143 17.8594 7.83702C17.7344 7.85262 17.5703 7.80584 17.3672 7.69668C17.0859 7.55634 16.3906 7.16651 15.2812 6.52718L14.4609 6.05938L13.6875 6.59735C12.6406 7.33024 11.3828 8.42957 9.91406 9.89534C8.44531 11.3611 7.35156 12.6086 6.63281 13.6377L6.07031 14.4096L6.53906 15.2516C7.17969 16.3588 7.57031 17.0527 7.71094 17.3334C7.77344 17.4425 7.81641 17.5361 7.83984 17.614C7.86328 17.692 7.875 17.7544 7.875 17.8012V17.8245C7.09375 19.0564 6.05469 20.6158 4.75781 22.5025C4.64844 22.5181 4.53125 22.4792 4.40625 22.3856C3.75 21.9178 3.12891 21.3954 2.54297 20.8185C1.95703 20.2415 1.60937 19.8205 1.5 19.5554C1.57812 18.152 2.21484 16.4952 3.41016 14.585C4.60547 12.6749 6.29687 10.6282 8.48438 8.44516C9.57813 7.36922 10.6406 6.40633 11.6719 5.5565C12.7031 4.70666 13.6875 3.98547 14.625 3.39292C15.5625 2.80038 16.4531 2.34427 17.2969 2.02461C18.1406 1.70495 18.9062 1.52952 19.5938 1.49834C19.8594 1.5919 20.2813 1.93105 20.8594 2.5158C21.4375 3.10055 21.9609 3.72038 22.4297 4.3753C22.4922 4.48446 22.5312 4.59361 22.5469 4.70276ZM24 4.70276C24 4.6092 23.9922 4.52344 23.9766 4.44547L23.9297 4.21157L23.8594 3.97767L23.7539 3.74377L23.625 3.50987C23.5625 3.41631 23.4648 3.28377 23.332 3.11224C23.1992 2.94072 22.9648 2.65614 22.6289 2.25851C22.293 1.86088 21.9648 1.50613 21.6445 1.19427C21.3242 0.882399 20.9766 0.601719 20.6016 0.352226C20.2266 0.102732 19.8984 -0.0142174 19.6172 0.00137588C18.6484 0.0325625 17.6094 0.274259 16.5 0.726465C15.3906 1.17867 14.293 1.78291 13.207 2.53919C12.1211 3.29547 11.1172 4.06344 10.1953 4.8431C9.27344 5.62277 8.35156 6.47261 7.42969 7.39261C6.50781 8.31262 5.65234 9.23262 4.86328 10.1526C4.07422 11.0726 3.30078 12.0745 2.54297 13.1582C1.78516 14.242 1.17969 15.3413 0.726562 16.4562C0.273437 17.5712 0.03125 18.6198 0 19.6022V19.6256C0 19.8907 0.125 20.2103 0.375 20.5846C0.625 20.9588 0.910156 21.3058 1.23047 21.6254C1.55078 21.9451 1.90234 22.2725 2.28516 22.6078C2.66797 22.9431 2.95312 23.1809 3.14062 23.3212L3.51562 23.6019C4.01563 23.9137 4.48828 24.0424 4.93359 23.9878C5.37891 23.9332 5.71094 23.7422 5.92969 23.4148C5.97656 23.368 6.08203 23.2198 6.24609 22.9703C6.41016 22.7209 6.60156 22.4324 6.82031 22.1049C7.03906 21.7775 7.27734 21.4227 7.53516 21.0407C7.79297 20.6586 8.03125 20.2961 8.25 19.953C8.46875 19.61 8.66406 19.3098 8.83594 19.0525C9.00781 18.7952 9.11719 18.6276 9.16406 18.5496C9.22656 18.4561 9.27734 18.343 9.31641 18.2105C9.35547 18.0779 9.375 17.9415 9.375 17.8012C9.375 17.7076 9.36719 17.614 9.35156 17.5205C9.33594 17.4269 9.3125 17.3295 9.28125 17.2281C9.25 17.1267 9.21484 17.0254 9.17578 16.924C9.13672 16.8227 9.09375 16.7252 9.04688 16.6317C8.89063 16.3354 8.49219 15.6259 7.85156 14.5032C8.52344 13.552 9.57031 12.3669 10.9922 10.9479C11.8047 10.137 12.5078 9.47822 13.1016 8.97144C13.6953 8.46465 14.1719 8.08652 14.5312 7.83702C15.6719 8.47635 16.3828 8.87398 16.6641 9.02991C17.4453 9.43534 18.0938 9.47432 18.6094 9.14686C18.8594 8.99093 19.6836 8.44516 21.082 7.50956C22.4805 6.57396 23.2656 6.04379 23.4375 5.91904C23.8125 5.65396 24 5.24853 24 4.70276Z" fill="#222222"/>
</svg>
