<svg class="iconChat" width="40" height="40" viewBox="0 0 40 40" fill="none" xmlns="http://www.w3.org/2000/svg">
<path fill-rule="evenodd" clip-rule="evenodd" d="M35 2.5H5C4.33696 2.5 3.70107 2.76339 3.23223 3.23223C2.76339 3.70107 2.5 4.33696 2.5 5V25C2.5 25.663 2.76339 26.2989 3.23223 26.7678C3.70107 27.2366 4.33696 27.5 5 27.5H11.25C12.0262 27.5 12.7918 27.6807 13.4861 28.0279C14.1803 28.375 14.7843 28.879 15.25 29.5L20 35.8325L24.75 29.5C25.2157 28.879 25.8197 28.375 26.5139 28.0279C27.2082 27.6807 27.9738 27.5 28.75 27.5H35C35.663 27.5 36.2989 27.2366 36.7678 26.7678C37.2366 26.2989 37.5 25.663 37.5 25V5C37.5 4.33696 37.2366 3.70107 36.7678 3.23223C36.2989 2.76339 35.663 2.5 35 2.5ZM5 0C3.67392 0 2.40215 0.526784 1.46447 1.46447C0.526784 2.40215 0 3.67392 0 5L0 25C0 26.3261 0.526784 27.5979 1.46447 28.5355C2.40215 29.4732 3.67392 30 5 30H11.25C11.6381 30 12.0209 30.0904 12.368 30.2639C12.7152 30.4375 13.0171 30.6895 13.25 31L18 37.3325C18.2329 37.643 18.5348 37.895 18.882 38.0686C19.2291 38.2421 19.6119 38.3325 20 38.3325C20.3881 38.3325 20.7709 38.2421 21.118 38.0686C21.4652 37.895 21.7671 37.643 22 37.3325L26.75 31C26.9829 30.6895 27.2848 30.4375 27.632 30.2639C27.9791 30.0904 28.3619 30 28.75 30H35C36.3261 30 37.5979 29.4732 38.5355 28.5355C39.4732 27.5979 40 26.3261 40 25V5C40 3.67392 39.4732 2.40215 38.5355 1.46447C37.5979 0.526784 36.3261 0 35 0L5 0Z" fill="#222222"/>
<path fill-rule="evenodd" clip-rule="evenodd" d="M7.5 8.75C7.5 8.41848 7.6317 8.10054 7.86612 7.86612C8.10054 7.6317 8.41848 7.5 8.75 7.5H31.25C31.5815 7.5 31.8995 7.6317 32.1339 7.86612C32.3683 8.10054 32.5 8.41848 32.5 8.75C32.5 9.08152 32.3683 9.39946 32.1339 9.63388C31.8995 9.8683 31.5815 10 31.25 10H8.75C8.41848 10 8.10054 9.8683 7.86612 9.63388C7.6317 9.39946 7.5 9.08152 7.5 8.75ZM7.5 15C7.5 14.6685 7.6317 14.3505 7.86612 14.1161C8.10054 13.8817 8.41848 13.75 8.75 13.75H31.25C31.5815 13.75 31.8995 13.8817 32.1339 14.1161C32.3683 14.3505 32.5 14.6685 32.5 15C32.5 15.3315 32.3683 15.6495 32.1339 15.8839C31.8995 16.1183 31.5815 16.25 31.25 16.25H8.75C8.41848 16.25 8.10054 16.1183 7.86612 15.8839C7.6317 15.6495 7.5 15.3315 7.5 15ZM7.5 21.25C7.5 20.9185 7.6317 20.6005 7.86612 20.3661C8.10054 20.1317 8.41848 20 8.75 20H21.25C21.5815 20 21.8995 20.1317 22.1339 20.3661C22.3683 20.6005 22.5 20.9185 22.5 21.25C22.5 21.5815 22.3683 21.8995 22.1339 22.1339C21.8995 22.3683 21.5815 22.5 21.25 22.5H8.75C8.41848 22.5 8.10054 22.3683 7.86612 22.1339C7.6317 21.8995 7.5 21.5815 7.5 21.25Z" fill="#222222"/>
</svg>
