<svg id="country" width="24" height="24" viewBox="0 0 24 24" fill="none" xmlns="http://www.w3.org/2000/svg">
<path d="M20.304 7.45H20.7383L20.5202 7.07445C19.3274 5.02058 17.4351 3.46477 15.1894 2.69162L14.5863 2.484L14.8877 3.04612C15.6023 4.37921 16.151 5.79478 16.5216 7.26125L16.5693 7.45H16.764H20.304ZM12.2056 2.30579L12 2.00852L11.7944 2.30579C10.7839 3.7667 9.99232 5.3863 9.46859 7.12801L9.37177 7.45H9.708H14.292H14.6282L14.5314 7.12801C14.0077 5.3863 13.2161 3.7667 12.2056 2.30579ZM2.46946 14.4606L2.51681 14.65H2.712H6.768H7.05013L7.01618 14.3699C6.92073 13.5824 6.85 12.8016 6.85 12C6.85 11.1984 6.92073 10.4176 7.01618 9.63008L7.05013 9.35H6.768H2.712H2.51681L2.46946 9.53937C2.27349 10.3233 2.15 11.1479 2.15 12C2.15 12.8521 2.27349 13.6767 2.46946 14.4606ZM3.696 16.55H3.26272L3.47956 16.9251C4.66879 18.9824 6.5627 20.5395 8.81109 21.3085L9.41586 21.5154L9.11193 20.9531C8.40231 19.6403 7.85748 18.2196 7.47819 16.738L7.43006 16.55H7.236H3.696ZM7.236 7.45H7.43068L7.47838 7.26125C7.84896 5.79478 8.39769 4.37921 9.11234 3.04612L9.41279 2.48565L8.81109 2.69145C6.5627 3.46049 4.66879 5.0176 3.47956 7.07489L3.26272 7.45H3.696H7.236ZM11.7944 21.6942L12 21.9915L12.2056 21.6942C13.2161 20.2333 14.0077 18.6137 14.5314 16.872L14.6282 16.55H14.292H9.708H9.37177L9.46859 16.872C9.99232 18.6137 10.7839 20.2333 11.7944 21.6942ZM14.808 14.65H15.0262L15.0557 14.4338C15.1643 13.6375 15.25 12.8326 15.25 12C15.25 11.1675 15.1643 10.3507 15.0556 9.56571L15.0258 9.35H14.808H9.192H8.97423L8.94436 9.56571C8.83567 10.3507 8.75 11.1675 8.75 12C8.75 12.8326 8.83571 13.6375 8.94429 14.4338L8.97378 14.65H9.192H14.808ZM14.8881 20.9531L14.5832 21.5171L15.1894 21.3084C17.4351 20.5352 19.3274 18.9794 20.5202 16.9256L20.7383 16.55H20.304H16.764H16.5699L16.5218 16.738C16.1425 18.2196 15.5977 19.6403 14.8881 20.9531ZM16.9838 14.3699L16.9499 14.65H17.232H21.288H21.4832L21.5305 14.4606C21.7265 13.6767 21.85 12.8521 21.85 12C21.85 11.1479 21.7265 10.3233 21.5305 9.53937L21.4832 9.35H21.288H17.232H16.9499L16.9838 9.63008C17.0793 10.4176 17.15 11.1984 17.15 12C17.15 12.8016 17.0793 13.5824 16.9838 14.3699ZM0.25 12C0.25 5.51375 5.5024 0.25 11.988 0.25C18.4861 0.25 23.75 5.51423 23.75 12C23.75 18.4858 18.4861 23.75 11.988 23.75C5.5024 23.75 0.25 18.4863 0.25 12Z" fill="#222222" stroke="#EEEEEE" stroke-width="0.5"/>
</svg>
