<svg width="24" height="19" viewBox="0 0 24 19" fill="none" xmlns="http://www.w3.org/2000/svg">
<path d="M21.6 0H2.4C1.08 0 0 1.05469 0 2.34375V16.4062C0 17.6953 1.08 18.75 2.4 18.75H21.6C22.92 18.75 24 17.6953 24 16.4062V2.34375C24 1.05469 22.92 0 21.6 0ZM21.12 4.98047L13.272 9.77344C12.492 10.2539 11.508 10.2539 10.728 9.77344L2.88 4.98047C2.75967 4.91451 2.6543 4.82538 2.57027 4.7185C2.48623 4.61162 2.42527 4.48919 2.39109 4.35864C2.35691 4.22808 2.3502 4.09211 2.37139 3.95895C2.39257 3.8258 2.4412 3.69822 2.51434 3.58395C2.58747 3.46967 2.68359 3.37108 2.79687 3.29413C2.91015 3.21719 3.03825 3.16349 3.17339 3.13629C3.30854 3.10909 3.44794 3.10895 3.58315 3.13588C3.71835 3.16281 3.84656 3.21625 3.96 3.29297L12 8.20312L20.04 3.29297C20.1534 3.21625 20.2816 3.16281 20.4169 3.13588C20.5521 3.10895 20.6915 3.10909 20.8266 3.13629C20.9618 3.16349 21.0898 3.21719 21.2031 3.29413C21.3164 3.37108 21.4125 3.46967 21.4857 3.58395C21.5588 3.69822 21.6074 3.8258 21.6286 3.95895C21.6498 4.09211 21.6431 4.22808 21.6089 4.35864C21.5747 4.48919 21.5138 4.61162 21.4297 4.7185C21.3457 4.82538 21.2403 4.91451 21.12 4.98047V4.98047Z" fill="#333333"/>
</svg>
