<svg id="youtube" width="24" height="19" viewBox="0 0 24 19" fill="none" xmlns="http://www.w3.org/2000/svg">
<path d="M21.75 17.9688C18.2812 18.4896 15.0312 18.75 12 18.75C10.6563 18.75 9.17188 18.6849 7.54688 18.5547C5.92187 18.4245 4.63281 18.2943 3.67969 18.1641L2.25 17.9688C1.82812 17.8874 1.45703 17.5822 1.13672 17.0532C0.816406 16.5243 0.582031 15.8854 0.433594 15.1367C0.285156 14.388 0.175781 13.6882 0.105469 13.0371C0.0351562 12.3861 0 11.792 0 11.2549V7.49512C0 3.34473 0.75 1.10677 2.25 0.78125C5.71875 0.260417 8.96875 0 12 0C13.3437 0 14.8281 0.0651042 16.4531 0.195312C18.0781 0.325521 19.3672 0.455729 20.3203 0.585938L21.75 0.78125C22.2031 0.846354 22.5898 1.14339 22.9102 1.67236C23.2305 2.20133 23.4609 2.84831 23.6016 3.61328C23.7422 4.37826 23.8437 5.07812 23.9062 5.71289C23.9688 6.34766 24 6.94173 24 7.49512V11.2549C24 11.8408 23.9766 12.4349 23.9297 13.0371C23.8828 13.6393 23.7891 14.3311 23.6484 15.1123C23.5078 15.8936 23.2734 16.5446 22.9453 17.0654C22.6172 17.5863 22.2188 17.8874 21.75 17.9688ZM16.2422 8.76465L10.1016 4.8584C9.92969 4.69564 9.70312 4.65088 9.42188 4.72412C9.14062 4.79736 9 4.91536 9 5.07812V13.6719C9 13.8509 9.14062 13.973 9.42188 14.0381C9.70312 14.1032 9.92969 14.0544 10.1016 13.8916L16.2422 9.98535C16.4141 9.82259 16.5 9.61914 16.5 9.375C16.5 9.13086 16.4141 8.92741 16.2422 8.76465Z" fill="#333333"/>
</svg>
