<svg width="24" height="24" viewBox="0 0 24 24" fill="none" xmlns="http://www.w3.org/2000/svg">
<path d="M12 7.41162C10.7831 7.41162 9.61607 7.89502 8.75561 8.75548C7.89515 9.61595 7.41174 10.783 7.41174 11.9999C7.41174 13.2167 7.89515 14.3838 8.75561 15.2442C9.61607 16.1047 10.7831 16.5881 12 16.5881C13.2169 16.5881 14.3839 16.1047 15.2444 15.2442C16.1048 14.3838 16.5882 13.2167 16.5882 11.9999C16.5882 10.783 16.1048 9.61595 15.2444 8.75548C14.3839 7.89502 13.2169 7.41162 12 7.41162V7.41162ZM12 14.9796C11.2094 14.9796 10.4513 14.6656 9.89226 14.1066C9.33326 13.5476 9.01921 12.7894 9.01921 11.9989C9.01921 11.2083 9.33326 10.4501 9.89226 9.89115C10.4513 9.33214 11.2094 9.0181 12 9.0181C12.7905 9.0181 13.5487 9.33214 14.1077 9.89115C14.6667 10.4501 14.9807 11.2083 14.9807 11.9989C14.9807 12.7894 14.6667 13.5476 14.1077 14.1066C13.5487 14.6656 12.7905 14.9796 12 14.9796V14.9796Z" fill="white"/>
<path d="M16.9161 8.06746C17.4591 8.06746 17.8992 7.62727 17.8992 7.08427C17.8992 6.54126 17.4591 6.10107 16.9161 6.10107C16.3731 6.10107 15.9329 6.54126 15.9329 7.08427C15.9329 7.62727 16.3731 8.06746 16.9161 8.06746Z" fill="white"/>
<path d="M20.6903 5.98407C20.4544 5.37574 20.0938 4.8233 19.6317 4.36212C19.1696 3.90093 18.6162 3.54115 18.0069 3.30582C17.2938 3.03856 16.5405 2.89405 15.779 2.87844C14.7975 2.8357 14.4867 2.82349 11.9979 2.82349C9.50914 2.82349 9.19015 2.82349 8.21685 2.87844C7.45594 2.89325 6.70316 3.03779 5.99102 3.30582C5.3815 3.54088 4.82792 3.90056 4.36581 4.36178C3.90369 4.823 3.54324 5.37558 3.30758 5.98407C3.03986 6.69597 2.89545 7.44819 2.88056 8.20848C2.83674 9.18739 2.82349 9.49775 2.82349 11.9837C2.82349 14.4686 2.82349 14.7851 2.88056 15.7589C2.89585 16.52 3.03955 17.271 3.30758 17.9843C3.5439 18.5926 3.9047 19.1449 4.36693 19.6061C4.82916 20.0672 5.38265 20.4271 5.99204 20.6626C6.70283 20.9406 7.45592 21.0954 8.21889 21.1205C9.20034 21.1632 9.51118 21.1764 12 21.1764C14.4887 21.1764 14.8077 21.1764 15.781 21.1205C16.5424 21.105 17.2957 20.9608 18.0089 20.6941C18.6181 20.4582 19.1714 20.0981 19.6334 19.6368C20.0954 19.1755 20.4561 18.6231 20.6923 18.0148C20.9604 17.3025 21.1041 16.5516 21.1194 15.7904C21.1632 14.8115 21.1764 14.5012 21.1764 12.0152C21.1764 9.52929 21.1764 9.21384 21.1194 8.24003C21.1075 7.46898 20.9623 6.70578 20.6903 5.98407V5.98407ZM19.449 15.6836C19.4424 16.27 19.3352 16.851 19.132 17.4012C18.979 17.7969 18.7446 18.1563 18.4441 18.4561C18.1436 18.756 17.7836 18.9897 17.3872 19.1423C16.8422 19.3442 16.2665 19.4513 15.6852 19.4588C14.717 19.5035 14.4439 19.5147 11.9612 19.5147C9.47653 19.5147 9.22276 19.5147 8.23622 19.4588C7.65523 19.4517 7.07981 19.3446 6.53525 19.1423C6.13746 18.9907 5.77598 18.7573 5.4742 18.4574C5.17241 18.1575 4.93705 17.7977 4.78332 17.4012C4.583 16.8569 4.47585 16.2828 4.46636 15.7029C4.42254 14.7362 4.41235 14.4635 4.41235 11.9847C4.41235 9.50487 4.41235 9.25149 4.46636 8.26547C4.47295 7.67937 4.58016 7.09874 4.78332 6.54882C5.09416 5.74596 5.73114 5.11404 6.53525 4.80674C7.08008 4.6054 7.65533 4.49837 8.23622 4.49027C9.20543 4.44651 9.47755 4.4343 11.9612 4.4343C14.4449 4.4343 14.6997 4.4343 15.6852 4.49027C16.2666 4.49725 16.8423 4.60431 17.3872 4.80674C17.7836 4.95965 18.1436 5.19362 18.444 5.49363C18.7445 5.79364 18.9789 6.15306 19.132 6.54882C19.3323 7.09317 19.4395 7.6673 19.449 8.24715C19.4928 9.21486 19.504 9.48655 19.504 11.9664C19.504 14.4452 19.504 14.7118 19.4602 15.6846H19.449V15.6836Z" fill="white"/>
</svg>
