<svg width="26" height="32" viewBox="0 0 26 32" fill="none" xmlns="http://www.w3.org/2000/svg">
<path d="M13 3.04762C16.575 3.04762 19.5 5.79048 19.5 9.14286C19.5 12.3429 16.0875 17.5238 13 21.181C9.9125 17.3714 6.5 12.3429 6.5 9.14286C6.5 5.79048 9.425 3.04762 13 3.04762ZM13 0C7.6375 0 3.25 4.11429 3.25 9.14286C3.25 16 13 25.9048 13 25.9048C13 25.9048 22.75 15.8476 22.75 9.14286C22.75 4.11429 18.3625 0 13 0ZM13 6.09524C11.2125 6.09524 9.75 7.46667 9.75 9.14286C9.75 10.819 11.2125 12.1905 13 12.1905C14.7875 12.1905 16.25 10.819 16.25 9.14286C16.25 7.46667 14.7875 6.09524 13 6.09524ZM26 25.9048C26 29.2571 20.15 32 13 32C5.85 32 0 29.2571 0 25.9048C0 23.9238 1.95 22.2476 5.0375 21.0286L6.0125 22.4C4.3875 23.1619 3.25 24.0762 3.25 25.1429C3.25 27.2762 7.6375 28.9524 13 28.9524C18.3625 28.9524 22.75 27.2762 22.75 25.1429C22.75 24.0762 21.6125 23.1619 19.825 22.4L20.8 21.0286C24.05 22.2476 26 23.9238 26 25.9048Z" fill="white"/>
</svg>
