<svg width="20" height="24" viewBox="0 0 20 24" fill="none" xmlns="http://www.w3.org/2000/svg">
<path d="M10 2.28571C12.75 2.28571 15 4.34286 15 6.85714C15 9.25714 12.375 13.1429 10 15.8857C7.625 13.0286 5 9.25714 5 6.85714C5 4.34286 7.25 2.28571 10 2.28571ZM10 0C5.875 0 2.5 3.08571 2.5 6.85714C2.5 12 10 19.4286 10 19.4286C10 19.4286 17.5 11.8857 17.5 6.85714C17.5 3.08571 14.125 0 10 0ZM10 4.57143C8.625 4.57143 7.5 5.6 7.5 6.85714C7.5 8.11429 8.625 9.14286 10 9.14286C11.375 9.14286 12.5 8.11429 12.5 6.85714C12.5 5.6 11.375 4.57143 10 4.57143ZM20 19.4286C20 21.9429 15.5 24 10 24C4.5 24 0 21.9429 0 19.4286C0 17.9429 1.5 16.6857 3.875 15.7714L4.625 16.8C3.375 17.3714 2.5 18.0571 2.5 18.8571C2.5 20.4571 5.875 21.7143 10 21.7143C14.125 21.7143 17.5 20.4571 17.5 18.8571C17.5 18.0571 16.625 17.3714 15.25 16.8L16 15.7714C18.5 16.6857 20 17.9429 20 19.4286Z" fill="#222222"/>
</svg>
