<svg width="134" height="46" viewBox="0 0 134 46" fill="none" xmlns="http://www.w3.org/2000/svg">
<path d="M39 37L39 23L34.3846 38.3846L39 37Z" fill="#F0B967"/>
<path d="M19 43L33 43L34.3846 38.3846L19 43Z" fill="#F0B967"/>
<path d="M39 23C27.9543 23 19 31.9543 19 43L34.3846 38.3846L39 23Z" fill="#F7E6CC"/>
<path d="M38.9999 37L38.9999 43L32.9999 43L34.3846 38.3846L38.9999 37Z" fill="#E9A033"/>
<path d="M10.3847 16.098C9.55871 16.126 7.58471 16.154 6.74471 16.14C6.50671 16.14 6.40871 16.028 6.40871 15.776V14.208L6.42271 13.466C6.42271 13.27 6.33871 13.172 6.17071 13.13C5.72271 13.032 4.67271 12.948 4.08471 12.948C3.95871 12.948 3.88871 13.004 3.87471 13.074L3.77671 13.494C4.15471 13.62 4.53271 13.816 4.75671 14.012V15.832C4.75671 16.672 5.16271 17.092 6.21271 17.092L12.1907 17.05C12.3027 17.05 12.4007 17.022 12.4707 16.966C12.5687 16.868 12.6947 16.588 12.6947 16.196C12.6947 16.042 12.5967 15.944 12.4427 15.902C12.1207 15.832 11.4207 15.776 10.9447 15.79L10.3847 16.098ZM7.61271 12.192C7.72471 12.304 7.86471 12.43 7.99071 12.472C8.24271 12.556 8.60671 12.402 8.71871 12.164C8.77471 12.052 8.76071 11.898 8.66271 11.674C8.55071 11.408 8.25671 10.918 8.01871 10.624L7.38871 10.428L6.08671 9.224C6.74471 8.44 7.29071 7.614 7.66871 6.802L8.00471 6.284C8.06071 6.2 8.04671 6.102 7.97671 6.046C7.79471 5.948 7.30471 5.738 7.05271 5.64C6.95471 5.598 6.82871 5.598 6.73071 5.64L6.15671 5.892C5.47071 5.92 3.34271 5.948 2.83871 5.948C2.44671 5.948 1.90071 5.92 1.46671 5.85L1.35471 6.046C1.32671 6.102 1.34071 6.158 1.39671 6.228C1.71871 6.536 2.18071 6.886 2.61471 7.096C2.89471 6.984 3.42671 6.886 3.70671 6.872C3.98671 6.844 4.99471 6.83 5.70871 6.844C4.84071 8.748 3.14671 10.89 0.948711 12.486C0.892711 12.57 0.906711 12.612 0.962711 12.668L1.20071 12.906C1.24271 12.934 1.32671 12.934 1.42471 12.878C2.92271 12.122 4.29471 11.1 5.40071 9.966L7.61271 12.192ZM7.37471 8.636C7.33271 8.706 7.34671 8.762 7.40271 8.832C7.68271 9.126 8.03271 9.434 8.42471 9.672C8.64871 9.574 9.04071 9.462 9.27871 9.448C9.46071 9.42 9.82471 9.406 10.1747 9.392V11.128C10.1747 11.814 10.2307 13.494 10.3427 14.026H11.2667C11.5887 13.2 11.7987 11.73 11.7987 10.638V5.64L11.8407 4.814C11.8547 4.632 11.7847 4.506 11.6447 4.436C11.1547 4.226 10.1047 4.016 9.46071 3.988C9.32071 3.988 9.26471 4.03 9.23671 4.086L9.08271 4.59C9.54471 4.772 9.97871 5.08 10.1747 5.388V8.482C9.62871 8.51 8.97071 8.524 8.63471 8.51C8.27071 8.51 7.83671 8.496 7.50071 8.44L7.37471 8.636ZM24.3822 11.24C23.3882 11.31 16.8502 11.394 15.9262 11.38C15.4082 11.366 14.6802 11.31 14.1342 11.212L14.0082 11.45C13.9802 11.52 13.9942 11.604 14.0502 11.646C14.4422 12.024 15.0582 12.43 15.6182 12.64C15.9962 12.528 16.8362 12.388 17.2142 12.36C17.5222 12.332 18.5442 12.318 19.7482 12.304V14.586C19.7482 15.23 19.8462 16.868 19.9162 17.456H20.8262C21.1202 16.658 21.3722 14.964 21.3722 14.096V12.276C22.8982 12.262 24.3542 12.248 24.8022 12.248C25.2502 12.248 26.2162 12.276 26.5802 12.318C26.7622 12.234 27.0002 11.912 27.0002 11.562C27.0002 11.394 26.9022 11.282 26.7622 11.24C26.4122 11.114 25.5722 10.988 24.9842 10.96L24.3822 11.24ZM15.3242 10.344C15.3662 10.4 15.4222 10.4 15.5622 10.372C17.3402 9.952 19.0342 9.336 20.5322 8.538L24.9282 9.798C25.0962 9.84 25.2782 9.868 25.4182 9.812C25.6562 9.756 25.8522 9.49 25.8242 9.238C25.8102 9.112 25.7122 9 25.5302 8.874C25.3202 8.72 24.8442 8.496 24.5082 8.384L23.7802 8.37L21.6942 7.866C22.5202 7.334 23.2622 6.746 23.8922 6.102L24.3962 5.584C24.4802 5.514 24.4802 5.402 24.3822 5.346C24.1862 5.248 23.6402 5.01 23.3602 4.926C23.2482 4.884 23.1082 4.884 23.0102 4.926L22.3242 5.178C21.4982 5.234 18.2642 5.276 17.5922 5.262C17.1582 5.262 16.5562 5.22 16.0942 5.15L15.9822 5.388C15.9402 5.444 15.9542 5.5 16.0242 5.57C16.3602 5.878 16.8642 6.2 17.3402 6.41C17.6762 6.298 18.3062 6.2 18.6562 6.186C19.0762 6.158 20.4622 6.144 21.4982 6.144C20.0002 7.614 17.8162 8.902 15.1842 9.924C15.0722 9.966 15.0722 10.05 15.1282 10.12L15.3242 10.344ZM33.0454 4.996C33.0034 5.052 33.0034 5.122 33.0454 5.192C33.2834 5.57 33.6614 6.004 33.9554 6.214C34.0534 6.284 34.1514 6.298 34.3194 6.27C34.9214 6.228 35.9714 6.2 36.5874 6.2C36.6994 6.2 36.7974 6.186 36.8674 6.116C37.0214 5.962 37.0494 5.458 36.9234 5.248C36.8674 5.136 36.7834 5.108 36.6294 5.108C35.7334 5.108 34.4314 5.052 33.1714 4.842L33.0454 4.996ZM37.3154 6.956C36.6714 6.998 33.1434 7.068 32.5414 7.054C32.1774 7.054 31.5614 7.012 31.1274 6.942L31.0154 7.138C30.9874 7.194 31.0014 7.25 31.0434 7.306C31.3514 7.628 31.8134 7.978 32.2474 8.188C32.5134 8.118 33.0454 8.02 33.3254 8.006C33.8574 7.964 37.0914 7.894 37.6374 7.894C37.9594 7.894 38.6874 7.894 38.9534 7.936C39.0934 7.852 39.2754 7.53 39.2754 7.194C39.2754 7.082 39.2054 6.984 39.1074 6.942C38.8414 6.844 38.2114 6.76 37.7774 6.732L37.3154 6.956ZM33.9274 10.652C33.9274 9.84 34.5574 9.364 35.3554 9.364C36.1534 9.364 36.7834 9.84 36.7834 10.652C36.7834 11.464 36.1534 11.94 35.3554 11.94C34.5574 11.94 33.9274 11.464 33.9274 10.652ZM38.3234 10.652C38.3234 9.266 36.9794 8.384 35.3554 8.384C33.7034 8.384 32.3594 9.266 32.3594 10.652C32.3594 12.052 33.7034 12.948 35.3554 12.948C36.9794 12.948 38.3234 12.066 38.3234 10.652ZM40.2134 16.168C39.4154 16.196 37.5254 16.224 36.7274 16.21C36.4894 16.21 36.3914 16.098 36.3914 15.86V14.964L36.4194 14.236C36.4194 14.04 36.3354 13.928 36.1674 13.886C35.7054 13.788 34.6694 13.718 34.0814 13.718C33.9554 13.718 33.8854 13.774 33.8714 13.844L33.7734 14.25C34.1374 14.376 34.5154 14.572 34.7394 14.768V15.916C34.7394 16.756 35.1454 17.162 36.2094 17.176L42.0334 17.12C42.1314 17.12 42.2294 17.106 42.2854 17.036C42.3834 16.938 42.5094 16.658 42.5094 16.266C42.5094 16.126 42.4254 16.014 42.2574 15.986C41.9354 15.902 41.2494 15.846 40.7734 15.86L40.2134 16.168ZM42.2294 9.28L41.4594 9.322V5.64L41.5154 4.814C41.5294 4.632 41.4594 4.506 41.3194 4.436C40.8294 4.226 39.7794 4.016 39.1214 3.988C38.9814 3.988 38.9394 4.03 38.9114 4.086L38.7434 4.59C39.2194 4.772 39.6534 5.08 39.8494 5.388V11.352C39.8494 12.052 39.9054 13.732 40.0174 14.264H40.9274C41.2634 13.438 41.4594 11.968 41.4594 10.876V10.316L43.6574 10.26C43.7974 10.26 43.9794 10.218 44.0634 10.12C44.1754 10.008 44.2594 9.7 44.2314 9.378C44.2174 9.224 44.1054 9.098 43.9374 9.07C43.6854 9.014 43.0834 8.986 42.6774 9L42.2294 9.28ZM54.9388 10.946C54.5468 10.974 53.3008 11.016 51.8728 11.03V9.616C53.3568 9.35 54.3228 8.398 54.3228 7.194C54.3228 5.78 52.9928 4.716 51.0328 4.716C49.0728 4.716 47.7288 5.78 47.7288 7.194C47.7288 8.426 48.7368 9.392 50.2908 9.63V11.058C48.5548 11.086 46.9168 11.086 46.4828 11.086C45.9648 11.086 45.2368 11.03 44.6908 10.932L44.5648 11.17C44.5368 11.24 44.5508 11.31 44.6068 11.366C44.9988 11.744 45.6148 12.15 46.1748 12.36C46.5528 12.248 47.3928 12.108 47.7708 12.08C48.5968 12.024 54.3928 11.954 55.3588 11.968C55.8068 11.968 56.7728 11.996 57.1368 12.038C57.3188 11.94 57.5568 11.632 57.5568 11.282C57.5568 11.114 57.4588 11.002 57.3188 10.96C56.9688 10.834 56.1288 10.708 55.5408 10.68L54.9388 10.946ZM49.3668 7.194C49.3668 6.312 50.0388 5.738 51.0328 5.738C52.0128 5.738 52.6988 6.312 52.6988 7.194C52.6988 8.076 52.0128 8.65 51.0328 8.65C50.0388 8.65 49.3668 8.076 49.3668 7.194ZM53.3708 13.088C52.4888 13.13 48.9748 13.186 48.2888 13.186C47.8408 13.186 47.1968 13.144 46.6928 13.074L46.5668 13.312C46.5388 13.382 46.5528 13.452 46.6228 13.508C46.9868 13.83 47.5188 14.166 48.0368 14.376C48.3868 14.25 49.0308 14.138 49.3948 14.124C49.9408 14.082 52.0828 14.054 53.1748 14.082V15.888C53.1748 16.364 53.2308 17.274 53.3428 17.68H54.3088C54.5608 17.176 54.7568 16.182 54.7568 15.524L54.7988 14.11L54.9808 13.522C55.0228 13.424 55.0088 13.368 54.9528 13.312C54.7988 13.2 54.3788 12.976 54.1548 12.864C54.0708 12.822 53.9448 12.822 53.8748 12.864L53.3708 13.088ZM69.2723 9.812L68.5023 9.854V5.668L68.5723 4.814C68.5723 4.632 68.5163 4.506 68.3623 4.436C67.8583 4.226 66.7803 4.016 66.1223 3.988C65.9823 3.988 65.9403 4.03 65.9123 4.086L65.7443 4.576C66.2483 4.772 66.6823 5.08 66.8923 5.402V14.446C66.8923 15.104 66.9623 17.022 67.0603 17.54H67.9703C68.3063 16.588 68.5023 14.866 68.5023 13.942V10.834L70.7003 10.792C70.8403 10.792 71.0223 10.736 71.1063 10.638C71.2183 10.526 71.3023 10.218 71.2743 9.91C71.2603 9.756 71.1483 9.63 70.9803 9.588C70.7283 9.532 70.1263 9.504 69.7203 9.518L69.2723 9.812ZM63.6303 6.788C62.9163 6.844 61.4043 6.858 60.7043 6.844C60.1303 6.746 59.1083 6.676 58.5483 6.676C58.4363 6.676 58.3943 6.704 58.3663 6.76L58.2683 7.194C58.5623 7.306 58.8563 7.488 59.0103 7.684L59.2903 12.444C59.3183 12.808 59.3883 13.228 59.4863 13.536H60.3963C60.5363 13.326 60.6483 13.116 60.7043 12.878L65.0863 12.822C65.1983 12.71 65.2963 12.416 65.2963 12.108C65.2963 12.01 65.2543 11.94 65.1703 11.898L64.8903 11.758C65.0583 10.568 65.2123 9.042 65.2543 7.796L65.4503 7.152C65.4923 7.04 65.4783 6.97 65.4083 6.928C65.2263 6.802 64.7783 6.578 64.5403 6.48C64.4563 6.438 64.3303 6.438 64.2463 6.48L63.6303 6.788ZM60.7183 7.824C61.5723 7.81 62.6503 7.796 63.5323 7.796L63.5043 11.744L63.2243 11.828C62.6083 11.856 61.4603 11.87 60.7463 11.856L60.7183 7.824ZM81.9818 10.148C80.9878 10.218 74.4358 10.302 73.5258 10.288C73.0078 10.274 72.2798 10.218 71.7338 10.12L71.6078 10.358C71.5798 10.428 71.5938 10.512 71.6498 10.554C72.0418 10.904 72.6578 11.296 73.2178 11.492C73.5958 11.38 74.4358 11.226 74.7998 11.198C75.6118 11.156 81.4358 11.086 82.4018 11.086C82.8498 11.086 83.8158 11.114 84.1798 11.156C84.3618 11.086 84.5998 10.792 84.5998 10.456C84.5998 10.302 84.5018 10.19 84.3618 10.148C84.0118 10.022 83.1718 9.896 82.5838 9.868L81.9818 10.148ZM80.5398 16.28C79.6998 16.308 77.5018 16.322 76.5638 16.308C76.3818 16.308 76.2978 16.224 76.2978 16.028V15.118L81.6178 15.062C81.6878 14.964 81.7858 14.726 81.7858 14.488C81.7858 14.418 81.7438 14.348 81.6878 14.32L81.4218 14.194C81.5338 13.914 81.6738 13.368 81.7018 13.018L81.9258 12.528C81.9678 12.43 81.9538 12.346 81.8838 12.304C81.7158 12.22 81.2818 12.052 81.0858 11.968C80.9878 11.926 80.8898 11.926 80.8058 11.968L80.3018 12.192C79.4898 12.22 76.1158 12.262 75.4158 12.262C75.0518 12.262 74.3938 12.206 73.9738 12.122L73.8758 12.318C73.8338 12.388 73.8478 12.43 73.9178 12.5C74.2538 12.808 74.7018 13.13 75.1638 13.354C75.5278 13.256 76.0878 13.172 76.4098 13.144C76.8998 13.116 79.1258 13.088 80.0778 13.102C80.0918 13.326 80.0778 13.872 80.0498 14.138L79.7558 14.208C79.2378 14.236 77.1938 14.264 76.3258 14.264C75.8498 14.208 74.6178 14.18 74.0858 14.18C73.9878 14.18 73.9458 14.222 73.9318 14.278L73.8618 14.628C74.1978 14.74 74.4918 14.88 74.6738 15.076V16.196C74.6738 16.896 75.0098 17.246 75.9618 17.26H75.9758L82.1498 17.218C82.2478 17.218 82.3458 17.19 82.4018 17.134C82.4858 17.05 82.5978 16.798 82.5978 16.462C82.5978 16.322 82.4998 16.224 82.3458 16.182C82.0518 16.112 81.4218 16.056 80.9878 16.056L80.5398 16.28ZM78.0758 9.476C80.0778 9.476 81.4358 8.496 81.4358 7.054C81.4358 5.626 80.0778 4.646 78.0758 4.646C76.0738 4.646 74.7158 5.626 74.7158 7.054C74.7158 8.496 76.0738 9.476 78.0758 9.476ZM78.0758 5.668C79.0978 5.668 79.7978 6.186 79.7978 7.054C79.7978 7.922 79.0978 8.44 78.0758 8.44C77.0538 8.44 76.3538 7.922 76.3538 7.054C76.3538 6.186 77.0538 5.668 78.0758 5.668Z" fill="black"/>
<path d="M60.7721 35.186C59.4941 35.276 51.0881 35.384 49.9001 35.366C49.2341 35.348 48.2981 35.276 47.5961 35.168L47.4341 35.474C47.3981 35.546 47.4161 35.654 47.4881 35.708C47.9921 36.194 48.7841 36.734 49.5041 37.004C49.9901 36.86 51.0701 36.662 51.5561 36.626C51.9521 36.608 53.2481 36.572 54.7781 36.554V39.164C54.7781 40.01 54.9041 42.116 54.9941 42.854H56.1641C56.5421 41.828 56.8661 39.65 56.8661 38.534V36.536C58.8461 36.5 60.7361 36.482 61.3121 36.482C61.8881 36.482 63.1301 36.518 63.5981 36.572C63.8321 36.464 64.1381 36.05 64.1381 35.6C64.1381 35.402 64.0121 35.258 63.8321 35.186C63.3821 35.024 62.3021 34.88 61.5461 34.844L60.7721 35.186ZM51.1241 32.756C51.1241 33.116 51.1961 33.674 51.3581 34.052H52.5281C52.6721 33.926 52.8161 33.746 52.9241 33.494C54.8321 33.476 58.9541 33.44 60.6641 33.458C60.7721 33.296 60.8801 32.99 60.8801 32.648C60.8801 32.522 60.8261 32.45 60.7181 32.396L60.3581 32.234C60.4841 31.82 60.6101 31.1 60.6101 30.524L60.6461 27.986L60.6821 27.122C60.6821 26.942 60.6281 26.816 60.4481 26.762C59.9441 26.546 58.6301 26.294 57.9641 26.258C57.7841 26.24 57.7301 26.276 57.6761 26.366L57.4601 26.924C57.9101 27.104 58.3601 27.392 58.5761 27.68V29.102L53.1401 29.138V28.598L53.1581 27.68C53.1581 27.464 53.0861 27.338 52.9061 27.284C52.3841 27.158 50.9801 27.014 50.3321 27.032C50.1521 27.032 50.0801 27.068 50.0621 27.14L49.9181 27.698C50.3501 27.842 50.8541 28.148 51.0521 28.4L51.1241 32.756ZM58.5761 30.362V32.18L53.0861 32.216L53.1221 30.416L58.5761 30.362ZM76.6269 26.312C77.1849 26.546 77.7249 26.906 77.9409 27.284V32.846L76.4469 32.882V28.742L76.5009 27.824C76.5009 27.608 76.4289 27.464 76.2669 27.392C75.7269 27.122 74.5389 26.87 73.8189 26.834C73.6209 26.834 73.5669 26.888 73.5309 26.96L73.2969 27.572C73.8189 27.788 74.3229 28.13 74.5389 28.472V38.3C74.5389 39.092 74.6289 41.18 74.7549 41.882H75.8169C76.1949 40.802 76.4469 38.822 76.4469 37.724V34.178L77.9409 34.142V39.11C77.9409 39.938 78.0489 42.332 78.1749 42.98H79.2909C79.7049 41.792 79.9569 39.65 79.9569 38.498V27.59L80.0289 26.6C80.0469 26.366 79.9569 26.204 79.7769 26.132C79.1829 25.862 77.9049 25.592 77.1309 25.556C76.9509 25.556 76.8789 25.61 76.8429 25.7L76.6269 26.312ZM72.3609 35.78L71.1549 34.502C71.8569 33.584 72.4329 32.648 72.8289 31.73L73.1889 31.082C73.2429 30.974 73.2429 30.866 73.1349 30.794C72.9549 30.668 72.4689 30.416 72.1989 30.29C72.0729 30.236 71.9109 30.236 71.8029 30.29L71.0469 30.614C70.2909 30.668 67.9509 30.686 67.3929 30.686C66.9609 30.686 66.3489 30.668 65.8629 30.614L65.7189 30.848C65.6829 30.92 65.7009 30.992 65.7729 31.082C66.1329 31.442 66.6549 31.838 67.1589 32.108C67.4829 31.982 68.1129 31.874 68.4549 31.856C68.7609 31.82 69.7509 31.802 70.4889 31.784C69.4989 34.016 67.6449 36.644 65.2869 38.516C65.2149 38.624 65.2329 38.696 65.3049 38.75L65.6649 39.056C65.7189 39.11 65.8089 39.092 65.9349 39.002C67.5909 38.084 69.1209 36.824 70.3629 35.438L72.4329 37.922C72.5589 38.084 72.7209 38.246 72.8649 38.3C73.1529 38.408 73.5849 38.282 73.7289 38.03C73.7829 37.904 73.8009 37.724 73.7109 37.454C73.6029 37.112 73.3149 36.482 73.0809 36.086L72.3609 35.78ZM67.3569 27.86C67.3209 27.95 67.3389 28.022 67.3929 28.148C67.6449 28.58 68.0409 29.048 68.3649 29.3C68.4729 29.39 68.5629 29.39 68.7609 29.372C69.4989 29.336 70.6689 29.336 71.3889 29.336C71.5329 29.336 71.6409 29.318 71.7309 29.228C71.9109 29.066 71.9649 28.454 71.8209 28.184C71.7309 28.022 71.6409 28.004 71.4429 28.004C70.3989 28.004 69.0129 27.914 67.5369 27.644L67.3569 27.86ZM96.5856 31.172L95.5956 31.226V27.68L95.6676 26.618C95.6856 26.384 95.5956 26.222 95.4156 26.132C94.7856 25.862 93.4356 25.592 92.5896 25.556C92.4096 25.556 92.3556 25.61 92.3196 25.682L92.1036 26.33C92.7156 26.564 93.2736 26.96 93.5256 27.356V33.17C93.5256 33.872 93.6156 35.618 93.7416 36.176H94.9476C95.3256 35.366 95.5956 33.692 95.5956 32.63V32.486L98.4216 32.414C98.6016 32.414 98.8356 32.36 98.9436 32.234C99.0876 32.09 99.1956 31.694 99.1596 31.298C99.1416 31.082 98.9976 30.938 98.7816 30.884C98.4576 30.812 97.6836 30.776 97.1616 30.794L96.5856 31.172ZM93.7056 37.004C92.5896 37.094 88.0536 37.184 87.2256 37.184C86.6316 37.184 85.8036 37.13 85.1736 37.04L85.0116 37.346C84.9576 37.436 84.9756 37.508 85.0836 37.598C85.5516 38.012 86.2176 38.444 86.8836 38.696C87.3516 38.552 88.1616 38.408 88.6476 38.39C89.3136 38.336 92.0676 38.282 93.4536 38.282V40.82C93.4536 41.432 93.5436 42.602 93.6696 43.142H94.9116C95.2356 42.494 95.4876 41.198 95.4876 40.352L95.5416 38.318L95.7756 37.58C95.8116 37.454 95.8116 37.364 95.7396 37.31C95.5416 37.166 95.0016 36.86 94.7136 36.716C94.6056 36.68 94.4616 36.68 94.3536 36.716L93.7056 37.004ZM91.0236 33.728C91.1676 33.296 91.2756 32.54 91.2756 31.946L91.3296 28.724L91.3836 27.788C91.3836 27.59 91.3476 27.464 91.1496 27.392C90.6636 27.212 89.3856 26.978 88.7376 26.96C88.5396 26.942 88.4856 26.996 88.4496 27.068L88.2516 27.608C88.6656 27.788 89.0796 28.058 89.2776 28.328V30.128L85.6056 30.182V29.3L85.6416 28.472C85.6596 28.256 85.5876 28.13 85.4076 28.094C84.9036 27.95 83.5896 27.824 82.9416 27.842C82.7436 27.842 82.6716 27.878 82.6536 27.95L82.5096 28.49C82.9056 28.616 83.3556 28.904 83.5536 29.138L83.6616 34.358C83.6616 34.718 83.7516 35.294 83.9136 35.672H85.0116C85.1736 35.528 85.3536 35.294 85.4616 34.934C86.9196 34.898 89.9976 34.862 91.3116 34.88C91.4376 34.754 91.5456 34.412 91.5456 34.07C91.5456 33.962 91.4916 33.872 91.4016 33.854L91.0236 33.728ZM89.2776 31.352V33.656L85.5876 33.692L85.6056 31.388L89.2776 31.352ZM112.926 33.278C111.648 33.368 103.224 33.476 102.054 33.458C101.388 33.44 100.452 33.368 99.7504 33.242L99.5884 33.566C99.5524 33.638 99.5704 33.746 99.6424 33.8C100.146 34.268 100.938 34.772 101.658 35.006C102.144 34.862 103.224 34.682 103.692 34.646C104.088 34.61 105.402 34.592 106.968 34.574V35.33C106.968 35.618 106.986 35.96 107.04 36.302C105.924 36.302 104.898 36.32 104.502 36.32C104.016 36.32 103.188 36.248 102.648 36.14L102.522 36.392C102.468 36.5 102.486 36.554 102.576 36.626C102.99 37.022 103.584 37.436 104.16 37.724C104.646 37.598 105.366 37.49 105.78 37.454C106.41 37.418 109.29 37.382 110.478 37.4C110.496 37.688 110.478 38.426 110.442 38.75L110.082 38.84C109.416 38.876 106.878 38.894 105.708 38.894C105.114 38.822 103.512 38.786 102.828 38.786C102.702 38.786 102.648 38.84 102.63 38.912L102.54 39.362C102.972 39.506 103.35 39.704 103.584 39.938V41.342C103.584 42.242 103.998 42.674 105.15 42.692L113.178 42.638C113.304 42.638 113.43 42.602 113.502 42.53C113.61 42.422 113.754 42.116 113.754 41.666C113.754 41.504 113.628 41.36 113.448 41.324C113.052 41.216 112.242 41.162 111.684 41.162L111.108 41.432C110.028 41.486 107.292 41.504 106.014 41.486C105.78 41.486 105.672 41.378 105.672 41.126V39.992L112.458 39.92C112.566 39.812 112.692 39.488 112.692 39.182C112.692 39.092 112.62 39.002 112.548 38.966L112.206 38.804C112.35 38.462 112.53 37.724 112.566 37.292L112.854 36.662C112.908 36.536 112.89 36.428 112.8 36.374C112.584 36.266 112.044 36.05 111.774 35.942C111.648 35.906 111.522 35.906 111.432 35.942L110.784 36.23C110.46 36.248 109.704 36.266 108.822 36.266C108.966 35.852 109.056 35.366 109.056 34.934V34.538C111.018 34.52 112.89 34.502 113.466 34.502C114.042 34.502 115.284 34.538 115.752 34.592C115.986 34.484 116.292 34.106 116.292 33.674C116.292 33.476 116.166 33.35 115.986 33.278C115.536 33.116 114.456 32.954 113.7 32.936L112.926 33.278ZM103.602 31.406C103.656 31.784 103.764 32.198 103.89 32.486H105.024C105.204 32.324 105.33 32.162 105.384 31.946L112.422 31.874C112.566 31.73 112.728 31.37 112.728 30.992C112.728 30.866 112.656 30.776 112.548 30.722L112.188 30.56C112.422 29.75 112.584 28.85 112.692 28.022L112.962 27.212C113.016 27.086 112.998 26.978 112.926 26.942C112.674 26.798 112.098 26.528 111.774 26.42C111.648 26.366 111.504 26.366 111.396 26.42L110.55 26.798C109.362 26.852 106.59 26.87 105.402 26.87C104.664 26.762 103.368 26.654 102.666 26.654C102.522 26.654 102.468 26.69 102.432 26.762L102.27 27.338C102.684 27.482 103.08 27.752 103.278 28.004L103.602 31.406ZM105.438 28.148C106.968 28.112 108.93 28.094 110.514 28.094L110.442 30.506L110.064 30.614C108.93 30.65 106.806 30.686 105.456 30.668L105.438 28.148ZM124.749 33.35C124.857 33.35 124.983 33.314 125.073 33.188C125.739 32.09 126.333 30.326 126.477 29.012L126.747 28.22C126.783 28.094 126.783 28.004 126.711 27.932C126.495 27.788 125.955 27.464 125.685 27.338C125.577 27.284 125.433 27.284 125.307 27.338L124.569 27.716C123.669 27.77 120.627 27.824 119.943 27.824C119.385 27.824 118.629 27.77 118.035 27.662L117.873 27.932C117.819 28.04 117.837 28.094 117.927 28.184C118.359 28.616 118.989 29.066 119.601 29.336C120.033 29.21 120.807 29.084 121.221 29.048C121.671 29.012 123.363 28.976 124.299 28.994C124.317 30.128 124.263 31.892 124.065 32.954C124.047 33.152 124.101 33.242 124.209 33.26L124.749 33.35ZM128.817 41.126C127.755 41.162 125.163 41.198 124.083 41.18C123.777 41.18 123.651 41.036 123.651 40.712V39.182L123.687 38.228C123.687 37.994 123.579 37.85 123.363 37.796C122.787 37.67 121.437 37.58 120.681 37.58C120.519 37.58 120.429 37.652 120.411 37.724L120.285 38.264C120.753 38.426 121.239 38.678 121.527 38.93V40.784C121.527 41.846 122.067 42.404 123.417 42.404L131.121 42.332C131.247 42.332 131.373 42.296 131.463 42.224C131.589 42.098 131.769 41.72 131.769 41.234C131.769 41.054 131.643 40.91 131.427 40.856C131.031 40.766 130.149 40.694 129.537 40.712L128.817 41.126ZM131.355 32.126L130.383 32.18V27.68L130.455 26.618C130.455 26.384 130.383 26.222 130.203 26.132C129.573 25.862 128.223 25.592 127.377 25.556C127.197 25.556 127.143 25.61 127.107 25.682L126.891 26.33C127.503 26.564 128.043 26.96 128.295 27.356V34.142C126.981 34.412 124.749 34.664 122.679 34.844L122.733 32.684L122.805 31.658C122.841 31.46 122.769 31.334 122.607 31.28C122.103 31.136 120.969 31.01 120.321 31.01C120.105 31.01 120.051 31.046 120.033 31.118L119.907 31.712C120.249 31.838 120.609 32.072 120.771 32.306L120.807 34.97C120.231 35.006 119.709 35.024 119.259 35.042C118.593 35.042 117.765 35.006 117.117 34.88L116.973 35.186C116.919 35.294 116.937 35.348 117.027 35.438C117.513 35.924 118.269 36.446 118.899 36.788C119.313 36.644 120.069 36.482 120.519 36.446C122.571 36.284 126.261 35.726 128.295 35.222C128.331 36.248 128.403 37.868 128.529 38.444H129.699C130.131 37.382 130.383 35.492 130.383 34.106V33.44L133.191 33.368C133.371 33.368 133.605 33.314 133.713 33.188C133.857 33.044 133.965 32.648 133.929 32.234C133.911 32.036 133.767 31.874 133.551 31.838C133.227 31.766 132.453 31.73 131.931 31.748L131.355 32.126Z" fill="black"/>
</svg>
