<svg width="24" height="24" viewBox="0 0 24 24" fill="none" xmlns="http://www.w3.org/2000/svg">
<path d="M19.3411 4.58813H4.65878C3.64937 4.58813 2.82349 5.42196 2.82349 6.44108V17.5587C2.82349 18.5778 3.64937 19.4117 4.65878 19.4117H19.3411C20.3505 19.4117 21.1764 18.5778 21.1764 17.5587V6.44108C21.1764 5.42196 20.3505 4.58813 19.3411 4.58813ZM18.9741 8.52563L12.9727 12.3149C12.3762 12.6948 11.6237 12.6948 11.0273 12.3149L5.02584 8.52563C4.93382 8.47348 4.85325 8.40303 4.78898 8.31853C4.72472 8.23402 4.67811 8.13724 4.65197 8.03402C4.62583 7.93081 4.6207 7.82331 4.6369 7.71804C4.6531 7.61276 4.69029 7.5119 4.74622 7.42156C4.80214 7.33122 4.87564 7.25327 4.96227 7.19244C5.0489 7.13161 5.14685 7.08915 5.2502 7.06765C5.35355 7.04614 5.46015 7.04603 5.56354 7.06732C5.66693 7.08861 5.76497 7.13086 5.85172 7.19152L12 11.0734L18.1482 7.19152C18.2349 7.13086 18.333 7.08861 18.4364 7.06732C18.5398 7.04603 18.6464 7.04614 18.7497 7.06765C18.8531 7.08915 18.951 7.13161 19.0376 7.19244C19.1243 7.25327 19.1978 7.33122 19.2537 7.42156C19.3096 7.5119 19.3468 7.61276 19.363 7.71804C19.3792 7.82331 19.3741 7.93081 19.3479 8.03402C19.3218 8.13724 19.2752 8.23402 19.2109 8.31853C19.1467 8.40303 19.0661 8.47348 18.9741 8.52563V8.52563Z" fill="white"/>
</svg>
