<svg width="24" height="19" viewBox="0 0 24 19" fill="none" xmlns="http://www.w3.org/2000/svg">
<path d="M20.6029 16.4559C17.5423 16.8971 14.6746 17.1177 12 17.1177C10.8143 17.1177 9.50457 17.0626 8.07075 16.9523C6.63693 16.842 5.49952 16.7317 4.65853 16.6214L3.39704 16.4559C3.02479 16.387 2.69736 16.1285 2.41473 15.6804C2.1321 15.2324 1.9253 14.6912 1.79433 14.057C1.66335 13.4229 1.56684 12.83 1.5048 12.2786C1.44276 11.7271 1.41174 11.2239 1.41174 10.7689V7.58416C1.41174 4.06853 2.07351 2.17285 3.39704 1.89712C6.4577 1.45594 9.32535 1.23535 12 1.23535C13.1856 1.23535 14.4954 1.2905 15.9292 1.40079C17.363 1.51109 18.5004 1.62138 19.3414 1.73168L20.6029 1.89712C21.0027 1.95226 21.344 2.20387 21.6266 2.65194C21.9092 3.10001 22.1126 3.64804 22.2367 4.29601C22.3607 4.94399 22.4503 5.53682 22.5055 6.07451C22.5606 6.61219 22.5882 7.11541 22.5882 7.58416V10.7689C22.5882 11.2652 22.5675 11.7684 22.5262 12.2786C22.4848 12.7887 22.4021 13.3746 22.278 14.0364C22.1539 14.6981 21.9471 15.2496 21.6576 15.6908C21.3681 16.132 21.0165 16.387 20.6029 16.4559ZM15.7431 8.65952L10.3249 5.3507C10.1732 5.21283 9.97332 5.17492 9.72516 5.23696C9.477 5.299 9.35292 5.39895 9.35292 5.53682V12.8162C9.35292 12.9679 9.477 13.0713 9.72516 13.1264C9.97332 13.1816 10.1732 13.1402 10.3249 13.0024L15.7431 9.69353C15.8947 9.55566 15.9706 9.38333 15.9706 9.17653C15.9706 8.96973 15.8947 8.79739 15.7431 8.65952Z" fill="white"/>
</svg>
