<svg width="24" height="24" viewBox="0 0 24 24" fill="none" xmlns="http://www.w3.org/2000/svg">
<path d="M17.4803 24H17.5139C18.1476 24 18.7464 23.7504 19.2 23.2968L22.4546 20.0422C22.5661 19.9309 22.6546 19.7986 22.715 19.653C22.7754 19.5074 22.8064 19.3514 22.8064 19.1938C22.8064 19.0362 22.7754 18.8801 22.715 18.7345C22.6546 18.5889 22.5661 18.4567 22.4546 18.3453L17.6543 13.5451C17.543 13.4335 17.4107 13.345 17.2652 13.2847C17.1196 13.2243 16.9635 13.1932 16.8059 13.1932C16.6483 13.1932 16.4922 13.2243 16.3466 13.2847C16.2011 13.345 16.0688 13.4335 15.9575 13.5451L14.0446 15.458C13.1577 15.194 11.5028 14.5939 10.454 13.5451C9.40513 12.4962 8.8051 10.8413 8.54109 9.9545L10.454 8.0416C10.5655 7.93025 10.654 7.798 10.7144 7.65241C10.7748 7.50683 10.8058 7.35077 10.8058 7.19316C10.8058 7.03555 10.7748 6.87949 10.7144 6.73391C10.654 6.58832 10.5655 6.45607 10.454 6.34472L5.65374 1.54448C5.42432 1.32793 5.12078 1.2073 4.8053 1.2073C4.48982 1.2073 4.18628 1.32793 3.95686 1.54448L0.703495 4.79904C0.247472 5.25506 -0.00934061 5.88149 0.000259867 6.52113C0.0278612 8.23001 0.480284 14.1655 5.15812 18.8433C9.83595 23.5212 15.7714 23.9724 17.4803 24V24ZM4.8065 4.0898L7.90985 7.19316L6.35818 8.74484C6.21697 8.88565 6.11324 9.05956 6.05644 9.25072C5.99964 9.44188 5.99157 9.64422 6.03296 9.83929C6.06176 9.9773 6.7662 13.2499 8.7583 15.242C10.7504 17.2341 14.023 17.9385 14.161 17.9673C14.356 18.0089 14.5584 18.001 14.7496 17.9441C14.9408 17.8873 15.1147 17.7835 15.2554 17.6421L16.8071 16.0904L19.9105 19.1938L17.5031 21.5999C16.0055 21.5747 10.8812 21.1727 6.855 17.1453C2.8156 13.1059 2.42438 7.9636 2.40038 6.49592L4.8065 4.0898ZM21.6001 10.7993H24.0003C24.0003 4.64303 19.3524 0 13.1877 0V2.40012C18.0624 2.40012 21.6001 5.9319 21.6001 10.7993V10.7993Z" fill="black"/>
<path d="M13.1998 7.20041C15.7235 7.20041 16.7999 8.27687 16.7999 10.8006H19.2001C19.2001 6.9304 17.07 4.80029 13.1998 4.80029V7.20041V7.20041Z" fill="black"/>
</svg>
