<svg width="32" height="32" viewBox="0 0 32 32" fill="none" xmlns="http://www.w3.org/2000/svg">
<g opacity="0.8">
<path d="M23.3071 32H23.3519C24.1968 32 24.9952 31.6672 25.6 31.0624L29.9394 26.7229C30.0882 26.5745 30.2061 26.3981 30.2866 26.204C30.3672 26.0099 30.4086 25.8018 30.4086 25.5917C30.4086 25.3815 30.3672 25.1735 30.2866 24.9793C30.2061 24.7852 30.0882 24.6089 29.9394 24.4604L23.5391 18.0601C23.3907 17.9114 23.2143 17.7934 23.0202 17.7129C22.8261 17.6324 22.618 17.591 22.4079 17.591C22.1977 17.591 21.9896 17.6324 21.7955 17.7129C21.6014 17.7934 21.4251 17.9114 21.2766 18.0601L18.7261 20.6106C17.5436 20.2586 15.3371 19.4586 13.9386 18.0601C12.5402 16.6616 11.7401 14.4551 11.3881 13.2727L13.9386 10.7221C14.0874 10.5737 14.2053 10.3973 14.2858 10.2032C14.3664 10.0091 14.4078 9.80102 14.4078 9.59088C14.4078 9.38074 14.3664 9.17265 14.2858 8.97854C14.2053 8.78443 14.0874 8.60809 13.9386 8.45962L7.53832 2.0593C7.23243 1.77057 6.82771 1.60973 6.40707 1.60973C5.98643 1.60973 5.58171 1.77057 5.27581 2.0593L0.937993 6.39872C0.329963 7.00675 -0.0124542 7.84199 0.000346489 8.69483C0.0371483 10.9733 0.640378 18.8873 6.87749 25.1245C13.1146 31.3616 21.0286 31.9632 23.3071 32ZM6.40867 5.45307L10.5465 9.59088L8.47757 11.6598C8.28929 11.8475 8.15099 12.0794 8.07525 12.3343C7.99952 12.5892 7.98875 12.859 8.04395 13.1191C8.08235 13.3031 9.0216 17.6665 11.6777 20.3226C14.3339 22.9787 18.6973 23.918 18.8813 23.9564C19.1414 24.0119 19.4112 24.0013 19.6662 23.9255C19.9211 23.8498 20.153 23.7113 20.3406 23.5228L22.4095 21.4539L26.5473 25.5917L23.3375 28.7998C21.3406 28.7662 14.5083 28.2302 9.14 22.8603C3.75413 17.4745 3.23251 10.6181 3.20051 8.66123L6.40867 5.45307ZM28.8002 14.3991H32.0003C32.0003 6.19071 25.8032 0 17.5836 0V3.20016C24.0831 3.20016 28.8002 7.90919 28.8002 14.3991Z" fill="white"/>
<path d="M17.5997 9.60055C20.9647 9.60055 22.4 11.0358 22.4 14.4008H25.6001C25.6001 9.24053 22.76 6.40039 17.5997 6.40039V9.60055V9.60055Z" fill="white"/>
</g>
</svg>
