<svg width="24" height="24" viewBox="0 0 24 24" fill="none" xmlns="http://www.w3.org/2000/svg">
<path fill-rule="evenodd" clip-rule="evenodd" d="M15.4182 21.1764V14.0693H17.8041L18.161 11.2998H15.4173V9.53149C15.4173 8.72946 15.6403 8.18255 16.791 8.18255H18.2574V5.7049C17.5472 5.62932 16.8335 5.59256 16.1193 5.59478C14.005 5.59478 12.5579 6.88591 12.5579 9.25619V11.2998H10.1647V14.0693H12.557V21.1764H3.83657C3.2768 21.1764 2.82349 20.7231 2.82349 20.1633V3.83657C2.82349 3.2768 3.2768 2.82349 3.83657 2.82349H20.1633C20.7231 2.82349 21.1764 3.2768 21.1764 3.83657V20.1633C21.1764 20.7231 20.7231 21.1764 20.1633 21.1764H15.4182V21.1764Z" fill="white"/>
</svg>
