<svg width="32" height="24" viewBox="0 0 32 24" fill="none" xmlns="http://www.w3.org/2000/svg">
<path d="M30.8571 9.6C31.1602 9.6 31.4509 9.47357 31.6653 9.24853C31.8796 9.02348 32 8.71826 32 8.4V2.4C32 1.76348 31.7592 1.15303 31.3305 0.702944C30.9019 0.252856 30.3205 0 29.7143 0H2.28571C1.67951 0 1.09812 0.252856 0.66947 0.702944C0.240816 1.15303 0 1.76348 0 2.4V8.4C0 8.71826 0.120408 9.02348 0.334735 9.24853C0.549062 9.47357 0.839753 9.6 1.14286 9.6C1.74907 9.6 2.33045 9.85286 2.7591 10.3029C3.18776 10.753 3.42857 11.3635 3.42857 12C3.42857 12.6365 3.18776 13.247 2.7591 13.6971C2.33045 14.1471 1.74907 14.4 1.14286 14.4C0.839753 14.4 0.549062 14.5264 0.334735 14.7515C0.120408 14.9765 0 15.2817 0 15.6V21.6C0 22.2365 0.240816 22.847 0.66947 23.2971C1.09812 23.7471 1.67951 24 2.28571 24H29.7143C30.3205 24 30.9019 23.7471 31.3305 23.2971C31.7592 22.847 32 22.2365 32 21.6V15.6C32 15.2817 31.8796 14.9765 31.6653 14.7515C31.4509 14.5264 31.1602 14.4 30.8571 14.4C30.2509 14.4 29.6696 14.1471 29.2409 13.6971C28.8122 13.247 28.5714 12.6365 28.5714 12C28.5714 11.3635 28.8122 10.753 29.2409 10.3029C29.6696 9.85286 30.2509 9.6 30.8571 9.6V9.6ZM29.7143 16.644V21.6H21.7143V18H19.4286V21.6H2.28571V16.644C3.264 16.3755 4.1299 15.7741 4.74791 14.9338C5.36592 14.0934 5.70116 13.0617 5.70116 12C5.70116 10.9383 5.36592 9.90656 4.74791 9.06624C4.1299 8.22593 3.264 7.62447 2.28571 7.356V2.4H19.4286V6H21.7143V2.4H29.7143V7.356C28.736 7.62447 27.8701 8.22593 27.2521 9.06624C26.6341 9.90656 26.2988 10.9383 26.2988 12C26.2988 13.0617 26.6341 14.0934 27.2521 14.9338C27.8701 15.7741 28.736 16.3755 29.7143 16.644V16.644Z" fill="white"/>
<path d="M19.4286 8.3999H21.7143V15.5999H19.4286V8.3999Z" fill="white"/>
</svg>
