<svg width="24" height="24" viewBox="0 0 24 24" fill="none" xmlns="http://www.w3.org/2000/svg">
<path d="M18.9742 8.45952C18.9861 8.6143 18.9861 8.76819 18.9861 8.92209C18.9861 13.6318 15.2738 19.0588 8.48947 19.0588C6.39931 19.0588 4.45752 18.4742 2.82349 17.4588C3.12025 17.4916 3.40602 17.5031 3.71469 17.5031C5.37528 17.5069 6.98884 16.9707 8.2953 15.9809C7.52538 15.9675 6.77903 15.7222 6.16046 15.2793C5.5419 14.8364 5.08199 14.2181 4.84496 13.5106C5.07303 13.5434 5.30201 13.5655 5.54199 13.5655C5.87264 13.5655 6.20513 13.5212 6.5138 13.4443C5.67824 13.2814 4.92691 12.8441 4.38756 12.2067C3.8482 11.5693 3.55412 10.7712 3.55532 9.94805V9.90383C4.04718 10.1683 4.61781 10.3337 5.22233 10.3558C4.71589 10.0308 4.30064 9.58987 4.0136 9.07226C3.72656 8.55465 3.57667 7.97648 3.5773 7.38933C3.5773 6.72776 3.75957 6.12102 4.07924 5.59212C5.00629 6.69328 6.16254 7.59413 7.47309 8.23633C8.78364 8.87853 10.2193 9.24776 11.687 9.32009C11.6302 9.05476 11.5954 8.77969 11.5954 8.50374C11.5952 8.03583 11.6904 7.57246 11.8758 7.14013C12.0611 6.70779 12.3328 6.31496 12.6755 5.9841C13.0181 5.65324 13.4249 5.39083 13.8727 5.21187C14.3204 5.03292 14.8002 4.94093 15.2848 4.94116C16.3473 4.94116 17.3063 5.37101 17.9804 6.06619C18.8064 5.91195 19.5985 5.6208 20.3216 5.20561C20.0462 6.02888 19.4695 6.72697 18.6994 7.1691C19.432 7.08842 20.1479 6.9024 20.8235 6.6172C20.3189 7.3275 19.6937 7.95038 18.9742 8.45952Z" fill="white"/>
</svg>
