<svg width="56" height="56" viewBox="0 0 56 56" fill="none" xmlns="http://www.w3.org/2000/svg">
<path d="M55.6996 27.8264C55.6996 43.1946 43.2308 55.6529 27.8498 55.6529C21.9195 55.6529 16.4221 53.8009 11.9054 50.6441C4.70741 45.6135 0 37.2692 0 27.8264C0 12.4583 12.4688 0 27.8498 0C34.8934 0 41.3263 2.61264 46.2307 6.92092C52.0359 12.0206 55.6996 19.496 55.6996 27.8264Z" fill="#FDF3EF"/>
<path fill-rule="evenodd" clip-rule="evenodd" d="M13.9248 52.1003C13.9831 51.9846 14.0471 51.8717 14.1173 51.7618C14.6252 50.9668 15.578 50.6448 16.5314 50.3227C16.9947 50.1662 17.4581 50.0096 17.8706 49.7987C17.946 49.5279 18.0632 49.2729 18.2397 49.04C18.5135 48.6788 18.8577 48.4007 19.2477 48.1828C19.4142 47.5319 19.3538 46.8 19.2937 46.0705C19.2067 45.015 19.1201 43.9645 19.7214 43.1713C20.6913 41.8919 22.5444 41.6546 24.1869 41.4444L24.4107 41.4156C24.7172 41.1429 25.0933 40.9442 25.4989 40.7767C25.1705 39.2739 25.1707 37.5982 25.9778 36.3347C26.4856 35.5396 27.4385 35.2177 28.3919 34.8955L28.392 34.8955L28.3921 34.8955L28.3922 34.8954L28.3923 34.8954L28.3924 34.8953L28.3925 34.8953L28.3926 34.8953C28.646 34.8096 28.8995 34.724 29.1447 34.6294C29.1884 34.1401 29.3174 33.6833 29.6157 33.2899C30.0183 32.7587 30.5732 32.4072 31.2019 32.1627C31.2392 31.6747 31.1966 31.1585 31.1542 30.6436V30.6436V30.6435V30.6435V30.6435V30.6434V30.6434V30.6434C31.0672 29.5879 30.9806 28.5374 31.5819 27.7441C32.4245 26.6327 33.9336 26.3078 35.3921 26.1038C35.4676 25.8588 35.5795 25.6275 35.7407 25.4148C36.1028 24.9371 36.588 24.6047 37.1394 24.3648C37.1663 23.9013 37.1262 23.4141 37.0861 22.9281C36.9991 21.8726 36.9125 20.8221 37.5138 20.0289C38.3018 18.9894 39.6728 18.6379 41.0401 18.4298C41.1491 18.0592 41.3036 17.706 41.5117 17.3801C41.8668 16.8242 42.4395 16.4996 43.0778 16.2445C43.0734 15.9063 43.0449 15.5597 43.0163 15.2136C42.9349 14.2253 42.8538 13.2414 43.3375 12.4689C43.4401 12.0075 43.6344 11.5673 43.9473 11.1751C44.457 10.536 45.4032 10.2702 46.35 10.0041C46.4569 9.97406 46.5639 9.944 46.6703 9.91339C46.7306 9.50558 46.8619 9.12465 47.1159 8.78961C47.2638 8.59452 47.4322 8.42366 47.6173 8.27344C52.7896 13.3256 56.0001 20.3746 56.0001 28.1728C56.0001 43.5409 43.5313 55.9992 28.1503 55.9992C22.9531 55.9992 18.0883 54.5768 13.9248 52.1003Z" fill="#F9D5B3"/>
</svg>
