<svg width="56" height="56" viewBox="0 0 56 56" fill="none" xmlns="http://www.w3.org/2000/svg">
<path d="M55.6522 27.8429C55.6522 43.2201 43.194 55.6859 27.8261 55.6859C21.9008 55.6859 16.4081 53.8327 11.8952 50.6741C4.70341 45.6405 0 37.2913 0 27.8429C0 12.4657 12.4582 0 27.8261 0C34.8637 0 41.2911 2.61418 46.1913 6.92502C51.9916 12.0277 55.6522 19.5076 55.6522 27.8429Z" fill="#FDF3EF"/>
<path fill-rule="evenodd" clip-rule="evenodd" d="M24.7805 34.9943L12.2432 50.9874C16.756 54.146 22.2487 55.9991 28.174 55.9991C43.5419 55.9991 56.0001 43.5334 56.0001 28.1562C56.0001 19.8208 52.3395 12.341 46.5392 7.23828L37.413 18.88L38.1409 20.2689L38.9799 25.6958L43.9227 30.2665L37.2304 26.6482L36.7959 23.0932L35.4641 21.366L32.2634 25.449L34.8015 30.2921L35.6406 35.719L40.5834 40.2897L33.891 36.6714L33.4565 33.1164L29.8844 28.4836L26.3195 33.0312L26.7351 35.719L31.6779 40.2897L24.9855 36.6714L24.7805 34.9943Z" fill="#E9D39B"/>
</svg>
