<svg width="75" height="840" viewBox="0 0 75 840" fill="none" xmlns="http://www.w3.org/2000/svg">
<g opacity="0.5">
<path d="M2.7163 804.194L55.835 804.194L55.835 805.689L29.2002 805.689L29.2002 838.505L55.835 838.505L55.835 840L2.7163 840L2.7163 838.505L27.8421 838.505L27.8421 805.689L2.7163 805.689L2.7163 804.194Z" fill="#8B8282"/>
<path d="M4.67807 790.634C4.67807 791.182 4.50201 791.656 4.1499 792.054C3.74748 792.403 3.24447 792.578 2.64084 792.578C2.03722 792.578 1.55936 792.403 1.20724 792.054C0.804826 791.656 0.603618 791.182 0.603618 790.634C0.603618 790.086 0.804826 789.637 1.20724 789.289C1.55936 788.89 2.03722 788.691 2.64084 788.691C3.24447 788.691 3.74748 788.89 4.1499 789.289C4.50201 789.637 4.67807 790.086 4.67807 790.634ZM15.0905 789.887L55.835 789.887L55.835 791.382L15.0905 791.382L15.0905 789.887Z" fill="#8B8282"/>
<path d="M26.4839 715.545L27.8421 715.545L27.8421 742.755L26.4839 742.755L26.4839 715.545Z" fill="#8B8282"/>
<path d="M2.71629 655.712L55.835 655.712L55.835 657.207L2.71629 657.207L2.71629 655.712Z" fill="#8B8282"/>
<path d="M2.71629 643.046L2.71629 640.654L17.2032 645.738L17.2032 647.083L2.71629 643.046Z" fill="#8B8282"/>
<path d="M14.1851 584.778C14.1851 580.293 15.669 576.605 18.6368 573.715C21.6046 570.824 26.0815 569.379 32.0674 569.379L55.835 569.379L55.835 570.799L31.9165 570.799C26.5845 570.799 22.5352 572.045 19.7686 574.537C16.9517 577.029 15.5433 580.442 15.5433 584.778C15.5433 589.313 17.1781 592.976 20.4477 595.767C23.667 598.557 28.3702 599.953 34.5574 599.953L55.835 599.953L55.835 601.373L31.9165 601.373C26.5845 601.373 22.5352 602.619 19.7686 605.111C16.9517 607.603 15.5433 611.016 15.5433 615.352C15.5433 619.937 17.1781 623.624 20.4477 626.415C23.667 629.156 28.3702 630.527 34.5574 630.527L55.835 630.527L55.835 632.022L15.0905 632.022L15.0905 630.527L25.8803 630.527C21.9567 629.53 19.0392 627.686 17.1278 624.995C15.166 622.254 14.1851 619.04 14.1851 615.352C14.1851 611.564 15.2666 608.325 17.4296 605.634C19.5423 602.893 22.7616 601.149 27.0875 600.401C22.7616 599.504 19.5423 597.66 17.4296 594.87C15.2666 592.029 14.1851 588.665 14.1851 584.778Z" fill="#8B8282"/>
<path d="M54.4014 537.462L54.4014 507.935L55.835 507.935L55.835 539.107L54.4014 539.107L4.22534 510.252L4.22534 538.135L2.71628 538.135L2.71628 508.682L4.22534 508.682L54.4014 537.462Z" fill="#8B8282"/>
<path d="M55.005 481.375C55.005 476.84 53.8481 473.028 51.5342 469.938C49.2203 466.848 46.0513 464.979 42.0272 464.331L42.0272 462.836C46.3028 463.534 49.7736 465.527 52.4396 468.817C55.0553 472.056 56.3632 476.242 56.3632 481.375C56.3632 485.113 55.5332 488.452 53.8733 491.392C52.2133 494.332 49.7988 496.649 46.6298 498.344C43.4608 499.988 39.7384 500.811 35.4628 500.811C31.1871 500.811 27.4648 499.988 24.2958 498.344C21.1268 496.649 18.7123 494.332 17.0523 491.392C15.3923 488.452 14.5624 485.113 14.5624 481.375C14.5624 477.438 15.4175 474.074 17.1278 471.283C18.7877 468.493 20.9507 466.4 23.6167 465.004C26.2827 463.559 29.0996 462.836 32.0674 462.836C33.8783 462.836 35.2364 462.861 36.1419 462.911L36.1419 499.316C40.3169 499.266 43.8129 498.419 46.6298 496.774C49.4467 495.08 51.5594 492.887 52.9678 490.196C54.326 487.505 55.005 484.564 55.005 481.375ZM15.9205 481.375C15.9205 484.564 16.6247 487.505 18.0332 490.196C19.3913 492.887 21.4789 495.08 24.2958 496.774C27.1127 498.419 30.6087 499.266 34.7837 499.316L34.7837 464.182C30.6086 463.933 27.1127 464.606 24.2958 466.2C21.4789 467.745 19.3913 469.888 18.0332 472.629C16.6247 475.32 15.9205 478.235 15.9205 481.375Z" fill="#8B8282"/>
<path d="M27.5402 450.582C23.7676 449.486 20.674 447.343 18.2595 444.154C15.7948 440.914 14.5624 436.977 14.5624 432.343C14.5624 428.505 15.4175 425.092 17.1278 422.102C18.7877 419.111 21.2022 416.794 24.3712 415.15C27.4899 413.505 31.1871 412.683 35.4628 412.683C39.7384 412.683 43.4608 413.505 46.6298 415.15C49.7485 416.794 52.163 419.111 53.8732 422.101C55.5332 425.092 56.3632 428.505 56.3632 432.343C56.3632 436.977 55.1559 440.914 52.7415 444.154C50.2767 447.343 47.158 449.486 43.3853 450.582L75 450.582L75 452.003L15.0905 452.003L15.0905 450.582L27.5402 450.582ZM35.4628 414.178C31.4386 414.178 27.9678 414.925 25.0503 416.42C22.0825 417.915 19.8189 420.033 18.2595 422.774C16.7002 425.465 15.9205 428.655 15.9205 432.343C15.9205 435.831 16.7505 438.971 18.4105 441.761C20.0201 444.502 22.3088 446.67 25.2767 448.265C28.1942 449.81 31.5895 450.582 35.4628 450.582C39.336 450.582 42.7565 449.81 45.7244 448.265C48.6419 446.67 50.9306 444.502 52.5906 441.761C54.2002 438.971 55.005 435.831 55.005 432.343C55.005 428.655 54.2254 425.465 52.666 422.774C51.1066 420.033 48.8682 417.915 45.9507 416.42C42.9829 414.925 39.4869 414.178 35.4628 414.178Z" fill="#8B8282"/>
<path d="M14.1851 384.509C14.1851 379.774 15.669 375.887 18.6368 372.847C21.6046 369.807 26.0815 368.287 32.0674 368.287L55.835 368.287L55.835 369.708L31.9165 369.708C26.5845 369.708 22.5352 371.028 19.7686 373.669C16.9517 376.311 15.5432 379.924 15.5432 384.509C15.5432 389.293 17.1278 393.13 20.2968 396.021C23.4155 398.911 28.0433 400.356 34.1801 400.356L55.835 400.356L55.835 401.851L-1.91521e-05 401.851L-1.92174e-05 400.356L25.8048 400.356C22.0322 399.409 19.165 397.516 17.2032 394.675C15.1911 391.834 14.1851 388.446 14.1851 384.509Z" fill="#8B8282"/>
<path d="M15.0905 326.182L75 349.206L75 350.776L56.0614 343.45L15.0905 360.793L15.0905 359.298L54.2505 342.703L15.0905 327.677L15.0905 326.182Z" fill="#8B8282"/>
<path d="M24.9748 316.844C17.7817 315.249 14.1851 309.941 14.1851 300.921L15.8451 300.921L15.8451 301.594C15.8451 305.83 17.1026 309.443 19.6177 312.433C22.0825 315.373 26.0815 316.844 31.6147 316.844L55.835 316.844L55.835 318.339L15.0905 318.339L15.0905 316.844L24.9748 316.844Z" fill="#8B8282"/>
<path d="M29.2756 247.326L55.835 220.64L55.835 222.658L30.4829 248.223L55.835 248.223L55.835 249.718L2.71627 249.718L2.71627 248.223L28.2193 248.223L2.71627 222.658L2.71627 220.64L29.2756 247.326Z" fill="#8B8282"/>
<path d="M55.9859 204.798C55.9859 205.346 55.8099 205.82 55.4577 206.219C55.0553 206.567 54.5523 206.742 53.9487 206.742C53.3451 206.742 52.8672 206.567 52.5151 206.219C52.1127 205.82 51.9115 205.346 51.9115 204.798C51.9115 204.25 52.1127 203.802 52.5151 203.453C52.8672 203.054 53.3451 202.855 53.9487 202.855C54.5523 202.855 55.0553 203.054 55.4577 203.453C55.8099 203.802 55.9859 204.25 55.9859 204.798Z" fill="#8B8282"/>
<path d="M2.71627 141.22L45.0453 141.22C48.3149 141.22 51.0312 142.242 53.1942 144.285C55.3068 146.279 56.3632 149.069 56.3632 152.657C56.3632 156.545 55.1559 159.56 52.7414 161.702C50.327 163.796 47.007 164.842 42.7817 164.842L42.7817 163.347C46.3028 163.347 49.2203 162.5 51.5342 160.805C53.8481 159.111 55.005 156.395 55.005 152.657C55.005 149.119 54.0241 146.578 52.0624 145.033C50.0503 143.488 47.7113 142.715 45.0453 142.715L2.71627 142.715L2.71627 141.22Z" fill="#8B8282"/>
<path d="M55.005 111.336C55.005 106.801 53.8481 102.988 51.5342 99.8985C49.2203 96.8087 46.0513 94.9399 42.0271 94.2921L42.0271 92.797C46.3028 93.4947 49.7736 95.4881 52.4396 98.7772C55.0553 102.016 56.3632 106.203 56.3632 111.336C56.3632 115.073 55.5332 118.412 53.8732 121.352C52.2133 124.293 49.7988 126.61 46.6298 128.304C43.4608 129.949 39.7384 130.771 35.4628 130.771C31.1871 130.771 27.4648 129.949 24.2958 128.304C21.1267 126.61 18.7123 124.293 17.0523 121.352C15.3923 118.412 14.5623 115.073 14.5623 111.336C14.5623 107.399 15.4175 104.035 17.1277 101.244C18.7877 98.4533 20.9507 96.3602 23.6167 94.9648C26.2827 93.5196 29.0996 92.797 32.0674 92.797C33.8783 92.797 35.2364 92.822 36.1418 92.8718L36.1418 129.276C40.3169 129.226 43.8129 128.379 46.6298 126.735C49.4467 125.04 51.5593 122.848 52.9678 120.156C54.3259 117.465 55.005 114.525 55.005 111.336ZM15.9205 111.336C15.9205 114.525 16.6247 117.465 18.0332 120.156C19.3913 122.848 21.4789 125.04 24.2958 126.735C27.1127 128.379 30.6086 129.226 34.7837 129.276L34.7837 94.1426C30.6086 93.8934 27.1127 94.5662 24.2958 96.1609C21.4788 97.7058 19.3913 99.8487 18.0332 102.59C16.6247 105.281 15.9205 108.196 15.9205 111.336Z" fill="#8B8282"/>
<path d="M56.3632 64.0973C56.3632 67.8349 55.5332 71.1988 53.8732 74.1889C52.163 77.179 49.7485 79.5462 46.6298 81.2904C43.4608 82.9848 39.7384 83.832 35.4628 83.832C31.1871 83.832 27.4899 82.9848 24.3712 81.2904C21.2022 79.5462 18.7877 77.179 17.1277 74.1889C15.4175 71.1988 14.5623 67.8349 14.5623 64.0973C14.5623 60.3597 15.4175 56.9959 17.1277 54.0058C18.7877 51.0157 21.2022 48.6734 24.3712 46.979C27.4899 45.2846 31.1871 44.4374 35.4628 44.4374C39.7384 44.4374 43.4607 45.2846 46.6298 46.979C49.7485 48.6734 52.163 51.0157 53.8732 54.0058C55.5332 56.9959 56.3632 60.3597 56.3632 64.0973ZM55.005 64.0973C55.005 60.858 54.3008 57.8679 52.8923 55.127C51.4336 52.3861 49.2455 50.1684 46.328 48.4741C43.4105 46.7797 39.7887 45.9325 35.4628 45.9325C31.1368 45.9325 27.5151 46.7797 24.5976 48.4741C21.6801 50.1685 19.5171 52.3861 18.1086 55.127C16.6499 57.8679 15.9205 60.858 15.9205 64.0973C15.9205 67.3366 16.6499 70.3516 18.1086 73.1424C19.5171 75.8833 21.7052 78.101 24.673 79.7953C27.5905 81.4897 31.1871 82.3369 35.4628 82.3369C39.7384 82.3369 43.3602 81.4897 46.328 79.7953C49.2455 78.101 51.4336 75.8833 52.8924 73.1424C54.3008 70.3516 55.005 67.3366 55.005 64.0973Z" fill="#8B8282"/>
<path d="M14.1851 16.2213C14.1851 11.487 15.669 7.59981 18.6368 4.55987C21.6046 1.51994 26.0815 -1.14006e-06 32.0674 -1.40171e-06L55.835 -2.44063e-06L55.835 1.42029L31.9165 1.42029C26.5845 1.42029 22.5352 2.74095 19.7686 5.3822C16.9517 8.02346 15.5432 11.6365 15.5432 16.2213C15.5432 21.0055 17.1277 24.8427 20.2968 27.7332C23.4155 30.6236 28.0432 32.0688 34.1801 32.0688L55.835 32.0688L55.835 33.5638L15.0905 33.5638L15.0905 32.0688L25.8048 32.0688C22.0322 31.122 19.165 29.2282 17.2032 26.3876C15.1911 23.547 14.1851 20.1583 14.1851 16.2213Z" fill="#8B8282"/>
</g>
</svg>
