<svg width="2008" height="2678" viewBox="0 0 2008 2678" fill="none" xmlns="http://www.w3.org/2000/svg">
<g opacity="0.7">
<path d="M1025.47 1505.62C1029.6 1492.19 1041.19 1473.36 1041.19 1473.36C1038.98 1513.32 1038.61 1532.41 1041.19 1554.02C1049.59 1590.2 1070.52 1613.95 1127.6 1660.48C1138.66 1664.77 1146.15 1664.14 1160.6 1660.48L1217.17 1634.67L1335.01 1591.12C1386.64 1571.05 1413.76 1556.66 1455.99 1520.14C1474.1 1493.09 1480.45 1480.08 1482.7 1462.07C1495.11 1486.02 1486.96 1531.5 1485.85 1536.27C1484.73 1541.05 1462.16 1573.39 1451.28 1594.34C1451.28 1594.34 1417.47 1650.4 1391.57 1683.06C1355.67 1728.33 1344.27 1771.01 1309.87 1812.11C1275.47 1853.21 1253.65 1864.65 1226.59 1886.31L1215.59 1862.11L1144.89 1678.22H1132.32L1124.46 1670.16C1086.58 1680.13 1063.19 1712.04 1019.19 1813.72C1015.57 1820.28 1011.48 1822.2 1003.48 1825.01C1004.08 1759.16 1004.51 1722.22 1009.76 1655.64C1011.76 1654.74 1012.77 1654.81 1016.05 1647.57V1610.47C1016.05 1610.47 1015.7 1560.94 1020.76 1529.82C1022.3 1520.31 1022.65 1514.81 1025.47 1505.62Z" fill="white"/>
<path d="M1132.32 1678.22L1124.46 1670.16C1092.56 1680.19 1075.16 1699.53 1044.33 1761.44V1791.14L1039.61 1806.63L1038.04 1826.62L1031.76 1855.66L1039.61 1860.5C1039.61 1860.5 1020.3 1895.95 1011.33 1920.18C1003.61 1941.05 1000.87 1953.36 995.62 1975.03C988.389 2004.88 988.277 2022.49 981.479 2052.45C977.597 2069.57 974.751 2078.99 970.48 2096.01C961.159 2133.14 954.261 2153.94 945.341 2191.18C945.341 2191.18 927.951 2280.38 912.344 2336.35C902.709 2370.91 902.535 2391.61 895.061 2426.69C890.303 2449.01 885.083 2458.2 882.491 2475.08C879.059 2497.42 877.021 2509.29 873.063 2531.54C870.055 2548.45 869.644 2558.15 866.779 2575.09C862.269 2601.75 857.629 2616.27 852.637 2642.84C850.039 2656.67 852.258 2663.65 849.741 2677.5H1016.71L1050.61 2491.21L1104.04 2233.12L1140.17 2052.45C1152.39 1979.99 1155.4 1939 1154.32 1865.34L1196.74 1813.72L1144.89 1678.22H1132.32Z" fill="#40ADE9"/>
<path d="M1154.32 1866.73C1120.69 1861.84 1086.46 1861.42 1038.04 1860.5C1044.85 1866.41 1049.6 1868.36 1053.76 1871.79C1062.6 1879.09 1080.47 1884.7 1080.47 1884.7C1079.76 1887.45 1126.76 1874.4 1152.74 1898.2C1155.62 1900.83 1153.96 1870.76 1154.32 1866.73Z" fill="#1C5182"/>
<path d="M1144.89 1678.22L1196.74 1813.72L1154.32 1866.95L1129.18 1863.73C1129.18 1863.73 1179.46 1815.33 1181.03 1807.27C1182.6 1799.2 1132.32 1678.22 1132.32 1678.22H1144.89Z" fill="#1C5182"/>
<path d="M1132.32 1678.22L1133.89 1681.45L1124.46 1675C1124.88 1672.99 1093.49 1689.65 1085.18 1699.19C1076.95 1708.65 1044.91 1762.95 1044.34 1766.84C1044.34 1767.19 1044.33 1767.27 1044.33 1766.94C1044.33 1766.91 1044.33 1766.88 1044.34 1766.84C1044.34 1765.82 1044.33 1762.5 1044.33 1760.49C1056.63 1734.41 1064.85 1720.17 1083.61 1695.97C1097.98 1683.28 1106.29 1676.57 1124.46 1670.16L1132.32 1678.22Z" fill="#1C5182"/>
<path d="M1022.33 1892.76L1038.04 1860.5L1042.76 1863.73L1025.47 1895.99L1012.9 1926.63L998.761 1976.64L986.191 2052.45L973.621 2097.62L965.765 2126.66L948.481 2197.63L928.055 2284.74L912.343 2352.49L906.058 2371.84L901.344 2408.94L888.774 2455.72L877.775 2521.86L868.348 2586.38C868.348 2586.38 859.239 2628.01 852.635 2654.13C850.367 2663.1 853.74 2677.5 853.74 2677.5H842.743C842.743 2674.92 845.829 2667.03 847.924 2654.13L863.634 2586.38L874.633 2521.86L885.632 2455.72C889.298 2441.2 896.945 2411.52 898.202 2408.94C899.459 2406.36 901.868 2383.13 902.916 2371.84L909.201 2352.49L924.913 2284.74C924.576 2284.76 941.095 2208.43 943.767 2197.63C946.439 2186.83 954.291 2153.06 962.623 2126.66C968.824 2096.93 981.477 2050.84 981.477 2050.84C981.477 2050.84 988.761 2004.27 994.048 1975.03L1009.76 1923.41L1022.33 1892.76Z" fill="#1C5182"/>
<path d="M986.193 1683.06C992.283 1665.61 997.096 1658.79 1009.76 1655.64L1003.48 1825.01C1003.48 1825.01 1014.2 1821.17 1017.62 1815.33C1029.7 1794.7 1039.94 1756.55 1044.33 1760.49C1044.33 1760.49 1045.01 1775.26 1044.33 1784.69C1043.5 1796.15 1041.19 1802.43 1039.61 1813.72C1038.04 1825.01 1034.53 1846.35 1031.76 1855.66C1035.2 1859.29 1036.79 1859.76 1039.61 1860.5L1011.33 1921.8L994.049 1978.25L981.479 2052.46L950.054 2179.89L917.058 2321.84L913.915 2336.36C913.915 2336.36 902.845 2387.08 896.632 2420.24C893.811 2435.29 889.786 2443.85 887.204 2458.95C881.15 2494.36 869.921 2549.28 869.921 2549.28C866.712 2567.52 865.571 2577.88 862.065 2596.06C858.278 2615.7 851.066 2646.07 851.066 2646.07C849.495 2656.28 843.742 2677.5 843.742 2677.5H754.761C754.761 2677.5 757.571 2661.54 756.26 2657C754.95 2652.47 738.264 2623.01 766.219 2544.44L792.93 2412.17L816.499 2292.8L855.78 2110.53L917.058 1889.53L957.91 1763.72L986.193 1683.06Z" fill="#C4C4C4"/>
<path d="M1154.32 1865.34L1196.74 1813.72L1226.59 1886.31C1258.58 1862.88 1279.65 1843.73 1308.3 1815.33C1285.02 1855.19 1274.57 1881.7 1259.59 1923.41C1244.61 1965.12 1246.99 1964.65 1239.16 1991.16C1232.4 2014.09 1228.67 2027.12 1222.17 2049.81L1221.88 2050.84C1206.77 2103.64 1198.4 2133.28 1184.17 2186.34C1170.85 2235.98 1162.44 2263.59 1151.17 2313.77C1143.71 2347 1140.63 2365.88 1133.89 2399.26C1118.5 2475.48 1107.27 2517.57 1090.69 2593.52C1074.13 2669.41 1071.7 2678 1071.7 2678H1044.2H1014.21C1014.21 2678 1020.99 2644.27 1038.04 2552.51C1052.59 2474.23 1077.32 2352.49 1077.32 2352.49C1077.32 2352.49 1102.62 2237.55 1118.18 2163.76C1123.75 2137.31 1127.35 2122.58 1132.32 2096.01C1142.73 2040.36 1149.52 2009.1 1152.74 1952.44C1154.68 1918.48 1154.32 1865.34 1154.32 1865.34Z" fill="#C4C4C4"/>
<path d="M1272.16 1866.95C1272.16 1866.95 1237.59 1900.83 1221.88 1913.73C1207.74 1884.7 1208.23 1865.79 1196.74 1842.76C1172.56 1854.99 1160.6 1921.8 1160.6 1921.8C1160.6 1921.8 1166.44 1964.06 1165.31 1991.16C1154.16 2036.35 1145.63 2060.63 1130.75 2104.07L1146.46 2013.74L1154.32 1921.8V1866.95L1196.74 1815.33L1226.59 1886.31C1259.13 1862.26 1277.36 1847.36 1309.87 1815.33C1275.92 1868.33 1264.94 1903.16 1245.45 1965.35L1272.16 1866.95Z" fill="#666666"/>
<path d="M1009.76 1655.64L1003.48 1825.01L1019.19 1813.72C1028 1790.86 1034.89 1779.45 1044.33 1758.88V1791.14C1044.59 1791.45 1040.89 1801.16 1039.61 1807.27C1038.51 1812.56 1039.61 1825.01 1039.61 1825.01L1034.9 1841.14C1034.9 1841.14 1031.76 1820.17 1030.19 1818.56C1029.52 1817.87 1024.62 1818.93 1019.19 1820.37L997.191 1836.3V1794.04C992.559 1775.12 987.21 1760.49 983.05 1760.49C975.194 1760.49 959.488 1786.5 935.913 1828.24C935.913 1828.24 979.484 1698.82 986.193 1683.06C992.901 1667.3 997.222 1659.56 1009.76 1655.64Z" fill="#666666"/>
<path d="M752.078 2596.06C748.262 2607.02 747.762 2630.51 756.76 2657.51L754.761 2677.5H846.742C802.647 2667.89 798.252 2653.01 792.253 2647.51C785.134 2640.98 770.294 2640.12 770.933 2621.87C771.906 2594.05 777.218 2550.89 777.218 2550.89L788.216 2434.75C784.419 2440.37 765.439 2540.01 765.259 2547.53C765.078 2555.05 758.31 2574.13 752.078 2596.06Z" fill="#666666"/>
<path d="M1113.87 2492.8C1111.81 2503.74 1104.23 2543.57 1070.2 2678H1039.2L1113.87 2492.8C1114.78 2487.97 1114.62 2488.77 1115.19 2489.54L1113.87 2492.8Z" fill="#666666"/>
<path d="M981.479 1557.24C998.763 1544.34 1003.48 1542.72 1020.76 1529.82L1014.48 1644.35C1012.9 1665.32 999.418 1646.34 987.764 1678.22C967.174 1734.56 956.063 1766.33 937.484 1823.4C898.398 1943.46 878.81 2011.76 849.495 2134.72C828.466 2222.93 820.342 2273.25 802.358 2362.16C787.335 2436.43 764.648 2552.51 764.648 2552.51C761.582 2563.63 759.122 2572.42 750.507 2602.51C748.867 2630.93 752.103 2639.11 756.792 2655.74C757.437 2658.03 756.597 2665.8 754.67 2677.5H543.181C546.749 2662.48 549.932 2650.02 552.53 2641.23C564.46 2600.42 575.499 2571.68 596.525 2518.63C622.537 2460.69 631.145 2438.72 634.235 2421.85C634.014 2333.79 631.367 2284.09 618.522 2194.4C618.522 2194.4 604.381 2123.43 604.381 2102.46C604.381 2081.49 607.044 2049.42 607.524 2023.42C609.284 1961.62 607.137 1936.9 627.95 1876.63C630.448 1848.42 636.571 1828.88 643.662 1799.2C652.909 1755.63 661.622 1736.12 679.801 1692.74C687.611 1682.06 697.04 1669.22 736.365 1645.96C783.626 1626.92 807.269 1618.01 830.64 1610.47C861.599 1596.01 882.673 1586.8 926.486 1568.53C951.176 1564 964.195 1562.08 981.479 1557.24Z" fill="#222222"/>
<path d="M653.782 1700.72C666.138 1685.34 686.422 1678.5 699.772 1669.73C680.042 1709.07 654.661 1745.99 648.376 1776.63C645.73 1789.54 643.824 1810.44 634.235 1852.45C626.943 1876.41 622.278 1893.25 609.095 1950.85C608.49 1977.33 608.568 1989.92 609.095 2010.53C605.151 2048.07 604.208 2073.67 609.095 2142.8C616.534 2172.2 620.388 2194.15 626.379 2250.88C630.929 2290.24 632.842 2326.78 635.806 2402.51C639.121 2426.56 633.507 2442.94 620.094 2473.48C599.478 2514.77 588.326 2542.7 566.672 2600.91C561.55 2617.53 554.643 2644.91 546.912 2677.83H420.389C420.536 2677.56 420.683 2677.28 420.83 2677C422.607 2635.09 415.936 2616.37 420.83 2600.91C416.372 2594.09 433.133 2571.13 435.827 2554.03C447.228 2536.24 445.945 2541.75 450.324 2511.54C448.672 2505.07 452.105 2496.18 454.823 2481.55C459.712 2473.61 456.83 2455.83 465.321 2444.55C468.464 2423.58 475.486 2429.14 476.319 2411.56C479.461 2401.88 472.891 2380.25 471.32 2370.57C467.654 2347.99 486.245 2329.76 487.816 2320.08C510.172 2263.11 512.385 2261.06 538.306 2197.61C554.762 2158.99 555.002 2136.89 565.8 2086.63C566.314 2053.28 579.947 2040.81 582.797 2030.15C587.51 2018.32 591.795 1994.11 591.795 1987.66C591.795 1932.46 597.407 1929.32 601.793 1903.68C605.641 1881.04 610.061 1854.78 615.79 1814.2C620.756 1791.65 623.966 1773.45 628.787 1747.71C634.823 1723.24 643.49 1722.65 653.782 1700.72Z" fill="#222222"/>
<path d="M1617.83 1626.6C1564.21 1564.72 1534.16 1529.99 1488.99 1450.78L1482.7 1462.07C1491.78 1480.85 1493.38 1493.39 1488.99 1520.14C1484.6 1546.89 1469.65 1559.9 1455.99 1584.66C1420.53 1648.98 1390.31 1678.37 1352.29 1741.13C1324.56 1786.92 1307.34 1811.84 1284.73 1860.5C1250.48 1934.22 1243.75 1980.86 1220.31 2058.91C1195.7 2140.85 1182.58 2187.07 1162.17 2270.22C1138.09 2368.35 1129.46 2424.66 1108.19 2523.47C1085.93 2626.88 1069.63 2677.5 1069.63 2677.5H1150.68H1241.66C1241.66 2677.5 1285.43 2614.12 1308.3 2557.35C1328.13 2508.09 1380.75 2379.54 1394.72 2357.33C1449.33 2260.94 1470.13 2194.4 1534.56 2110.53C1598.98 2026.65 1647.68 1976.64 1647.68 1976.64L1534.56 1895.99C1591.46 1875.54 1647.68 1855.66 1657.11 1845.98C1666.54 1836.3 1650.03 1813.74 1647.68 1792.75C1643.64 1756.45 1655.35 1734.87 1647.68 1699.19C1641.23 1669.14 1671.45 1688.49 1617.83 1626.6Z" fill="#222222"/>
<path d="M1707.39 1639.51C1666.99 1618.69 1597.41 1602.41 1597.41 1602.41C1624.26 1632.46 1638.45 1648.89 1650.83 1671.77C1650.83 1671.77 1642.45 1688.98 1644.54 1694.35C1646.64 1699.73 1650.83 1712.1 1650.83 1718.55C1650.83 1725 1639.83 1766.94 1644.54 1791.14C1649.26 1815.33 1660.26 1844.37 1660.26 1844.37C1612.13 1867.88 1584.53 1878.81 1534.56 1895.99L1644.54 1976.64C1644.54 1976.64 1557.75 2067.35 1514.13 2134.72C1495.55 2163.42 1470.13 2210.53 1470.13 2210.53C1470.13 2210.53 1417.3 2306.77 1386.86 2370.23C1347.77 2451.71 1335.14 2501.84 1295.73 2583.15C1255.96 2665.22 1239.16 2678 1239.16 2678H1671.07H1870.03C1870.03 2678 1854.29 2600.43 1850.38 2523.47C1848.23 2481.32 1846.38 2457.4 1850.38 2415.39C1856.33 2352.75 1871.77 2319.6 1888.08 2258.93C1902.24 2206.29 1927.37 2125.04 1927.37 2125.04C1927.37 2125.04 1947.41 2038.07 1972.93 1987.93C1988.15 1958.04 2008 1902.44 2008 1902.44V1791.14C2004.34 1783.45 1870.25 1737.73 1787.53 1689.51C1754.82 1670.45 1741.01 1656.83 1707.39 1639.51Z" fill="#222222"/>
<path d="M2006 2678V1908.17C1985.23 1935.88 1986.28 1962.61 1966.65 1994.38C1948.93 2042.92 1940.36 2071.19 1925.79 2123.43L1875.52 2300.87C1859.8 2341.19 1852.05 2374.11 1847.23 2423.46C1842.2 2542.82 1840.49 2561.97 1868.53 2678H2006Z" fill="#222222"/>
</g>
<path d="M1113.18 1145.97L1066.19 975.513L1065.19 972.014C1087.26 964.368 1101.18 963.516 1120.18 963.016L1172.16 1139.98C1161.54 1143.89 1155.19 1144.87 1143.67 1145.97C1132.01 1147.94 1125.32 1147.85 1113.18 1145.97Z" fill="white"/>
<path d="M1176.66 1138.98L1124.67 963.516C1138.73 964.07 1146.61 964.813 1160.67 967.515L1204.16 1122.98C1196.63 1130.85 1190.12 1134.1 1176.66 1138.98Z" fill="white"/>
<path d="M1210.66 1115.48L1169.17 968.514C1183.77 971.501 1191.9 973.937 1206.16 981.012C1217.82 1016.34 1234.65 1071.49 1234.65 1071.49C1234.65 1079.09 1218.82 1105.82 1210.66 1115.48Z" fill="white"/>
<path d="M1427.61 1168.47L1364.62 1009.01C1373.32 996.682 1384.19 992.137 1408.62 986.01L1478.1 1168.97C1459.57 1172.88 1448.44 1172.52 1427.61 1168.47Z" fill="white"/>
<path d="M1486.6 1167.47L1416.61 983.511C1429.63 981.469 1447.96 980.756 1461.1 980.512L1527.59 1150.47C1515.92 1156.92 1499.9 1164.12 1486.6 1167.47Z" fill="white"/>
<path d="M1531.09 1145.47L1467.6 980.512C1487.77 981.039 1499.06 982.2 1519.09 987.01L1563.58 1093.49C1555.98 1115.08 1540.09 1139.98 1531.09 1145.47Z" fill="white"/>
<path fill-rule="evenodd" clip-rule="evenodd" d="M1017.96 1008.01H1010.7C1012.53 1000.84 1012.9 986.811 999.701 988.011L1007.7 950.519C1078.18 944.021 1225.25 939.722 1249.65 974.514L1255.65 982.012C1280.28 980.206 1331.6 978.173 1342.66 984.236C1345.28 981.706 1348.42 979.128 1352.13 976.513C1365.12 969.848 1410.12 957.717 1486.1 962.516C1518.93 965.349 1587.18 972.114 1597.58 976.513L1606.57 979.013V1013C1603.57 1014.34 1597.58 1019.2 1597.58 1028H1582.13C1585.48 1047.79 1582.62 1067.62 1577.1 1085.29C1569.43 1109.86 1556.48 1130.78 1546.99 1142.61L1546.9 1142.71L1546.81 1142.81C1546.44 1143.23 1546.07 1143.64 1545.72 1144.03C1538.03 1152.63 1534.6 1156.47 1526.42 1162.09L1526.16 1162.27L1525.88 1162.42C1443.1 1205.03 1379.3 1163.97 1359.54 1135.85L1359.4 1135.66L1359.29 1135.46C1334.43 1092.1 1335.4 1054.83 1344.03 1028.79C1336.88 1023.63 1329.63 1014.55 1331.4 1003.28C1306.34 1002.32 1264.85 1001.29 1262.42 1003.51C1262.59 1011.4 1259.92 1019.6 1251.48 1025.77C1251.54 1026.39 1251.59 1027.02 1251.64 1027.65C1253.33 1052 1244.23 1077.98 1232.91 1098.64C1227.22 1109.03 1220.88 1118.24 1214.85 1125.42C1208.95 1132.44 1202.95 1138 1197.84 1140.47C1125.65 1175.54 1068.44 1145.77 1048.19 1125.55C1035.76 1113.54 1027.95 1093.78 1023.11 1074.79C1018.22 1055.59 1016.13 1036.23 1015.7 1024.18L1015.69 1023.99L1015.7 1023.8C1015.93 1018.14 1016.7 1012.88 1017.96 1008.01ZM1032.8 1072.32C1028.13 1054.01 1026.12 1035.47 1025.7 1024.02C1026.39 1007.8 1032.11 995.931 1040.79 987.171C1049.6 978.277 1061.75 972.304 1075.59 968.595C1103.35 961.154 1136.57 963.175 1158.73 967.426L1158.95 967.47L1159.19 967.493C1172.5 968.776 1192.72 973.497 1209.84 983.346C1226.93 993.175 1240.22 1007.64 1241.66 1028.35C1243.17 1050 1235.01 1074 1224.15 1093.83C1218.75 1103.69 1212.77 1112.35 1207.2 1118.98C1201.5 1125.77 1196.61 1129.96 1193.48 1131.48C1125.74 1164.38 1072.99 1136.21 1055.22 1118.45L1055.19 1118.41L1055.16 1118.38C1044.81 1108.39 1037.54 1090.93 1032.8 1072.32ZM1369.46 1003.75C1377.54 997.602 1384.75 993.261 1393.57 990.296C1436.48 978.552 1476.27 979.062 1507.24 984.864C1522.74 987.768 1535.96 991.986 1546.19 996.606C1556.15 1001.1 1562.88 1005.79 1566.31 1009.69C1576.81 1033.51 1574.74 1059.31 1567.56 1082.31C1560.34 1105.45 1548.1 1125.22 1539.27 1136.24L1538.47 1137.14C1530.74 1145.78 1528 1148.84 1521.02 1153.67C1443.69 1193.31 1385.34 1154.95 1367.85 1130.29C1331.8 1067.21 1354.43 1019.5 1369.46 1003.75Z" fill="#40ADE9"/>
<path d="M1011.2 668.583C971.607 704.175 971.04 914.361 975.706 1015L984.704 1057.49C979.105 1027.9 1000.03 950.852 1011.2 916.027C1022.8 876.436 1049.02 861.872 1060.69 859.54C1047.89 817.149 1080.02 749.898 1097.68 721.571C1060.89 715.972 1024.7 683.913 1011.2 668.583Z" fill="url(#paint0_linear)"/>
<path d="M1044.69 580.103C992.702 652.087 1077.68 692.577 1114.18 709.574C1128.34 716.169 1176.86 745.165 1181.66 707.574C1186.46 669.983 1218.99 647.921 1234.65 641.589C1200.66 661.185 1193.16 693.744 1193.66 707.574C1234.65 736.567 1301.8 717.239 1316.63 695.077C1325.43 642.689 1347.79 629.258 1362.13 625.093C1341.33 638.29 1326.13 673.582 1329.13 695.077C1362.13 735.568 1430.11 725.57 1453.11 707.574C1473.1 657.986 1496.1 634.257 1505.1 628.592C1484.3 644.988 1469.44 685.079 1464.6 703.075C1474.2 753.064 1525.26 752.897 1549.59 746.565C1613.57 715.772 1654.23 730.069 1666.56 741.066C1681.76 760.662 1675.56 829.213 1670.56 861.039C1741.75 729.469 1668.73 656.252 1626.07 633.591C1621.27 615.195 1599.41 599.765 1586.08 595.599C1574.48 580.803 1543.42 575.77 1534.59 575.104C1548.59 558.708 1524.09 537.113 1505.1 529.614C1464.6 519.617 1396.12 525.385 1370.62 541.612C1366.22 530.014 1412.11 519.617 1437.61 519.617C1396.82 481.226 1258.65 510.119 1251.15 546.611C1245.65 510.619 1327.47 495.955 1358.63 497.122C1323.63 468.628 1248.65 465.629 1175.66 519.617C1117.28 562.807 1130.01 610.429 1152.17 637.09C1099.68 607.597 1122.18 576.604 1130.17 555.109C1088.18 550.61 1056.69 567.606 1044.69 580.103Z" fill="url(#paint1_linear)"/>
<path d="M1659.56 755.063C1625.57 727.469 1575.41 751.897 1554.59 767.56C1564.92 773.226 1585.58 789.755 1585.58 810.551C1585.58 831.346 1575.91 858.54 1571.08 869.537C1583.75 887.033 1609.87 925.025 1613.07 937.022C1616.27 949.019 1608.74 1042 1604.57 1086.99L1639.57 966.015C1663.96 908.028 1663.06 801.219 1659.56 755.063Z" fill="url(#paint2_linear)"/>
<path d="M1088.68 1296.94L1120.18 1256.45L1139.67 1251.95L1109.18 1290.44L1088.68 1296.94Z" fill="url(#paint3_linear)"/>
<path d="M1120.18 1288.94L1153.67 1246.95L1170.17 1242.45L1140.17 1282.94L1120.18 1288.94Z" fill="url(#paint4_linear)"/>
<path d="M1152.17 1283.44L1181.16 1240.95L1195.66 1237.45L1167.67 1278.44L1152.17 1283.44Z" fill="url(#paint5_linear)"/>
<path d="M1177.16 1278.94L1207.66 1235.95L1223.15 1234.45L1193.66 1276.44L1177.16 1278.94Z" fill="url(#paint6_linear)"/>
<path d="M1201.66 1276.94L1230.65 1236.45H1243.65L1218.16 1274.95L1201.66 1276.94Z" fill="url(#paint7_linear)"/>
<path d="M1225.15 1277.45L1251.65 1237.95H1260.65L1244.15 1274.45L1225.15 1277.45Z" fill="url(#paint8_linear)"/>
<path d="M1251.65 1272.45L1264.15 1239.45L1271.14 1240.95L1264.15 1285.44L1251.65 1272.45Z" fill="url(#paint9_linear)"/>
<path d="M1271.14 1285.94L1276.14 1242.45L1285.14 1240.45V1277.94L1271.14 1285.94Z" fill="url(#paint10_linear)"/>
<path d="M1352.13 1285.94L1333.13 1249.95L1319.13 1243.95L1336.63 1281.94L1352.13 1285.94Z" fill="url(#paint11_linear)"/>
<path d="M1329.13 1281.44L1312.64 1242.95H1302.14L1314.13 1277.94L1329.13 1281.44Z" fill="url(#paint12_linear)"/>
<path d="M1307.64 1275.94L1297.14 1241.95H1289.64L1294.14 1273.94L1307.64 1275.94Z" fill="url(#paint13_linear)"/>
<path d="M1385.62 1299.44L1358.63 1255.95L1341.13 1249.95L1364.12 1290.44L1385.62 1299.44Z" fill="url(#paint14_linear)"/>
<path d="M1414.61 1309.44L1383.62 1261.95L1368.12 1258.45L1393.12 1299.44L1414.61 1309.44Z" fill="url(#paint15_linear)"/>
<path d="M1435.11 1315.94L1409.12 1271.95L1391.12 1263.95L1421.11 1311.94L1435.11 1315.94Z" fill="url(#paint16_linear)"/>
<path d="M1457.11 1321.43L1435.11 1284.44L1413.11 1269.45L1442.11 1316.94L1457.11 1321.43Z" fill="url(#paint17_linear)"/>
<path d="M1104.18 1479.4L1125.17 1460.9H1134.17L1111.68 1486.9L1104.18 1479.4Z" fill="url(#paint18_linear)"/>
<path d="M1402.12 1500.39L1387.12 1478.4L1376.62 1475.4L1394.62 1506.39L1402.12 1500.39Z" fill="url(#paint19_linear)"/>
<path d="M1113.68 1491.4L1138.17 1461.4L1145.67 1463.9L1122.67 1497.89L1113.68 1491.4Z" fill="url(#paint20_linear)"/>
<path d="M1392.62 1508.39L1372.12 1476.4H1362.12L1384.12 1513.89L1392.62 1508.39Z" fill="url(#paint21_linear)"/>
<path d="M1135.17 1506.89L1161.67 1467.4L1168.67 1468.9L1145.67 1513.39L1135.17 1506.89Z" fill="url(#paint22_linear)"/>
<path d="M1124.17 1499.89L1151.67 1463.9L1158.17 1466.4L1132.17 1505.39L1124.17 1499.89Z" fill="url(#paint23_linear)"/>
<path d="M1381.12 1516.39L1358.13 1477.4L1349.13 1479.4L1371.12 1523.89L1381.12 1516.39Z" fill="url(#paint24_linear)"/>
<path d="M1150.17 1517.39L1174.66 1467.9L1184.16 1469.4L1159.67 1523.39L1150.17 1517.39Z" fill="url(#paint25_linear)"/>
<path d="M1367.62 1528.89L1345.13 1480.4H1335.13L1357.13 1535.39L1367.62 1528.89Z" fill="url(#paint26_linear)"/>
<path d="M1163.67 1526.89L1188.66 1470.4H1199.66L1172.66 1531.89L1163.67 1526.89Z" fill="url(#paint27_linear)"/>
<path d="M1352.63 1538.88L1331.13 1480.9H1321.13L1339.13 1543.88L1352.63 1538.88Z" fill="url(#paint28_linear)"/>
<path d="M1179.66 1534.89L1209.66 1467.88H1219.65L1193.66 1540.88L1179.66 1534.89Z" fill="url(#paint29_linear)"/>
<path d="M1332.13 1547.38L1314.14 1480.9L1304.64 1479.4L1316.63 1551.88L1332.13 1547.38Z" fill="url(#paint30_linear)"/>
<path d="M1199.16 1543.38L1227.15 1464.9L1237.65 1466.9L1210.66 1548.38L1199.16 1543.38Z" fill="url(#paint31_linear)"/>
<path d="M1216.16 1551.88L1241.15 1467.9L1251.65 1469.4L1232.65 1555.38L1216.16 1551.88Z" fill="url(#paint32_linear)"/>
<path d="M1244.15 1558.38L1253.65 1472.4H1263.15L1256.65 1558.38H1244.15Z" fill="url(#paint33_linear)"/>
<path d="M1266.15 1557.88L1268.14 1472.9H1278.14L1282.14 1557.88H1266.15Z" fill="url(#paint34_linear)"/>
<path d="M1291.64 1557.88L1287.14 1475.9L1297.64 1477.4L1307.14 1554.88L1291.64 1557.88Z" fill="url(#paint35_linear)"/>
<path d="M1342.13 961.016C1344.13 963.516 1348.46 971.514 1349.63 975.513L1352.13 987.51C1358.13 957.517 1492.93 962.682 1559.58 969.014C1556.38 963.416 1549.92 958.35 1547.09 956.517C1556.68 959.317 1564.08 966.348 1567.58 969.014C1566.38 964.615 1548.75 951.518 1540.09 945.52L1562.58 958.017C1544.59 941.521 1540.09 936.522 1528.09 930.479C1516.09 926.479 1506.6 925.024 1499.1 924.524L1520.59 935.522C1511.39 931.123 1495.1 932.023 1488.1 932.023L1506.1 936.522C1485.6 933.022 1473.6 936.022 1468.1 938.021L1482.1 932.023C1460.6 929.479 1445.61 930.852 1430.11 936.522L1450.61 929.023C1438.11 928.524 1422.11 931.743 1403.62 940.521L1433.11 926.524C1412.11 928.024 1393.62 936.688 1387.12 943.02C1388.32 937.421 1394.95 933.022 1398.12 931.523C1378.12 933.522 1366.12 953.018 1365.12 953.018C1364.32 953.018 1363.79 940.687 1363.62 934.522L1357.63 953.018L1353.63 949.019L1352.13 968.014L1347.63 964.015L1342.13 961.016Z" fill="url(#paint36_linear)"/>
<path d="M1233.15 932.022C1245.55 943.22 1251.65 967.014 1253.15 977.512C1227.15 943.919 1110.34 942.52 1055.19 946.019C1061.59 934.421 1080.85 927.523 1089.68 923.524C1078.08 923.524 1073.19 926.523 1059.19 932.022C1063.35 927.023 1077.78 913.826 1098.18 909.027C1118.58 904.228 1127.67 905.028 1130.67 906.028L1119.68 912.027C1138.67 907.028 1147.17 908.194 1149.67 909.027L1126.67 918.025C1136.17 915.026 1152.47 909.127 1167.67 913.526C1182.86 917.925 1196.83 928.19 1202.16 932.022C1202.56 927.623 1188.16 921.928 1182.66 917.525C1206.66 926.323 1217.99 934.188 1220.65 937.021C1217.46 930.622 1209.49 926.523 1206.16 925.024C1225.75 928.623 1234.99 941.52 1237.15 947.519L1233.15 932.022Z" fill="url(#paint37_linear)"/>
<defs>
<linearGradient id="paint0_linear" x1="1337.06" y1="477" x2="1337.06" y2="1086.99" gradientUnits="userSpaceOnUse">
<stop stop-color="#EF4578"/>
<stop offset="1" stop-color="#F29641"/>
</linearGradient>
<linearGradient id="paint1_linear" x1="1337.06" y1="477" x2="1337.06" y2="1086.99" gradientUnits="userSpaceOnUse">
<stop stop-color="#EF4578"/>
<stop offset="1" stop-color="#F29641"/>
</linearGradient>
<linearGradient id="paint2_linear" x1="1337.06" y1="477" x2="1337.06" y2="1086.99" gradientUnits="userSpaceOnUse">
<stop stop-color="#EF4578"/>
<stop offset="1" stop-color="#F29641"/>
</linearGradient>
<linearGradient id="paint3_linear" x1="1114.18" y1="1251.95" x2="1114.18" y2="1296.94" gradientUnits="userSpaceOnUse">
<stop stop-color="#EF4578"/>
<stop offset="1" stop-color="#F29641"/>
</linearGradient>
<linearGradient id="paint4_linear" x1="1145.17" y1="1242.45" x2="1145.17" y2="1288.94" gradientUnits="userSpaceOnUse">
<stop stop-color="#EF4578"/>
<stop offset="1" stop-color="#F29641"/>
</linearGradient>
<linearGradient id="paint5_linear" x1="1173.91" y1="1237.45" x2="1173.91" y2="1283.44" gradientUnits="userSpaceOnUse">
<stop stop-color="#EF4578"/>
<stop offset="1" stop-color="#F29641"/>
</linearGradient>
<linearGradient id="paint6_linear" x1="1200.16" y1="1234.45" x2="1200.16" y2="1278.94" gradientUnits="userSpaceOnUse">
<stop stop-color="#EF4578"/>
<stop offset="1" stop-color="#F29641"/>
</linearGradient>
<linearGradient id="paint7_linear" x1="1222.65" y1="1236.45" x2="1222.65" y2="1276.94" gradientUnits="userSpaceOnUse">
<stop stop-color="#EF4578"/>
<stop offset="1" stop-color="#F29641"/>
</linearGradient>
<linearGradient id="paint8_linear" x1="1242.9" y1="1237.95" x2="1242.9" y2="1277.45" gradientUnits="userSpaceOnUse">
<stop stop-color="#EF4578"/>
<stop offset="1" stop-color="#F29641"/>
</linearGradient>
<linearGradient id="paint9_linear" x1="1261.4" y1="1239.45" x2="1261.4" y2="1285.44" gradientUnits="userSpaceOnUse">
<stop stop-color="#EF4578"/>
<stop offset="1" stop-color="#F29641"/>
</linearGradient>
<linearGradient id="paint10_linear" x1="1278.14" y1="1240.45" x2="1278.14" y2="1285.94" gradientUnits="userSpaceOnUse">
<stop stop-color="#EF4578"/>
<stop offset="1" stop-color="#F29641"/>
</linearGradient>
<linearGradient id="paint11_linear" x1="1335.63" y1="1243.95" x2="1335.63" y2="1285.94" gradientUnits="userSpaceOnUse">
<stop stop-color="#EF4578"/>
<stop offset="1" stop-color="#F29641"/>
</linearGradient>
<linearGradient id="paint12_linear" x1="1315.63" y1="1242.95" x2="1315.63" y2="1281.44" gradientUnits="userSpaceOnUse">
<stop stop-color="#EF4578"/>
<stop offset="1" stop-color="#F29641"/>
</linearGradient>
<linearGradient id="paint13_linear" x1="1298.64" y1="1241.95" x2="1298.64" y2="1275.94" gradientUnits="userSpaceOnUse">
<stop stop-color="#EF4578"/>
<stop offset="1" stop-color="#F29641"/>
</linearGradient>
<linearGradient id="paint14_linear" x1="1363.37" y1="1249.95" x2="1363.37" y2="1299.44" gradientUnits="userSpaceOnUse">
<stop stop-color="#EF4578"/>
<stop offset="1" stop-color="#F29641"/>
</linearGradient>
<linearGradient id="paint15_linear" x1="1391.37" y1="1258.45" x2="1391.37" y2="1309.44" gradientUnits="userSpaceOnUse">
<stop stop-color="#EF4578"/>
<stop offset="1" stop-color="#F29641"/>
</linearGradient>
<linearGradient id="paint16_linear" x1="1413.11" y1="1263.95" x2="1413.11" y2="1315.94" gradientUnits="userSpaceOnUse">
<stop stop-color="#EF4578"/>
<stop offset="1" stop-color="#F29641"/>
</linearGradient>
<linearGradient id="paint17_linear" x1="1435.11" y1="1269.45" x2="1435.11" y2="1321.43" gradientUnits="userSpaceOnUse">
<stop stop-color="#EF4578"/>
<stop offset="1" stop-color="#F29641"/>
</linearGradient>
<linearGradient id="paint18_linear" x1="1119.18" y1="1460.9" x2="1119.18" y2="1486.9" gradientUnits="userSpaceOnUse">
<stop stop-color="#EF4578"/>
<stop offset="1" stop-color="#F29641"/>
</linearGradient>
<linearGradient id="paint19_linear" x1="1389.37" y1="1475.4" x2="1389.37" y2="1506.39" gradientUnits="userSpaceOnUse">
<stop stop-color="#EF4578"/>
<stop offset="1" stop-color="#F29641"/>
</linearGradient>
<linearGradient id="paint20_linear" x1="1129.67" y1="1461.4" x2="1129.67" y2="1497.89" gradientUnits="userSpaceOnUse">
<stop stop-color="#EF4578"/>
<stop offset="1" stop-color="#F29641"/>
</linearGradient>
<linearGradient id="paint21_linear" x1="1377.37" y1="1476.4" x2="1377.37" y2="1513.89" gradientUnits="userSpaceOnUse">
<stop stop-color="#EF4578"/>
<stop offset="1" stop-color="#F29641"/>
</linearGradient>
<linearGradient id="paint22_linear" x1="1151.92" y1="1467.4" x2="1151.92" y2="1513.39" gradientUnits="userSpaceOnUse">
<stop stop-color="#EF4578"/>
<stop offset="1" stop-color="#F29641"/>
</linearGradient>
<linearGradient id="paint23_linear" x1="1141.17" y1="1463.9" x2="1141.17" y2="1505.39" gradientUnits="userSpaceOnUse">
<stop stop-color="#EF4578"/>
<stop offset="1" stop-color="#F29641"/>
</linearGradient>
<linearGradient id="paint24_linear" x1="1365.12" y1="1477.4" x2="1365.12" y2="1523.89" gradientUnits="userSpaceOnUse">
<stop stop-color="#EF4578"/>
<stop offset="1" stop-color="#F29641"/>
</linearGradient>
<linearGradient id="paint25_linear" x1="1167.17" y1="1467.9" x2="1167.17" y2="1523.39" gradientUnits="userSpaceOnUse">
<stop stop-color="#EF4578"/>
<stop offset="1" stop-color="#F29641"/>
</linearGradient>
<linearGradient id="paint26_linear" x1="1351.38" y1="1480.4" x2="1351.38" y2="1535.39" gradientUnits="userSpaceOnUse">
<stop stop-color="#EF4578"/>
<stop offset="1" stop-color="#F29641"/>
</linearGradient>
<linearGradient id="paint27_linear" x1="1181.66" y1="1470.4" x2="1181.66" y2="1531.89" gradientUnits="userSpaceOnUse">
<stop stop-color="#EF4578"/>
<stop offset="1" stop-color="#F29641"/>
</linearGradient>
<linearGradient id="paint28_linear" x1="1336.88" y1="1480.9" x2="1336.88" y2="1543.88" gradientUnits="userSpaceOnUse">
<stop stop-color="#EF4578"/>
<stop offset="1" stop-color="#F29641"/>
</linearGradient>
<linearGradient id="paint29_linear" x1="1199.66" y1="1467.88" x2="1199.66" y2="1540.88" gradientUnits="userSpaceOnUse">
<stop stop-color="#EF4578"/>
<stop offset="1" stop-color="#F29641"/>
</linearGradient>
<linearGradient id="paint30_linear" x1="1318.38" y1="1479.4" x2="1318.38" y2="1551.88" gradientUnits="userSpaceOnUse">
<stop stop-color="#EF4578"/>
<stop offset="1" stop-color="#F29641"/>
</linearGradient>
<linearGradient id="paint31_linear" x1="1218.41" y1="1464.9" x2="1218.41" y2="1548.38" gradientUnits="userSpaceOnUse">
<stop stop-color="#EF4578"/>
<stop offset="1" stop-color="#F29641"/>
</linearGradient>
<linearGradient id="paint32_linear" x1="1233.9" y1="1467.9" x2="1233.9" y2="1555.38" gradientUnits="userSpaceOnUse">
<stop stop-color="#EF4578"/>
<stop offset="1" stop-color="#F29641"/>
</linearGradient>
<linearGradient id="paint33_linear" x1="1253.65" y1="1472.4" x2="1253.65" y2="1558.38" gradientUnits="userSpaceOnUse">
<stop stop-color="#EF4578"/>
<stop offset="1" stop-color="#F29641"/>
</linearGradient>
<linearGradient id="paint34_linear" x1="1274.14" y1="1472.9" x2="1274.14" y2="1557.88" gradientUnits="userSpaceOnUse">
<stop stop-color="#EF4578"/>
<stop offset="1" stop-color="#F29641"/>
</linearGradient>
<linearGradient id="paint35_linear" x1="1297.14" y1="1475.9" x2="1297.14" y2="1557.88" gradientUnits="userSpaceOnUse">
<stop stop-color="#EF4578"/>
<stop offset="1" stop-color="#F29641"/>
</linearGradient>
<linearGradient id="paint36_linear" x1="1454.86" y1="924.524" x2="1454.86" y2="987.51" gradientUnits="userSpaceOnUse">
<stop stop-color="#EF4578"/>
<stop offset="1" stop-color="#F29641"/>
</linearGradient>
<linearGradient id="paint37_linear" x1="1154.17" y1="905.27" x2="1154.17" y2="977.512" gradientUnits="userSpaceOnUse">
<stop stop-color="#EF4578"/>
<stop offset="1" stop-color="#F29641"/>
</linearGradient>
</defs>
</svg>
